<?xml version="1.0" encoding="UTF-8" standalone="no"?>
<!DOCTYPE svg PUBLIC "-//W3C//DTD SVG 1.1//EN"
 "http://www.w3.org/Graphics/SVG/1.1/DTD/svg11.dtd">
<!-- Generated by graphviz version 2.50.0 (20211204.2007)
 -->
<!-- Title: Physics.Collision.CollisionObject.ApplyRotation Pages: 1 -->
<svg width="494pt" height="88pt"
 viewBox="0.00 0.00 494.00 88.00" xmlns="http://www.w3.org/2000/svg" xmlns:xlink="http://www.w3.org/1999/xlink">
<g id="graph0" class="graph" transform="scale(1 1) rotate(0) translate(4 84)">
<title>Physics.Collision.CollisionObject.ApplyRotation</title>
<polygon fill="white" stroke="transparent" points="-4,4 -4,-84 490,-84 490,4 -4,4"/>
<!-- Node1 -->
<g id="node1" class="node">
<title>Node1</title>
<g id="a_node1"><a xlink:title=" ">
<polygon fill="#bfbfbf" stroke="black" points="353,-24.5 353,-54.5 486,-54.5 486,-24.5 353,-24.5"/>
<text text-anchor="start" x="361" y="-42.5" font-family="Helvetica,sans-Serif" font-size="10.00">Physics.Collision.Collision</text>
<text text-anchor="middle" x="419.5" y="-31.5" font-family="Helvetica,sans-Serif" font-size="10.00">Object.ApplyRotation</text>
</a>
</g>
</g>
<!-- Node2 -->
<g id="node2" class="node">
<title>Node2</title>
<g id="a_node2"><a xlink:href="class_physics_1_1_collision_1_1_collision_object.html#ae7ca75e378460be4294e71af9aa37001" target="_top" xlink:title=" ">
<polygon fill="white" stroke="black" points="184,-49.5 184,-79.5 317,-79.5 317,-49.5 184,-49.5"/>
<text text-anchor="start" x="192" y="-67.5" font-family="Helvetica,sans-Serif" font-size="10.00">Physics.Collision.Collision</text>
<text text-anchor="middle" x="250.5" y="-56.5" font-family="Helvetica,sans-Serif" font-size="10.00">Object.Rotate</text>
</a>
</g>
</g>
<!-- Node1&#45;&gt;Node2 -->
<g id="edge1" class="edge">
<title>Node1&#45;&gt;Node2</title>
<path fill="none" stroke="midnightblue" d="M342.93,-50.81C334.32,-52.1 325.58,-53.41 317.11,-54.68"/>
<polygon fill="midnightblue" stroke="midnightblue" points="343.6,-54.25 352.98,-49.31 342.57,-47.33 343.6,-54.25"/>
</g>
<!-- Node4 -->
<g id="node4" class="node">
<title>Node4</title>
<g id="a_node4"><a xlink:href="class_physics_1_1_collision_1_1_collision_object.html#aadfcbb13752f3b48cee485d349a2580f" target="_top" xlink:title=" ">
<polygon fill="white" stroke="black" points="184,-0.5 184,-30.5 317,-30.5 317,-0.5 184,-0.5"/>
<text text-anchor="start" x="192" y="-18.5" font-family="Helvetica,sans-Serif" font-size="10.00">Physics.Collision.Collision</text>
<text text-anchor="middle" x="250.5" y="-7.5" font-family="Helvetica,sans-Serif" font-size="10.00">Object.RotateTo</text>
</a>
</g>
</g>
<!-- Node1&#45;&gt;Node4 -->
<g id="edge3" class="edge">
<title>Node1&#45;&gt;Node4</title>
<path fill="none" stroke="midnightblue" d="M342.93,-28.64C334.32,-27.4 325.58,-26.15 317.11,-24.93"/>
<polygon fill="midnightblue" stroke="midnightblue" points="342.58,-32.13 352.98,-30.08 343.58,-25.2 342.58,-32.13"/>
</g>
<!-- Node3 -->
<g id="node3" class="node">
<title>Node3</title>
<g id="a_node3"><a xlink:href="class_physics_1_1_collision_object_proxy.html#aa424c4b24d967e4236bd6c16168d563d" target="_top" xlink:title=" ">
<polygon fill="white" stroke="black" points="0,-49.5 0,-79.5 148,-79.5 148,-49.5 0,-49.5"/>
<text text-anchor="start" x="8" y="-67.5" font-family="Helvetica,sans-Serif" font-size="10.00">Physics.CollisionObjectProxy.</text>
<text text-anchor="middle" x="74" y="-56.5" font-family="Helvetica,sans-Serif" font-size="10.00">Update</text>
</a>
</g>
</g>
<!-- Node2&#45;&gt;Node3 -->
<g id="edge2" class="edge">
<title>Node2&#45;&gt;Node3</title>
<path fill="none" stroke="midnightblue" d="M173.37,-64.5C164.97,-64.5 156.43,-64.5 148.07,-64.5"/>
<polygon fill="midnightblue" stroke="midnightblue" points="173.53,-68 183.53,-64.5 173.53,-61 173.53,-68"/>
</g>
</g>
</svg>
