<?xml version="1.0" encoding="UTF-8" standalone="no"?>
<!DOCTYPE svg PUBLIC "-//W3C//DTD SVG 1.1//EN"
 "http://www.w3.org/Graphics/SVG/1.1/DTD/svg11.dtd">
<!-- Generated by graphviz version 2.50.0 (20211204.2007)
 -->
<!-- Title: Physics.PhysicsWorld.Tick Pages: 1 -->
<!--zoomable 567 -->
<svg id="main" version="1.1" xmlns="http://www.w3.org/2000/svg" xmlns:xlink="http://www.w3.org/1999/xlink" xml:space="preserve" onload="init(evt)">
<style type="text/css"><![CDATA[
.edge:hover path { stroke: red; }
.edge:hover polygon { stroke: red; fill: red; }
]]></style>
<script type="text/javascript"><![CDATA[
var edges = document.getElementsByTagName('g');
if (edges && edges.length) {
  for (var i=0;i<edges.length;i++) {
    if (edges[i].id.substr(0,4)=='edge') {
      edges[i].setAttribute('class','edge');
    }
  }
}
]]></script>
        <defs>
                <circle id="rim" cx="0" cy="0" r="7"/>
                <circle id="rim2" cx="0" cy="0" r="3.5"/>
                <g id="zoomPlus">
                        <use xlink:href="#rim" fill="#404040">
                                <set attributeName="fill" to="#808080" begin="zoomplus.mouseover" end="zoomplus.mouseout"/>
                        </use>
                        <path d="M-4,0h8M0,-4v8" fill="none" stroke="white" stroke-width="1.5" pointer-events="none"/>
                </g>
                <g id="zoomMin">
                        <use xlink:href="#rim" fill="#404040">
                                <set attributeName="fill" to="#808080" begin="zoomminus.mouseover" end="zoomminus.mouseout"/>
                        </use>
                        <path d="M-4,0h8" fill="none" stroke="white" stroke-width="1.5" pointer-events="none"/>
                </g>
                <g id="dirArrow">
                        <path fill="none" stroke="white" stroke-width="1.5" d="M0,-3.0v7 M-2.5,-0.5L0,-3.0L2.5,-0.5"/>
                </g>
               <g id="resetDef">
                       <use xlink:href="#rim2" fill="#404040">
                               <set attributeName="fill" to="#808080" begin="reset.mouseover" end="reset.mouseout"/>
                       </use>
               </g>
        </defs>

<script type="text/javascript">
var viewWidth = 1285;
var viewHeight = 567;
var sectionId = 'dynsection-39';
</script>
<script xlink:href="svgpan.js"/>
<svg id="graph" class="graph">
<g id="viewport">
<title>Physics.PhysicsWorld.Tick</title>
<polygon fill="white" stroke="transparent" points="-4,4 -4,-562.92 1281,-562.92 1281,4 -4,4"/>
<!-- Node1 -->
<g id="node1" class="node">
<title>Node1</title>
<g id="a_node1"><a xlink:title=" ">
<polygon fill="#bfbfbf" stroke="black" points="0,-408.92 0,-427.92 137,-427.92 137,-408.92 0,-408.92"/>
<text text-anchor="middle" x="68.5" y="-415.92" font-family="Helvetica,sans-Serif" font-size="10.00">Physics.PhysicsWorld.Tick</text>
</a>
</g>
</g>
<!-- Node2 -->
<g id="node2" class="node">
<title>Node2</title>
<g id="a_node2"><a xlink:href="class_physics_1_1_physics_world.html#a9e0230662c23f57f5f94d9ee9e672487" target="_top" xlink:title=" ">
<polygon fill="white" stroke="black" points="179,-452.42 179,-482.42 322,-482.42 322,-452.42 179,-452.42"/>
<text text-anchor="start" x="187" y="-470.42" font-family="Helvetica,sans-Serif" font-size="10.00">Physics.PhysicsWorld.Apply</text>
<text text-anchor="middle" x="250.5" y="-459.42" font-family="Helvetica,sans-Serif" font-size="10.00">Acceleration</text>
</a>
</g>
</g>
<!-- Node1&#45;&gt;Node2 -->
<g id="edge1" class="edge">
<title>Node1&#45;&gt;Node2</title>
<path fill="none" stroke="midnightblue" d="M104.63,-427.99C127.32,-434.16 157.53,-442.39 184.5,-449.73"/>
<polygon fill="midnightblue" stroke="midnightblue" points="183.69,-453.14 194.26,-452.39 185.53,-446.38 183.69,-453.14"/>
</g>
<!-- Node3 -->
<g id="node3" class="node">
<title>Node3</title>
<g id="a_node3"><a xlink:href="class_physics_1_1_physics_world.html#ab2cb96f774604513627f530a712e9003" target="_top" xlink:title=" ">
<polygon fill="white" stroke="black" points="179,-403.42 179,-433.42 322,-433.42 322,-403.42 179,-403.42"/>
<text text-anchor="start" x="187" y="-421.42" font-family="Helvetica,sans-Serif" font-size="10.00">Physics.PhysicsWorld.Apply</text>
<text text-anchor="middle" x="250.5" y="-410.42" font-family="Helvetica,sans-Serif" font-size="10.00">Velocity</text>
</a>
</g>
</g>
<!-- Node1&#45;&gt;Node3 -->
<g id="edge2" class="edge">
<title>Node1&#45;&gt;Node3</title>
<path fill="none" stroke="midnightblue" d="M137.04,-418.42C147.39,-418.42 158.18,-418.42 168.78,-418.42"/>
<polygon fill="midnightblue" stroke="midnightblue" points="168.88,-421.92 178.88,-418.42 168.88,-414.92 168.88,-421.92"/>
</g>
<!-- Node11 -->
<g id="node11" class="node">
<title>Node11</title>
<g id="a_node11"><a xlink:href="class_physics_1_1_physics_world.html#a516968c71000684ea688d080074d0ec8" target="_top" xlink:title=" ">
<polygon fill="white" stroke="black" points="173,-330.42 173,-360.42 328,-360.42 328,-330.42 173,-330.42"/>
<text text-anchor="start" x="181" y="-348.42" font-family="Helvetica,sans-Serif" font-size="10.00">Physics.PhysicsWorld.Collision</text>
<text text-anchor="middle" x="250.5" y="-337.42" font-family="Helvetica,sans-Serif" font-size="10.00">Detection</text>
</a>
</g>
</g>
<!-- Node1&#45;&gt;Node11 -->
<g id="edge10" class="edge">
<title>Node1&#45;&gt;Node11</title>
<path fill="none" stroke="midnightblue" d="M93.03,-408.88C120.73,-397.64 167.41,-378.71 202.59,-364.45"/>
<polygon fill="midnightblue" stroke="midnightblue" points="204.23,-367.56 212.18,-360.56 201.6,-361.07 204.23,-367.56"/>
</g>
<!-- Node4 -->
<g id="node4" class="node">
<title>Node4</title>
<g id="a_node4"><a xlink:href="class_physics_1_1_collision_1_1_collision_object.html#a08bb2ab0fee9cf7f7b6af438d3b2d1db" target="_top" xlink:title=" ">
<polygon fill="white" stroke="black" points="372,-492.42 372,-522.42 505,-522.42 505,-492.42 372,-492.42"/>
<text text-anchor="start" x="380" y="-510.42" font-family="Helvetica,sans-Serif" font-size="10.00">Physics.Collision.Collision</text>
<text text-anchor="middle" x="438.5" y="-499.42" font-family="Helvetica,sans-Serif" font-size="10.00">Object.ApplyPosition</text>
</a>
</g>
</g>
<!-- Node3&#45;&gt;Node4 -->
<g id="edge3" class="edge">
<title>Node3&#45;&gt;Node4</title>
<path fill="none" stroke="midnightblue" d="M310.07,-433.44C316.32,-436.02 322.43,-438.99 328,-442.42 347.54,-454.44 344.83,-466.82 364,-479.42 368.9,-482.64 374.22,-485.57 379.68,-488.21"/>
<polygon fill="midnightblue" stroke="midnightblue" points="378.41,-491.48 388.97,-492.39 381.29,-485.09 378.41,-491.48"/>
</g>
<!-- Node9 -->
<g id="node9" class="node">
<title>Node9</title>
<g id="a_node9"><a xlink:href="class_physics_1_1_collision_1_1_collision_object.html#a7a805a42fc5c86aff1715e9ce7f77d48" target="_top" xlink:title=" ">
<polygon fill="white" stroke="black" points="366,-440.42 366,-470.42 511,-470.42 511,-440.42 366,-440.42"/>
<text text-anchor="start" x="374" y="-458.42" font-family="Helvetica,sans-Serif" font-size="10.00">Physics.Collision.Collision</text>
<text text-anchor="middle" x="438.5" y="-447.42" font-family="Helvetica,sans-Serif" font-size="10.00">Object.CleanResolveVelocity</text>
</a>
</g>
</g>
<!-- Node3&#45;&gt;Node9 -->
<g id="edge8" class="edge">
<title>Node3&#45;&gt;Node9</title>
<path fill="none" stroke="midnightblue" d="M322.08,-432.46C333.13,-434.66 344.63,-436.95 355.9,-439.19"/>
<polygon fill="midnightblue" stroke="midnightblue" points="355.24,-442.63 365.73,-441.15 356.6,-435.76 355.24,-442.63"/>
</g>
<!-- Node10 -->
<g id="node10" class="node">
<title>Node10</title>
<g id="a_node10"><a xlink:href="class_physics_1_1_collision_1_1_collision_object.html#a1d619f33e85ae72c0cfa06fddbad7655" target="_top" xlink:title=" ">
<polygon fill="white" stroke="black" points="372,-391.42 372,-421.42 505,-421.42 505,-391.42 372,-391.42"/>
<text text-anchor="start" x="380" y="-409.42" font-family="Helvetica,sans-Serif" font-size="10.00">Physics.Collision.Collision</text>
<text text-anchor="middle" x="438.5" y="-398.42" font-family="Helvetica,sans-Serif" font-size="10.00">Object.Translate</text>
</a>
</g>
</g>
<!-- Node3&#45;&gt;Node10 -->
<g id="edge9" class="edge">
<title>Node3&#45;&gt;Node10</title>
<path fill="none" stroke="midnightblue" d="M322.08,-413.87C334.98,-413.04 348.48,-412.17 361.52,-411.32"/>
<polygon fill="midnightblue" stroke="midnightblue" points="362.11,-414.79 371.86,-410.66 361.66,-407.81 362.11,-414.79"/>
</g>
<!-- Node5 -->
<g id="node5" class="node">
<title>Node5</title>
<g id="a_node5"><a xlink:href="class_physics_1_1_collision_1_1_shape_1_1_collision_shape.html#aa2888c2955c43fcd2adb654e88db7183" target="_top" xlink:title=" ">
<polygon fill="white" stroke="black" points="549,-500.42 549,-530.42 719,-530.42 719,-500.42 549,-500.42"/>
<text text-anchor="start" x="557" y="-518.42" font-family="Helvetica,sans-Serif" font-size="10.00">Physics.Collision.Shape.</text>
<text text-anchor="middle" x="634" y="-507.42" font-family="Helvetica,sans-Serif" font-size="10.00">CollisionShape.ApplyWorldVertices</text>
</a>
</g>
</g>
<!-- Node4&#45;&gt;Node5 -->
<g id="edge4" class="edge">
<title>Node4&#45;&gt;Node5</title>
<path fill="none" stroke="midnightblue" d="M505.01,-510.13C515.76,-510.57 527.08,-511.04 538.36,-511.51"/>
<polygon fill="midnightblue" stroke="midnightblue" points="538.55,-515.02 548.69,-511.94 538.84,-508.03 538.55,-515.02"/>
</g>
<!-- Node6 -->
<g id="node6" class="node">
<title>Node6</title>
<g id="a_node6"><a xlink:href="class_physics_1_1_collision_1_1_shape_1_1_collision_shape.html#ab236eb056356a1dd7e657c4154a58441" target="_top" xlink:title=" ">
<polygon fill="white" stroke="black" points="760.5,-504.42 760.5,-534.42 904.5,-534.42 904.5,-504.42 760.5,-504.42"/>
<text text-anchor="start" x="768.5" y="-522.42" font-family="Helvetica,sans-Serif" font-size="10.00">Physics.Collision.Shape.</text>
<text text-anchor="middle" x="832.5" y="-511.42" font-family="Helvetica,sans-Serif" font-size="10.00">CollisionShape.UpdateShape</text>
</a>
</g>
</g>
<!-- Node5&#45;&gt;Node6 -->
<g id="edge5" class="edge">
<title>Node5&#45;&gt;Node6</title>
<path fill="none" stroke="midnightblue" d="M719.19,-517.14C729.5,-517.35 740.02,-517.56 750.29,-517.77"/>
<polygon fill="midnightblue" stroke="midnightblue" points="750.39,-521.27 760.46,-517.98 750.53,-514.27 750.39,-521.27"/>
</g>
<!-- Node7 -->
<g id="node7" class="node">
<title>Node7</title>
<g id="a_node7"><a xlink:href="class_physics_1_1_collision_1_1_model_1_1_a_a_b_b.html#aab605aa58d0da2a571db877bb277f9dc" target="_top" xlink:title=" ">
<polygon fill="white" stroke="black" points="961,-479.42 961,-509.42 1086,-509.42 1086,-479.42 961,-479.42"/>
<text text-anchor="start" x="969" y="-497.42" font-family="Helvetica,sans-Serif" font-size="10.00">Physics.Collision.Model.</text>
<text text-anchor="middle" x="1023.5" y="-486.42" font-family="Helvetica,sans-Serif" font-size="10.00">AABB.Apply</text>
</a>
</g>
</g>
<!-- Node6&#45;&gt;Node7 -->
<g id="edge6" class="edge">
<title>Node6&#45;&gt;Node7</title>
<path fill="none" stroke="midnightblue" d="M904.68,-510.01C919.73,-508.02 935.62,-505.91 950.69,-503.92"/>
<polygon fill="midnightblue" stroke="midnightblue" points="951.52,-507.34 960.98,-502.56 950.6,-500.4 951.52,-507.34"/>
</g>
<!-- Node8 -->
<g id="node8" class="node">
<title>Node8</title>
<g id="a_node8"><a xlink:href="class_physics_1_1_collision_1_1_shape_1_1_collision_shape.html#af5247f1c8125a229c2be17f898608269" target="_top" xlink:title=" ">
<polygon fill="white" stroke="black" points="959.5,-528.42 959.5,-558.42 1087.5,-558.42 1087.5,-528.42 959.5,-528.42"/>
<text text-anchor="start" x="967.5" y="-546.42" font-family="Helvetica,sans-Serif" font-size="10.00">Physics.Collision.Shape.</text>
<text text-anchor="middle" x="1023.5" y="-535.42" font-family="Helvetica,sans-Serif" font-size="10.00">CollisionShape.GetBound</text>
</a>
</g>
</g>
<!-- Node6&#45;&gt;Node8 -->
<g id="edge7" class="edge">
<title>Node6&#45;&gt;Node8</title>
<path fill="none" stroke="midnightblue" d="M904.68,-528.46C919.31,-530.32 934.72,-532.28 949.41,-534.14"/>
<polygon fill="midnightblue" stroke="midnightblue" points="949.09,-537.63 959.45,-535.42 949.97,-530.68 949.09,-537.63"/>
</g>
<!-- Node12 -->
<g id="node12" class="node">
<title>Node12</title>
<g id="a_node12"><a xlink:href="class_physics_1_1_physics_world.html#a9fb900baebfc430f003c9810c5ffb676" target="_top" xlink:title=" ">
<polygon fill="white" stroke="black" points="367,-330.42 367,-360.42 510,-360.42 510,-330.42 367,-330.42"/>
<text text-anchor="start" x="375" y="-348.42" font-family="Helvetica,sans-Serif" font-size="10.00">Physics.PhysicsWorld.Broad</text>
<text text-anchor="middle" x="438.5" y="-337.42" font-family="Helvetica,sans-Serif" font-size="10.00">Phase</text>
</a>
</g>
</g>
<!-- Node11&#45;&gt;Node12 -->
<g id="edge11" class="edge">
<title>Node11&#45;&gt;Node12</title>
<path fill="none" stroke="midnightblue" d="M328.23,-345.42C337.63,-345.42 347.27,-345.42 356.73,-345.42"/>
<polygon fill="midnightblue" stroke="midnightblue" points="356.92,-348.92 366.92,-345.42 356.92,-341.92 356.92,-348.92"/>
</g>
<!-- Node16 -->
<g id="node16" class="node">
<title>Node16</title>
<g id="a_node16"><a xlink:href="class_physics_1_1_physics_world.html#ab505479deb9b79c8d1c5edd3957c8e49" target="_top" xlink:title=" ">
<polygon fill="white" stroke="black" points="364,-275.42 364,-305.42 513,-305.42 513,-275.42 364,-275.42"/>
<text text-anchor="start" x="372" y="-293.42" font-family="Helvetica,sans-Serif" font-size="10.00">Physics.PhysicsWorld.Narrow</text>
<text text-anchor="middle" x="438.5" y="-282.42" font-family="Helvetica,sans-Serif" font-size="10.00">Phase</text>
</a>
</g>
</g>
<!-- Node11&#45;&gt;Node16 -->
<g id="edge15" class="edge">
<title>Node11&#45;&gt;Node16</title>
<path fill="none" stroke="midnightblue" d="M302.33,-330.39C325.39,-323.57 352.85,-315.45 376.97,-308.32"/>
<polygon fill="midnightblue" stroke="midnightblue" points="378.14,-311.62 386.74,-305.43 376.15,-304.91 378.14,-311.62"/>
</g>
<!-- Node13 -->
<g id="node13" class="node">
<title>Node13</title>
<g id="a_node13"><a xlink:href="class_physics_1_1_tool_1_1_physics_cache_pool.html#ad34177ed5fc07b1f58b468485b9f50f2" target="_top" xlink:title=" ">
<polygon fill="white" stroke="black" points="564,-319.42 564,-349.42 704,-349.42 704,-319.42 564,-319.42"/>
<text text-anchor="start" x="572" y="-337.42" font-family="Helvetica,sans-Serif" font-size="10.00">Physics.Tool.PhysicsCache</text>
<text text-anchor="middle" x="634" y="-326.42" font-family="Helvetica,sans-Serif" font-size="10.00">Pool.RecycleCollisionPair</text>
</a>
</g>
</g>
<!-- Node12&#45;&gt;Node13 -->
<g id="edge12" class="edge">
<title>Node12&#45;&gt;Node13</title>
<path fill="none" stroke="midnightblue" d="M510.18,-341.4C524.25,-340.6 539.12,-339.76 553.47,-338.94"/>
<polygon fill="midnightblue" stroke="midnightblue" points="554.02,-342.42 563.8,-338.36 553.62,-335.43 554.02,-342.42"/>
</g>
<!-- Node14 -->
<g id="node14" class="node">
<title>Node14</title>
<g id="a_node14"><a xlink:href="class_physics_1_1_physics_world.html#ac2f42a51005358723ff89d9021d64d59" target="_top" xlink:title=" ">
<polygon fill="white" stroke="black" points="560,-413.42 560,-443.42 708,-443.42 708,-413.42 560,-413.42"/>
<text text-anchor="start" x="568" y="-431.42" font-family="Helvetica,sans-Serif" font-size="10.00">Physics.PhysicsWorld.Sweep</text>
<text text-anchor="middle" x="634" y="-420.42" font-family="Helvetica,sans-Serif" font-size="10.00">AndPrune</text>
</a>
</g>
</g>
<!-- Node12&#45;&gt;Node14 -->
<g id="edge13" class="edge">
<title>Node12&#45;&gt;Node14</title>
<path fill="none" stroke="midnightblue" d="M474.54,-360.45C506.5,-374.16 553.87,-394.48 588.49,-409.33"/>
<polygon fill="midnightblue" stroke="midnightblue" points="587.32,-412.64 597.89,-413.36 590.08,-406.2 587.32,-412.64"/>
</g>
<!-- Node15 -->
<g id="node15" class="node">
<title>Node15</title>
<g id="a_node15"><a xlink:href="class_physics_1_1_tool_1_1_physics_cache_pool.html#a1f50c13a4660d05aa10058bb9bec5e5e" target="_top" xlink:title=" ">
<polygon fill="white" stroke="black" points="756.5,-455.42 756.5,-485.42 908.5,-485.42 908.5,-455.42 756.5,-455.42"/>
<text text-anchor="start" x="764.5" y="-473.42" font-family="Helvetica,sans-Serif" font-size="10.00">Physics.Tool.PhysicsCache</text>
<text text-anchor="middle" x="832.5" y="-462.42" font-family="Helvetica,sans-Serif" font-size="10.00">Pool.GetCollisionPairFromPool</text>
</a>
</g>
</g>
<!-- Node14&#45;&gt;Node15 -->
<g id="edge14" class="edge">
<title>Node14&#45;&gt;Node15</title>
<path fill="none" stroke="midnightblue" d="M705.39,-443.47C720.29,-446.65 736.13,-450.04 751.37,-453.29"/>
<polygon fill="midnightblue" stroke="midnightblue" points="750.76,-456.74 761.28,-455.41 752.23,-449.9 750.76,-456.74"/>
</g>
<!-- Node16&#45;&gt;Node13 -->
<g id="edge43" class="edge">
<title>Node16&#45;&gt;Node13</title>
<path fill="none" stroke="midnightblue" d="M505.55,-305.44C522.12,-309.21 540.02,-313.28 557.03,-317.15"/>
<polygon fill="midnightblue" stroke="midnightblue" points="556.39,-320.59 566.92,-319.4 557.94,-313.77 556.39,-320.59"/>
</g>
<!-- Node17 -->
<g id="node17" class="node">
<title>Node17</title>
<g id="a_node17"><a xlink:href="class_physics_1_1_physics_world.html#a981b90f47065fded56b0145083aac984" target="_top" xlink:title=" ">
<polygon fill="white" stroke="black" points="565.5,-268.92 565.5,-287.92 702.5,-287.92 702.5,-268.92 565.5,-268.92"/>
<text text-anchor="middle" x="634" y="-275.92" font-family="Helvetica,sans-Serif" font-size="10.00">Physics.PhysicsWorld.EPA</text>
</a>
</g>
</g>
<!-- Node16&#45;&gt;Node17 -->
<g id="edge16" class="edge">
<title>Node16&#45;&gt;Node17</title>
<path fill="none" stroke="midnightblue" d="M513.21,-285.85C526.96,-285 541.37,-284.1 555.24,-283.24"/>
<polygon fill="midnightblue" stroke="midnightblue" points="555.46,-286.74 565.22,-282.63 555.02,-279.75 555.46,-286.74"/>
</g>
<!-- Node34 -->
<g id="node34" class="node">
<title>Node34</title>
<g id="a_node34"><a xlink:href="class_physics_1_1_physics_world.html#abbda8b52c5f3c0cf86ac64fbc64fd69e" target="_top" xlink:title=" ">
<polygon fill="white" stroke="black" points="565.5,-103.92 565.5,-122.92 702.5,-122.92 702.5,-103.92 565.5,-103.92"/>
<text text-anchor="middle" x="634" y="-110.92" font-family="Helvetica,sans-Serif" font-size="10.00">Physics.PhysicsWorld.GJK</text>
</a>
</g>
</g>
<!-- Node16&#45;&gt;Node34 -->
<g id="edge37" class="edge">
<title>Node16&#45;&gt;Node34</title>
<path fill="none" stroke="midnightblue" d="M456,-275.33C492.02,-242.38 577.49,-164.19 614.92,-129.96"/>
<polygon fill="midnightblue" stroke="midnightblue" points="617.53,-132.32 622.55,-122.99 612.8,-127.15 617.53,-132.32"/>
</g>
<!-- Node18 -->
<g id="node18" class="node">
<title>Node18</title>
<g id="a_node18"><a xlink:href="class_physics_1_1_collision_1_1_model_1_1_simplex_edge.html#a816ccd6c203d0952fdcf318cbf628be2" target="_top" xlink:title=" ">
<polygon fill="white" stroke="black" points="756.5,-210.42 756.5,-240.42 908.5,-240.42 908.5,-210.42 756.5,-210.42"/>
<text text-anchor="start" x="764.5" y="-228.42" font-family="Helvetica,sans-Serif" font-size="10.00">Physics.Collision.Model.</text>
<text text-anchor="middle" x="832.5" y="-217.42" font-family="Helvetica,sans-Serif" font-size="10.00">SimplexEdge.FindClosestEdge</text>
</a>
</g>
</g>
<!-- Node17&#45;&gt;Node18 -->
<g id="edge17" class="edge">
<title>Node17&#45;&gt;Node18</title>
<path fill="none" stroke="midnightblue" d="M670.58,-268.82C697.15,-261.66 734.19,-251.67 766.05,-243.08"/>
<polygon fill="midnightblue" stroke="midnightblue" points="767,-246.44 775.75,-240.46 765.18,-239.68 767,-246.44"/>
</g>
<!-- Node19 -->
<g id="node19" class="node">
<title>Node19</title>
<g id="a_node19"><a xlink:href="class_physics_1_1_physics_world.html#a5ea0895316da17449ff1352e2610ba59" target="_top" xlink:title=" ">
<polygon fill="white" stroke="black" points="764,-122.42 764,-152.42 901,-152.42 901,-122.42 764,-122.42"/>
<text text-anchor="start" x="772" y="-140.42" font-family="Helvetica,sans-Serif" font-size="10.00">Physics.PhysicsWorld.Find</text>
<text text-anchor="middle" x="832.5" y="-129.42" font-family="Helvetica,sans-Serif" font-size="10.00">NextDirection</text>
</a>
</g>
</g>
<!-- Node17&#45;&gt;Node19 -->
<g id="edge18" class="edge">
<title>Node17&#45;&gt;Node19</title>
<path fill="none" stroke="midnightblue" d="M642.33,-268.82C659.59,-246.85 705.11,-192.47 755,-162.42 758.57,-160.27 762.34,-158.28 766.23,-156.45"/>
<polygon fill="midnightblue" stroke="midnightblue" points="767.67,-159.64 775.45,-152.44 764.88,-153.22 767.67,-159.64"/>
</g>
<!-- Node21 -->
<g id="node21" class="node">
<title>Node21</title>
<g id="a_node21"><a xlink:href="class_physics_1_1_tool_1_1_physics_cache_pool.html#ab67193fe66ad5ef639e0f88a9b1a79ec" target="_top" xlink:title=" ">
<polygon fill="white" stroke="black" points="755,-406.42 755,-436.42 910,-436.42 910,-406.42 755,-406.42"/>
<text text-anchor="start" x="763" y="-424.42" font-family="Helvetica,sans-Serif" font-size="10.00">Physics.Tool.PhysicsCache</text>
<text text-anchor="middle" x="832.5" y="-413.42" font-family="Helvetica,sans-Serif" font-size="10.00">Pool.GetSimplexEdgeFromPool</text>
</a>
</g>
</g>
<!-- Node17&#45;&gt;Node21 -->
<g id="edge20" class="edge">
<title>Node17&#45;&gt;Node21</title>
<path fill="none" stroke="midnightblue" d="M681.13,-287.93C694.65,-292.57 708.58,-299.4 719,-309.42 749.16,-338.43 724.3,-367.99 755,-396.42 756.71,-398 758.52,-399.49 760.41,-400.87"/>
<polygon fill="midnightblue" stroke="midnightblue" points="758.82,-404.01 769.15,-406.38 762.55,-398.09 758.82,-404.01"/>
</g>
<!-- Node22 -->
<g id="node22" class="node">
<title>Node22</title>
<g id="a_node22"><a xlink:href="class_physics_1_1_collision_1_1_model_1_1_simplex_edge.html#ac435eb94635850bd1dbf75897fee68b7" target="_top" xlink:title=" ">
<polygon fill="white" stroke="black" points="770,-259.42 770,-289.42 895,-289.42 895,-259.42 770,-259.42"/>
<text text-anchor="start" x="778" y="-277.42" font-family="Helvetica,sans-Serif" font-size="10.00">Physics.Collision.Model.</text>
<text text-anchor="middle" x="832.5" y="-266.42" font-family="Helvetica,sans-Serif" font-size="10.00">SimplexEdge.InitEdges</text>
</a>
</g>
</g>
<!-- Node17&#45;&gt;Node22 -->
<g id="edge21" class="edge">
<title>Node17&#45;&gt;Node22</title>
<path fill="none" stroke="midnightblue" d="M702.62,-277.05C720.98,-276.67 740.93,-276.27 759.52,-275.89"/>
<polygon fill="midnightblue" stroke="midnightblue" points="759.76,-279.38 769.69,-275.68 759.62,-272.38 759.76,-279.38"/>
</g>
<!-- Node27 -->
<g id="node27" class="node">
<title>Node27</title>
<g id="a_node27"><a xlink:href="class_physics_1_1_collision_1_1_model_1_1_simplex_edge.html#ae349a32da5778aa885c6f5b1e7153350" target="_top" xlink:title=" ">
<polygon fill="white" stroke="black" points="759,-308.42 759,-338.42 906,-338.42 906,-308.42 759,-308.42"/>
<text text-anchor="start" x="767" y="-326.42" font-family="Helvetica,sans-Serif" font-size="10.00">Physics.Collision.Model.</text>
<text text-anchor="middle" x="832.5" y="-315.42" font-family="Helvetica,sans-Serif" font-size="10.00">SimplexEdge.InsertEdgePoint</text>
</a>
</g>
</g>
<!-- Node17&#45;&gt;Node27 -->
<g id="edge26" class="edge">
<title>Node17&#45;&gt;Node27</title>
<path fill="none" stroke="midnightblue" d="M676.67,-287.97C699.75,-293.25 729.14,-299.98 756.11,-306.16"/>
<polygon fill="midnightblue" stroke="midnightblue" points="755.39,-309.58 765.91,-308.4 756.95,-302.76 755.39,-309.58"/>
</g>
<!-- Node30 -->
<g id="node30" class="node">
<title>Node30</title>
<g id="a_node30"><a xlink:href="class_physics_1_1_tool_1_1_physics_cache_pool.html#adb2db95c9b826ec9e9b3a31025adc8c6" target="_top" xlink:title=" ">
<polygon fill="white" stroke="black" points="762.5,-357.42 762.5,-387.42 902.5,-387.42 902.5,-357.42 762.5,-357.42"/>
<text text-anchor="start" x="770.5" y="-375.42" font-family="Helvetica,sans-Serif" font-size="10.00">Physics.Tool.PhysicsCache</text>
<text text-anchor="middle" x="832.5" y="-364.42" font-family="Helvetica,sans-Serif" font-size="10.00">Pool.RecycleSimplexEdge</text>
</a>
</g>
</g>
<!-- Node17&#45;&gt;Node30 -->
<g id="edge32" class="edge">
<title>Node17&#45;&gt;Node30</title>
<path fill="none" stroke="midnightblue" d="M671.87,-287.98C687.21,-292.96 704.73,-300.01 719,-309.42 738.42,-322.23 735.34,-334.98 755,-347.42 758.29,-349.51 761.78,-351.43 765.37,-353.21"/>
<polygon fill="midnightblue" stroke="midnightblue" points="763.93,-356.4 774.48,-357.33 766.81,-350.02 763.93,-356.4"/>
</g>
<!-- Node32 -->
<g id="node32" class="node">
<title>Node32</title>
<g id="a_node32"><a xlink:href="class_physics_1_1_physics_world.html#af1aadffc2ad0f1b13391fe5eb1f4e703" target="_top" xlink:title=" ">
<polygon fill="white" stroke="black" points="756.5,-171.92 756.5,-190.92 908.5,-190.92 908.5,-171.92 756.5,-171.92"/>
<text text-anchor="middle" x="832.5" y="-178.92" font-family="Helvetica,sans-Serif" font-size="10.00">Physics.PhysicsWorld.Support</text>
</a>
</g>
</g>
<!-- Node17&#45;&gt;Node32 -->
<g id="edge35" class="edge">
<title>Node17&#45;&gt;Node32</title>
<path fill="none" stroke="midnightblue" d="M646.83,-268.78C667.52,-252.38 712.16,-219.04 755,-200.42 760.68,-197.95 766.75,-195.76 772.89,-193.83"/>
<polygon fill="midnightblue" stroke="midnightblue" points="773.93,-197.17 782.54,-191 771.96,-190.45 773.93,-197.17"/>
</g>
<!-- Node20 -->
<g id="node20" class="node">
<title>Node20</title>
<g id="a_node20"><a xlink:href="class_physics_1_1_tool_1_1_physics_tool.html#a7b559484401a2cc211847f49cff64dbc" target="_top" xlink:title=" ">
<polygon fill="white" stroke="black" points="957.5,-46.42 957.5,-76.42 1089.5,-76.42 1089.5,-46.42 957.5,-46.42"/>
<text text-anchor="start" x="965.5" y="-64.42" font-family="Helvetica,sans-Serif" font-size="10.00">Physics.Tool.PhysicsTool.</text>
<text text-anchor="middle" x="1023.5" y="-53.42" font-family="Helvetica,sans-Serif" font-size="10.00">GetClosestPointToOrigin</text>
</a>
</g>
</g>
<!-- Node19&#45;&gt;Node20 -->
<g id="edge19" class="edge">
<title>Node19&#45;&gt;Node20</title>
<path fill="none" stroke="midnightblue" d="M882.35,-122.35C891.6,-119.24 901.14,-115.86 910,-112.42 934.38,-102.95 961.06,-90.93 982.32,-80.93"/>
<polygon fill="midnightblue" stroke="midnightblue" points="983.83,-84.09 991.37,-76.65 980.84,-77.76 983.83,-84.09"/>
</g>
<!-- Node23 -->
<g id="node23" class="node">
<title>Node23</title>
<g id="a_node23"><a xlink:href="class_physics_1_1_collision_1_1_model_1_1_simplex_edge.html#aa9b0228aaaf6885ee72668b11e1b22da" target="_top" xlink:title=" ">
<polygon fill="white" stroke="black" points="952,-210.42 952,-240.42 1095,-240.42 1095,-210.42 952,-210.42"/>
<text text-anchor="start" x="960" y="-228.42" font-family="Helvetica,sans-Serif" font-size="10.00">Physics.Collision.Model.</text>
<text text-anchor="middle" x="1023.5" y="-217.42" font-family="Helvetica,sans-Serif" font-size="10.00">SimplexEdge.CreateInitEdge</text>
</a>
</g>
</g>
<!-- Node22&#45;&gt;Node23 -->
<g id="edge22" class="edge">
<title>Node22&#45;&gt;Node23</title>
<path fill="none" stroke="midnightblue" d="M891.49,-259.39C911.54,-254.19 934.17,-248.32 954.92,-242.94"/>
<polygon fill="midnightblue" stroke="midnightblue" points="955.82,-246.33 964.62,-240.43 954.06,-239.55 955.82,-246.33"/>
</g>
<!-- Node26 -->
<g id="node26" class="node">
<title>Node26</title>
<g id="a_node26"><a xlink:href="class_physics_1_1_collision_1_1_model_1_1_simplex_edge.html#a536f768434ce96fc78fe67adf4e0c9ed" target="_top" xlink:title=" ">
<polygon fill="white" stroke="black" points="946,-259.42 946,-289.42 1101,-289.42 1101,-259.42 946,-259.42"/>
<text text-anchor="start" x="954" y="-277.42" font-family="Helvetica,sans-Serif" font-size="10.00">Physics.Collision.Model.</text>
<text text-anchor="middle" x="1023.5" y="-266.42" font-family="Helvetica,sans-Serif" font-size="10.00">SimplexEdge.UpdateEdgeIndex</text>
</a>
</g>
</g>
<!-- Node22&#45;&gt;Node26 -->
<g id="edge25" class="edge">
<title>Node22&#45;&gt;Node26</title>
<path fill="none" stroke="midnightblue" d="M895.12,-274.42C908,-274.42 921.81,-274.42 935.41,-274.42"/>
<polygon fill="midnightblue" stroke="midnightblue" points="935.75,-277.92 945.75,-274.42 935.75,-270.92 935.75,-277.92"/>
</g>
<!-- Node24 -->
<g id="node24" class="node">
<title>Node24</title>
<g id="a_node24"><a xlink:href="class_physics_1_1_tool_1_1_physics_cache_pool.html#a5632346a5a6c8029427ce1ec41cc1edc" target="_top" xlink:title=" ">
<polygon fill="white" stroke="black" points="1137,-229.42 1137,-259.42 1277,-259.42 1277,-229.42 1137,-229.42"/>
<text text-anchor="start" x="1145" y="-247.42" font-family="Helvetica,sans-Serif" font-size="10.00">Physics.Tool.PhysicsCache</text>
<text text-anchor="middle" x="1207" y="-236.42" font-family="Helvetica,sans-Serif" font-size="10.00">Pool.GetEdgeFromPool</text>
</a>
</g>
</g>
<!-- Node23&#45;&gt;Node24 -->
<g id="edge23" class="edge">
<title>Node23&#45;&gt;Node24</title>
<path fill="none" stroke="midnightblue" d="M1095.19,-232.82C1105.6,-233.91 1116.38,-235.04 1126.95,-236.15"/>
<polygon fill="midnightblue" stroke="midnightblue" points="1126.68,-239.64 1136.99,-237.2 1127.41,-232.68 1126.68,-239.64"/>
</g>
<!-- Node25 -->
<g id="node25" class="node">
<title>Node25</title>
<g id="a_node25"><a xlink:href="class_physics_1_1_tool_1_1_physics_tool.html#ae7347b7ed11fb2a7a4e78afe07d8a4d2" target="_top" xlink:title=" ">
<polygon fill="white" stroke="black" points="1141,-300.42 1141,-330.42 1273,-330.42 1273,-300.42 1141,-300.42"/>
<text text-anchor="start" x="1149" y="-318.42" font-family="Helvetica,sans-Serif" font-size="10.00">Physics.Tool.PhysicsTool.</text>
<text text-anchor="middle" x="1207" y="-307.42" font-family="Helvetica,sans-Serif" font-size="10.00">GetPerpendicularToOrigin</text>
</a>
</g>
</g>
<!-- Node23&#45;&gt;Node25 -->
<g id="edge24" class="edge">
<title>Node23&#45;&gt;Node25</title>
<path fill="none" stroke="midnightblue" d="M1078.66,-240.5C1086.28,-243.17 1093.92,-246.15 1101,-249.42 1128.2,-261.98 1156.84,-280.38 1177.33,-294.57"/>
<polygon fill="midnightblue" stroke="midnightblue" points="1175.39,-297.48 1185.59,-300.36 1179.41,-291.75 1175.39,-297.48"/>
</g>
<!-- Node27&#45;&gt;Node26 -->
<g id="edge31" class="edge">
<title>Node27&#45;&gt;Node26</title>
<path fill="none" stroke="midnightblue" d="M891.49,-308.39C911.54,-303.19 934.17,-297.32 954.92,-291.94"/>
<polygon fill="midnightblue" stroke="midnightblue" points="955.82,-295.33 964.62,-289.43 954.06,-288.55 955.82,-295.33"/>
</g>
<!-- Node28 -->
<g id="node28" class="node">
<title>Node28</title>
<g id="a_node28"><a xlink:href="class_physics_1_1_collision_1_1_model_1_1_simplex_edge.html#a46b8494a6a6088235c2b1bb272cdb8ba" target="_top" xlink:title=" ">
<polygon fill="white" stroke="black" points="959,-308.42 959,-338.42 1088,-338.42 1088,-308.42 959,-308.42"/>
<text text-anchor="start" x="967" y="-326.42" font-family="Helvetica,sans-Serif" font-size="10.00">Physics.Collision.Model.</text>
<text text-anchor="middle" x="1023.5" y="-315.42" font-family="Helvetica,sans-Serif" font-size="10.00">SimplexEdge.CreateEdge</text>
</a>
</g>
</g>
<!-- Node27&#45;&gt;Node28 -->
<g id="edge27" class="edge">
<title>Node27&#45;&gt;Node28</title>
<path fill="none" stroke="midnightblue" d="M906.03,-323.42C920.02,-323.42 934.69,-323.42 948.72,-323.42"/>
<polygon fill="midnightblue" stroke="midnightblue" points="948.8,-326.92 958.8,-323.42 948.8,-319.92 948.8,-326.92"/>
</g>
<!-- Node29 -->
<g id="node29" class="node">
<title>Node29</title>
<g id="a_node29"><a xlink:href="class_physics_1_1_tool_1_1_physics_cache_pool.html#a40a29873272825581e5d87a82b737e0f" target="_top" xlink:title=" ">
<polygon fill="white" stroke="black" points="1137,-360.42 1137,-390.42 1277,-390.42 1277,-360.42 1137,-360.42"/>
<text text-anchor="start" x="1145" y="-378.42" font-family="Helvetica,sans-Serif" font-size="10.00">Physics.Tool.PhysicsCache</text>
<text text-anchor="middle" x="1207" y="-367.42" font-family="Helvetica,sans-Serif" font-size="10.00">Pool.RecycleEdge</text>
</a>
</g>
</g>
<!-- Node27&#45;&gt;Node29 -->
<g id="edge30" class="edge">
<title>Node27&#45;&gt;Node29</title>
<path fill="none" stroke="midnightblue" d="M898.43,-338.46C913.96,-341.73 930.52,-344.94 946,-347.42 1006.31,-357.08 1075.03,-364.32 1126.68,-369.01"/>
<polygon fill="midnightblue" stroke="midnightblue" points="1126.5,-372.51 1136.77,-369.92 1127.12,-365.54 1126.5,-372.51"/>
</g>
<!-- Node28&#45;&gt;Node24 -->
<g id="edge28" class="edge">
<title>Node28&#45;&gt;Node24</title>
<path fill="none" stroke="midnightblue" d="M1074.3,-308.42C1083.28,-305.36 1092.49,-301.97 1101,-298.42 1124.79,-288.49 1150.54,-275.29 1170.59,-264.42"/>
<polygon fill="midnightblue" stroke="midnightblue" points="1172.28,-267.49 1179.37,-259.62 1168.92,-261.35 1172.28,-267.49"/>
</g>
<!-- Node28&#45;&gt;Node25 -->
<g id="edge29" class="edge">
<title>Node28&#45;&gt;Node25</title>
<path fill="none" stroke="midnightblue" d="M1088.23,-320.61C1101.96,-320.01 1116.59,-319.36 1130.71,-318.74"/>
<polygon fill="midnightblue" stroke="midnightblue" points="1131.05,-322.23 1140.88,-318.29 1130.74,-315.24 1131.05,-322.23"/>
</g>
<!-- Node31 -->
<g id="node31" class="node">
<title>Node31</title>
<g id="a_node31"><a xlink:href="class_physics_1_1_collision_1_1_model_1_1_simplex_edge.html#a422d4d80fc2c4205af1f96abcec05a67" target="_top" xlink:title=" ">
<polygon fill="white" stroke="black" points="961,-396.42 961,-426.42 1086,-426.42 1086,-396.42 961,-396.42"/>
<text text-anchor="start" x="969" y="-414.42" font-family="Helvetica,sans-Serif" font-size="10.00">Physics.Collision.Model.</text>
<text text-anchor="middle" x="1023.5" y="-403.42" font-family="Helvetica,sans-Serif" font-size="10.00">SimplexEdge.Clear</text>
</a>
</g>
</g>
<!-- Node30&#45;&gt;Node31 -->
<g id="edge33" class="edge">
<title>Node30&#45;&gt;Node31</title>
<path fill="none" stroke="midnightblue" d="M902.54,-386.67C918.19,-389.9 934.86,-393.34 950.63,-396.59"/>
<polygon fill="midnightblue" stroke="midnightblue" points="950.34,-400.11 960.84,-398.7 951.76,-393.25 950.34,-400.11"/>
</g>
<!-- Node31&#45;&gt;Node29 -->
<g id="edge34" class="edge">
<title>Node31&#45;&gt;Node29</title>
<path fill="none" stroke="midnightblue" d="M1086.2,-399.18C1099.35,-396.58 1113.41,-393.79 1127.1,-391.07"/>
<polygon fill="midnightblue" stroke="midnightblue" points="1127.86,-394.49 1136.99,-389.11 1126.5,-387.62 1127.86,-394.49"/>
</g>
<!-- Node33 -->
<g id="node33" class="node">
<title>Node33</title>
<g id="a_node33"><a xlink:href="class_physics_1_1_collision_1_1_collision_object.html#a28cc343d91add7b15402133b83d76b27" target="_top" xlink:title=" ">
<polygon fill="white" stroke="black" points="952,-161.42 952,-191.42 1095,-191.42 1095,-161.42 952,-161.42"/>
<text text-anchor="start" x="960" y="-179.42" font-family="Helvetica,sans-Serif" font-size="10.00">Physics.Collision.Collision</text>
<text text-anchor="middle" x="1023.5" y="-168.42" font-family="Helvetica,sans-Serif" font-size="10.00">Object.GetFarthestPointInDir</text>
</a>
</g>
</g>
<!-- Node32&#45;&gt;Node33 -->
<g id="edge36" class="edge">
<title>Node32&#45;&gt;Node33</title>
<path fill="none" stroke="midnightblue" d="M908.74,-179.43C919.51,-179.15 930.62,-178.85 941.49,-178.57"/>
<polygon fill="midnightblue" stroke="midnightblue" points="941.91,-182.06 951.82,-178.29 941.73,-175.06 941.91,-182.06"/>
</g>
<!-- Node34&#45;&gt;Node19 -->
<g id="edge39" class="edge">
<title>Node34&#45;&gt;Node19</title>
<path fill="none" stroke="midnightblue" d="M702.62,-121.68C718.99,-123.68 736.61,-125.83 753.41,-127.88"/>
<polygon fill="midnightblue" stroke="midnightblue" points="753.4,-131.41 763.75,-129.15 754.25,-124.46 753.4,-131.41"/>
</g>
<!-- Node34&#45;&gt;Node20 -->
<g id="edge40" class="edge">
<title>Node34&#45;&gt;Node20</title>
<path fill="none" stroke="midnightblue" d="M642.42,-103.9C659.52,-82.84 704.16,-32.68 755,-14.42 819.83,8.87 842.46,-0.88 910,-14.42 936.4,-19.71 964.33,-31.35 985.76,-41.72"/>
<polygon fill="midnightblue" stroke="midnightblue" points="984.31,-44.9 994.82,-46.21 987.42,-38.63 984.31,-44.9"/>
</g>
<!-- Node34&#45;&gt;Node32 -->
<g id="edge42" class="edge">
<title>Node34&#45;&gt;Node32</title>
<path fill="none" stroke="midnightblue" d="M656.81,-123.1C680.63,-133.45 720.05,-149.91 755,-161.42 763.43,-164.2 772.48,-166.85 781.31,-169.26"/>
<polygon fill="midnightblue" stroke="midnightblue" points="780.56,-172.68 791.12,-171.87 782.36,-165.92 780.56,-172.68"/>
</g>
<!-- Node35 -->
<g id="node35" class="node">
<title>Node35</title>
<g id="a_node35"><a xlink:href="class_physics_1_1_physics_world.html#adf7766abbfb94bb041d38b3d7209dcba" target="_top" xlink:title=" ">
<polygon fill="white" stroke="black" points="764,-73.42 764,-103.42 901,-103.42 901,-73.42 764,-73.42"/>
<text text-anchor="start" x="772" y="-91.42" font-family="Helvetica,sans-Serif" font-size="10.00">Physics.PhysicsWorld.Find</text>
<text text-anchor="middle" x="832.5" y="-80.42" font-family="Helvetica,sans-Serif" font-size="10.00">FirstDirection</text>
</a>
</g>
</g>
<!-- Node34&#45;&gt;Node35 -->
<g id="edge38" class="edge">
<title>Node34&#45;&gt;Node35</title>
<path fill="none" stroke="midnightblue" d="M702.62,-104.82C718.99,-102.74 736.61,-100.49 753.41,-98.36"/>
<polygon fill="midnightblue" stroke="midnightblue" points="754.27,-101.78 763.75,-97.04 753.39,-94.83 754.27,-101.78"/>
</g>
<!-- Node36 -->
<g id="node36" class="node">
<title>Node36</title>
<g id="a_node36"><a xlink:href="class_physics_1_1_tool_1_1_physics_tool.html#a0945b739fb0d3bb8376e85574a4bc981" target="_top" xlink:title="检查点是否在三角形内">
<polygon fill="white" stroke="black" points="766.5,-24.42 766.5,-54.42 898.5,-54.42 898.5,-24.42 766.5,-24.42"/>
<text text-anchor="start" x="774.5" y="-42.42" font-family="Helvetica,sans-Serif" font-size="10.00">Physics.Tool.PhysicsTool.</text>
<text text-anchor="middle" x="832.5" y="-31.42" font-family="Helvetica,sans-Serif" font-size="10.00">IsPointInTriangle</text>
</a>
</g>
</g>
<!-- Node34&#45;&gt;Node36 -->
<g id="edge41" class="edge">
<title>Node34&#45;&gt;Node36</title>
<path fill="none" stroke="midnightblue" d="M656.45,-103.79C680.27,-93.26 720.01,-76.17 755,-63.42 760.23,-61.52 765.7,-59.62 771.19,-57.78"/>
<polygon fill="midnightblue" stroke="midnightblue" points="772.67,-60.97 781.08,-54.53 770.48,-54.32 772.67,-60.97"/>
</g>
</g>
</svg>
        <g id="navigator" transform="translate(0 0)" fill="#404254">
                <rect fill="#f2f5e9" fill-opacity="0.5" stroke="#606060" stroke-width=".5" x="0" y="0" width="60" height="60"/>
                <use id="zoomplus" xlink:href="#zoomPlus" x="17" y="9" onmousedown="handleZoom(evt,'in')"/>
                <use id="zoomminus" xlink:href="#zoomMin" x="42" y="9" onmousedown="handleZoom(evt,'out')"/>
                <use id="reset" xlink:href="#resetDef" x="30" y="36" onmousedown="handleReset()"/>
                <g id="arrowUp" xlink:href="#dirArrow" transform="translate(30 24)" onmousedown="handlePan(0,-1)">
                  <use xlink:href="#rim" fill="#404040">
                        <set attributeName="fill" to="#808080" begin="arrowUp.mouseover" end="arrowUp.mouseout"/>
                  </use>
                  <path fill="none" stroke="white" stroke-width="1.5" d="M0,-3.0v7 M-2.5,-0.5L0,-3.0L2.5,-0.5"/>
                </g>
                <g id="arrowRight" xlink:href="#dirArrow" transform="rotate(90) translate(36 -43)" onmousedown="handlePan(1,0)">
                  <use xlink:href="#rim" fill="#404040">
                        <set attributeName="fill" to="#808080" begin="arrowRight.mouseover" end="arrowRight.mouseout"/>
                  </use>
                  <path fill="none" stroke="white" stroke-width="1.5" d="M0,-3.0v7 M-2.5,-0.5L0,-3.0L2.5,-0.5"/>
                </g>
                <g id="arrowDown" xlink:href="#dirArrow" transform="rotate(180) translate(-30 -48)" onmousedown="handlePan(0,1)">
                  <use xlink:href="#rim" fill="#404040">
                        <set attributeName="fill" to="#808080" begin="arrowDown.mouseover" end="arrowDown.mouseout"/>
                  </use>
                  <path fill="none" stroke="white" stroke-width="1.5" d="M0,-3.0v7 M-2.5,-0.5L0,-3.0L2.5,-0.5"/>
                </g>
                <g id="arrowLeft" xlink:href="#dirArrow" transform="rotate(270) translate(-36 17)" onmousedown="handlePan(-1,0)">
                  <use xlink:href="#rim" fill="#404040">
                        <set attributeName="fill" to="#808080" begin="arrowLeft.mouseover" end="arrowLeft.mouseout"/>
                  </use>
                  <path fill="none" stroke="white" stroke-width="1.5" d="M0,-3.0v7 M-2.5,-0.5L0,-3.0L2.5,-0.5"/>
                </g>
        </g>
        <svg viewBox="0 0 15 15" width="100%" height="30px" preserveAspectRatio="xMaxYMin meet">
         <g id="arrow_out" transform="scale(0.3 0.3)">
          <a xlink:href="class_physics_1_1_physics_world_adc2e766cfd2414718237d76064130c7f_cgraph_org.svg" target="_base">
           <rect id="button" ry="5" rx="5" y="6" x="6" height="38" width="38"
                fill="#f2f5e9" fill-opacity="0.5" stroke="#606060" stroke-width="1.0"/>
           <path id="arrow"
             d="M 11.500037,31.436501 C 11.940474,20.09759 22.043105,11.32322 32.158766,21.979434 L 37.068811,17.246167 C 37.068811,17.246167 37.088388,32 37.088388,32 L 22.160133,31.978069 C 22.160133,31.978069 26.997745,27.140456 26.997745,27.140456 C 18.528582,18.264221 13.291696,25.230495 11.500037,31.436501 z"
             style="fill:#404040;"/>
          </a>
         </g>
        </svg>
</svg>
