<?xml version="1.0" encoding="UTF-8" standalone="no"?>
<!DOCTYPE svg PUBLIC "-//W3C//DTD SVG 1.1//EN"
 "http://www.w3.org/Graphics/SVG/1.1/DTD/svg11.dtd">
<!-- Generated by graphviz version 2.50.0 (20211204.2007)
 -->
<!-- Title: Physics.PhysicsWorld.Test2 Pages: 1 -->
<svg width="1259pt" height="112pt"
 viewBox="0.00 0.00 1259.00 112.00" xmlns="http://www.w3.org/2000/svg" xmlns:xlink="http://www.w3.org/1999/xlink">
<g id="graph0" class="graph" transform="scale(1 1) rotate(0) translate(4 108)">
<title>Physics.PhysicsWorld.Test2</title>
<polygon fill="white" stroke="transparent" points="-4,4 -4,-108 1255,-108 1255,4 -4,4"/>
<!-- Node1 -->
<g id="node1" class="node">
<title>Node1</title>
<g id="a_node1"><a xlink:title=" ">
<polygon fill="#bfbfbf" stroke="black" points="0,-32 0,-51 142,-51 142,-32 0,-32"/>
<text text-anchor="middle" x="71" y="-39" font-family="Helvetica,sans-Serif" font-size="10.00">Physics.PhysicsWorld.Test2</text>
</a>
</g>
</g>
<!-- Node2 -->
<g id="node2" class="node">
<title>Node2</title>
<g id="a_node2"><a xlink:href="class_physics_1_1_physics_world.html#af93edd393b2391e14a2cfc4331ebf791" target="_top" xlink:title=" ">
<polygon fill="white" stroke="black" points="178,-26.5 178,-56.5 325,-56.5 325,-26.5 178,-26.5"/>
<text text-anchor="start" x="186" y="-44.5" font-family="Helvetica,sans-Serif" font-size="10.00">Physics.PhysicsWorld.Create</text>
<text text-anchor="middle" x="251.5" y="-33.5" font-family="Helvetica,sans-Serif" font-size="10.00">ATestCircle</text>
</a>
</g>
</g>
<!-- Node1&#45;&gt;Node2 -->
<g id="edge1" class="edge">
<title>Node1&#45;&gt;Node2</title>
<path fill="none" stroke="midnightblue" d="M142.04,-41.5C150.46,-41.5 159.12,-41.5 167.71,-41.5"/>
<polygon fill="midnightblue" stroke="midnightblue" points="167.73,-45 177.73,-41.5 167.73,-38 167.73,-45"/>
</g>
<!-- Node3 -->
<g id="node3" class="node">
<title>Node3</title>
<g id="a_node3"><a xlink:href="class_physics_1_1_physics_world.html#aaea6390b0eebeeffb2136b97d9e9e9a9" target="_top" xlink:title=" ">
<polygon fill="white" stroke="black" points="379,-48.5 379,-78.5 514,-78.5 514,-48.5 379,-48.5"/>
<text text-anchor="start" x="387" y="-66.5" font-family="Helvetica,sans-Serif" font-size="10.00">Physics.PhysicsWorld.Add</text>
<text text-anchor="middle" x="446.5" y="-55.5" font-family="Helvetica,sans-Serif" font-size="10.00">CollisionObject</text>
</a>
</g>
</g>
<!-- Node2&#45;&gt;Node3 -->
<g id="edge2" class="edge">
<title>Node2&#45;&gt;Node3</title>
<path fill="none" stroke="midnightblue" d="M325.19,-49.79C339.38,-51.4 354.3,-53.1 368.62,-54.74"/>
<polygon fill="midnightblue" stroke="midnightblue" points="368.58,-58.25 378.92,-55.91 369.38,-51.3 368.58,-58.25"/>
</g>
<!-- Node10 -->
<g id="node10" class="node">
<title>Node10</title>
<g id="a_node10"><a xlink:href="class_physics_1_1_physics_world.html#a22b65d699e874d3ec8651ad3cd675814" target="_top" xlink:title=" ">
<polygon fill="white" stroke="black" points="361,-10 361,-29 532,-29 532,-10 361,-10"/>
<text text-anchor="middle" x="446.5" y="-17" font-family="Helvetica,sans-Serif" font-size="10.00">Physics.PhysicsWorld.CreateMesh</text>
</a>
</g>
</g>
<!-- Node2&#45;&gt;Node10 -->
<g id="edge10" class="edge">
<title>Node2&#45;&gt;Node10</title>
<path fill="none" stroke="midnightblue" d="M325.19,-33.21C333.89,-32.22 342.86,-31.2 351.79,-30.18"/>
<polygon fill="midnightblue" stroke="midnightblue" points="352.32,-33.64 361.86,-29.03 351.52,-26.69 352.32,-33.64"/>
</g>
<!-- Node4 -->
<g id="node4" class="node">
<title>Node4</title>
<g id="a_node4"><a xlink:href="class_physics_1_1_collision_1_1_collision_object.html#aec20035d4ece9a46c457cd71761f6c16" target="_top" xlink:title=" ">
<polygon fill="white" stroke="black" points="568,-73.5 568,-103.5 701,-103.5 701,-73.5 568,-73.5"/>
<text text-anchor="start" x="576" y="-91.5" font-family="Helvetica,sans-Serif" font-size="10.00">Physics.Collision.Collision</text>
<text text-anchor="middle" x="634.5" y="-80.5" font-family="Helvetica,sans-Serif" font-size="10.00">Object.GetProjectionPoint</text>
</a>
</g>
</g>
<!-- Node3&#45;&gt;Node4 -->
<g id="edge3" class="edge">
<title>Node3&#45;&gt;Node4</title>
<path fill="none" stroke="midnightblue" d="M514.12,-72.45C528.35,-74.37 543.48,-76.4 558.01,-78.35"/>
<polygon fill="midnightblue" stroke="midnightblue" points="557.59,-81.83 567.96,-79.69 558.52,-74.89 557.59,-81.83"/>
</g>
<!-- Node5 -->
<g id="node5" class="node">
<title>Node5</title>
<g id="a_node5"><a xlink:href="class_physics_1_1_collision_1_1_collision_object.html#a8a0748fa64dc6f65374a9d61e7065da4" target="_top" xlink:title=" ">
<polygon fill="white" stroke="black" points="568,-24.5 568,-54.5 701,-54.5 701,-24.5 568,-24.5"/>
<text text-anchor="start" x="576" y="-42.5" font-family="Helvetica,sans-Serif" font-size="10.00">Physics.Collision.Collision</text>
<text text-anchor="middle" x="634.5" y="-31.5" font-family="Helvetica,sans-Serif" font-size="10.00">Object.InitCollisionObject</text>
</a>
</g>
</g>
<!-- Node3&#45;&gt;Node5 -->
<g id="edge4" class="edge">
<title>Node3&#45;&gt;Node5</title>
<path fill="none" stroke="midnightblue" d="M514.12,-54.9C528.35,-53.07 543.48,-51.12 558.01,-49.24"/>
<polygon fill="midnightblue" stroke="midnightblue" points="558.49,-52.71 567.96,-47.96 557.6,-45.76 558.49,-52.71"/>
</g>
<!-- Node6 -->
<g id="node6" class="node">
<title>Node6</title>
<g id="a_node6"><a xlink:href="class_physics_1_1_collision_1_1_shape_1_1_collision_shape.html#aa2888c2955c43fcd2adb654e88db7183" target="_top" xlink:title=" ">
<polygon fill="white" stroke="black" points="737,-46.5 737,-76.5 907,-76.5 907,-46.5 737,-46.5"/>
<text text-anchor="start" x="745" y="-64.5" font-family="Helvetica,sans-Serif" font-size="10.00">Physics.Collision.Shape.</text>
<text text-anchor="middle" x="822" y="-53.5" font-family="Helvetica,sans-Serif" font-size="10.00">CollisionShape.ApplyWorldVertices</text>
</a>
</g>
</g>
<!-- Node5&#45;&gt;Node6 -->
<g id="edge5" class="edge">
<title>Node5&#45;&gt;Node6</title>
<path fill="none" stroke="midnightblue" d="M701.16,-47.29C709.48,-48.27 718.11,-49.3 726.76,-50.32"/>
<polygon fill="midnightblue" stroke="midnightblue" points="726.56,-53.82 736.91,-51.53 727.39,-46.87 726.56,-53.82"/>
</g>
<!-- Node7 -->
<g id="node7" class="node">
<title>Node7</title>
<g id="a_node7"><a xlink:href="class_physics_1_1_collision_1_1_shape_1_1_collision_shape.html#ab236eb056356a1dd7e657c4154a58441" target="_top" xlink:title=" ">
<polygon fill="white" stroke="black" points="943,-24.5 943,-54.5 1087,-54.5 1087,-24.5 943,-24.5"/>
<text text-anchor="start" x="951" y="-42.5" font-family="Helvetica,sans-Serif" font-size="10.00">Physics.Collision.Shape.</text>
<text text-anchor="middle" x="1015" y="-31.5" font-family="Helvetica,sans-Serif" font-size="10.00">CollisionShape.UpdateShape</text>
</a>
</g>
</g>
<!-- Node5&#45;&gt;Node7 -->
<g id="edge9" class="edge">
<title>Node5&#45;&gt;Node7</title>
<path fill="none" stroke="midnightblue" d="M701.02,-38.02C712.99,-37.8 725.37,-37.61 737,-37.5 812.55,-36.76 831.45,-36.79 907,-37.5 915.35,-37.58 924.06,-37.69 932.75,-37.82"/>
<polygon fill="midnightblue" stroke="midnightblue" points="932.87,-41.32 942.92,-37.99 932.98,-34.33 932.87,-41.32"/>
</g>
<!-- Node6&#45;&gt;Node7 -->
<g id="edge6" class="edge">
<title>Node6&#45;&gt;Node7</title>
<path fill="none" stroke="midnightblue" d="M907.05,-51.82C915.52,-50.84 924.11,-49.85 932.55,-48.88"/>
<polygon fill="midnightblue" stroke="midnightblue" points="933.22,-52.33 942.75,-47.71 932.42,-45.37 933.22,-52.33"/>
</g>
<!-- Node8 -->
<g id="node8" class="node">
<title>Node8</title>
<g id="a_node8"><a xlink:href="class_physics_1_1_collision_1_1_model_1_1_a_a_b_b.html#aab605aa58d0da2a571db877bb277f9dc" target="_top" xlink:title=" ">
<polygon fill="white" stroke="black" points="1124.5,-49.5 1124.5,-79.5 1249.5,-79.5 1249.5,-49.5 1124.5,-49.5"/>
<text text-anchor="start" x="1132.5" y="-67.5" font-family="Helvetica,sans-Serif" font-size="10.00">Physics.Collision.Model.</text>
<text text-anchor="middle" x="1187" y="-56.5" font-family="Helvetica,sans-Serif" font-size="10.00">AABB.Apply</text>
</a>
</g>
</g>
<!-- Node7&#45;&gt;Node8 -->
<g id="edge7" class="edge">
<title>Node7&#45;&gt;Node8</title>
<path fill="none" stroke="midnightblue" d="M1087.11,-49.96C1096.1,-51.28 1105.3,-52.63 1114.3,-53.96"/>
<polygon fill="midnightblue" stroke="midnightblue" points="1113.95,-57.44 1124.36,-55.43 1114.97,-50.52 1113.95,-57.44"/>
</g>
<!-- Node9 -->
<g id="node9" class="node">
<title>Node9</title>
<g id="a_node9"><a xlink:href="class_physics_1_1_collision_1_1_shape_1_1_collision_shape.html#af5247f1c8125a229c2be17f898608269" target="_top" xlink:title=" ">
<polygon fill="white" stroke="black" points="1123,-0.5 1123,-30.5 1251,-30.5 1251,-0.5 1123,-0.5"/>
<text text-anchor="start" x="1131" y="-18.5" font-family="Helvetica,sans-Serif" font-size="10.00">Physics.Collision.Shape.</text>
<text text-anchor="middle" x="1187" y="-7.5" font-family="Helvetica,sans-Serif" font-size="10.00">CollisionShape.GetBound</text>
</a>
</g>
</g>
<!-- Node7&#45;&gt;Node9 -->
<g id="edge8" class="edge">
<title>Node7&#45;&gt;Node9</title>
<path fill="none" stroke="midnightblue" d="M1087.11,-29.46C1095.61,-28.26 1104.3,-27.03 1112.83,-25.83"/>
<polygon fill="midnightblue" stroke="midnightblue" points="1113.34,-29.29 1122.75,-24.43 1112.36,-22.36 1113.34,-29.29"/>
</g>
</g>
</svg>
