<?xml version="1.0" encoding="UTF-8" standalone="no"?>
<!DOCTYPE svg PUBLIC "-//W3C//DTD SVG 1.1//EN"
 "http://www.w3.org/Graphics/SVG/1.1/DTD/svg11.dtd">
<!-- Generated by graphviz version 2.50.0 (20211204.2007)
 -->
<!-- Title: Physics.PhysicsWorld.CreateMesh Pages: 1 -->
<svg width="715pt" height="180pt"
 viewBox="0.00 0.00 715.00 180.00" xmlns="http://www.w3.org/2000/svg" xmlns:xlink="http://www.w3.org/1999/xlink">
<g id="graph0" class="graph" transform="scale(1 1) rotate(0) translate(4 176)">
<title>Physics.PhysicsWorld.CreateMesh</title>
<polygon fill="white" stroke="transparent" points="-4,4 -4,-176 711,-176 711,4 -4,4"/>
<!-- Node1 -->
<g id="node1" class="node">
<title>Node1</title>
<g id="a_node1"><a xlink:title=" ">
<polygon fill="#bfbfbf" stroke="black" points="536,-70.5 536,-89.5 707,-89.5 707,-70.5 536,-70.5"/>
<text text-anchor="middle" x="621.5" y="-77.5" font-family="Helvetica,sans-Serif" font-size="10.00">Physics.PhysicsWorld.CreateMesh</text>
</a>
</g>
</g>
<!-- Node2 -->
<g id="node2" class="node">
<title>Node2</title>
<g id="a_node2"><a xlink:href="class_physics_1_1_physics_world.html#ab363dd228dcc50002de2762e22918637" target="_top" xlink:title=" ">
<polygon fill="white" stroke="black" points="353,-65 353,-95 500,-95 500,-65 353,-65"/>
<text text-anchor="start" x="361" y="-83" font-family="Helvetica,sans-Serif" font-size="10.00">Physics.PhysicsWorld.Create</text>
<text text-anchor="middle" x="426.5" y="-72" font-family="Helvetica,sans-Serif" font-size="10.00">ACustomShape</text>
</a>
</g>
</g>
<!-- Node1&#45;&gt;Node2 -->
<g id="edge1" class="edge">
<title>Node1&#45;&gt;Node2</title>
<path fill="none" stroke="midnightblue" d="M525.72,-80C517.07,-80 508.41,-80 500,-80"/>
<polygon fill="midnightblue" stroke="midnightblue" points="525.85,-83.5 535.85,-80 525.85,-76.5 525.85,-83.5"/>
</g>
<!-- Node6 -->
<g id="node6" class="node">
<title>Node6</title>
<g id="a_node6"><a xlink:href="class_physics_1_1_physics_world.html#af93edd393b2391e14a2cfc4331ebf791" target="_top" xlink:title=" ">
<polygon fill="white" stroke="black" points="353,-16 353,-46 500,-46 500,-16 353,-16"/>
<text text-anchor="start" x="361" y="-34" font-family="Helvetica,sans-Serif" font-size="10.00">Physics.PhysicsWorld.Create</text>
<text text-anchor="middle" x="426.5" y="-23" font-family="Helvetica,sans-Serif" font-size="10.00">ATestCircle</text>
</a>
</g>
</g>
<!-- Node1&#45;&gt;Node6 -->
<g id="edge5" class="edge">
<title>Node1&#45;&gt;Node6</title>
<path fill="none" stroke="midnightblue" d="M572.83,-67.9C546.81,-61.29 514.36,-53.05 486.73,-46.04"/>
<polygon fill="midnightblue" stroke="midnightblue" points="572.28,-71.37 582.83,-70.44 574,-64.58 572.28,-71.37"/>
</g>
<!-- Node8 -->
<g id="node8" class="node">
<title>Node8</title>
<g id="a_node8"><a xlink:href="class_physics_1_1_physics_world.html#a54d320d6dc2c69449f0d83f746382a21" target="_top" xlink:title=" ">
<polygon fill="white" stroke="black" points="353,-114 353,-144 500,-144 500,-114 353,-114"/>
<text text-anchor="start" x="361" y="-132" font-family="Helvetica,sans-Serif" font-size="10.00">Physics.PhysicsWorld.Create</text>
<text text-anchor="middle" x="426.5" y="-121" font-family="Helvetica,sans-Serif" font-size="10.00">ATestRect</text>
</a>
</g>
</g>
<!-- Node1&#45;&gt;Node8 -->
<g id="edge8" class="edge">
<title>Node1&#45;&gt;Node8</title>
<path fill="none" stroke="midnightblue" d="M572.83,-92.1C546.81,-98.71 514.36,-106.95 486.73,-113.96"/>
<polygon fill="midnightblue" stroke="midnightblue" points="574,-95.42 582.83,-89.56 572.28,-88.63 574,-95.42"/>
</g>
<!-- Node3 -->
<g id="node3" class="node">
<title>Node3</title>
<g id="a_node3"><a xlink:href="class_physics_1_1_physics_world.html#a00da1d0a80a537bf0f30ec9a1f00cbd6" target="_top" xlink:title=" ">
<polygon fill="white" stroke="black" points="175,-114.5 175,-133.5 317,-133.5 317,-114.5 175,-114.5"/>
<text text-anchor="middle" x="246" y="-121.5" font-family="Helvetica,sans-Serif" font-size="10.00">Physics.PhysicsWorld.Test1</text>
</a>
</g>
</g>
<!-- Node2&#45;&gt;Node3 -->
<g id="edge2" class="edge">
<title>Node2&#45;&gt;Node3</title>
<path fill="none" stroke="midnightblue" d="M354.61,-97.47C331.07,-103.28 305.75,-109.52 285.59,-114.49"/>
<polygon fill="midnightblue" stroke="midnightblue" points="355.7,-100.81 364.57,-95.02 354.02,-94.01 355.7,-100.81"/>
</g>
<!-- Node4 -->
<g id="node4" class="node">
<title>Node4</title>
<g id="a_node4"><a xlink:href="class_physics_1_1_physics_world.html#a23a499269c2dba922ca4a81579b244ae" target="_top" xlink:title=" ">
<polygon fill="white" stroke="black" points="175,-38.5 175,-57.5 317,-57.5 317,-38.5 175,-38.5"/>
<text text-anchor="middle" x="246" y="-45.5" font-family="Helvetica,sans-Serif" font-size="10.00">Physics.PhysicsWorld.Test3</text>
</a>
</g>
</g>
<!-- Node2&#45;&gt;Node4 -->
<g id="edge3" class="edge">
<title>Node2&#45;&gt;Node4</title>
<path fill="none" stroke="midnightblue" d="M342.89,-65.19C328.34,-62.58 313.56,-59.93 300.1,-57.52"/>
<polygon fill="midnightblue" stroke="midnightblue" points="342.44,-68.66 352.9,-66.98 343.67,-61.77 342.44,-68.66"/>
</g>
<!-- Node5 -->
<g id="node5" class="node">
<title>Node5</title>
<g id="a_node5"><a xlink:href="class_physics_1_1_physics_world.html#a93898e81cc80ba83e62de6af1cb9f2ab" target="_top" xlink:title=" ">
<polygon fill="white" stroke="black" points="175,-76.5 175,-95.5 317,-95.5 317,-76.5 175,-76.5"/>
<text text-anchor="middle" x="246" y="-83.5" font-family="Helvetica,sans-Serif" font-size="10.00">Physics.PhysicsWorld.Test4</text>
</a>
</g>
</g>
<!-- Node2&#45;&gt;Node5 -->
<g id="edge4" class="edge">
<title>Node2&#45;&gt;Node5</title>
<path fill="none" stroke="midnightblue" d="M342.89,-82.78C334.31,-83.07 325.65,-83.36 317.23,-83.64"/>
<polygon fill="midnightblue" stroke="midnightblue" points="343.02,-86.27 352.9,-82.44 342.79,-79.28 343.02,-86.27"/>
</g>
<!-- Node6&#45;&gt;Node4 -->
<g id="edge7" class="edge">
<title>Node6&#45;&gt;Node4</title>
<path fill="none" stroke="midnightblue" d="M342.89,-38.87C334.31,-39.68 325.65,-40.51 317.23,-41.31"/>
<polygon fill="midnightblue" stroke="midnightblue" points="343.27,-42.35 352.9,-37.91 342.61,-35.38 343.27,-42.35"/>
</g>
<!-- Node7 -->
<g id="node7" class="node">
<title>Node7</title>
<g id="a_node7"><a xlink:href="class_physics_1_1_physics_world.html#a3e682ad39d73a462476dcc8cf707b4b7" target="_top" xlink:title=" ">
<polygon fill="white" stroke="black" points="175,-0.5 175,-19.5 317,-19.5 317,-0.5 175,-0.5"/>
<text text-anchor="middle" x="246" y="-7.5" font-family="Helvetica,sans-Serif" font-size="10.00">Physics.PhysicsWorld.Test2</text>
</a>
</g>
</g>
<!-- Node6&#45;&gt;Node7 -->
<g id="edge6" class="edge">
<title>Node6&#45;&gt;Node7</title>
<path fill="none" stroke="midnightblue" d="M342.89,-21.28C334.31,-20.27 325.65,-19.25 317.23,-18.26"/>
<polygon fill="midnightblue" stroke="midnightblue" points="342.56,-24.77 352.9,-22.46 343.37,-17.81 342.56,-24.77"/>
</g>
<!-- Node8&#45;&gt;Node3 -->
<g id="edge11" class="edge">
<title>Node8&#45;&gt;Node3</title>
<path fill="none" stroke="midnightblue" d="M342.89,-126.69C334.31,-126.45 325.65,-126.2 317.23,-125.97"/>
<polygon fill="midnightblue" stroke="midnightblue" points="342.8,-130.18 352.9,-126.97 343,-123.19 342.8,-130.18"/>
</g>
<!-- Node8&#45;&gt;Node4 -->
<g id="edge12" class="edge">
<title>Node8&#45;&gt;Node4</title>
<path fill="none" stroke="midnightblue" d="M361.14,-109.66C358.33,-108.2 355.6,-106.65 353,-105 333.36,-92.52 336.97,-78.94 317,-67 310.51,-63.12 303.22,-60.02 295.86,-57.54"/>
<polygon fill="midnightblue" stroke="midnightblue" points="359.79,-112.89 370.33,-113.97 362.77,-106.56 359.79,-112.89"/>
</g>
<!-- Node9 -->
<g id="node9" class="node">
<title>Node9</title>
<g id="a_node9"><a xlink:href="class_physics_1_1_physics_world.html#adf5c68828b28299a9d85e6dd326a1653" target="_top" xlink:title=" ">
<polygon fill="white" stroke="black" points="175,-152.5 175,-171.5 317,-171.5 317,-152.5 175,-152.5"/>
<text text-anchor="middle" x="246" y="-159.5" font-family="Helvetica,sans-Serif" font-size="10.00">Physics.PhysicsWorld.Test0</text>
</a>
</g>
</g>
<!-- Node8&#45;&gt;Node9 -->
<g id="edge9" class="edge">
<title>Node8&#45;&gt;Node9</title>
<path fill="none" stroke="midnightblue" d="M342.99,-144.25C327.83,-147.06 312.4,-149.91 298.48,-152.48"/>
<polygon fill="midnightblue" stroke="midnightblue" points="343.7,-147.68 352.9,-142.42 342.43,-140.8 343.7,-147.68"/>
</g>
<!-- Node10 -->
<g id="node10" class="node">
<title>Node10</title>
<g id="a_node10"><a xlink:href="class_physics_1_1_physics_world.html#a8604509cc962bc5d9c3f4089b06f94b2" target="_top" xlink:title=" ">
<polygon fill="white" stroke="black" points="0,-152.5 0,-171.5 139,-171.5 139,-152.5 0,-152.5"/>
<text text-anchor="middle" x="69.5" y="-159.5" font-family="Helvetica,sans-Serif" font-size="10.00">Physics.PhysicsWorld.Start</text>
</a>
</g>
</g>
<!-- Node9&#45;&gt;Node10 -->
<g id="edge10" class="edge">
<title>Node9&#45;&gt;Node10</title>
<path fill="none" stroke="midnightblue" d="M164.51,-162C156.04,-162 147.48,-162 139.16,-162"/>
<polygon fill="midnightblue" stroke="midnightblue" points="164.78,-165.5 174.78,-162 164.78,-158.5 164.78,-165.5"/>
</g>
</g>
</svg>
