<?xml version="1.0" encoding="UTF-8" standalone="no"?>
<!DOCTYPE svg PUBLIC "-//W3C//DTD SVG 1.1//EN"
 "http://www.w3.org/Graphics/SVG/1.1/DTD/svg11.dtd">
<!-- Generated by graphviz version 2.50.0 (20211204.2007)
 -->
<!-- Title: Physics.PhysicsWorld.ApplyVelocity Pages: 1 -->
<svg width="882pt" height="162pt"
 viewBox="0.00 0.00 882.00 162.00" xmlns="http://www.w3.org/2000/svg" xmlns:xlink="http://www.w3.org/1999/xlink">
<g id="graph0" class="graph" transform="scale(1 1) rotate(0) translate(4 158)">
<title>Physics.PhysicsWorld.ApplyVelocity</title>
<polygon fill="white" stroke="transparent" points="-4,4 -4,-158 878,-158 878,4 -4,4"/>
<!-- Node1 -->
<g id="node1" class="node">
<title>Node1</title>
<g id="a_node1"><a xlink:title=" ">
<polygon fill="#bfbfbf" stroke="black" points="0,-49.5 0,-79.5 143,-79.5 143,-49.5 0,-49.5"/>
<text text-anchor="start" x="8" y="-67.5" font-family="Helvetica,sans-Serif" font-size="10.00">Physics.PhysicsWorld.Apply</text>
<text text-anchor="middle" x="71.5" y="-56.5" font-family="Helvetica,sans-Serif" font-size="10.00">Velocity</text>
</a>
</g>
</g>
<!-- Node2 -->
<g id="node2" class="node">
<title>Node2</title>
<g id="a_node2"><a xlink:href="class_physics_1_1_collision_1_1_collision_object.html#a08bb2ab0fee9cf7f7b6af438d3b2d1db" target="_top" xlink:title=" ">
<polygon fill="white" stroke="black" points="185,-98.5 185,-128.5 318,-128.5 318,-98.5 185,-98.5"/>
<text text-anchor="start" x="193" y="-116.5" font-family="Helvetica,sans-Serif" font-size="10.00">Physics.Collision.Collision</text>
<text text-anchor="middle" x="251.5" y="-105.5" font-family="Helvetica,sans-Serif" font-size="10.00">Object.ApplyPosition</text>
</a>
</g>
</g>
<!-- Node1&#45;&gt;Node2 -->
<g id="edge1" class="edge">
<title>Node1&#45;&gt;Node2</title>
<path fill="none" stroke="midnightblue" d="M127.36,-79.6C145.89,-84.7 166.74,-90.44 185.95,-95.73"/>
<polygon fill="midnightblue" stroke="midnightblue" points="185.25,-99.17 195.82,-98.45 187.11,-92.42 185.25,-99.17"/>
</g>
<!-- Node7 -->
<g id="node7" class="node">
<title>Node7</title>
<g id="a_node7"><a xlink:href="class_physics_1_1_collision_1_1_collision_object.html#a7a805a42fc5c86aff1715e9ce7f77d48" target="_top" xlink:title=" ">
<polygon fill="white" stroke="black" points="179,-49.5 179,-79.5 324,-79.5 324,-49.5 179,-49.5"/>
<text text-anchor="start" x="187" y="-67.5" font-family="Helvetica,sans-Serif" font-size="10.00">Physics.Collision.Collision</text>
<text text-anchor="middle" x="251.5" y="-56.5" font-family="Helvetica,sans-Serif" font-size="10.00">Object.CleanResolveVelocity</text>
</a>
</g>
</g>
<!-- Node1&#45;&gt;Node7 -->
<g id="edge6" class="edge">
<title>Node1&#45;&gt;Node7</title>
<path fill="none" stroke="midnightblue" d="M143.11,-64.5C151.55,-64.5 160.22,-64.5 168.8,-64.5"/>
<polygon fill="midnightblue" stroke="midnightblue" points="168.81,-68 178.81,-64.5 168.81,-61 168.81,-68"/>
</g>
<!-- Node8 -->
<g id="node8" class="node">
<title>Node8</title>
<g id="a_node8"><a xlink:href="class_physics_1_1_collision_1_1_collision_object.html#a1d619f33e85ae72c0cfa06fddbad7655" target="_top" xlink:title=" ">
<polygon fill="white" stroke="black" points="185,-0.5 185,-30.5 318,-30.5 318,-0.5 185,-0.5"/>
<text text-anchor="start" x="193" y="-18.5" font-family="Helvetica,sans-Serif" font-size="10.00">Physics.Collision.Collision</text>
<text text-anchor="middle" x="251.5" y="-7.5" font-family="Helvetica,sans-Serif" font-size="10.00">Object.Translate</text>
</a>
</g>
</g>
<!-- Node1&#45;&gt;Node8 -->
<g id="edge7" class="edge">
<title>Node1&#45;&gt;Node8</title>
<path fill="none" stroke="midnightblue" d="M127.36,-49.4C145.89,-44.3 166.74,-38.56 185.95,-33.27"/>
<polygon fill="midnightblue" stroke="midnightblue" points="187.11,-36.58 195.82,-30.55 185.25,-29.83 187.11,-36.58"/>
</g>
<!-- Node3 -->
<g id="node3" class="node">
<title>Node3</title>
<g id="a_node3"><a xlink:href="class_physics_1_1_collision_1_1_shape_1_1_collision_shape.html#aa2888c2955c43fcd2adb654e88db7183" target="_top" xlink:title=" ">
<polygon fill="white" stroke="black" points="360,-98.5 360,-128.5 530,-128.5 530,-98.5 360,-98.5"/>
<text text-anchor="start" x="368" y="-116.5" font-family="Helvetica,sans-Serif" font-size="10.00">Physics.Collision.Shape.</text>
<text text-anchor="middle" x="445" y="-105.5" font-family="Helvetica,sans-Serif" font-size="10.00">CollisionShape.ApplyWorldVertices</text>
</a>
</g>
</g>
<!-- Node2&#45;&gt;Node3 -->
<g id="edge2" class="edge">
<title>Node2&#45;&gt;Node3</title>
<path fill="none" stroke="midnightblue" d="M318.14,-113.5C328.31,-113.5 338.99,-113.5 349.65,-113.5"/>
<polygon fill="midnightblue" stroke="midnightblue" points="349.84,-117 359.84,-113.5 349.84,-110 349.84,-117"/>
</g>
<!-- Node4 -->
<g id="node4" class="node">
<title>Node4</title>
<g id="a_node4"><a xlink:href="class_physics_1_1_collision_1_1_shape_1_1_collision_shape.html#ab236eb056356a1dd7e657c4154a58441" target="_top" xlink:title=" ">
<polygon fill="white" stroke="black" points="566,-98.5 566,-128.5 710,-128.5 710,-98.5 566,-98.5"/>
<text text-anchor="start" x="574" y="-116.5" font-family="Helvetica,sans-Serif" font-size="10.00">Physics.Collision.Shape.</text>
<text text-anchor="middle" x="638" y="-105.5" font-family="Helvetica,sans-Serif" font-size="10.00">CollisionShape.UpdateShape</text>
</a>
</g>
</g>
<!-- Node3&#45;&gt;Node4 -->
<g id="edge3" class="edge">
<title>Node3&#45;&gt;Node4</title>
<path fill="none" stroke="midnightblue" d="M530.05,-113.5C538.52,-113.5 547.11,-113.5 555.55,-113.5"/>
<polygon fill="midnightblue" stroke="midnightblue" points="555.75,-117 565.75,-113.5 555.75,-110 555.75,-117"/>
</g>
<!-- Node5 -->
<g id="node5" class="node">
<title>Node5</title>
<g id="a_node5"><a xlink:href="class_physics_1_1_collision_1_1_model_1_1_a_a_b_b.html#aab605aa58d0da2a571db877bb277f9dc" target="_top" xlink:title=" ">
<polygon fill="white" stroke="black" points="747.5,-123.5 747.5,-153.5 872.5,-153.5 872.5,-123.5 747.5,-123.5"/>
<text text-anchor="start" x="755.5" y="-141.5" font-family="Helvetica,sans-Serif" font-size="10.00">Physics.Collision.Model.</text>
<text text-anchor="middle" x="810" y="-130.5" font-family="Helvetica,sans-Serif" font-size="10.00">AABB.Apply</text>
</a>
</g>
</g>
<!-- Node4&#45;&gt;Node5 -->
<g id="edge4" class="edge">
<title>Node4&#45;&gt;Node5</title>
<path fill="none" stroke="midnightblue" d="M710.11,-123.96C719.1,-125.28 728.3,-126.63 737.3,-127.96"/>
<polygon fill="midnightblue" stroke="midnightblue" points="736.95,-131.44 747.36,-129.43 737.97,-124.52 736.95,-131.44"/>
</g>
<!-- Node6 -->
<g id="node6" class="node">
<title>Node6</title>
<g id="a_node6"><a xlink:href="class_physics_1_1_collision_1_1_shape_1_1_collision_shape.html#af5247f1c8125a229c2be17f898608269" target="_top" xlink:title=" ">
<polygon fill="white" stroke="black" points="746,-74.5 746,-104.5 874,-104.5 874,-74.5 746,-74.5"/>
<text text-anchor="start" x="754" y="-92.5" font-family="Helvetica,sans-Serif" font-size="10.00">Physics.Collision.Shape.</text>
<text text-anchor="middle" x="810" y="-81.5" font-family="Helvetica,sans-Serif" font-size="10.00">CollisionShape.GetBound</text>
</a>
</g>
</g>
<!-- Node4&#45;&gt;Node6 -->
<g id="edge5" class="edge">
<title>Node4&#45;&gt;Node6</title>
<path fill="none" stroke="midnightblue" d="M710.11,-103.46C718.61,-102.26 727.3,-101.03 735.83,-99.83"/>
<polygon fill="midnightblue" stroke="midnightblue" points="736.34,-103.29 745.75,-98.43 735.36,-96.36 736.34,-103.29"/>
</g>
</g>
</svg>
