<?xml version="1.0" encoding="UTF-8" standalone="no"?>
<!DOCTYPE svg PUBLIC "-//W3C//DTD SVG 1.1//EN"
 "http://www.w3.org/Graphics/SVG/1.1/DTD/svg11.dtd">
<!-- Generated by graphviz version 2.50.0 (20211204.2007)
 -->
<!-- Title: Physics.PhysicsWorld.Update Pages: 1 -->
<svg width="1519pt" height="559pt"
 viewBox="0.00 0.00 1519.00 559.00" xmlns="http://www.w3.org/2000/svg" xmlns:xlink="http://www.w3.org/1999/xlink">
<g id="graph0" class="graph" transform="scale(1 1) rotate(0) translate(4 555)">
<title>Physics.PhysicsWorld.Update</title>
<polygon fill="white" stroke="transparent" points="-4,4 -4,-555 1515,-555 1515,4 -4,4"/>
<!-- Node1 -->
<g id="node1" class="node">
<title>Node1</title>
<g id="a_node1"><a xlink:title=" ">
<polygon fill="#bfbfbf" stroke="black" points="0,-382 0,-401 149,-401 149,-382 0,-382"/>
<text text-anchor="middle" x="74.5" y="-389" font-family="Helvetica,sans-Serif" font-size="10.00">Physics.PhysicsWorld.Update</text>
</a>
</g>
</g>
<!-- Node2 -->
<g id="node2" class="node">
<title>Node2</title>
<g id="a_node2"><a xlink:href="class_physics_1_1_physics_world.html#adc2e766cfd2414718237d76064130c7f" target="_top" xlink:title=" ">
<polygon fill="white" stroke="black" points="185,-382 185,-401 322,-401 322,-382 185,-382"/>
<text text-anchor="middle" x="253.5" y="-389" font-family="Helvetica,sans-Serif" font-size="10.00">Physics.PhysicsWorld.Tick</text>
</a>
</g>
</g>
<!-- Node1&#45;&gt;Node2 -->
<g id="edge1" class="edge">
<title>Node1&#45;&gt;Node2</title>
<path fill="none" stroke="midnightblue" d="M149.03,-391.5C157.47,-391.5 166.09,-391.5 174.59,-391.5"/>
<polygon fill="midnightblue" stroke="midnightblue" points="174.87,-395 184.87,-391.5 174.87,-388 174.87,-395"/>
</g>
<!-- Node3 -->
<g id="node3" class="node">
<title>Node3</title>
<g id="a_node3"><a xlink:href="class_physics_1_1_physics_world.html#a9e0230662c23f57f5f94d9ee9e672487" target="_top" xlink:title=" ">
<polygon fill="white" stroke="black" points="364,-450.5 364,-480.5 507,-480.5 507,-450.5 364,-450.5"/>
<text text-anchor="start" x="372" y="-468.5" font-family="Helvetica,sans-Serif" font-size="10.00">Physics.PhysicsWorld.Apply</text>
<text text-anchor="middle" x="435.5" y="-457.5" font-family="Helvetica,sans-Serif" font-size="10.00">Acceleration</text>
</a>
</g>
</g>
<!-- Node2&#45;&gt;Node3 -->
<g id="edge2" class="edge">
<title>Node2&#45;&gt;Node3</title>
<path fill="none" stroke="midnightblue" d="M272.46,-401.17C292.83,-411.9 327.2,-429.3 358,-441.5 362.81,-443.4 367.84,-445.26 372.92,-447.05"/>
<polygon fill="midnightblue" stroke="midnightblue" points="372.11,-450.47 382.7,-450.38 374.36,-443.84 372.11,-450.47"/>
</g>
<!-- Node4 -->
<g id="node4" class="node">
<title>Node4</title>
<g id="a_node4"><a xlink:href="class_physics_1_1_physics_world.html#ab2cb96f774604513627f530a712e9003" target="_top" xlink:title=" ">
<polygon fill="white" stroke="black" points="364,-401.5 364,-431.5 507,-431.5 507,-401.5 364,-401.5"/>
<text text-anchor="start" x="372" y="-419.5" font-family="Helvetica,sans-Serif" font-size="10.00">Physics.PhysicsWorld.Apply</text>
<text text-anchor="middle" x="435.5" y="-408.5" font-family="Helvetica,sans-Serif" font-size="10.00">Velocity</text>
</a>
</g>
</g>
<!-- Node2&#45;&gt;Node4 -->
<g id="edge3" class="edge">
<title>Node2&#45;&gt;Node4</title>
<path fill="none" stroke="midnightblue" d="M322.04,-400.88C332.39,-402.32 343.18,-403.82 353.78,-405.29"/>
<polygon fill="midnightblue" stroke="midnightblue" points="353.49,-408.78 363.88,-406.69 354.46,-401.85 353.49,-408.78"/>
</g>
<!-- Node12 -->
<g id="node12" class="node">
<title>Node12</title>
<g id="a_node12"><a xlink:href="class_physics_1_1_physics_world.html#a516968c71000684ea688d080074d0ec8" target="_top" xlink:title=" ">
<polygon fill="white" stroke="black" points="358,-352.5 358,-382.5 513,-382.5 513,-352.5 358,-352.5"/>
<text text-anchor="start" x="366" y="-370.5" font-family="Helvetica,sans-Serif" font-size="10.00">Physics.PhysicsWorld.Collision</text>
<text text-anchor="middle" x="435.5" y="-359.5" font-family="Helvetica,sans-Serif" font-size="10.00">Detection</text>
</a>
</g>
</g>
<!-- Node2&#45;&gt;Node12 -->
<g id="edge11" class="edge">
<title>Node2&#45;&gt;Node12</title>
<path fill="none" stroke="midnightblue" d="M322.04,-382.5C330.43,-381.38 339.09,-380.22 347.72,-379.07"/>
<polygon fill="midnightblue" stroke="midnightblue" points="348.36,-382.52 357.81,-377.73 347.44,-375.58 348.36,-382.52"/>
</g>
<!-- Node38 -->
<g id="node38" class="node">
<title>Node38</title>
<g id="a_node38"><a xlink:href="class_physics_1_1_physics_world.html#a9cb8b9d6d48d80e26976deb605e14295" target="_top" xlink:title=" ">
<polygon fill="white" stroke="black" points="358.5,-287 358.5,-306 512.5,-306 512.5,-287 358.5,-287"/>
<text text-anchor="middle" x="435.5" y="-294" font-family="Helvetica,sans-Serif" font-size="10.00">Physics.PhysicsWorld.Resolve</text>
</a>
</g>
</g>
<!-- Node2&#45;&gt;Node38 -->
<g id="edge44" class="edge">
<title>Node2&#45;&gt;Node38</title>
<path fill="none" stroke="midnightblue" d="M272.75,-381.87C304.5,-365.11 370.06,-330.51 407.23,-310.89"/>
<polygon fill="midnightblue" stroke="midnightblue" points="409.26,-313.78 416.47,-306.02 405.99,-307.59 409.26,-313.78"/>
</g>
<!-- Node5 -->
<g id="node5" class="node">
<title>Node5</title>
<g id="a_node5"><a xlink:href="class_physics_1_1_collision_1_1_collision_object.html#a08bb2ab0fee9cf7f7b6af438d3b2d1db" target="_top" xlink:title=" ">
<polygon fill="white" stroke="black" points="557,-511.5 557,-541.5 690,-541.5 690,-511.5 557,-511.5"/>
<text text-anchor="start" x="565" y="-529.5" font-family="Helvetica,sans-Serif" font-size="10.00">Physics.Collision.Collision</text>
<text text-anchor="middle" x="623.5" y="-518.5" font-family="Helvetica,sans-Serif" font-size="10.00">Object.ApplyPosition</text>
</a>
</g>
</g>
<!-- Node4&#45;&gt;Node5 -->
<g id="edge4" class="edge">
<title>Node4&#45;&gt;Node5</title>
<path fill="none" stroke="midnightblue" d="M495.57,-431.58C501.74,-434.37 507.68,-437.65 513,-441.5 534.89,-457.34 528.27,-473.17 549,-490.5 556.44,-496.72 565.15,-502.19 573.9,-506.85"/>
<polygon fill="midnightblue" stroke="midnightblue" points="572.5,-510.06 583,-511.43 575.64,-503.81 572.5,-510.06"/>
</g>
<!-- Node10 -->
<g id="node10" class="node">
<title>Node10</title>
<g id="a_node10"><a xlink:href="class_physics_1_1_collision_1_1_collision_object.html#a7a805a42fc5c86aff1715e9ce7f77d48" target="_top" xlink:title=" ">
<polygon fill="white" stroke="black" points="551,-450.5 551,-480.5 696,-480.5 696,-450.5 551,-450.5"/>
<text text-anchor="start" x="559" y="-468.5" font-family="Helvetica,sans-Serif" font-size="10.00">Physics.Collision.Collision</text>
<text text-anchor="middle" x="623.5" y="-457.5" font-family="Helvetica,sans-Serif" font-size="10.00">Object.CleanResolveVelocity</text>
</a>
</g>
</g>
<!-- Node4&#45;&gt;Node10 -->
<g id="edge9" class="edge">
<title>Node4&#45;&gt;Node10</title>
<path fill="none" stroke="midnightblue" d="M493.57,-431.53C513.21,-436.71 535.37,-442.55 555.72,-447.91"/>
<polygon fill="midnightblue" stroke="midnightblue" points="554.98,-451.33 565.54,-450.49 556.76,-444.56 554.98,-451.33"/>
</g>
<!-- Node11 -->
<g id="node11" class="node">
<title>Node11</title>
<g id="a_node11"><a xlink:href="class_physics_1_1_collision_1_1_collision_object.html#a1d619f33e85ae72c0cfa06fddbad7655" target="_top" xlink:title=" ">
<polygon fill="white" stroke="black" points="557,-401.5 557,-431.5 690,-431.5 690,-401.5 557,-401.5"/>
<text text-anchor="start" x="565" y="-419.5" font-family="Helvetica,sans-Serif" font-size="10.00">Physics.Collision.Collision</text>
<text text-anchor="middle" x="623.5" y="-408.5" font-family="Helvetica,sans-Serif" font-size="10.00">Object.Translate</text>
</a>
</g>
</g>
<!-- Node4&#45;&gt;Node11 -->
<g id="edge10" class="edge">
<title>Node4&#45;&gt;Node11</title>
<path fill="none" stroke="midnightblue" d="M507.08,-416.5C519.98,-416.5 533.48,-416.5 546.52,-416.5"/>
<polygon fill="midnightblue" stroke="midnightblue" points="546.86,-420 556.86,-416.5 546.86,-413 546.86,-420"/>
</g>
<!-- Node6 -->
<g id="node6" class="node">
<title>Node6</title>
<g id="a_node6"><a xlink:href="class_physics_1_1_collision_1_1_shape_1_1_collision_shape.html#aa2888c2955c43fcd2adb654e88db7183" target="_top" xlink:title=" ">
<polygon fill="white" stroke="black" points="734,-517.5 734,-547.5 904,-547.5 904,-517.5 734,-517.5"/>
<text text-anchor="start" x="742" y="-535.5" font-family="Helvetica,sans-Serif" font-size="10.00">Physics.Collision.Shape.</text>
<text text-anchor="middle" x="819" y="-524.5" font-family="Helvetica,sans-Serif" font-size="10.00">CollisionShape.ApplyWorldVertices</text>
</a>
</g>
</g>
<!-- Node5&#45;&gt;Node6 -->
<g id="edge5" class="edge">
<title>Node5&#45;&gt;Node6</title>
<path fill="none" stroke="midnightblue" d="M690.01,-528.53C700.76,-528.86 712.08,-529.22 723.36,-529.57"/>
<polygon fill="midnightblue" stroke="midnightblue" points="723.59,-533.07 733.69,-529.89 723.8,-526.08 723.59,-533.07"/>
</g>
<!-- Node7 -->
<g id="node7" class="node">
<title>Node7</title>
<g id="a_node7"><a xlink:href="class_physics_1_1_collision_1_1_shape_1_1_collision_shape.html#ab236eb056356a1dd7e657c4154a58441" target="_top" xlink:title=" ">
<polygon fill="white" stroke="black" points="944,-519.5 944,-549.5 1088,-549.5 1088,-519.5 944,-519.5"/>
<text text-anchor="start" x="952" y="-537.5" font-family="Helvetica,sans-Serif" font-size="10.00">Physics.Collision.Shape.</text>
<text text-anchor="middle" x="1016" y="-526.5" font-family="Helvetica,sans-Serif" font-size="10.00">CollisionShape.UpdateShape</text>
</a>
</g>
</g>
<!-- Node6&#45;&gt;Node7 -->
<g id="edge6" class="edge">
<title>Node6&#45;&gt;Node7</title>
<path fill="none" stroke="midnightblue" d="M904.11,-533.36C913.9,-533.46 923.88,-533.57 933.64,-533.67"/>
<polygon fill="midnightblue" stroke="midnightblue" points="933.67,-537.17 943.7,-533.77 933.74,-530.17 933.67,-537.17"/>
</g>
<!-- Node8 -->
<g id="node8" class="node">
<title>Node8</title>
<g id="a_node8"><a xlink:href="class_physics_1_1_collision_1_1_model_1_1_a_a_b_b.html#aab605aa58d0da2a571db877bb277f9dc" target="_top" xlink:title=" ">
<polygon fill="white" stroke="black" points="1146,-471.5 1146,-501.5 1271,-501.5 1271,-471.5 1146,-471.5"/>
<text text-anchor="start" x="1154" y="-489.5" font-family="Helvetica,sans-Serif" font-size="10.00">Physics.Collision.Model.</text>
<text text-anchor="middle" x="1208.5" y="-478.5" font-family="Helvetica,sans-Serif" font-size="10.00">AABB.Apply</text>
</a>
</g>
</g>
<!-- Node7&#45;&gt;Node8 -->
<g id="edge7" class="edge">
<title>Node7&#45;&gt;Node8</title>
<path fill="none" stroke="midnightblue" d="M1076.75,-519.44C1096.26,-514.53 1118.08,-509.03 1138.22,-503.96"/>
<polygon fill="midnightblue" stroke="midnightblue" points="1139.12,-507.34 1147.96,-501.5 1137.41,-500.55 1139.12,-507.34"/>
</g>
<!-- Node9 -->
<g id="node9" class="node">
<title>Node9</title>
<g id="a_node9"><a xlink:href="class_physics_1_1_collision_1_1_shape_1_1_collision_shape.html#af5247f1c8125a229c2be17f898608269" target="_top" xlink:title=" ">
<polygon fill="white" stroke="black" points="1144.5,-520.5 1144.5,-550.5 1272.5,-550.5 1272.5,-520.5 1144.5,-520.5"/>
<text text-anchor="start" x="1152.5" y="-538.5" font-family="Helvetica,sans-Serif" font-size="10.00">Physics.Collision.Shape.</text>
<text text-anchor="middle" x="1208.5" y="-527.5" font-family="Helvetica,sans-Serif" font-size="10.00">CollisionShape.GetBound</text>
</a>
</g>
</g>
<!-- Node7&#45;&gt;Node9 -->
<g id="edge8" class="edge">
<title>Node7&#45;&gt;Node9</title>
<path fill="none" stroke="midnightblue" d="M1088.21,-534.87C1103.15,-534.95 1118.93,-535.04 1133.96,-535.11"/>
<polygon fill="midnightblue" stroke="midnightblue" points="1134.2,-538.62 1144.22,-535.17 1134.23,-531.62 1134.2,-538.62"/>
</g>
<!-- Node13 -->
<g id="node13" class="node">
<title>Node13</title>
<g id="a_node13"><a xlink:href="class_physics_1_1_physics_world.html#a9fb900baebfc430f003c9810c5ffb676" target="_top" xlink:title=" ">
<polygon fill="white" stroke="black" points="552,-352.5 552,-382.5 695,-382.5 695,-352.5 552,-352.5"/>
<text text-anchor="start" x="560" y="-370.5" font-family="Helvetica,sans-Serif" font-size="10.00">Physics.PhysicsWorld.Broad</text>
<text text-anchor="middle" x="623.5" y="-359.5" font-family="Helvetica,sans-Serif" font-size="10.00">Phase</text>
</a>
</g>
</g>
<!-- Node12&#45;&gt;Node13 -->
<g id="edge12" class="edge">
<title>Node12&#45;&gt;Node13</title>
<path fill="none" stroke="midnightblue" d="M513.23,-367.5C522.63,-367.5 532.27,-367.5 541.73,-367.5"/>
<polygon fill="midnightblue" stroke="midnightblue" points="541.92,-371 551.92,-367.5 541.92,-364 541.92,-371"/>
</g>
<!-- Node17 -->
<g id="node17" class="node">
<title>Node17</title>
<g id="a_node17"><a xlink:href="class_physics_1_1_physics_world.html#ab505479deb9b79c8d1c5edd3957c8e49" target="_top" xlink:title=" ">
<polygon fill="white" stroke="black" points="549,-279.5 549,-309.5 698,-309.5 698,-279.5 549,-279.5"/>
<text text-anchor="start" x="557" y="-297.5" font-family="Helvetica,sans-Serif" font-size="10.00">Physics.PhysicsWorld.Narrow</text>
<text text-anchor="middle" x="623.5" y="-286.5" font-family="Helvetica,sans-Serif" font-size="10.00">Phase</text>
</a>
</g>
</g>
<!-- Node12&#45;&gt;Node17 -->
<g id="edge16" class="edge">
<title>Node12&#45;&gt;Node17</title>
<path fill="none" stroke="midnightblue" d="M475.04,-352.37C503.84,-341.07 543.41,-325.54 574.31,-313.41"/>
<polygon fill="midnightblue" stroke="midnightblue" points="575.98,-316.52 584.01,-309.61 573.42,-310 575.98,-316.52"/>
</g>
<!-- Node14 -->
<g id="node14" class="node">
<title>Node14</title>
<g id="a_node14"><a xlink:href="class_physics_1_1_physics_cache_pool.html#ac27eaf9b9f722b0953bfd38621cab2fc" target="_top" xlink:title=" ">
<polygon fill="white" stroke="black" points="748.5,-352.5 748.5,-382.5 889.5,-382.5 889.5,-352.5 748.5,-352.5"/>
<text text-anchor="start" x="756.5" y="-370.5" font-family="Helvetica,sans-Serif" font-size="10.00">Physics.PhysicsCachePool.</text>
<text text-anchor="middle" x="819" y="-359.5" font-family="Helvetica,sans-Serif" font-size="10.00">RecycleCollisionPair</text>
</a>
</g>
</g>
<!-- Node13&#45;&gt;Node14 -->
<g id="edge13" class="edge">
<title>Node13&#45;&gt;Node14</title>
<path fill="none" stroke="midnightblue" d="M695.18,-367.5C709.17,-367.5 723.94,-367.5 738.2,-367.5"/>
<polygon fill="midnightblue" stroke="midnightblue" points="738.48,-371 748.48,-367.5 738.48,-364 738.48,-371"/>
</g>
<!-- Node15 -->
<g id="node15" class="node">
<title>Node15</title>
<g id="a_node15"><a xlink:href="class_physics_1_1_physics_world.html#ac2f42a51005358723ff89d9021d64d59" target="_top" xlink:title=" ">
<polygon fill="white" stroke="black" points="745,-438.5 745,-468.5 893,-468.5 893,-438.5 745,-438.5"/>
<text text-anchor="start" x="753" y="-456.5" font-family="Helvetica,sans-Serif" font-size="10.00">Physics.PhysicsWorld.Sweep</text>
<text text-anchor="middle" x="819" y="-445.5" font-family="Helvetica,sans-Serif" font-size="10.00">AndPrune</text>
</a>
</g>
</g>
<!-- Node13&#45;&gt;Node15 -->
<g id="edge14" class="edge">
<title>Node13&#45;&gt;Node15</title>
<path fill="none" stroke="midnightblue" d="M674.32,-382.56C682.32,-385.32 690.45,-388.34 698,-391.5 727.41,-403.8 759.43,-420.53 782.99,-433.5"/>
<polygon fill="midnightblue" stroke="midnightblue" points="781.45,-436.66 791.9,-438.45 784.85,-430.54 781.45,-436.66"/>
</g>
<!-- Node16 -->
<g id="node16" class="node">
<title>Node16</title>
<g id="a_node16"><a xlink:href="class_physics_1_1_physics_cache_pool.html#ae7c2a83abab9d077936c94c800197f4a" target="_top" xlink:title=" ">
<polygon fill="white" stroke="black" points="945.5,-470.5 945.5,-500.5 1086.5,-500.5 1086.5,-470.5 945.5,-470.5"/>
<text text-anchor="start" x="953.5" y="-488.5" font-family="Helvetica,sans-Serif" font-size="10.00">Physics.PhysicsCachePool.</text>
<text text-anchor="middle" x="1016" y="-477.5" font-family="Helvetica,sans-Serif" font-size="10.00">GetCollisionPairFromPool</text>
</a>
</g>
</g>
<!-- Node15&#45;&gt;Node16 -->
<g id="edge15" class="edge">
<title>Node15&#45;&gt;Node16</title>
<path fill="none" stroke="midnightblue" d="M893.17,-465.51C906.91,-467.76 921.33,-470.13 935.26,-472.41"/>
<polygon fill="midnightblue" stroke="midnightblue" points="934.86,-475.9 945.3,-474.06 936,-468.99 934.86,-475.9"/>
</g>
<!-- Node18 -->
<g id="node18" class="node">
<title>Node18</title>
<g id="a_node18"><a xlink:href="class_physics_1_1_physics_world.html#a981b90f47065fded56b0145083aac984" target="_top" xlink:title=" ">
<polygon fill="white" stroke="black" points="750.5,-282 750.5,-301 887.5,-301 887.5,-282 750.5,-282"/>
<text text-anchor="middle" x="819" y="-289" font-family="Helvetica,sans-Serif" font-size="10.00">Physics.PhysicsWorld.EPA</text>
</a>
</g>
</g>
<!-- Node17&#45;&gt;Node18 -->
<g id="edge17" class="edge">
<title>Node17&#45;&gt;Node18</title>
<path fill="none" stroke="midnightblue" d="M698.21,-293.36C711.82,-293.15 726.09,-292.93 739.83,-292.71"/>
<polygon fill="midnightblue" stroke="midnightblue" points="740.28,-296.21 750.22,-292.55 740.17,-289.21 740.28,-296.21"/>
</g>
<!-- Node35 -->
<g id="node35" class="node">
<title>Node35</title>
<g id="a_node35"><a xlink:href="class_physics_1_1_physics_world.html#abbda8b52c5f3c0cf86ac64fbc64fd69e" target="_top" xlink:title=" ">
<polygon fill="white" stroke="black" points="750.5,-119 750.5,-138 887.5,-138 887.5,-119 750.5,-119"/>
<text text-anchor="middle" x="819" y="-126" font-family="Helvetica,sans-Serif" font-size="10.00">Physics.PhysicsWorld.GJK</text>
</a>
</g>
</g>
<!-- Node17&#45;&gt;Node35 -->
<g id="edge38" class="edge">
<title>Node17&#45;&gt;Node35</title>
<path fill="none" stroke="midnightblue" d="M679.86,-279.35C686.22,-276.55 692.43,-273.29 698,-269.5 747.42,-235.92 788.34,-176.77 807.05,-146.88"/>
<polygon fill="midnightblue" stroke="midnightblue" points="810.08,-148.63 812.32,-138.28 804.11,-144.97 810.08,-148.63"/>
</g>
<!-- Node19 -->
<g id="node19" class="node">
<title>Node19</title>
<g id="a_node19"><a xlink:href="class_physics_1_1_collision_1_1_model_1_1_simplex_edge.html#a816ccd6c203d0952fdcf318cbf628be2" target="_top" xlink:title=" ">
<polygon fill="white" stroke="black" points="940,-372.5 940,-402.5 1092,-402.5 1092,-372.5 940,-372.5"/>
<text text-anchor="start" x="948" y="-390.5" font-family="Helvetica,sans-Serif" font-size="10.00">Physics.Collision.Model.</text>
<text text-anchor="middle" x="1016" y="-379.5" font-family="Helvetica,sans-Serif" font-size="10.00">SimplexEdge.FindClosestEdge</text>
</a>
</g>
</g>
<!-- Node18&#45;&gt;Node19 -->
<g id="edge18" class="edge">
<title>Node18&#45;&gt;Node19</title>
<path fill="none" stroke="midnightblue" d="M835.83,-301.12C865.91,-319.37 929.32,-357.63 940,-362.5 944.92,-364.74 950.1,-366.89 955.34,-368.91"/>
<polygon fill="midnightblue" stroke="midnightblue" points="954.21,-372.23 964.8,-372.42 956.64,-365.66 954.21,-372.23"/>
</g>
<!-- Node20 -->
<g id="node20" class="node">
<title>Node20</title>
<g id="a_node20"><a xlink:href="class_physics_1_1_physics_world.html#a5ea0895316da17449ff1352e2610ba59" target="_top" xlink:title=" ">
<polygon fill="white" stroke="black" points="947.5,-137.5 947.5,-167.5 1084.5,-167.5 1084.5,-137.5 947.5,-137.5"/>
<text text-anchor="start" x="955.5" y="-155.5" font-family="Helvetica,sans-Serif" font-size="10.00">Physics.PhysicsWorld.Find</text>
<text text-anchor="middle" x="1016" y="-144.5" font-family="Helvetica,sans-Serif" font-size="10.00">NextDirection</text>
</a>
</g>
</g>
<!-- Node18&#45;&gt;Node20 -->
<g id="edge19" class="edge">
<title>Node18&#45;&gt;Node20</title>
<path fill="none" stroke="midnightblue" d="M827.64,-281.77C845.2,-260.02 890.73,-207.09 940,-177.5 943.57,-175.35 947.36,-173.37 951.25,-171.53"/>
<polygon fill="midnightblue" stroke="midnightblue" points="952.7,-174.71 960.47,-167.51 949.91,-168.29 952.7,-174.71"/>
</g>
<!-- Node22 -->
<g id="node22" class="node">
<title>Node22</title>
<g id="a_node22"><a xlink:href="class_physics_1_1_physics_cache_pool.html#a9f45043e890ef8e5d8c382ccaa4cc710" target="_top" xlink:title=" ">
<polygon fill="white" stroke="black" points="945.5,-323.5 945.5,-353.5 1086.5,-353.5 1086.5,-323.5 945.5,-323.5"/>
<text text-anchor="start" x="953.5" y="-341.5" font-family="Helvetica,sans-Serif" font-size="10.00">Physics.PhysicsCachePool.</text>
<text text-anchor="middle" x="1016" y="-330.5" font-family="Helvetica,sans-Serif" font-size="10.00">GetSimplexEdgeFromPool</text>
</a>
</g>
</g>
<!-- Node18&#45;&gt;Node22 -->
<g id="edge21" class="edge">
<title>Node18&#45;&gt;Node22</title>
<path fill="none" stroke="midnightblue" d="M859.46,-301.01C883.35,-306.77 914.56,-314.29 942.74,-321.08"/>
<polygon fill="midnightblue" stroke="midnightblue" points="942.02,-324.51 952.56,-323.45 943.66,-317.71 942.02,-324.51"/>
</g>
<!-- Node23 -->
<g id="node23" class="node">
<title>Node23</title>
<g id="a_node23"><a xlink:href="class_physics_1_1_collision_1_1_model_1_1_simplex_edge.html#ac435eb94635850bd1dbf75897fee68b7" target="_top" xlink:title=" ">
<polygon fill="white" stroke="black" points="953.5,-421.5 953.5,-451.5 1078.5,-451.5 1078.5,-421.5 953.5,-421.5"/>
<text text-anchor="start" x="961.5" y="-439.5" font-family="Helvetica,sans-Serif" font-size="10.00">Physics.Collision.Model.</text>
<text text-anchor="middle" x="1016" y="-428.5" font-family="Helvetica,sans-Serif" font-size="10.00">SimplexEdge.InitEdges</text>
</a>
</g>
</g>
<!-- Node18&#45;&gt;Node23 -->
<g id="edge22" class="edge">
<title>Node18&#45;&gt;Node23</title>
<path fill="none" stroke="midnightblue" d="M842.65,-301.06C861.01,-309.72 886.62,-323.95 904,-342.5 927.65,-367.74 913.67,-389.06 940,-411.5 941.97,-413.17 944.05,-414.74 946.22,-416.2"/>
<polygon fill="midnightblue" stroke="midnightblue" points="944.57,-419.29 954.97,-421.33 948.11,-413.25 944.57,-419.29"/>
</g>
<!-- Node28 -->
<g id="node28" class="node">
<title>Node28</title>
<g id="a_node28"><a xlink:href="class_physics_1_1_collision_1_1_model_1_1_simplex_edge.html#ae349a32da5778aa885c6f5b1e7153350" target="_top" xlink:title=" ">
<polygon fill="white" stroke="black" points="942.5,-274.5 942.5,-304.5 1089.5,-304.5 1089.5,-274.5 942.5,-274.5"/>
<text text-anchor="start" x="950.5" y="-292.5" font-family="Helvetica,sans-Serif" font-size="10.00">Physics.Collision.Model.</text>
<text text-anchor="middle" x="1016" y="-281.5" font-family="Helvetica,sans-Serif" font-size="10.00">SimplexEdge.InsertEdgePoint</text>
</a>
</g>
</g>
<!-- Node18&#45;&gt;Node28 -->
<g id="edge27" class="edge">
<title>Node18&#45;&gt;Node28</title>
<path fill="none" stroke="midnightblue" d="M887.65,-290.81C902.04,-290.66 917.39,-290.5 932.27,-290.35"/>
<polygon fill="midnightblue" stroke="midnightblue" points="932.52,-293.85 942.48,-290.24 932.45,-286.85 932.52,-293.85"/>
</g>
<!-- Node31 -->
<g id="node31" class="node">
<title>Node31</title>
<g id="a_node31"><a xlink:href="class_physics_1_1_physics_cache_pool.html#ad31fe94e7d5fc45379a922481b6f6739" target="_top" xlink:title=" ">
<polygon fill="white" stroke="black" points="945.5,-225.5 945.5,-255.5 1086.5,-255.5 1086.5,-225.5 945.5,-225.5"/>
<text text-anchor="start" x="953.5" y="-243.5" font-family="Helvetica,sans-Serif" font-size="10.00">Physics.PhysicsCachePool.</text>
<text text-anchor="middle" x="1016" y="-232.5" font-family="Helvetica,sans-Serif" font-size="10.00">RecycleSimplexEdge</text>
</a>
</g>
</g>
<!-- Node18&#45;&gt;Node31 -->
<g id="edge33" class="edge">
<title>Node18&#45;&gt;Node31</title>
<path fill="none" stroke="midnightblue" d="M856.68,-281.91C882.26,-275.22 917.15,-266.09 947.67,-258.11"/>
<polygon fill="midnightblue" stroke="midnightblue" points="948.61,-261.48 957.4,-255.56 946.84,-254.71 948.61,-261.48"/>
</g>
<!-- Node33 -->
<g id="node33" class="node">
<title>Node33</title>
<g id="a_node33"><a xlink:href="class_physics_1_1_physics_world.html#af1aadffc2ad0f1b13391fe5eb1f4e703" target="_top" xlink:title=" ">
<polygon fill="white" stroke="black" points="940,-187 940,-206 1092,-206 1092,-187 940,-187"/>
<text text-anchor="middle" x="1016" y="-194" font-family="Helvetica,sans-Serif" font-size="10.00">Physics.PhysicsWorld.Support</text>
</a>
</g>
</g>
<!-- Node18&#45;&gt;Node33 -->
<g id="edge36" class="edge">
<title>Node18&#45;&gt;Node33</title>
<path fill="none" stroke="midnightblue" d="M832.22,-281.89C853.14,-265.88 897.64,-233.73 940,-215.5 945.75,-213.03 951.89,-210.82 958.09,-208.88"/>
<polygon fill="midnightblue" stroke="midnightblue" points="959.22,-212.19 967.83,-206.02 957.25,-205.47 959.22,-212.19"/>
</g>
<!-- Node21 -->
<g id="node21" class="node">
<title>Node21</title>
<g id="a_node21"><a xlink:href="class_physics_1_1_physics_tool.html#a76623f29e2f14991ed006a429914f55a" target="_top" xlink:title=" ">
<polygon fill="white" stroke="black" points="1128,-88.5 1128,-118.5 1289,-118.5 1289,-88.5 1128,-88.5"/>
<text text-anchor="start" x="1136" y="-106.5" font-family="Helvetica,sans-Serif" font-size="10.00">Physics.PhysicsTool.GetClosest</text>
<text text-anchor="middle" x="1208.5" y="-95.5" font-family="Helvetica,sans-Serif" font-size="10.00">PointToOrigin</text>
</a>
</g>
</g>
<!-- Node20&#45;&gt;Node21 -->
<g id="edge20" class="edge">
<title>Node20&#45;&gt;Node21</title>
<path fill="none" stroke="midnightblue" d="M1075.45,-137.47C1095.66,-132.27 1118.47,-126.4 1139.39,-121.02"/>
<polygon fill="midnightblue" stroke="midnightblue" points="1140.35,-124.39 1149.16,-118.51 1138.6,-117.61 1140.35,-124.39"/>
</g>
<!-- Node24 -->
<g id="node24" class="node">
<title>Node24</title>
<g id="a_node24"><a xlink:href="class_physics_1_1_collision_1_1_model_1_1_simplex_edge.html#aa9b0228aaaf6885ee72668b11e1b22da" target="_top" xlink:title=" ">
<polygon fill="white" stroke="black" points="1137,-420.5 1137,-450.5 1280,-450.5 1280,-420.5 1137,-420.5"/>
<text text-anchor="start" x="1145" y="-438.5" font-family="Helvetica,sans-Serif" font-size="10.00">Physics.Collision.Model.</text>
<text text-anchor="middle" x="1208.5" y="-427.5" font-family="Helvetica,sans-Serif" font-size="10.00">SimplexEdge.CreateInitEdge</text>
</a>
</g>
</g>
<!-- Node23&#45;&gt;Node24 -->
<g id="edge23" class="edge">
<title>Node23&#45;&gt;Node24</title>
<path fill="none" stroke="midnightblue" d="M1078.59,-436.18C1093.84,-436.1 1110.4,-436.01 1126.43,-435.93"/>
<polygon fill="midnightblue" stroke="midnightblue" points="1126.88,-439.42 1136.86,-435.87 1126.84,-432.42 1126.88,-439.42"/>
</g>
<!-- Node27 -->
<g id="node27" class="node">
<title>Node27</title>
<g id="a_node27"><a xlink:href="class_physics_1_1_collision_1_1_model_1_1_simplex_edge.html#a536f768434ce96fc78fe67adf4e0c9ed" target="_top" xlink:title=" ">
<polygon fill="white" stroke="black" points="1131,-371.5 1131,-401.5 1286,-401.5 1286,-371.5 1131,-371.5"/>
<text text-anchor="start" x="1139" y="-389.5" font-family="Helvetica,sans-Serif" font-size="10.00">Physics.Collision.Model.</text>
<text text-anchor="middle" x="1208.5" y="-378.5" font-family="Helvetica,sans-Serif" font-size="10.00">SimplexEdge.UpdateEdgeIndex</text>
</a>
</g>
</g>
<!-- Node23&#45;&gt;Node27 -->
<g id="edge26" class="edge">
<title>Node23&#45;&gt;Node27</title>
<path fill="none" stroke="midnightblue" d="M1074.16,-421.5C1094.97,-416.04 1118.69,-409.81 1140.29,-404.14"/>
<polygon fill="midnightblue" stroke="midnightblue" points="1141.27,-407.5 1150.06,-401.58 1139.49,-400.73 1141.27,-407.5"/>
</g>
<!-- Node25 -->
<g id="node25" class="node">
<title>Node25</title>
<g id="a_node25"><a xlink:href="class_physics_1_1_physics_cache_pool.html#a68b6244567d48376ad3a2e5188e73241" target="_top" xlink:title=" ">
<polygon fill="white" stroke="black" points="1347.5,-406.5 1347.5,-436.5 1488.5,-436.5 1488.5,-406.5 1347.5,-406.5"/>
<text text-anchor="start" x="1355.5" y="-424.5" font-family="Helvetica,sans-Serif" font-size="10.00">Physics.PhysicsCachePool.</text>
<text text-anchor="middle" x="1418" y="-413.5" font-family="Helvetica,sans-Serif" font-size="10.00">GetEdgeFromPool</text>
</a>
</g>
</g>
<!-- Node24&#45;&gt;Node25 -->
<g id="edge24" class="edge">
<title>Node24&#45;&gt;Node25</title>
<path fill="none" stroke="midnightblue" d="M1280.04,-430.74C1298.46,-429.5 1318.45,-428.15 1337.31,-426.88"/>
<polygon fill="midnightblue" stroke="midnightblue" points="1337.62,-430.36 1347.36,-426.2 1337.15,-423.38 1337.62,-430.36"/>
</g>
<!-- Node26 -->
<g id="node26" class="node">
<title>Node26</title>
<g id="a_node26"><a xlink:href="class_physics_1_1_physics_tool.html#a2b923d3cf606c6980a6b26c5b7bfc80f" target="_top" xlink:title=" ">
<polygon fill="white" stroke="black" points="1325,-333.5 1325,-363.5 1511,-363.5 1511,-333.5 1325,-333.5"/>
<text text-anchor="start" x="1333" y="-351.5" font-family="Helvetica,sans-Serif" font-size="10.00">Physics.PhysicsTool.GetPerpendicular</text>
<text text-anchor="middle" x="1418" y="-340.5" font-family="Helvetica,sans-Serif" font-size="10.00">ToOrigin</text>
</a>
</g>
</g>
<!-- Node24&#45;&gt;Node26 -->
<g id="edge25" class="edge">
<title>Node24&#45;&gt;Node26</title>
<path fill="none" stroke="midnightblue" d="M1261.21,-420.45C1270.54,-417.39 1280.12,-414.02 1289,-410.5 1320.34,-398.06 1354.66,-381.25 1379.87,-368.27"/>
<polygon fill="midnightblue" stroke="midnightblue" points="1381.8,-371.22 1389.06,-363.5 1378.58,-365 1381.8,-371.22"/>
</g>
<!-- Node28&#45;&gt;Node27 -->
<g id="edge32" class="edge">
<title>Node28&#45;&gt;Node27</title>
<path fill="none" stroke="midnightblue" d="M1076.42,-304.62C1081.91,-307.15 1087.21,-310.09 1092,-313.5 1113.73,-328.96 1106.23,-346.09 1128,-361.5 1130.72,-363.42 1133.59,-365.2 1136.56,-366.85"/>
<polygon fill="midnightblue" stroke="midnightblue" points="1135.23,-370.09 1145.74,-371.39 1138.34,-363.82 1135.23,-370.09"/>
</g>
<!-- Node29 -->
<g id="node29" class="node">
<title>Node29</title>
<g id="a_node29"><a xlink:href="class_physics_1_1_collision_1_1_model_1_1_simplex_edge.html#a46b8494a6a6088235c2b1bb272cdb8ba" target="_top" xlink:title=" ">
<polygon fill="white" stroke="black" points="1144,-322.5 1144,-352.5 1273,-352.5 1273,-322.5 1144,-322.5"/>
<text text-anchor="start" x="1152" y="-340.5" font-family="Helvetica,sans-Serif" font-size="10.00">Physics.Collision.Model.</text>
<text text-anchor="middle" x="1208.5" y="-329.5" font-family="Helvetica,sans-Serif" font-size="10.00">SimplexEdge.CreateEdge</text>
</a>
</g>
</g>
<!-- Node28&#45;&gt;Node29 -->
<g id="edge28" class="edge">
<title>Node28&#45;&gt;Node29</title>
<path fill="none" stroke="midnightblue" d="M1076.75,-304.56C1096.26,-309.47 1118.08,-314.97 1138.22,-320.04"/>
<polygon fill="midnightblue" stroke="midnightblue" points="1137.41,-323.45 1147.96,-322.5 1139.12,-316.66 1137.41,-323.45"/>
</g>
<!-- Node30 -->
<g id="node30" class="node">
<title>Node30</title>
<g id="a_node30"><a xlink:href="class_physics_1_1_physics_cache_pool.html#a912bb4bf46c20c664294e5387a7b7d6f" target="_top" xlink:title=" ">
<polygon fill="white" stroke="black" points="1347.5,-262.5 1347.5,-292.5 1488.5,-292.5 1488.5,-262.5 1347.5,-262.5"/>
<text text-anchor="start" x="1355.5" y="-280.5" font-family="Helvetica,sans-Serif" font-size="10.00">Physics.PhysicsCachePool.</text>
<text text-anchor="middle" x="1418" y="-269.5" font-family="Helvetica,sans-Serif" font-size="10.00">RecycleEdge</text>
</a>
</g>
</g>
<!-- Node28&#45;&gt;Node30 -->
<g id="edge31" class="edge">
<title>Node28&#45;&gt;Node30</title>
<path fill="none" stroke="midnightblue" d="M1089.9,-287.31C1159.7,-285.22 1264.77,-282.07 1336.89,-279.9"/>
<polygon fill="midnightblue" stroke="midnightblue" points="1337.39,-283.39 1347.28,-279.59 1337.18,-276.39 1337.39,-283.39"/>
</g>
<!-- Node29&#45;&gt;Node25 -->
<g id="edge29" class="edge">
<title>Node29&#45;&gt;Node25</title>
<path fill="none" stroke="midnightblue" d="M1263.31,-352.59C1271.97,-355.35 1280.79,-358.35 1289,-361.5 1319.89,-373.33 1353.73,-389.34 1378.86,-401.84"/>
<polygon fill="midnightblue" stroke="midnightblue" points="1377.53,-405.09 1388.04,-406.44 1380.67,-398.83 1377.53,-405.09"/>
</g>
<!-- Node29&#45;&gt;Node26 -->
<g id="edge30" class="edge">
<title>Node29&#45;&gt;Node26</title>
<path fill="none" stroke="midnightblue" d="M1273.17,-340.88C1286.3,-341.57 1300.45,-342.32 1314.56,-343.07"/>
<polygon fill="midnightblue" stroke="midnightblue" points="1314.64,-346.58 1324.82,-343.61 1315.02,-339.59 1314.64,-346.58"/>
</g>
<!-- Node32 -->
<g id="node32" class="node">
<title>Node32</title>
<g id="a_node32"><a xlink:href="class_physics_1_1_collision_1_1_model_1_1_simplex_edge.html#a422d4d80fc2c4205af1f96abcec05a67" target="_top" xlink:title=" ">
<polygon fill="white" stroke="black" points="1146,-230.5 1146,-260.5 1271,-260.5 1271,-230.5 1146,-230.5"/>
<text text-anchor="start" x="1154" y="-248.5" font-family="Helvetica,sans-Serif" font-size="10.00">Physics.Collision.Model.</text>
<text text-anchor="middle" x="1208.5" y="-237.5" font-family="Helvetica,sans-Serif" font-size="10.00">SimplexEdge.Clear</text>
</a>
</g>
</g>
<!-- Node31&#45;&gt;Node32 -->
<g id="edge34" class="edge">
<title>Node31&#45;&gt;Node32</title>
<path fill="none" stroke="midnightblue" d="M1086.58,-242.33C1102.54,-242.75 1119.53,-243.19 1135.58,-243.61"/>
<polygon fill="midnightblue" stroke="midnightblue" points="1135.89,-247.12 1145.98,-243.89 1136.07,-240.12 1135.89,-247.12"/>
</g>
<!-- Node32&#45;&gt;Node30 -->
<g id="edge35" class="edge">
<title>Node32&#45;&gt;Node30</title>
<path fill="none" stroke="midnightblue" d="M1271.2,-255.01C1291.91,-258.21 1315.33,-261.82 1337.23,-265.2"/>
<polygon fill="midnightblue" stroke="midnightblue" points="1336.76,-268.67 1347.17,-266.73 1337.83,-261.75 1336.76,-268.67"/>
</g>
<!-- Node34 -->
<g id="node34" class="node">
<title>Node34</title>
<g id="a_node34"><a xlink:href="class_physics_1_1_collision_1_1_collision_object.html#a28cc343d91add7b15402133b83d76b27" target="_top" xlink:title=" ">
<polygon fill="white" stroke="black" points="1137,-181.5 1137,-211.5 1280,-211.5 1280,-181.5 1137,-181.5"/>
<text text-anchor="start" x="1145" y="-199.5" font-family="Helvetica,sans-Serif" font-size="10.00">Physics.Collision.Collision</text>
<text text-anchor="middle" x="1208.5" y="-188.5" font-family="Helvetica,sans-Serif" font-size="10.00">Object.GetFarthestPointInDir</text>
</a>
</g>
</g>
<!-- Node33&#45;&gt;Node34 -->
<g id="edge37" class="edge">
<title>Node33&#45;&gt;Node34</title>
<path fill="none" stroke="midnightblue" d="M1092.02,-196.5C1103.45,-196.5 1115.3,-196.5 1126.85,-196.5"/>
<polygon fill="midnightblue" stroke="midnightblue" points="1126.9,-200 1136.9,-196.5 1126.9,-193 1126.9,-200"/>
</g>
<!-- Node35&#45;&gt;Node20 -->
<g id="edge40" class="edge">
<title>Node35&#45;&gt;Node20</title>
<path fill="none" stroke="midnightblue" d="M887.65,-136.83C903.69,-138.8 920.91,-140.92 937.35,-142.94"/>
<polygon fill="midnightblue" stroke="midnightblue" points="937.11,-146.44 947.47,-144.19 937.97,-139.49 937.11,-146.44"/>
</g>
<!-- Node35&#45;&gt;Node21 -->
<g id="edge41" class="edge">
<title>Node35&#45;&gt;Node21</title>
<path fill="none" stroke="midnightblue" d="M836.81,-118.98C859.42,-106.77 901.27,-86.25 940,-78.5 1007.06,-65.09 1085.06,-75.24 1139.46,-86.36"/>
<polygon fill="midnightblue" stroke="midnightblue" points="1138.83,-89.81 1149.34,-88.45 1140.27,-82.96 1138.83,-89.81"/>
</g>
<!-- Node35&#45;&gt;Node33 -->
<g id="edge43" class="edge">
<title>Node35&#45;&gt;Node33</title>
<path fill="none" stroke="midnightblue" d="M841.82,-138.15C865.65,-148.47 905.08,-164.91 940,-176.5 948.36,-179.28 957.35,-181.94 966.09,-184.37"/>
<polygon fill="midnightblue" stroke="midnightblue" points="965.24,-187.76 975.81,-187 967.07,-181.01 965.24,-187.76"/>
</g>
<!-- Node36 -->
<g id="node36" class="node">
<title>Node36</title>
<g id="a_node36"><a xlink:href="class_physics_1_1_physics_world.html#adf7766abbfb94bb041d38b3d7209dcba" target="_top" xlink:title=" ">
<polygon fill="white" stroke="black" points="947.5,-0.5 947.5,-30.5 1084.5,-30.5 1084.5,-0.5 947.5,-0.5"/>
<text text-anchor="start" x="955.5" y="-18.5" font-family="Helvetica,sans-Serif" font-size="10.00">Physics.PhysicsWorld.Find</text>
<text text-anchor="middle" x="1016" y="-7.5" font-family="Helvetica,sans-Serif" font-size="10.00">FirstDirection</text>
</a>
</g>
</g>
<!-- Node35&#45;&gt;Node36 -->
<g id="edge39" class="edge">
<title>Node35&#45;&gt;Node36</title>
<path fill="none" stroke="midnightblue" d="M832.02,-118.81C852.99,-102.23 898.04,-68.03 940,-45.5 947.37,-41.54 955.38,-37.8 963.33,-34.39"/>
<polygon fill="midnightblue" stroke="midnightblue" points="964.7,-37.61 972.59,-30.54 962.01,-31.14 964.7,-37.61"/>
</g>
<!-- Node37 -->
<g id="node37" class="node">
<title>Node37</title>
<g id="a_node37"><a xlink:href="class_physics_1_1_physics_tool.html#a87ade42d134664139753a2fe7da7e7a9" target="_top" xlink:title="检查点是否在三角形内">
<polygon fill="white" stroke="black" points="945,-88.5 945,-118.5 1087,-118.5 1087,-88.5 945,-88.5"/>
<text text-anchor="start" x="953" y="-106.5" font-family="Helvetica,sans-Serif" font-size="10.00">Physics.PhysicsTool.IsPoint</text>
<text text-anchor="middle" x="1016" y="-95.5" font-family="Helvetica,sans-Serif" font-size="10.00">InTriangle</text>
</a>
</g>
</g>
<!-- Node35&#45;&gt;Node37 -->
<g id="edge42" class="edge">
<title>Node35&#45;&gt;Node37</title>
<path fill="none" stroke="midnightblue" d="M887.65,-119.83C902.81,-117.88 919.04,-115.8 934.66,-113.8"/>
<polygon fill="midnightblue" stroke="midnightblue" points="935.34,-117.24 944.82,-112.5 934.45,-110.3 935.34,-117.24"/>
</g>
<!-- Node39 -->
<g id="node39" class="node">
<title>Node39</title>
<g id="a_node39"><a xlink:href="class_physics_1_1_collision_1_1_collision_object.html#a59b7fc26e50ecaed3ae0e73260c17056" target="_top" xlink:title=" ">
<polygon fill="white" stroke="black" points="555,-230.5 555,-260.5 692,-260.5 692,-230.5 555,-230.5"/>
<text text-anchor="start" x="563" y="-248.5" font-family="Helvetica,sans-Serif" font-size="10.00">Physics.Collision.Collision</text>
<text text-anchor="middle" x="623.5" y="-237.5" font-family="Helvetica,sans-Serif" font-size="10.00">Object.AddResolveVelocity</text>
</a>
</g>
</g>
<!-- Node38&#45;&gt;Node39 -->
<g id="edge45" class="edge">
<title>Node38&#45;&gt;Node39</title>
<path fill="none" stroke="midnightblue" d="M471.49,-286.91C495.78,-280.24 528.88,-271.17 557.9,-263.21"/>
<polygon fill="midnightblue" stroke="midnightblue" points="558.84,-266.58 567.56,-260.56 556.99,-259.83 558.84,-266.58"/>
</g>
</g>
</svg>
