<?xml version="1.0" encoding="UTF-8" standalone="no"?>
<!DOCTYPE svg PUBLIC "-//W3C//DTD SVG 1.1//EN"
 "http://www.w3.org/Graphics/SVG/1.1/DTD/svg11.dtd">
<!-- Generated by graphviz version 2.50.0 (20211204.2007)
 -->
<!-- Title: Physics.PhysicsWorld.Update Pages: 1 -->
<!--zoomable 567 -->
<svg id="main" version="1.1" xmlns="http://www.w3.org/2000/svg" xmlns:xlink="http://www.w3.org/1999/xlink" xml:space="preserve" onload="init(evt)">
<style type="text/css"><![CDATA[
.edge:hover path { stroke: red; }
.edge:hover polygon { stroke: red; fill: red; }
]]></style>
<script type="text/javascript"><![CDATA[
var edges = document.getElementsByTagName('g');
if (edges && edges.length) {
  for (var i=0;i<edges.length;i++) {
    if (edges[i].id.substr(0,4)=='edge') {
      edges[i].setAttribute('class','edge');
    }
  }
}
]]></script>
        <defs>
                <circle id="rim" cx="0" cy="0" r="7"/>
                <circle id="rim2" cx="0" cy="0" r="3.5"/>
                <g id="zoomPlus">
                        <use xlink:href="#rim" fill="#404040">
                                <set attributeName="fill" to="#808080" begin="zoomplus.mouseover" end="zoomplus.mouseout"/>
                        </use>
                        <path d="M-4,0h8M0,-4v8" fill="none" stroke="white" stroke-width="1.5" pointer-events="none"/>
                </g>
                <g id="zoomMin">
                        <use xlink:href="#rim" fill="#404040">
                                <set attributeName="fill" to="#808080" begin="zoomminus.mouseover" end="zoomminus.mouseout"/>
                        </use>
                        <path d="M-4,0h8" fill="none" stroke="white" stroke-width="1.5" pointer-events="none"/>
                </g>
                <g id="dirArrow">
                        <path fill="none" stroke="white" stroke-width="1.5" d="M0,-3.0v7 M-2.5,-0.5L0,-3.0L2.5,-0.5"/>
                </g>
               <g id="resetDef">
                       <use xlink:href="#rim2" fill="#404040">
                               <set attributeName="fill" to="#808080" begin="reset.mouseover" end="reset.mouseout"/>
                       </use>
               </g>
        </defs>

<script type="text/javascript">
var viewWidth = 1470;
var viewHeight = 567;
var sectionId = 'dynsection-41';
</script>
<script xlink:href="svgpan.js"/>
<svg id="graph" class="graph">
<g id="viewport">
<title>Physics.PhysicsWorld.Update</title>
<polygon fill="white" stroke="transparent" points="-4,4 -4,-562.92 1466,-562.92 1466,4 -4,4"/>
<!-- Node1 -->
<g id="node1" class="node">
<title>Node1</title>
<g id="a_node1"><a xlink:title=" ">
<polygon fill="#bfbfbf" stroke="black" points="0,-408.92 0,-427.92 149,-427.92 149,-408.92 0,-408.92"/>
<text text-anchor="middle" x="74.5" y="-415.92" font-family="Helvetica,sans-Serif" font-size="10.00">Physics.PhysicsWorld.Update</text>
</a>
</g>
</g>
<!-- Node2 -->
<g id="node2" class="node">
<title>Node2</title>
<g id="a_node2"><a xlink:href="class_physics_1_1_physics_world.html#adc2e766cfd2414718237d76064130c7f" target="_top" xlink:title=" ">
<polygon fill="white" stroke="black" points="185,-408.92 185,-427.92 322,-427.92 322,-408.92 185,-408.92"/>
<text text-anchor="middle" x="253.5" y="-415.92" font-family="Helvetica,sans-Serif" font-size="10.00">Physics.PhysicsWorld.Tick</text>
</a>
</g>
</g>
<!-- Node1&#45;&gt;Node2 -->
<g id="edge1" class="edge">
<title>Node1&#45;&gt;Node2</title>
<path fill="none" stroke="midnightblue" d="M149.03,-418.42C157.47,-418.42 166.09,-418.42 174.59,-418.42"/>
<polygon fill="midnightblue" stroke="midnightblue" points="174.87,-421.92 184.87,-418.42 174.87,-414.92 174.87,-421.92"/>
</g>
<!-- Node3 -->
<g id="node3" class="node">
<title>Node3</title>
<g id="a_node3"><a xlink:href="class_physics_1_1_physics_world.html#a9e0230662c23f57f5f94d9ee9e672487" target="_top" xlink:title=" ">
<polygon fill="white" stroke="black" points="364,-452.42 364,-482.42 507,-482.42 507,-452.42 364,-452.42"/>
<text text-anchor="start" x="372" y="-470.42" font-family="Helvetica,sans-Serif" font-size="10.00">Physics.PhysicsWorld.Apply</text>
<text text-anchor="middle" x="435.5" y="-459.42" font-family="Helvetica,sans-Serif" font-size="10.00">Acceleration</text>
</a>
</g>
</g>
<!-- Node2&#45;&gt;Node3 -->
<g id="edge2" class="edge">
<title>Node2&#45;&gt;Node3</title>
<path fill="none" stroke="midnightblue" d="M289.63,-427.99C312.32,-434.16 342.53,-442.39 369.5,-449.73"/>
<polygon fill="midnightblue" stroke="midnightblue" points="368.69,-453.14 379.26,-452.39 370.53,-446.38 368.69,-453.14"/>
</g>
<!-- Node4 -->
<g id="node4" class="node">
<title>Node4</title>
<g id="a_node4"><a xlink:href="class_physics_1_1_physics_world.html#ab2cb96f774604513627f530a712e9003" target="_top" xlink:title=" ">
<polygon fill="white" stroke="black" points="364,-403.42 364,-433.42 507,-433.42 507,-403.42 364,-403.42"/>
<text text-anchor="start" x="372" y="-421.42" font-family="Helvetica,sans-Serif" font-size="10.00">Physics.PhysicsWorld.Apply</text>
<text text-anchor="middle" x="435.5" y="-410.42" font-family="Helvetica,sans-Serif" font-size="10.00">Velocity</text>
</a>
</g>
</g>
<!-- Node2&#45;&gt;Node4 -->
<g id="edge3" class="edge">
<title>Node2&#45;&gt;Node4</title>
<path fill="none" stroke="midnightblue" d="M322.04,-418.42C332.39,-418.42 343.18,-418.42 353.78,-418.42"/>
<polygon fill="midnightblue" stroke="midnightblue" points="353.88,-421.92 363.88,-418.42 353.88,-414.92 353.88,-421.92"/>
</g>
<!-- Node12 -->
<g id="node12" class="node">
<title>Node12</title>
<g id="a_node12"><a xlink:href="class_physics_1_1_physics_world.html#a516968c71000684ea688d080074d0ec8" target="_top" xlink:title=" ">
<polygon fill="white" stroke="black" points="358,-330.42 358,-360.42 513,-360.42 513,-330.42 358,-330.42"/>
<text text-anchor="start" x="366" y="-348.42" font-family="Helvetica,sans-Serif" font-size="10.00">Physics.PhysicsWorld.Collision</text>
<text text-anchor="middle" x="435.5" y="-337.42" font-family="Helvetica,sans-Serif" font-size="10.00">Detection</text>
</a>
</g>
</g>
<!-- Node2&#45;&gt;Node12 -->
<g id="edge11" class="edge">
<title>Node2&#45;&gt;Node12</title>
<path fill="none" stroke="midnightblue" d="M278.03,-408.88C305.73,-397.64 352.41,-378.71 387.59,-364.45"/>
<polygon fill="midnightblue" stroke="midnightblue" points="389.23,-367.56 397.18,-360.56 386.6,-361.07 389.23,-367.56"/>
</g>
<!-- Node5 -->
<g id="node5" class="node">
<title>Node5</title>
<g id="a_node5"><a xlink:href="class_physics_1_1_collision_1_1_collision_object.html#a08bb2ab0fee9cf7f7b6af438d3b2d1db" target="_top" xlink:title=" ">
<polygon fill="white" stroke="black" points="557,-492.42 557,-522.42 690,-522.42 690,-492.42 557,-492.42"/>
<text text-anchor="start" x="565" y="-510.42" font-family="Helvetica,sans-Serif" font-size="10.00">Physics.Collision.Collision</text>
<text text-anchor="middle" x="623.5" y="-499.42" font-family="Helvetica,sans-Serif" font-size="10.00">Object.ApplyPosition</text>
</a>
</g>
</g>
<!-- Node4&#45;&gt;Node5 -->
<g id="edge4" class="edge">
<title>Node4&#45;&gt;Node5</title>
<path fill="none" stroke="midnightblue" d="M495.07,-433.44C501.32,-436.02 507.43,-438.99 513,-442.42 532.54,-454.44 529.83,-466.82 549,-479.42 553.9,-482.64 559.22,-485.57 564.68,-488.21"/>
<polygon fill="midnightblue" stroke="midnightblue" points="563.41,-491.48 573.97,-492.39 566.29,-485.09 563.41,-491.48"/>
</g>
<!-- Node10 -->
<g id="node10" class="node">
<title>Node10</title>
<g id="a_node10"><a xlink:href="class_physics_1_1_collision_1_1_collision_object.html#a7a805a42fc5c86aff1715e9ce7f77d48" target="_top" xlink:title=" ">
<polygon fill="white" stroke="black" points="551,-440.42 551,-470.42 696,-470.42 696,-440.42 551,-440.42"/>
<text text-anchor="start" x="559" y="-458.42" font-family="Helvetica,sans-Serif" font-size="10.00">Physics.Collision.Collision</text>
<text text-anchor="middle" x="623.5" y="-447.42" font-family="Helvetica,sans-Serif" font-size="10.00">Object.CleanResolveVelocity</text>
</a>
</g>
</g>
<!-- Node4&#45;&gt;Node10 -->
<g id="edge9" class="edge">
<title>Node4&#45;&gt;Node10</title>
<path fill="none" stroke="midnightblue" d="M507.08,-432.46C518.13,-434.66 529.63,-436.95 540.9,-439.19"/>
<polygon fill="midnightblue" stroke="midnightblue" points="540.24,-442.63 550.73,-441.15 541.6,-435.76 540.24,-442.63"/>
</g>
<!-- Node11 -->
<g id="node11" class="node">
<title>Node11</title>
<g id="a_node11"><a xlink:href="class_physics_1_1_collision_1_1_collision_object.html#a1d619f33e85ae72c0cfa06fddbad7655" target="_top" xlink:title=" ">
<polygon fill="white" stroke="black" points="557,-391.42 557,-421.42 690,-421.42 690,-391.42 557,-391.42"/>
<text text-anchor="start" x="565" y="-409.42" font-family="Helvetica,sans-Serif" font-size="10.00">Physics.Collision.Collision</text>
<text text-anchor="middle" x="623.5" y="-398.42" font-family="Helvetica,sans-Serif" font-size="10.00">Object.Translate</text>
</a>
</g>
</g>
<!-- Node4&#45;&gt;Node11 -->
<g id="edge10" class="edge">
<title>Node4&#45;&gt;Node11</title>
<path fill="none" stroke="midnightblue" d="M507.08,-413.87C519.98,-413.04 533.48,-412.17 546.52,-411.32"/>
<polygon fill="midnightblue" stroke="midnightblue" points="547.11,-414.79 556.86,-410.66 546.66,-407.81 547.11,-414.79"/>
</g>
<!-- Node6 -->
<g id="node6" class="node">
<title>Node6</title>
<g id="a_node6"><a xlink:href="class_physics_1_1_collision_1_1_shape_1_1_collision_shape.html#aa2888c2955c43fcd2adb654e88db7183" target="_top" xlink:title=" ">
<polygon fill="white" stroke="black" points="734,-500.42 734,-530.42 904,-530.42 904,-500.42 734,-500.42"/>
<text text-anchor="start" x="742" y="-518.42" font-family="Helvetica,sans-Serif" font-size="10.00">Physics.Collision.Shape.</text>
<text text-anchor="middle" x="819" y="-507.42" font-family="Helvetica,sans-Serif" font-size="10.00">CollisionShape.ApplyWorldVertices</text>
</a>
</g>
</g>
<!-- Node5&#45;&gt;Node6 -->
<g id="edge5" class="edge">
<title>Node5&#45;&gt;Node6</title>
<path fill="none" stroke="midnightblue" d="M690.01,-510.13C700.76,-510.57 712.08,-511.04 723.36,-511.51"/>
<polygon fill="midnightblue" stroke="midnightblue" points="723.55,-515.02 733.69,-511.94 723.84,-508.03 723.55,-515.02"/>
</g>
<!-- Node7 -->
<g id="node7" class="node">
<title>Node7</title>
<g id="a_node7"><a xlink:href="class_physics_1_1_collision_1_1_shape_1_1_collision_shape.html#ab236eb056356a1dd7e657c4154a58441" target="_top" xlink:title=" ">
<polygon fill="white" stroke="black" points="945.5,-504.42 945.5,-534.42 1089.5,-534.42 1089.5,-504.42 945.5,-504.42"/>
<text text-anchor="start" x="953.5" y="-522.42" font-family="Helvetica,sans-Serif" font-size="10.00">Physics.Collision.Shape.</text>
<text text-anchor="middle" x="1017.5" y="-511.42" font-family="Helvetica,sans-Serif" font-size="10.00">CollisionShape.UpdateShape</text>
</a>
</g>
</g>
<!-- Node6&#45;&gt;Node7 -->
<g id="edge6" class="edge">
<title>Node6&#45;&gt;Node7</title>
<path fill="none" stroke="midnightblue" d="M904.19,-517.14C914.5,-517.35 925.02,-517.56 935.29,-517.77"/>
<polygon fill="midnightblue" stroke="midnightblue" points="935.39,-521.27 945.46,-517.98 935.53,-514.27 935.39,-521.27"/>
</g>
<!-- Node8 -->
<g id="node8" class="node">
<title>Node8</title>
<g id="a_node8"><a xlink:href="class_physics_1_1_collision_1_1_model_1_1_a_a_b_b.html#aab605aa58d0da2a571db877bb277f9dc" target="_top" xlink:title=" ">
<polygon fill="white" stroke="black" points="1146,-479.42 1146,-509.42 1271,-509.42 1271,-479.42 1146,-479.42"/>
<text text-anchor="start" x="1154" y="-497.42" font-family="Helvetica,sans-Serif" font-size="10.00">Physics.Collision.Model.</text>
<text text-anchor="middle" x="1208.5" y="-486.42" font-family="Helvetica,sans-Serif" font-size="10.00">AABB.Apply</text>
</a>
</g>
</g>
<!-- Node7&#45;&gt;Node8 -->
<g id="edge7" class="edge">
<title>Node7&#45;&gt;Node8</title>
<path fill="none" stroke="midnightblue" d="M1089.68,-510.01C1104.73,-508.02 1120.62,-505.91 1135.69,-503.92"/>
<polygon fill="midnightblue" stroke="midnightblue" points="1136.52,-507.34 1145.98,-502.56 1135.6,-500.4 1136.52,-507.34"/>
</g>
<!-- Node9 -->
<g id="node9" class="node">
<title>Node9</title>
<g id="a_node9"><a xlink:href="class_physics_1_1_collision_1_1_shape_1_1_collision_shape.html#af5247f1c8125a229c2be17f898608269" target="_top" xlink:title=" ">
<polygon fill="white" stroke="black" points="1144.5,-528.42 1144.5,-558.42 1272.5,-558.42 1272.5,-528.42 1144.5,-528.42"/>
<text text-anchor="start" x="1152.5" y="-546.42" font-family="Helvetica,sans-Serif" font-size="10.00">Physics.Collision.Shape.</text>
<text text-anchor="middle" x="1208.5" y="-535.42" font-family="Helvetica,sans-Serif" font-size="10.00">CollisionShape.GetBound</text>
</a>
</g>
</g>
<!-- Node7&#45;&gt;Node9 -->
<g id="edge8" class="edge">
<title>Node7&#45;&gt;Node9</title>
<path fill="none" stroke="midnightblue" d="M1089.68,-528.46C1104.31,-530.32 1119.72,-532.28 1134.41,-534.14"/>
<polygon fill="midnightblue" stroke="midnightblue" points="1134.09,-537.63 1144.45,-535.42 1134.97,-530.68 1134.09,-537.63"/>
</g>
<!-- Node13 -->
<g id="node13" class="node">
<title>Node13</title>
<g id="a_node13"><a xlink:href="class_physics_1_1_physics_world.html#a9fb900baebfc430f003c9810c5ffb676" target="_top" xlink:title=" ">
<polygon fill="white" stroke="black" points="552,-330.42 552,-360.42 695,-360.42 695,-330.42 552,-330.42"/>
<text text-anchor="start" x="560" y="-348.42" font-family="Helvetica,sans-Serif" font-size="10.00">Physics.PhysicsWorld.Broad</text>
<text text-anchor="middle" x="623.5" y="-337.42" font-family="Helvetica,sans-Serif" font-size="10.00">Phase</text>
</a>
</g>
</g>
<!-- Node12&#45;&gt;Node13 -->
<g id="edge12" class="edge">
<title>Node12&#45;&gt;Node13</title>
<path fill="none" stroke="midnightblue" d="M513.23,-345.42C522.63,-345.42 532.27,-345.42 541.73,-345.42"/>
<polygon fill="midnightblue" stroke="midnightblue" points="541.92,-348.92 551.92,-345.42 541.92,-341.92 541.92,-348.92"/>
</g>
<!-- Node17 -->
<g id="node17" class="node">
<title>Node17</title>
<g id="a_node17"><a xlink:href="class_physics_1_1_physics_world.html#ab505479deb9b79c8d1c5edd3957c8e49" target="_top" xlink:title=" ">
<polygon fill="white" stroke="black" points="549,-275.42 549,-305.42 698,-305.42 698,-275.42 549,-275.42"/>
<text text-anchor="start" x="557" y="-293.42" font-family="Helvetica,sans-Serif" font-size="10.00">Physics.PhysicsWorld.Narrow</text>
<text text-anchor="middle" x="623.5" y="-282.42" font-family="Helvetica,sans-Serif" font-size="10.00">Phase</text>
</a>
</g>
</g>
<!-- Node12&#45;&gt;Node17 -->
<g id="edge16" class="edge">
<title>Node12&#45;&gt;Node17</title>
<path fill="none" stroke="midnightblue" d="M487.33,-330.39C510.39,-323.57 537.85,-315.45 561.97,-308.32"/>
<polygon fill="midnightblue" stroke="midnightblue" points="563.14,-311.62 571.74,-305.43 561.15,-304.91 563.14,-311.62"/>
</g>
<!-- Node14 -->
<g id="node14" class="node">
<title>Node14</title>
<g id="a_node14"><a xlink:href="class_physics_1_1_tool_1_1_physics_cache_pool.html#ad34177ed5fc07b1f58b468485b9f50f2" target="_top" xlink:title=" ">
<polygon fill="white" stroke="black" points="749,-319.42 749,-349.42 889,-349.42 889,-319.42 749,-319.42"/>
<text text-anchor="start" x="757" y="-337.42" font-family="Helvetica,sans-Serif" font-size="10.00">Physics.Tool.PhysicsCache</text>
<text text-anchor="middle" x="819" y="-326.42" font-family="Helvetica,sans-Serif" font-size="10.00">Pool.RecycleCollisionPair</text>
</a>
</g>
</g>
<!-- Node13&#45;&gt;Node14 -->
<g id="edge13" class="edge">
<title>Node13&#45;&gt;Node14</title>
<path fill="none" stroke="midnightblue" d="M695.18,-341.4C709.25,-340.6 724.12,-339.76 738.47,-338.94"/>
<polygon fill="midnightblue" stroke="midnightblue" points="739.02,-342.42 748.8,-338.36 738.62,-335.43 739.02,-342.42"/>
</g>
<!-- Node15 -->
<g id="node15" class="node">
<title>Node15</title>
<g id="a_node15"><a xlink:href="class_physics_1_1_physics_world.html#ac2f42a51005358723ff89d9021d64d59" target="_top" xlink:title=" ">
<polygon fill="white" stroke="black" points="745,-413.42 745,-443.42 893,-443.42 893,-413.42 745,-413.42"/>
<text text-anchor="start" x="753" y="-431.42" font-family="Helvetica,sans-Serif" font-size="10.00">Physics.PhysicsWorld.Sweep</text>
<text text-anchor="middle" x="819" y="-420.42" font-family="Helvetica,sans-Serif" font-size="10.00">AndPrune</text>
</a>
</g>
</g>
<!-- Node13&#45;&gt;Node15 -->
<g id="edge14" class="edge">
<title>Node13&#45;&gt;Node15</title>
<path fill="none" stroke="midnightblue" d="M659.54,-360.45C691.5,-374.16 738.87,-394.48 773.49,-409.33"/>
<polygon fill="midnightblue" stroke="midnightblue" points="772.32,-412.64 782.89,-413.36 775.08,-406.2 772.32,-412.64"/>
</g>
<!-- Node16 -->
<g id="node16" class="node">
<title>Node16</title>
<g id="a_node16"><a xlink:href="class_physics_1_1_tool_1_1_physics_cache_pool.html#a1f50c13a4660d05aa10058bb9bec5e5e" target="_top" xlink:title=" ">
<polygon fill="white" stroke="black" points="941.5,-455.42 941.5,-485.42 1093.5,-485.42 1093.5,-455.42 941.5,-455.42"/>
<text text-anchor="start" x="949.5" y="-473.42" font-family="Helvetica,sans-Serif" font-size="10.00">Physics.Tool.PhysicsCache</text>
<text text-anchor="middle" x="1017.5" y="-462.42" font-family="Helvetica,sans-Serif" font-size="10.00">Pool.GetCollisionPairFromPool</text>
</a>
</g>
</g>
<!-- Node15&#45;&gt;Node16 -->
<g id="edge15" class="edge">
<title>Node15&#45;&gt;Node16</title>
<path fill="none" stroke="midnightblue" d="M890.39,-443.47C905.29,-446.65 921.13,-450.04 936.37,-453.29"/>
<polygon fill="midnightblue" stroke="midnightblue" points="935.76,-456.74 946.28,-455.41 937.23,-449.9 935.76,-456.74"/>
</g>
<!-- Node17&#45;&gt;Node14 -->
<g id="edge44" class="edge">
<title>Node17&#45;&gt;Node14</title>
<path fill="none" stroke="midnightblue" d="M690.55,-305.44C707.12,-309.21 725.02,-313.28 742.03,-317.15"/>
<polygon fill="midnightblue" stroke="midnightblue" points="741.39,-320.59 751.92,-319.4 742.94,-313.77 741.39,-320.59"/>
</g>
<!-- Node18 -->
<g id="node18" class="node">
<title>Node18</title>
<g id="a_node18"><a xlink:href="class_physics_1_1_physics_world.html#a981b90f47065fded56b0145083aac984" target="_top" xlink:title=" ">
<polygon fill="white" stroke="black" points="750.5,-268.92 750.5,-287.92 887.5,-287.92 887.5,-268.92 750.5,-268.92"/>
<text text-anchor="middle" x="819" y="-275.92" font-family="Helvetica,sans-Serif" font-size="10.00">Physics.PhysicsWorld.EPA</text>
</a>
</g>
</g>
<!-- Node17&#45;&gt;Node18 -->
<g id="edge17" class="edge">
<title>Node17&#45;&gt;Node18</title>
<path fill="none" stroke="midnightblue" d="M698.21,-285.85C711.96,-285 726.37,-284.1 740.24,-283.24"/>
<polygon fill="midnightblue" stroke="midnightblue" points="740.46,-286.74 750.22,-282.63 740.02,-279.75 740.46,-286.74"/>
</g>
<!-- Node35 -->
<g id="node35" class="node">
<title>Node35</title>
<g id="a_node35"><a xlink:href="class_physics_1_1_physics_world.html#abbda8b52c5f3c0cf86ac64fbc64fd69e" target="_top" xlink:title=" ">
<polygon fill="white" stroke="black" points="750.5,-103.92 750.5,-122.92 887.5,-122.92 887.5,-103.92 750.5,-103.92"/>
<text text-anchor="middle" x="819" y="-110.92" font-family="Helvetica,sans-Serif" font-size="10.00">Physics.PhysicsWorld.GJK</text>
</a>
</g>
</g>
<!-- Node17&#45;&gt;Node35 -->
<g id="edge38" class="edge">
<title>Node17&#45;&gt;Node35</title>
<path fill="none" stroke="midnightblue" d="M641,-275.33C677.02,-242.38 762.49,-164.19 799.92,-129.96"/>
<polygon fill="midnightblue" stroke="midnightblue" points="802.53,-132.32 807.55,-122.99 797.8,-127.15 802.53,-132.32"/>
</g>
<!-- Node19 -->
<g id="node19" class="node">
<title>Node19</title>
<g id="a_node19"><a xlink:href="class_physics_1_1_collision_1_1_model_1_1_simplex_edge.html#a816ccd6c203d0952fdcf318cbf628be2" target="_top" xlink:title=" ">
<polygon fill="white" stroke="black" points="941.5,-210.42 941.5,-240.42 1093.5,-240.42 1093.5,-210.42 941.5,-210.42"/>
<text text-anchor="start" x="949.5" y="-228.42" font-family="Helvetica,sans-Serif" font-size="10.00">Physics.Collision.Model.</text>
<text text-anchor="middle" x="1017.5" y="-217.42" font-family="Helvetica,sans-Serif" font-size="10.00">SimplexEdge.FindClosestEdge</text>
</a>
</g>
</g>
<!-- Node18&#45;&gt;Node19 -->
<g id="edge18" class="edge">
<title>Node18&#45;&gt;Node19</title>
<path fill="none" stroke="midnightblue" d="M855.58,-268.82C882.15,-261.66 919.19,-251.67 951.05,-243.08"/>
<polygon fill="midnightblue" stroke="midnightblue" points="952,-246.44 960.75,-240.46 950.18,-239.68 952,-246.44"/>
</g>
<!-- Node20 -->
<g id="node20" class="node">
<title>Node20</title>
<g id="a_node20"><a xlink:href="class_physics_1_1_physics_world.html#a5ea0895316da17449ff1352e2610ba59" target="_top" xlink:title=" ">
<polygon fill="white" stroke="black" points="949,-122.42 949,-152.42 1086,-152.42 1086,-122.42 949,-122.42"/>
<text text-anchor="start" x="957" y="-140.42" font-family="Helvetica,sans-Serif" font-size="10.00">Physics.PhysicsWorld.Find</text>
<text text-anchor="middle" x="1017.5" y="-129.42" font-family="Helvetica,sans-Serif" font-size="10.00">NextDirection</text>
</a>
</g>
</g>
<!-- Node18&#45;&gt;Node20 -->
<g id="edge19" class="edge">
<title>Node18&#45;&gt;Node20</title>
<path fill="none" stroke="midnightblue" d="M827.33,-268.82C844.59,-246.85 890.11,-192.47 940,-162.42 943.57,-160.27 947.34,-158.28 951.23,-156.45"/>
<polygon fill="midnightblue" stroke="midnightblue" points="952.67,-159.64 960.45,-152.44 949.88,-153.22 952.67,-159.64"/>
</g>
<!-- Node22 -->
<g id="node22" class="node">
<title>Node22</title>
<g id="a_node22"><a xlink:href="class_physics_1_1_tool_1_1_physics_cache_pool.html#ab67193fe66ad5ef639e0f88a9b1a79ec" target="_top" xlink:title=" ">
<polygon fill="white" stroke="black" points="940,-406.42 940,-436.42 1095,-436.42 1095,-406.42 940,-406.42"/>
<text text-anchor="start" x="948" y="-424.42" font-family="Helvetica,sans-Serif" font-size="10.00">Physics.Tool.PhysicsCache</text>
<text text-anchor="middle" x="1017.5" y="-413.42" font-family="Helvetica,sans-Serif" font-size="10.00">Pool.GetSimplexEdgeFromPool</text>
</a>
</g>
</g>
<!-- Node18&#45;&gt;Node22 -->
<g id="edge21" class="edge">
<title>Node18&#45;&gt;Node22</title>
<path fill="none" stroke="midnightblue" d="M866.13,-287.93C879.65,-292.57 893.58,-299.4 904,-309.42 934.16,-338.43 909.3,-367.99 940,-396.42 941.71,-398 943.52,-399.49 945.41,-400.87"/>
<polygon fill="midnightblue" stroke="midnightblue" points="943.82,-404.01 954.15,-406.38 947.55,-398.09 943.82,-404.01"/>
</g>
<!-- Node23 -->
<g id="node23" class="node">
<title>Node23</title>
<g id="a_node23"><a xlink:href="class_physics_1_1_collision_1_1_model_1_1_simplex_edge.html#ac435eb94635850bd1dbf75897fee68b7" target="_top" xlink:title=" ">
<polygon fill="white" stroke="black" points="955,-259.42 955,-289.42 1080,-289.42 1080,-259.42 955,-259.42"/>
<text text-anchor="start" x="963" y="-277.42" font-family="Helvetica,sans-Serif" font-size="10.00">Physics.Collision.Model.</text>
<text text-anchor="middle" x="1017.5" y="-266.42" font-family="Helvetica,sans-Serif" font-size="10.00">SimplexEdge.InitEdges</text>
</a>
</g>
</g>
<!-- Node18&#45;&gt;Node23 -->
<g id="edge22" class="edge">
<title>Node18&#45;&gt;Node23</title>
<path fill="none" stroke="midnightblue" d="M887.62,-277.05C905.98,-276.67 925.93,-276.27 944.52,-275.89"/>
<polygon fill="midnightblue" stroke="midnightblue" points="944.76,-279.38 954.69,-275.68 944.62,-272.38 944.76,-279.38"/>
</g>
<!-- Node28 -->
<g id="node28" class="node">
<title>Node28</title>
<g id="a_node28"><a xlink:href="class_physics_1_1_collision_1_1_model_1_1_simplex_edge.html#ae349a32da5778aa885c6f5b1e7153350" target="_top" xlink:title=" ">
<polygon fill="white" stroke="black" points="944,-308.42 944,-338.42 1091,-338.42 1091,-308.42 944,-308.42"/>
<text text-anchor="start" x="952" y="-326.42" font-family="Helvetica,sans-Serif" font-size="10.00">Physics.Collision.Model.</text>
<text text-anchor="middle" x="1017.5" y="-315.42" font-family="Helvetica,sans-Serif" font-size="10.00">SimplexEdge.InsertEdgePoint</text>
</a>
</g>
</g>
<!-- Node18&#45;&gt;Node28 -->
<g id="edge27" class="edge">
<title>Node18&#45;&gt;Node28</title>
<path fill="none" stroke="midnightblue" d="M861.67,-287.97C884.75,-293.25 914.14,-299.98 941.11,-306.16"/>
<polygon fill="midnightblue" stroke="midnightblue" points="940.39,-309.58 950.91,-308.4 941.95,-302.76 940.39,-309.58"/>
</g>
<!-- Node31 -->
<g id="node31" class="node">
<title>Node31</title>
<g id="a_node31"><a xlink:href="class_physics_1_1_tool_1_1_physics_cache_pool.html#adb2db95c9b826ec9e9b3a31025adc8c6" target="_top" xlink:title=" ">
<polygon fill="white" stroke="black" points="947.5,-357.42 947.5,-387.42 1087.5,-387.42 1087.5,-357.42 947.5,-357.42"/>
<text text-anchor="start" x="955.5" y="-375.42" font-family="Helvetica,sans-Serif" font-size="10.00">Physics.Tool.PhysicsCache</text>
<text text-anchor="middle" x="1017.5" y="-364.42" font-family="Helvetica,sans-Serif" font-size="10.00">Pool.RecycleSimplexEdge</text>
</a>
</g>
</g>
<!-- Node18&#45;&gt;Node31 -->
<g id="edge33" class="edge">
<title>Node18&#45;&gt;Node31</title>
<path fill="none" stroke="midnightblue" d="M856.87,-287.98C872.21,-292.96 889.73,-300.01 904,-309.42 923.42,-322.23 920.34,-334.98 940,-347.42 943.29,-349.51 946.78,-351.43 950.37,-353.21"/>
<polygon fill="midnightblue" stroke="midnightblue" points="948.93,-356.4 959.48,-357.33 951.81,-350.02 948.93,-356.4"/>
</g>
<!-- Node33 -->
<g id="node33" class="node">
<title>Node33</title>
<g id="a_node33"><a xlink:href="class_physics_1_1_physics_world.html#af1aadffc2ad0f1b13391fe5eb1f4e703" target="_top" xlink:title=" ">
<polygon fill="white" stroke="black" points="941.5,-171.92 941.5,-190.92 1093.5,-190.92 1093.5,-171.92 941.5,-171.92"/>
<text text-anchor="middle" x="1017.5" y="-178.92" font-family="Helvetica,sans-Serif" font-size="10.00">Physics.PhysicsWorld.Support</text>
</a>
</g>
</g>
<!-- Node18&#45;&gt;Node33 -->
<g id="edge36" class="edge">
<title>Node18&#45;&gt;Node33</title>
<path fill="none" stroke="midnightblue" d="M831.83,-268.78C852.52,-252.38 897.16,-219.04 940,-200.42 945.68,-197.95 951.75,-195.76 957.89,-193.83"/>
<polygon fill="midnightblue" stroke="midnightblue" points="958.93,-197.17 967.54,-191 956.96,-190.45 958.93,-197.17"/>
</g>
<!-- Node21 -->
<g id="node21" class="node">
<title>Node21</title>
<g id="a_node21"><a xlink:href="class_physics_1_1_tool_1_1_physics_tool.html#a7b559484401a2cc211847f49cff64dbc" target="_top" xlink:title=" ">
<polygon fill="white" stroke="black" points="1142.5,-46.42 1142.5,-76.42 1274.5,-76.42 1274.5,-46.42 1142.5,-46.42"/>
<text text-anchor="start" x="1150.5" y="-64.42" font-family="Helvetica,sans-Serif" font-size="10.00">Physics.Tool.PhysicsTool.</text>
<text text-anchor="middle" x="1208.5" y="-53.42" font-family="Helvetica,sans-Serif" font-size="10.00">GetClosestPointToOrigin</text>
</a>
</g>
</g>
<!-- Node20&#45;&gt;Node21 -->
<g id="edge20" class="edge">
<title>Node20&#45;&gt;Node21</title>
<path fill="none" stroke="midnightblue" d="M1067.35,-122.35C1076.6,-119.24 1086.14,-115.86 1095,-112.42 1119.38,-102.95 1146.06,-90.93 1167.32,-80.93"/>
<polygon fill="midnightblue" stroke="midnightblue" points="1168.83,-84.09 1176.37,-76.65 1165.84,-77.76 1168.83,-84.09"/>
</g>
<!-- Node24 -->
<g id="node24" class="node">
<title>Node24</title>
<g id="a_node24"><a xlink:href="class_physics_1_1_collision_1_1_model_1_1_simplex_edge.html#aa9b0228aaaf6885ee72668b11e1b22da" target="_top" xlink:title=" ">
<polygon fill="white" stroke="black" points="1137,-210.42 1137,-240.42 1280,-240.42 1280,-210.42 1137,-210.42"/>
<text text-anchor="start" x="1145" y="-228.42" font-family="Helvetica,sans-Serif" font-size="10.00">Physics.Collision.Model.</text>
<text text-anchor="middle" x="1208.5" y="-217.42" font-family="Helvetica,sans-Serif" font-size="10.00">SimplexEdge.CreateInitEdge</text>
</a>
</g>
</g>
<!-- Node23&#45;&gt;Node24 -->
<g id="edge23" class="edge">
<title>Node23&#45;&gt;Node24</title>
<path fill="none" stroke="midnightblue" d="M1076.49,-259.39C1096.54,-254.19 1119.17,-248.32 1139.92,-242.94"/>
<polygon fill="midnightblue" stroke="midnightblue" points="1140.82,-246.33 1149.62,-240.43 1139.06,-239.55 1140.82,-246.33"/>
</g>
<!-- Node27 -->
<g id="node27" class="node">
<title>Node27</title>
<g id="a_node27"><a xlink:href="class_physics_1_1_collision_1_1_model_1_1_simplex_edge.html#a536f768434ce96fc78fe67adf4e0c9ed" target="_top" xlink:title=" ">
<polygon fill="white" stroke="black" points="1131,-259.42 1131,-289.42 1286,-289.42 1286,-259.42 1131,-259.42"/>
<text text-anchor="start" x="1139" y="-277.42" font-family="Helvetica,sans-Serif" font-size="10.00">Physics.Collision.Model.</text>
<text text-anchor="middle" x="1208.5" y="-266.42" font-family="Helvetica,sans-Serif" font-size="10.00">SimplexEdge.UpdateEdgeIndex</text>
</a>
</g>
</g>
<!-- Node23&#45;&gt;Node27 -->
<g id="edge26" class="edge">
<title>Node23&#45;&gt;Node27</title>
<path fill="none" stroke="midnightblue" d="M1080.12,-274.42C1093,-274.42 1106.81,-274.42 1120.41,-274.42"/>
<polygon fill="midnightblue" stroke="midnightblue" points="1120.75,-277.92 1130.75,-274.42 1120.75,-270.92 1120.75,-277.92"/>
</g>
<!-- Node25 -->
<g id="node25" class="node">
<title>Node25</title>
<g id="a_node25"><a xlink:href="class_physics_1_1_tool_1_1_physics_cache_pool.html#a5632346a5a6c8029427ce1ec41cc1edc" target="_top" xlink:title=" ">
<polygon fill="white" stroke="black" points="1322,-229.42 1322,-259.42 1462,-259.42 1462,-229.42 1322,-229.42"/>
<text text-anchor="start" x="1330" y="-247.42" font-family="Helvetica,sans-Serif" font-size="10.00">Physics.Tool.PhysicsCache</text>
<text text-anchor="middle" x="1392" y="-236.42" font-family="Helvetica,sans-Serif" font-size="10.00">Pool.GetEdgeFromPool</text>
</a>
</g>
</g>
<!-- Node24&#45;&gt;Node25 -->
<g id="edge24" class="edge">
<title>Node24&#45;&gt;Node25</title>
<path fill="none" stroke="midnightblue" d="M1280.19,-232.82C1290.6,-233.91 1301.38,-235.04 1311.95,-236.15"/>
<polygon fill="midnightblue" stroke="midnightblue" points="1311.68,-239.64 1321.99,-237.2 1312.41,-232.68 1311.68,-239.64"/>
</g>
<!-- Node26 -->
<g id="node26" class="node">
<title>Node26</title>
<g id="a_node26"><a xlink:href="class_physics_1_1_tool_1_1_physics_tool.html#ae7347b7ed11fb2a7a4e78afe07d8a4d2" target="_top" xlink:title=" ">
<polygon fill="white" stroke="black" points="1326,-300.42 1326,-330.42 1458,-330.42 1458,-300.42 1326,-300.42"/>
<text text-anchor="start" x="1334" y="-318.42" font-family="Helvetica,sans-Serif" font-size="10.00">Physics.Tool.PhysicsTool.</text>
<text text-anchor="middle" x="1392" y="-307.42" font-family="Helvetica,sans-Serif" font-size="10.00">GetPerpendicularToOrigin</text>
</a>
</g>
</g>
<!-- Node24&#45;&gt;Node26 -->
<g id="edge25" class="edge">
<title>Node24&#45;&gt;Node26</title>
<path fill="none" stroke="midnightblue" d="M1263.66,-240.5C1271.28,-243.17 1278.92,-246.15 1286,-249.42 1313.2,-261.98 1341.84,-280.38 1362.33,-294.57"/>
<polygon fill="midnightblue" stroke="midnightblue" points="1360.39,-297.48 1370.59,-300.36 1364.41,-291.75 1360.39,-297.48"/>
</g>
<!-- Node28&#45;&gt;Node27 -->
<g id="edge32" class="edge">
<title>Node28&#45;&gt;Node27</title>
<path fill="none" stroke="midnightblue" d="M1076.49,-308.39C1096.54,-303.19 1119.17,-297.32 1139.92,-291.94"/>
<polygon fill="midnightblue" stroke="midnightblue" points="1140.82,-295.33 1149.62,-289.43 1139.06,-288.55 1140.82,-295.33"/>
</g>
<!-- Node29 -->
<g id="node29" class="node">
<title>Node29</title>
<g id="a_node29"><a xlink:href="class_physics_1_1_collision_1_1_model_1_1_simplex_edge.html#a46b8494a6a6088235c2b1bb272cdb8ba" target="_top" xlink:title=" ">
<polygon fill="white" stroke="black" points="1144,-308.42 1144,-338.42 1273,-338.42 1273,-308.42 1144,-308.42"/>
<text text-anchor="start" x="1152" y="-326.42" font-family="Helvetica,sans-Serif" font-size="10.00">Physics.Collision.Model.</text>
<text text-anchor="middle" x="1208.5" y="-315.42" font-family="Helvetica,sans-Serif" font-size="10.00">SimplexEdge.CreateEdge</text>
</a>
</g>
</g>
<!-- Node28&#45;&gt;Node29 -->
<g id="edge28" class="edge">
<title>Node28&#45;&gt;Node29</title>
<path fill="none" stroke="midnightblue" d="M1091.03,-323.42C1105.02,-323.42 1119.69,-323.42 1133.72,-323.42"/>
<polygon fill="midnightblue" stroke="midnightblue" points="1133.8,-326.92 1143.8,-323.42 1133.8,-319.92 1133.8,-326.92"/>
</g>
<!-- Node30 -->
<g id="node30" class="node">
<title>Node30</title>
<g id="a_node30"><a xlink:href="class_physics_1_1_tool_1_1_physics_cache_pool.html#a40a29873272825581e5d87a82b737e0f" target="_top" xlink:title=" ">
<polygon fill="white" stroke="black" points="1322,-360.42 1322,-390.42 1462,-390.42 1462,-360.42 1322,-360.42"/>
<text text-anchor="start" x="1330" y="-378.42" font-family="Helvetica,sans-Serif" font-size="10.00">Physics.Tool.PhysicsCache</text>
<text text-anchor="middle" x="1392" y="-367.42" font-family="Helvetica,sans-Serif" font-size="10.00">Pool.RecycleEdge</text>
</a>
</g>
</g>
<!-- Node28&#45;&gt;Node30 -->
<g id="edge31" class="edge">
<title>Node28&#45;&gt;Node30</title>
<path fill="none" stroke="midnightblue" d="M1083.43,-338.46C1098.96,-341.73 1115.52,-344.94 1131,-347.42 1191.31,-357.08 1260.03,-364.32 1311.68,-369.01"/>
<polygon fill="midnightblue" stroke="midnightblue" points="1311.5,-372.51 1321.77,-369.92 1312.12,-365.54 1311.5,-372.51"/>
</g>
<!-- Node29&#45;&gt;Node25 -->
<g id="edge29" class="edge">
<title>Node29&#45;&gt;Node25</title>
<path fill="none" stroke="midnightblue" d="M1259.3,-308.42C1268.28,-305.36 1277.49,-301.97 1286,-298.42 1309.79,-288.49 1335.54,-275.29 1355.59,-264.42"/>
<polygon fill="midnightblue" stroke="midnightblue" points="1357.28,-267.49 1364.37,-259.62 1353.92,-261.35 1357.28,-267.49"/>
</g>
<!-- Node29&#45;&gt;Node26 -->
<g id="edge30" class="edge">
<title>Node29&#45;&gt;Node26</title>
<path fill="none" stroke="midnightblue" d="M1273.23,-320.61C1286.96,-320.01 1301.59,-319.36 1315.71,-318.74"/>
<polygon fill="midnightblue" stroke="midnightblue" points="1316.05,-322.23 1325.88,-318.29 1315.74,-315.24 1316.05,-322.23"/>
</g>
<!-- Node32 -->
<g id="node32" class="node">
<title>Node32</title>
<g id="a_node32"><a xlink:href="class_physics_1_1_collision_1_1_model_1_1_simplex_edge.html#a422d4d80fc2c4205af1f96abcec05a67" target="_top" xlink:title=" ">
<polygon fill="white" stroke="black" points="1146,-396.42 1146,-426.42 1271,-426.42 1271,-396.42 1146,-396.42"/>
<text text-anchor="start" x="1154" y="-414.42" font-family="Helvetica,sans-Serif" font-size="10.00">Physics.Collision.Model.</text>
<text text-anchor="middle" x="1208.5" y="-403.42" font-family="Helvetica,sans-Serif" font-size="10.00">SimplexEdge.Clear</text>
</a>
</g>
</g>
<!-- Node31&#45;&gt;Node32 -->
<g id="edge34" class="edge">
<title>Node31&#45;&gt;Node32</title>
<path fill="none" stroke="midnightblue" d="M1087.54,-386.67C1103.19,-389.9 1119.86,-393.34 1135.63,-396.59"/>
<polygon fill="midnightblue" stroke="midnightblue" points="1135.34,-400.11 1145.84,-398.7 1136.76,-393.25 1135.34,-400.11"/>
</g>
<!-- Node32&#45;&gt;Node30 -->
<g id="edge35" class="edge">
<title>Node32&#45;&gt;Node30</title>
<path fill="none" stroke="midnightblue" d="M1271.2,-399.18C1284.35,-396.58 1298.41,-393.79 1312.1,-391.07"/>
<polygon fill="midnightblue" stroke="midnightblue" points="1312.86,-394.49 1321.99,-389.11 1311.5,-387.62 1312.86,-394.49"/>
</g>
<!-- Node34 -->
<g id="node34" class="node">
<title>Node34</title>
<g id="a_node34"><a xlink:href="class_physics_1_1_collision_1_1_collision_object.html#a28cc343d91add7b15402133b83d76b27" target="_top" xlink:title=" ">
<polygon fill="white" stroke="black" points="1137,-161.42 1137,-191.42 1280,-191.42 1280,-161.42 1137,-161.42"/>
<text text-anchor="start" x="1145" y="-179.42" font-family="Helvetica,sans-Serif" font-size="10.00">Physics.Collision.Collision</text>
<text text-anchor="middle" x="1208.5" y="-168.42" font-family="Helvetica,sans-Serif" font-size="10.00">Object.GetFarthestPointInDir</text>
</a>
</g>
</g>
<!-- Node33&#45;&gt;Node34 -->
<g id="edge37" class="edge">
<title>Node33&#45;&gt;Node34</title>
<path fill="none" stroke="midnightblue" d="M1093.74,-179.43C1104.51,-179.15 1115.62,-178.85 1126.49,-178.57"/>
<polygon fill="midnightblue" stroke="midnightblue" points="1126.91,-182.06 1136.82,-178.29 1126.73,-175.06 1126.91,-182.06"/>
</g>
<!-- Node35&#45;&gt;Node20 -->
<g id="edge40" class="edge">
<title>Node35&#45;&gt;Node20</title>
<path fill="none" stroke="midnightblue" d="M887.62,-121.68C903.99,-123.68 921.61,-125.83 938.41,-127.88"/>
<polygon fill="midnightblue" stroke="midnightblue" points="938.4,-131.41 948.75,-129.15 939.25,-124.46 938.4,-131.41"/>
</g>
<!-- Node35&#45;&gt;Node21 -->
<g id="edge41" class="edge">
<title>Node35&#45;&gt;Node21</title>
<path fill="none" stroke="midnightblue" d="M827.42,-103.9C844.52,-82.84 889.16,-32.68 940,-14.42 1004.83,8.87 1027.46,-0.88 1095,-14.42 1121.4,-19.71 1149.33,-31.35 1170.76,-41.72"/>
<polygon fill="midnightblue" stroke="midnightblue" points="1169.31,-44.9 1179.82,-46.21 1172.42,-38.63 1169.31,-44.9"/>
</g>
<!-- Node35&#45;&gt;Node33 -->
<g id="edge43" class="edge">
<title>Node35&#45;&gt;Node33</title>
<path fill="none" stroke="midnightblue" d="M841.81,-123.1C865.63,-133.45 905.05,-149.91 940,-161.42 948.43,-164.2 957.48,-166.85 966.31,-169.26"/>
<polygon fill="midnightblue" stroke="midnightblue" points="965.56,-172.68 976.12,-171.87 967.36,-165.92 965.56,-172.68"/>
</g>
<!-- Node36 -->
<g id="node36" class="node">
<title>Node36</title>
<g id="a_node36"><a xlink:href="class_physics_1_1_physics_world.html#adf7766abbfb94bb041d38b3d7209dcba" target="_top" xlink:title=" ">
<polygon fill="white" stroke="black" points="949,-73.42 949,-103.42 1086,-103.42 1086,-73.42 949,-73.42"/>
<text text-anchor="start" x="957" y="-91.42" font-family="Helvetica,sans-Serif" font-size="10.00">Physics.PhysicsWorld.Find</text>
<text text-anchor="middle" x="1017.5" y="-80.42" font-family="Helvetica,sans-Serif" font-size="10.00">FirstDirection</text>
</a>
</g>
</g>
<!-- Node35&#45;&gt;Node36 -->
<g id="edge39" class="edge">
<title>Node35&#45;&gt;Node36</title>
<path fill="none" stroke="midnightblue" d="M887.62,-104.82C903.99,-102.74 921.61,-100.49 938.41,-98.36"/>
<polygon fill="midnightblue" stroke="midnightblue" points="939.27,-101.78 948.75,-97.04 938.39,-94.83 939.27,-101.78"/>
</g>
<!-- Node37 -->
<g id="node37" class="node">
<title>Node37</title>
<g id="a_node37"><a xlink:href="class_physics_1_1_tool_1_1_physics_tool.html#a0945b739fb0d3bb8376e85574a4bc981" target="_top" xlink:title="检查点是否在三角形内">
<polygon fill="white" stroke="black" points="951.5,-24.42 951.5,-54.42 1083.5,-54.42 1083.5,-24.42 951.5,-24.42"/>
<text text-anchor="start" x="959.5" y="-42.42" font-family="Helvetica,sans-Serif" font-size="10.00">Physics.Tool.PhysicsTool.</text>
<text text-anchor="middle" x="1017.5" y="-31.42" font-family="Helvetica,sans-Serif" font-size="10.00">IsPointInTriangle</text>
</a>
</g>
</g>
<!-- Node35&#45;&gt;Node37 -->
<g id="edge42" class="edge">
<title>Node35&#45;&gt;Node37</title>
<path fill="none" stroke="midnightblue" d="M841.45,-103.79C865.27,-93.26 905.01,-76.17 940,-63.42 945.23,-61.52 950.7,-59.62 956.19,-57.78"/>
<polygon fill="midnightblue" stroke="midnightblue" points="957.67,-60.97 966.08,-54.53 955.48,-54.32 957.67,-60.97"/>
</g>
</g>
</svg>
        <g id="navigator" transform="translate(0 0)" fill="#404254">
                <rect fill="#f2f5e9" fill-opacity="0.5" stroke="#606060" stroke-width=".5" x="0" y="0" width="60" height="60"/>
                <use id="zoomplus" xlink:href="#zoomPlus" x="17" y="9" onmousedown="handleZoom(evt,'in')"/>
                <use id="zoomminus" xlink:href="#zoomMin" x="42" y="9" onmousedown="handleZoom(evt,'out')"/>
                <use id="reset" xlink:href="#resetDef" x="30" y="36" onmousedown="handleReset()"/>
                <g id="arrowUp" xlink:href="#dirArrow" transform="translate(30 24)" onmousedown="handlePan(0,-1)">
                  <use xlink:href="#rim" fill="#404040">
                        <set attributeName="fill" to="#808080" begin="arrowUp.mouseover" end="arrowUp.mouseout"/>
                  </use>
                  <path fill="none" stroke="white" stroke-width="1.5" d="M0,-3.0v7 M-2.5,-0.5L0,-3.0L2.5,-0.5"/>
                </g>
                <g id="arrowRight" xlink:href="#dirArrow" transform="rotate(90) translate(36 -43)" onmousedown="handlePan(1,0)">
                  <use xlink:href="#rim" fill="#404040">
                        <set attributeName="fill" to="#808080" begin="arrowRight.mouseover" end="arrowRight.mouseout"/>
                  </use>
                  <path fill="none" stroke="white" stroke-width="1.5" d="M0,-3.0v7 M-2.5,-0.5L0,-3.0L2.5,-0.5"/>
                </g>
                <g id="arrowDown" xlink:href="#dirArrow" transform="rotate(180) translate(-30 -48)" onmousedown="handlePan(0,1)">
                  <use xlink:href="#rim" fill="#404040">
                        <set attributeName="fill" to="#808080" begin="arrowDown.mouseover" end="arrowDown.mouseout"/>
                  </use>
                  <path fill="none" stroke="white" stroke-width="1.5" d="M0,-3.0v7 M-2.5,-0.5L0,-3.0L2.5,-0.5"/>
                </g>
                <g id="arrowLeft" xlink:href="#dirArrow" transform="rotate(270) translate(-36 17)" onmousedown="handlePan(-1,0)">
                  <use xlink:href="#rim" fill="#404040">
                        <set attributeName="fill" to="#808080" begin="arrowLeft.mouseover" end="arrowLeft.mouseout"/>
                  </use>
                  <path fill="none" stroke="white" stroke-width="1.5" d="M0,-3.0v7 M-2.5,-0.5L0,-3.0L2.5,-0.5"/>
                </g>
        </g>
        <svg viewBox="0 0 15 15" width="100%" height="30px" preserveAspectRatio="xMaxYMin meet">
         <g id="arrow_out" transform="scale(0.3 0.3)">
          <a xlink:href="class_physics_1_1_physics_world_a21bcd3d27cec2fa8cf00d28be40ae413_cgraph_org.svg" target="_base">
           <rect id="button" ry="5" rx="5" y="6" x="6" height="38" width="38"
                fill="#f2f5e9" fill-opacity="0.5" stroke="#606060" stroke-width="1.0"/>
           <path id="arrow"
             d="M 11.500037,31.436501 C 11.940474,20.09759 22.043105,11.32322 32.158766,21.979434 L 37.068811,17.246167 C 37.068811,17.246167 37.088388,32 37.088388,32 L 22.160133,31.978069 C 22.160133,31.978069 26.997745,27.140456 26.997745,27.140456 C 18.528582,18.264221 13.291696,25.230495 11.500037,31.436501 z"
             style="fill:#404040;"/>
          </a>
         </g>
        </svg>
</svg>
