<?xml version="1.0" encoding="UTF-8" standalone="no"?>
<!DOCTYPE svg PUBLIC "-//W3C//DTD SVG 1.1//EN"
 "http://www.w3.org/Graphics/SVG/1.1/DTD/svg11.dtd">
<!-- Generated by graphviz version 2.50.0 (20211204.2007)
 -->
<!-- Title: Physics.CollisionObjectProxy.Update Pages: 1 -->
<svg width="494pt" height="186pt"
 viewBox="0.00 0.00 494.00 186.00" xmlns="http://www.w3.org/2000/svg" xmlns:xlink="http://www.w3.org/1999/xlink">
<g id="graph0" class="graph" transform="scale(1 1) rotate(0) translate(4 182)">
<title>Physics.CollisionObjectProxy.Update</title>
<polygon fill="white" stroke="transparent" points="-4,4 -4,-182 490,-182 490,4 -4,4"/>
<!-- Node1 -->
<g id="node1" class="node">
<title>Node1</title>
<g id="a_node1"><a xlink:title=" ">
<polygon fill="#bfbfbf" stroke="black" points="0,-73.5 0,-103.5 148,-103.5 148,-73.5 0,-73.5"/>
<text text-anchor="start" x="8" y="-91.5" font-family="Helvetica,sans-Serif" font-size="10.00">Physics.CollisionObjectProxy.</text>
<text text-anchor="middle" x="74" y="-80.5" font-family="Helvetica,sans-Serif" font-size="10.00">Update</text>
</a>
</g>
</g>
<!-- Node2 -->
<g id="node2" class="node">
<title>Node2</title>
<g id="a_node2"><a xlink:href="class_physics_1_1_collision_1_1_collision_object.html#a2158afaa00db6dc8fe254b6029b296bb" target="_top" xlink:title=" ">
<polygon fill="white" stroke="black" points="184,-147.5 184,-177.5 317,-177.5 317,-147.5 184,-147.5"/>
<text text-anchor="start" x="192" y="-165.5" font-family="Helvetica,sans-Serif" font-size="10.00">Physics.Collision.Collision</text>
<text text-anchor="middle" x="250.5" y="-154.5" font-family="Helvetica,sans-Serif" font-size="10.00">Object.AddVelocity</text>
</a>
</g>
</g>
<!-- Node1&#45;&gt;Node2 -->
<g id="edge1" class="edge">
<title>Node1&#45;&gt;Node2</title>
<path fill="none" stroke="midnightblue" d="M106.19,-103.6C127.83,-113.88 157.43,-127.56 184,-138.5 188.39,-140.31 192.97,-142.12 197.58,-143.9"/>
<polygon fill="midnightblue" stroke="midnightblue" points="196.44,-147.22 207.03,-147.49 198.92,-140.67 196.44,-147.22"/>
</g>
<!-- Node3 -->
<g id="node3" class="node">
<title>Node3</title>
<g id="a_node3"><a xlink:href="class_physics_1_1_collision_1_1_collision_object.html#ae7ca75e378460be4294e71af9aa37001" target="_top" xlink:title=" ">
<polygon fill="white" stroke="black" points="184,-98.5 184,-128.5 317,-128.5 317,-98.5 184,-98.5"/>
<text text-anchor="start" x="192" y="-116.5" font-family="Helvetica,sans-Serif" font-size="10.00">Physics.Collision.Collision</text>
<text text-anchor="middle" x="250.5" y="-105.5" font-family="Helvetica,sans-Serif" font-size="10.00">Object.Rotate</text>
</a>
</g>
</g>
<!-- Node1&#45;&gt;Node3 -->
<g id="edge2" class="edge">
<title>Node1&#45;&gt;Node3</title>
<path fill="none" stroke="midnightblue" d="M148.25,-98.99C156.76,-100.21 165.46,-101.46 174,-102.68"/>
<polygon fill="midnightblue" stroke="midnightblue" points="173.54,-106.15 183.94,-104.11 174.53,-99.22 173.54,-106.15"/>
</g>
<!-- Node5 -->
<g id="node5" class="node">
<title>Node5</title>
<g id="a_node5"><a xlink:href="class_physics_1_1_collision_1_1_collision_object.html#a8318e2845f2f71cb8b5396a5e4f58c7f" target="_top" xlink:title=" ">
<polygon fill="white" stroke="black" points="184,-49.5 184,-79.5 317,-79.5 317,-49.5 184,-49.5"/>
<text text-anchor="start" x="192" y="-67.5" font-family="Helvetica,sans-Serif" font-size="10.00">Physics.Collision.Collision</text>
<text text-anchor="middle" x="250.5" y="-56.5" font-family="Helvetica,sans-Serif" font-size="10.00">Object.Scale</text>
</a>
</g>
</g>
<!-- Node1&#45;&gt;Node5 -->
<g id="edge4" class="edge">
<title>Node1&#45;&gt;Node5</title>
<path fill="none" stroke="midnightblue" d="M148.25,-78.43C156.76,-77.26 165.46,-76.06 174,-74.88"/>
<polygon fill="midnightblue" stroke="midnightblue" points="174.51,-78.35 183.94,-73.52 173.55,-71.41 174.51,-78.35"/>
</g>
<!-- Node7 -->
<g id="node7" class="node">
<title>Node7</title>
<g id="a_node7"><a xlink:href="class_physics_1_1_collision_1_1_collision_object.html#abe594e0f6703f8bce366fe6a5607cb37" target="_top" xlink:title=" ">
<polygon fill="white" stroke="black" points="184,-0.5 184,-30.5 317,-30.5 317,-0.5 184,-0.5"/>
<text text-anchor="start" x="192" y="-18.5" font-family="Helvetica,sans-Serif" font-size="10.00">Physics.Collision.Collision</text>
<text text-anchor="middle" x="250.5" y="-7.5" font-family="Helvetica,sans-Serif" font-size="10.00">Object.SetVelocity</text>
</a>
</g>
</g>
<!-- Node1&#45;&gt;Node7 -->
<g id="edge6" class="edge">
<title>Node1&#45;&gt;Node7</title>
<path fill="none" stroke="midnightblue" d="M108.21,-73.36C129.71,-63.68 158.37,-51.03 184,-40.5 189.07,-38.42 194.38,-36.3 199.69,-34.21"/>
<polygon fill="midnightblue" stroke="midnightblue" points="201.14,-37.4 209.19,-30.52 198.6,-30.88 201.14,-37.4"/>
</g>
<!-- Node4 -->
<g id="node4" class="node">
<title>Node4</title>
<g id="a_node4"><a xlink:href="class_physics_1_1_collision_1_1_collision_object.html#afaeabc5afd6bdda46db3ab9e3bbfec9f" target="_top" xlink:title=" ">
<polygon fill="white" stroke="black" points="353,-98.5 353,-128.5 486,-128.5 486,-98.5 353,-98.5"/>
<text text-anchor="start" x="361" y="-116.5" font-family="Helvetica,sans-Serif" font-size="10.00">Physics.Collision.Collision</text>
<text text-anchor="middle" x="419.5" y="-105.5" font-family="Helvetica,sans-Serif" font-size="10.00">Object.ApplyRotation</text>
</a>
</g>
</g>
<!-- Node3&#45;&gt;Node4 -->
<g id="edge3" class="edge">
<title>Node3&#45;&gt;Node4</title>
<path fill="none" stroke="midnightblue" d="M317.02,-113.5C325.5,-113.5 334.23,-113.5 342.85,-113.5"/>
<polygon fill="midnightblue" stroke="midnightblue" points="342.89,-117 352.89,-113.5 342.89,-110 342.89,-117"/>
</g>
<!-- Node6 -->
<g id="node6" class="node">
<title>Node6</title>
<g id="a_node6"><a xlink:href="class_physics_1_1_collision_1_1_collision_object.html#acb5f4239562994def280e100e8fb416b" target="_top" xlink:title=" ">
<polygon fill="white" stroke="black" points="353,-49.5 353,-79.5 486,-79.5 486,-49.5 353,-49.5"/>
<text text-anchor="start" x="361" y="-67.5" font-family="Helvetica,sans-Serif" font-size="10.00">Physics.Collision.Collision</text>
<text text-anchor="middle" x="419.5" y="-56.5" font-family="Helvetica,sans-Serif" font-size="10.00">Object.ApplyScale</text>
</a>
</g>
</g>
<!-- Node5&#45;&gt;Node6 -->
<g id="edge5" class="edge">
<title>Node5&#45;&gt;Node6</title>
<path fill="none" stroke="midnightblue" d="M317.02,-64.5C325.5,-64.5 334.23,-64.5 342.85,-64.5"/>
<polygon fill="midnightblue" stroke="midnightblue" points="342.89,-68 352.89,-64.5 342.89,-61 342.89,-68"/>
</g>
</g>
</svg>
