<?xml version="1.0" encoding="UTF-8" standalone="no"?>
<!DOCTYPE svg PUBLIC "-//W3C//DTD SVG 1.1//EN"
 "http://www.w3.org/Graphics/SVG/1.1/DTD/svg11.dtd">
<!-- Generated by graphviz version 2.50.0 (20211204.2007)
 -->
<!-- Title: Physics.PhysicsWorld.GJK Pages: 1 -->
<svg width="512pt" height="220pt"
 viewBox="0.00 0.00 512.00 220.00" xmlns="http://www.w3.org/2000/svg" xmlns:xlink="http://www.w3.org/1999/xlink">
<g id="graph0" class="graph" transform="scale(1 1) rotate(0) translate(4 216)">
<title>Physics.PhysicsWorld.GJK</title>
<polygon fill="white" stroke="transparent" points="-4,4 -4,-216 508,-216 508,4 -4,4"/>
<!-- Node1 -->
<g id="node1" class="node">
<title>Node1</title>
<g id="a_node1"><a xlink:title=" ">
<polygon fill="#bfbfbf" stroke="black" points="0,-94 0,-113 137,-113 137,-94 0,-94"/>
<text text-anchor="middle" x="68.5" y="-101" font-family="Helvetica,sans-Serif" font-size="10.00">Physics.PhysicsWorld.GJK</text>
</a>
</g>
</g>
<!-- Node2 -->
<g id="node2" class="node">
<title>Node2</title>
<g id="a_node2"><a xlink:href="class_physics_1_1_physics_world.html#adf7766abbfb94bb041d38b3d7209dcba" target="_top" xlink:title=" ">
<polygon fill="white" stroke="black" points="180.5,-181.5 180.5,-211.5 317.5,-211.5 317.5,-181.5 180.5,-181.5"/>
<text text-anchor="start" x="188.5" y="-199.5" font-family="Helvetica,sans-Serif" font-size="10.00">Physics.PhysicsWorld.Find</text>
<text text-anchor="middle" x="249" y="-188.5" font-family="Helvetica,sans-Serif" font-size="10.00">FirstDirection</text>
</a>
</g>
</g>
<!-- Node1&#45;&gt;Node2 -->
<g id="edge1" class="edge">
<title>Node1&#45;&gt;Node2</title>
<path fill="none" stroke="midnightblue" d="M81.57,-113.19C100.22,-127.77 137.59,-155.44 173,-172.5 176.81,-174.34 180.8,-176.08 184.86,-177.72"/>
<polygon fill="midnightblue" stroke="midnightblue" points="183.84,-181.08 194.43,-181.38 186.34,-174.54 183.84,-181.08"/>
</g>
<!-- Node3 -->
<g id="node3" class="node">
<title>Node3</title>
<g id="a_node3"><a xlink:href="class_physics_1_1_physics_world.html#a5ea0895316da17449ff1352e2610ba59" target="_top" xlink:title=" ">
<polygon fill="white" stroke="black" points="180.5,-132.5 180.5,-162.5 317.5,-162.5 317.5,-132.5 180.5,-132.5"/>
<text text-anchor="start" x="188.5" y="-150.5" font-family="Helvetica,sans-Serif" font-size="10.00">Physics.PhysicsWorld.Find</text>
<text text-anchor="middle" x="249" y="-139.5" font-family="Helvetica,sans-Serif" font-size="10.00">NextDirection</text>
</a>
</g>
</g>
<!-- Node1&#45;&gt;Node3 -->
<g id="edge2" class="edge">
<title>Node1&#45;&gt;Node3</title>
<path fill="none" stroke="midnightblue" d="M108.23,-113.05C128.33,-118 153.52,-124.21 176.96,-129.99"/>
<polygon fill="midnightblue" stroke="midnightblue" points="176.34,-133.44 186.88,-132.43 178.01,-126.64 176.34,-133.44"/>
</g>
<!-- Node4 -->
<g id="node4" class="node">
<title>Node4</title>
<g id="a_node4"><a xlink:href="class_physics_1_1_tool_1_1_physics_tool.html#a7b559484401a2cc211847f49cff64dbc" target="_top" xlink:title=" ">
<polygon fill="white" stroke="black" points="366.5,-110.5 366.5,-140.5 498.5,-140.5 498.5,-110.5 366.5,-110.5"/>
<text text-anchor="start" x="374.5" y="-128.5" font-family="Helvetica,sans-Serif" font-size="10.00">Physics.Tool.PhysicsTool.</text>
<text text-anchor="middle" x="432.5" y="-117.5" font-family="Helvetica,sans-Serif" font-size="10.00">GetClosestPointToOrigin</text>
</a>
</g>
</g>
<!-- Node1&#45;&gt;Node4 -->
<g id="edge4" class="edge">
<title>Node1&#45;&gt;Node4</title>
<path fill="none" stroke="midnightblue" d="M137.16,-107.61C199.42,-111.4 291.61,-117 356.18,-120.92"/>
<polygon fill="midnightblue" stroke="midnightblue" points="356.11,-124.42 366.3,-121.54 356.53,-117.44 356.11,-124.42"/>
</g>
<!-- Node5 -->
<g id="node5" class="node">
<title>Node5</title>
<g id="a_node5"><a xlink:href="class_physics_1_1_tool_1_1_physics_tool.html#a0945b739fb0d3bb8376e85574a4bc981" target="_top" xlink:title="检查点是否在三角形内">
<polygon fill="white" stroke="black" points="183,-44.5 183,-74.5 315,-74.5 315,-44.5 183,-44.5"/>
<text text-anchor="start" x="191" y="-62.5" font-family="Helvetica,sans-Serif" font-size="10.00">Physics.Tool.PhysicsTool.</text>
<text text-anchor="middle" x="249" y="-51.5" font-family="Helvetica,sans-Serif" font-size="10.00">IsPointInTriangle</text>
</a>
</g>
</g>
<!-- Node1&#45;&gt;Node5 -->
<g id="edge5" class="edge">
<title>Node1&#45;&gt;Node5</title>
<path fill="none" stroke="midnightblue" d="M108.23,-93.95C128.33,-89 153.52,-82.79 176.96,-77.01"/>
<polygon fill="midnightblue" stroke="midnightblue" points="178.01,-80.36 186.88,-74.57 176.34,-73.56 178.01,-80.36"/>
</g>
<!-- Node6 -->
<g id="node6" class="node">
<title>Node6</title>
<g id="a_node6"><a xlink:href="class_physics_1_1_physics_world.html#af1aadffc2ad0f1b13391fe5eb1f4e703" target="_top" xlink:title=" ">
<polygon fill="white" stroke="black" points="173,-6 173,-25 325,-25 325,-6 173,-6"/>
<text text-anchor="middle" x="249" y="-13" font-family="Helvetica,sans-Serif" font-size="10.00">Physics.PhysicsWorld.Support</text>
</a>
</g>
</g>
<!-- Node1&#45;&gt;Node6 -->
<g id="edge6" class="edge">
<title>Node1&#45;&gt;Node6</title>
<path fill="none" stroke="midnightblue" d="M81.14,-93.78C99.51,-78.91 136.88,-50.54 173,-34.5 178.43,-32.09 184.21,-29.94 190.08,-28.05"/>
<polygon fill="midnightblue" stroke="midnightblue" points="191.39,-31.31 199.97,-25.08 189.38,-24.6 191.39,-31.31"/>
</g>
<!-- Node3&#45;&gt;Node4 -->
<g id="edge3" class="edge">
<title>Node3&#45;&gt;Node4</title>
<path fill="none" stroke="midnightblue" d="M317.58,-139.31C330.15,-137.78 343.35,-136.18 356.13,-134.64"/>
<polygon fill="midnightblue" stroke="midnightblue" points="356.76,-138.08 366.27,-133.41 355.92,-131.14 356.76,-138.08"/>
</g>
<!-- Node7 -->
<g id="node7" class="node">
<title>Node7</title>
<g id="a_node7"><a xlink:href="class_physics_1_1_collision_1_1_collision_object.html#a28cc343d91add7b15402133b83d76b27" target="_top" xlink:title=" ">
<polygon fill="white" stroke="black" points="361,-0.5 361,-30.5 504,-30.5 504,-0.5 361,-0.5"/>
<text text-anchor="start" x="369" y="-18.5" font-family="Helvetica,sans-Serif" font-size="10.00">Physics.Collision.Collision</text>
<text text-anchor="middle" x="432.5" y="-7.5" font-family="Helvetica,sans-Serif" font-size="10.00">Object.GetFarthestPointInDir</text>
</a>
</g>
</g>
<!-- Node6&#45;&gt;Node7 -->
<g id="edge7" class="edge">
<title>Node6&#45;&gt;Node7</title>
<path fill="none" stroke="midnightblue" d="M325.13,-15.5C333.52,-15.5 342.1,-15.5 350.55,-15.5"/>
<polygon fill="midnightblue" stroke="midnightblue" points="350.79,-19 360.79,-15.5 350.79,-12 350.79,-19"/>
</g>
</g>
</svg>
