<?xml version="1.0" encoding="UTF-8" standalone="no"?>
<!DOCTYPE svg PUBLIC "-//W3C//DTD SVG 1.1//EN"
 "http://www.w3.org/Graphics/SVG/1.1/DTD/svg11.dtd">
<!-- Generated by graphviz version 2.50.0 (20211204.2007)
 -->
<!-- Title: Physics.Collision.Model.SimplexEdge.CreateEdge Pages: 1 -->
<svg width="359pt" height="88pt"
 viewBox="0.00 0.00 359.00 88.00" xmlns="http://www.w3.org/2000/svg" xmlns:xlink="http://www.w3.org/1999/xlink">
<g id="graph0" class="graph" transform="scale(1 1) rotate(0) translate(4 84)">
<title>Physics.Collision.Model.SimplexEdge.CreateEdge</title>
<polygon fill="white" stroke="transparent" points="-4,4 -4,-84 355,-84 355,4 -4,4"/>
<!-- Node1 -->
<g id="node1" class="node">
<title>Node1</title>
<g id="a_node1"><a xlink:title=" ">
<polygon fill="#bfbfbf" stroke="black" points="0,-24.5 0,-54.5 129,-54.5 129,-24.5 0,-24.5"/>
<text text-anchor="start" x="8" y="-42.5" font-family="Helvetica,sans-Serif" font-size="10.00">Physics.Collision.Model.</text>
<text text-anchor="middle" x="64.5" y="-31.5" font-family="Helvetica,sans-Serif" font-size="10.00">SimplexEdge.CreateEdge</text>
</a>
</g>
</g>
<!-- Node2 -->
<g id="node2" class="node">
<title>Node2</title>
<g id="a_node2"><a xlink:href="class_physics_1_1_physics_cache_pool.html#a68b6244567d48376ad3a2e5188e73241" target="_top" xlink:title=" ">
<polygon fill="white" stroke="black" points="187.5,-49.5 187.5,-79.5 328.5,-79.5 328.5,-49.5 187.5,-49.5"/>
<text text-anchor="start" x="195.5" y="-67.5" font-family="Helvetica,sans-Serif" font-size="10.00">Physics.PhysicsCachePool.</text>
<text text-anchor="middle" x="258" y="-56.5" font-family="Helvetica,sans-Serif" font-size="10.00">GetEdgeFromPool</text>
</a>
</g>
</g>
<!-- Node1&#45;&gt;Node2 -->
<g id="edge1" class="edge">
<title>Node1&#45;&gt;Node2</title>
<path fill="none" stroke="midnightblue" d="M129,-47.79C144.51,-49.81 161.29,-52.01 177.45,-54.11"/>
<polygon fill="midnightblue" stroke="midnightblue" points="177.04,-57.59 187.4,-55.41 177.94,-50.65 177.04,-57.59"/>
</g>
<!-- Node3 -->
<g id="node3" class="node">
<title>Node3</title>
<g id="a_node3"><a xlink:href="class_physics_1_1_physics_tool.html#a2b923d3cf606c6980a6b26c5b7bfc80f" target="_top" xlink:title=" ">
<polygon fill="white" stroke="black" points="165,-0.5 165,-30.5 351,-30.5 351,-0.5 165,-0.5"/>
<text text-anchor="start" x="173" y="-18.5" font-family="Helvetica,sans-Serif" font-size="10.00">Physics.PhysicsTool.GetPerpendicular</text>
<text text-anchor="middle" x="258" y="-7.5" font-family="Helvetica,sans-Serif" font-size="10.00">ToOrigin</text>
</a>
</g>
</g>
<!-- Node1&#45;&gt;Node3 -->
<g id="edge2" class="edge">
<title>Node1&#45;&gt;Node3</title>
<path fill="none" stroke="midnightblue" d="M129,-31.54C137.39,-30.49 146.14,-29.39 154.97,-28.29"/>
<polygon fill="midnightblue" stroke="midnightblue" points="155.47,-31.75 164.96,-27.04 154.6,-24.81 155.47,-31.75"/>
</g>
</g>
</svg>
