<?xml version="1.0" encoding="UTF-8" standalone="no"?>
<!DOCTYPE svg PUBLIC "-//W3C//DTD SVG 1.1//EN"
 "http://www.w3.org/Graphics/SVG/1.1/DTD/svg11.dtd">
<!-- Generated by graphviz version 2.50.0 (20211204.2007)
 -->
<!-- Title: Physics.PhysicsWorld.Test3 Pages: 1 -->
<svg width="1259pt" height="112pt"
 viewBox="0.00 0.00 1259.00 112.00" xmlns="http://www.w3.org/2000/svg" xmlns:xlink="http://www.w3.org/1999/xlink">
<g id="graph0" class="graph" transform="scale(1 1) rotate(0) translate(4 108)">
<title>Physics.PhysicsWorld.Test3</title>
<polygon fill="white" stroke="transparent" points="-4,4 -4,-108 1255,-108 1255,4 -4,4"/>
<!-- Node1 -->
<g id="node1" class="node">
<title>Node1</title>
<g id="a_node1"><a xlink:title=" ">
<polygon fill="#bfbfbf" stroke="black" points="0,-32 0,-51 142,-51 142,-32 0,-32"/>
<text text-anchor="middle" x="71" y="-39" font-family="Helvetica,sans-Serif" font-size="10.00">Physics.PhysicsWorld.Test3</text>
</a>
</g>
</g>
<!-- Node2 -->
<g id="node2" class="node">
<title>Node2</title>
<g id="a_node2"><a xlink:href="class_physics_1_1_physics_world.html#ab363dd228dcc50002de2762e22918637" target="_top" xlink:title=" ">
<polygon fill="white" stroke="black" points="178,-51.5 178,-81.5 325,-81.5 325,-51.5 178,-51.5"/>
<text text-anchor="start" x="186" y="-69.5" font-family="Helvetica,sans-Serif" font-size="10.00">Physics.PhysicsWorld.Create</text>
<text text-anchor="middle" x="251.5" y="-58.5" font-family="Helvetica,sans-Serif" font-size="10.00">ACustomShape</text>
</a>
</g>
</g>
<!-- Node1&#45;&gt;Node2 -->
<g id="edge1" class="edge">
<title>Node1&#45;&gt;Node2</title>
<path fill="none" stroke="midnightblue" d="M139.99,-51.02C149.11,-52.3 158.54,-53.62 167.87,-54.93"/>
<polygon fill="midnightblue" stroke="midnightblue" points="167.55,-58.42 177.94,-56.34 168.53,-51.48 167.55,-58.42"/>
</g>
<!-- Node11 -->
<g id="node11" class="node">
<title>Node11</title>
<g id="a_node11"><a xlink:href="class_physics_1_1_physics_world.html#a54d320d6dc2c69449f0d83f746382a21" target="_top" xlink:title=" ">
<polygon fill="white" stroke="black" points="178,-2.5 178,-32.5 325,-32.5 325,-2.5 178,-2.5"/>
<text text-anchor="start" x="186" y="-20.5" font-family="Helvetica,sans-Serif" font-size="10.00">Physics.PhysicsWorld.Create</text>
<text text-anchor="middle" x="251.5" y="-9.5" font-family="Helvetica,sans-Serif" font-size="10.00">ATestRect</text>
</a>
</g>
</g>
<!-- Node1&#45;&gt;Node11 -->
<g id="edge11" class="edge">
<title>Node1&#45;&gt;Node11</title>
<path fill="none" stroke="midnightblue" d="M142.04,-32.08C150.46,-30.95 159.12,-29.79 167.71,-28.63"/>
<polygon fill="midnightblue" stroke="midnightblue" points="168.28,-32.09 177.73,-27.28 167.35,-25.15 168.28,-32.09"/>
</g>
<!-- Node3 -->
<g id="node3" class="node">
<title>Node3</title>
<g id="a_node3"><a xlink:href="class_physics_1_1_physics_world.html#aaea6390b0eebeeffb2136b97d9e9e9a9" target="_top" xlink:title=" ">
<polygon fill="white" stroke="black" points="379,-49.5 379,-79.5 514,-79.5 514,-49.5 379,-49.5"/>
<text text-anchor="start" x="387" y="-67.5" font-family="Helvetica,sans-Serif" font-size="10.00">Physics.PhysicsWorld.Add</text>
<text text-anchor="middle" x="446.5" y="-56.5" font-family="Helvetica,sans-Serif" font-size="10.00">CollisionObject</text>
</a>
</g>
</g>
<!-- Node2&#45;&gt;Node3 -->
<g id="edge2" class="edge">
<title>Node2&#45;&gt;Node3</title>
<path fill="none" stroke="midnightblue" d="M325.19,-65.75C339.38,-65.6 354.3,-65.45 368.62,-65.3"/>
<polygon fill="midnightblue" stroke="midnightblue" points="368.95,-68.79 378.92,-65.19 368.88,-61.79 368.95,-68.79"/>
</g>
<!-- Node10 -->
<g id="node10" class="node">
<title>Node10</title>
<g id="a_node10"><a xlink:href="class_physics_1_1_physics_world.html#a22b65d699e874d3ec8651ad3cd675814" target="_top" xlink:title=" ">
<polygon fill="white" stroke="black" points="361,-10 361,-29 532,-29 532,-10 361,-10"/>
<text text-anchor="middle" x="446.5" y="-17" font-family="Helvetica,sans-Serif" font-size="10.00">Physics.PhysicsWorld.CreateMesh</text>
</a>
</g>
</g>
<!-- Node2&#45;&gt;Node10 -->
<g id="edge10" class="edge">
<title>Node2&#45;&gt;Node10</title>
<path fill="none" stroke="midnightblue" d="M314.1,-51.5C340.66,-45.03 371.31,-37.57 396.32,-31.48"/>
<polygon fill="midnightblue" stroke="midnightblue" points="397.42,-34.81 406.31,-29.04 395.77,-28.01 397.42,-34.81"/>
</g>
<!-- Node4 -->
<g id="node4" class="node">
<title>Node4</title>
<g id="a_node4"><a xlink:href="class_physics_1_1_collision_1_1_collision_object.html#aec20035d4ece9a46c457cd71761f6c16" target="_top" xlink:title=" ">
<polygon fill="white" stroke="black" points="568,-73.5 568,-103.5 701,-103.5 701,-73.5 568,-73.5"/>
<text text-anchor="start" x="576" y="-91.5" font-family="Helvetica,sans-Serif" font-size="10.00">Physics.Collision.Collision</text>
<text text-anchor="middle" x="634.5" y="-80.5" font-family="Helvetica,sans-Serif" font-size="10.00">Object.GetProjectionPoint</text>
</a>
</g>
</g>
<!-- Node3&#45;&gt;Node4 -->
<g id="edge3" class="edge">
<title>Node3&#45;&gt;Node4</title>
<path fill="none" stroke="midnightblue" d="M514.12,-73.1C528.35,-74.93 543.48,-76.88 558.01,-78.76"/>
<polygon fill="midnightblue" stroke="midnightblue" points="557.6,-82.24 567.96,-80.04 558.49,-75.29 557.6,-82.24"/>
</g>
<!-- Node5 -->
<g id="node5" class="node">
<title>Node5</title>
<g id="a_node5"><a xlink:href="class_physics_1_1_collision_1_1_collision_object.html#a8a0748fa64dc6f65374a9d61e7065da4" target="_top" xlink:title=" ">
<polygon fill="white" stroke="black" points="568,-24.5 568,-54.5 701,-54.5 701,-24.5 568,-24.5"/>
<text text-anchor="start" x="576" y="-42.5" font-family="Helvetica,sans-Serif" font-size="10.00">Physics.Collision.Collision</text>
<text text-anchor="middle" x="634.5" y="-31.5" font-family="Helvetica,sans-Serif" font-size="10.00">Object.InitCollisionObject</text>
</a>
</g>
</g>
<!-- Node3&#45;&gt;Node5 -->
<g id="edge4" class="edge">
<title>Node3&#45;&gt;Node5</title>
<path fill="none" stroke="midnightblue" d="M514.12,-55.55C528.35,-53.63 543.48,-51.6 558.01,-49.65"/>
<polygon fill="midnightblue" stroke="midnightblue" points="558.52,-53.11 567.96,-48.31 557.59,-46.17 558.52,-53.11"/>
</g>
<!-- Node6 -->
<g id="node6" class="node">
<title>Node6</title>
<g id="a_node6"><a xlink:href="class_physics_1_1_collision_1_1_shape_1_1_collision_shape.html#aa2888c2955c43fcd2adb654e88db7183" target="_top" xlink:title=" ">
<polygon fill="white" stroke="black" points="737,-2.5 737,-32.5 907,-32.5 907,-2.5 737,-2.5"/>
<text text-anchor="start" x="745" y="-20.5" font-family="Helvetica,sans-Serif" font-size="10.00">Physics.Collision.Shape.</text>
<text text-anchor="middle" x="822" y="-9.5" font-family="Helvetica,sans-Serif" font-size="10.00">CollisionShape.ApplyWorldVertices</text>
</a>
</g>
</g>
<!-- Node5&#45;&gt;Node6 -->
<g id="edge5" class="edge">
<title>Node5&#45;&gt;Node6</title>
<path fill="none" stroke="midnightblue" d="M701.16,-31.71C709.48,-30.73 718.11,-29.7 726.76,-28.68"/>
<polygon fill="midnightblue" stroke="midnightblue" points="727.39,-32.13 736.91,-27.47 726.56,-25.18 727.39,-32.13"/>
</g>
<!-- Node7 -->
<g id="node7" class="node">
<title>Node7</title>
<g id="a_node7"><a xlink:href="class_physics_1_1_collision_1_1_shape_1_1_collision_shape.html#ab236eb056356a1dd7e657c4154a58441" target="_top" xlink:title=" ">
<polygon fill="white" stroke="black" points="943,-24.5 943,-54.5 1087,-54.5 1087,-24.5 943,-24.5"/>
<text text-anchor="start" x="951" y="-42.5" font-family="Helvetica,sans-Serif" font-size="10.00">Physics.Collision.Shape.</text>
<text text-anchor="middle" x="1015" y="-31.5" font-family="Helvetica,sans-Serif" font-size="10.00">CollisionShape.UpdateShape</text>
</a>
</g>
</g>
<!-- Node5&#45;&gt;Node7 -->
<g id="edge9" class="edge">
<title>Node5&#45;&gt;Node7</title>
<path fill="none" stroke="midnightblue" d="M701.01,-41.72C712.98,-42.05 725.37,-42.33 737,-42.5 812.55,-43.62 831.45,-43.56 907,-42.5 915.35,-42.38 924.06,-42.21 932.75,-42.02"/>
<polygon fill="midnightblue" stroke="midnightblue" points="933.01,-45.51 942.92,-41.77 932.84,-38.51 933.01,-45.51"/>
</g>
<!-- Node6&#45;&gt;Node7 -->
<g id="edge6" class="edge">
<title>Node6&#45;&gt;Node7</title>
<path fill="none" stroke="midnightblue" d="M907.05,-27.18C915.52,-28.16 924.11,-29.15 932.55,-30.12"/>
<polygon fill="midnightblue" stroke="midnightblue" points="932.42,-33.63 942.75,-31.29 933.22,-26.67 932.42,-33.63"/>
</g>
<!-- Node8 -->
<g id="node8" class="node">
<title>Node8</title>
<g id="a_node8"><a xlink:href="class_physics_1_1_collision_1_1_model_1_1_a_a_b_b.html#aab605aa58d0da2a571db877bb277f9dc" target="_top" xlink:title=" ">
<polygon fill="white" stroke="black" points="1124.5,-49.5 1124.5,-79.5 1249.5,-79.5 1249.5,-49.5 1124.5,-49.5"/>
<text text-anchor="start" x="1132.5" y="-67.5" font-family="Helvetica,sans-Serif" font-size="10.00">Physics.Collision.Model.</text>
<text text-anchor="middle" x="1187" y="-56.5" font-family="Helvetica,sans-Serif" font-size="10.00">AABB.Apply</text>
</a>
</g>
</g>
<!-- Node7&#45;&gt;Node8 -->
<g id="edge7" class="edge">
<title>Node7&#45;&gt;Node8</title>
<path fill="none" stroke="midnightblue" d="M1087.11,-49.96C1096.1,-51.28 1105.3,-52.63 1114.3,-53.96"/>
<polygon fill="midnightblue" stroke="midnightblue" points="1113.95,-57.44 1124.36,-55.43 1114.97,-50.52 1113.95,-57.44"/>
</g>
<!-- Node9 -->
<g id="node9" class="node">
<title>Node9</title>
<g id="a_node9"><a xlink:href="class_physics_1_1_collision_1_1_shape_1_1_collision_shape.html#af5247f1c8125a229c2be17f898608269" target="_top" xlink:title=" ">
<polygon fill="white" stroke="black" points="1123,-0.5 1123,-30.5 1251,-30.5 1251,-0.5 1123,-0.5"/>
<text text-anchor="start" x="1131" y="-18.5" font-family="Helvetica,sans-Serif" font-size="10.00">Physics.Collision.Shape.</text>
<text text-anchor="middle" x="1187" y="-7.5" font-family="Helvetica,sans-Serif" font-size="10.00">CollisionShape.GetBound</text>
</a>
</g>
</g>
<!-- Node7&#45;&gt;Node9 -->
<g id="edge8" class="edge">
<title>Node7&#45;&gt;Node9</title>
<path fill="none" stroke="midnightblue" d="M1087.11,-29.46C1095.61,-28.26 1104.3,-27.03 1112.83,-25.83"/>
<polygon fill="midnightblue" stroke="midnightblue" points="1113.34,-29.29 1122.75,-24.43 1112.36,-22.36 1113.34,-29.29"/>
</g>
<!-- Node11&#45;&gt;Node3 -->
<g id="edge12" class="edge">
<title>Node11&#45;&gt;Node3</title>
<path fill="none" stroke="midnightblue" d="M314.1,-32.5C333.16,-37.14 354.32,-42.3 374,-47.09"/>
<polygon fill="midnightblue" stroke="midnightblue" points="373.28,-50.52 383.83,-49.48 374.94,-43.71 373.28,-50.52"/>
</g>
<!-- Node11&#45;&gt;Node10 -->
<g id="edge13" class="edge">
<title>Node11&#45;&gt;Node10</title>
<path fill="none" stroke="midnightblue" d="M325.19,-18.25C333.56,-18.34 342.19,-18.43 350.8,-18.52"/>
<polygon fill="midnightblue" stroke="midnightblue" points="350.84,-22.02 360.87,-18.62 350.91,-15.02 350.84,-22.02"/>
</g>
</g>
</svg>
