<?xml version="1.0" encoding="UTF-8" standalone="no"?>
<!DOCTYPE svg PUBLIC "-//W3C//DTD SVG 1.1//EN"
 "http://www.w3.org/Graphics/SVG/1.1/DTD/svg11.dtd">
<!-- Generated by graphviz version 2.50.0 (20211204.2007)
 -->
<!-- Title: Physics.PhysicsWorld.CollisionDetection Pages: 1 -->
<!--zoomable 509 -->
<svg id="main" version="1.1" xmlns="http://www.w3.org/2000/svg" xmlns:xlink="http://www.w3.org/1999/xlink" xml:space="preserve" onload="init(evt)">
<style type="text/css"><![CDATA[
.edge:hover path { stroke: red; }
.edge:hover polygon { stroke: red; fill: red; }
]]></style>
<script type="text/javascript"><![CDATA[
var edges = document.getElementsByTagName('g');
if (edges && edges.length) {
  for (var i=0;i<edges.length;i++) {
    if (edges[i].id.substr(0,4)=='edge') {
      edges[i].setAttribute('class','edge');
    }
  }
}
]]></script>
        <defs>
                <circle id="rim" cx="0" cy="0" r="7"/>
                <circle id="rim2" cx="0" cy="0" r="3.5"/>
                <g id="zoomPlus">
                        <use xlink:href="#rim" fill="#404040">
                                <set attributeName="fill" to="#808080" begin="zoomplus.mouseover" end="zoomplus.mouseout"/>
                        </use>
                        <path d="M-4,0h8M0,-4v8" fill="none" stroke="white" stroke-width="1.5" pointer-events="none"/>
                </g>
                <g id="zoomMin">
                        <use xlink:href="#rim" fill="#404040">
                                <set attributeName="fill" to="#808080" begin="zoomminus.mouseover" end="zoomminus.mouseout"/>
                        </use>
                        <path d="M-4,0h8" fill="none" stroke="white" stroke-width="1.5" pointer-events="none"/>
                </g>
                <g id="dirArrow">
                        <path fill="none" stroke="white" stroke-width="1.5" d="M0,-3.0v7 M-2.5,-0.5L0,-3.0L2.5,-0.5"/>
                </g>
               <g id="resetDef">
                       <use xlink:href="#rim2" fill="#404040">
                               <set attributeName="fill" to="#808080" begin="reset.mouseover" end="reset.mouseout"/>
                       </use>
               </g>
        </defs>

<script type="text/javascript">
var viewWidth = 1090;
var viewHeight = 509;
var sectionId = 'dynsection-9';
</script>
<script xlink:href="svgpan.js"/>
<svg id="graph" class="graph">
<g id="viewport">
<title>Physics.PhysicsWorld.CollisionDetection</title>
<polygon fill="white" stroke="transparent" points="-4,4 -4,-505 1086,-505 1086,4 -4,4"/>
<!-- Node1 -->
<g id="node1" class="node">
<title>Node1</title>
<g id="a_node1"><a xlink:title=" ">
<polygon fill="#bfbfbf" stroke="black" points="0,-171.5 0,-201.5 155,-201.5 155,-171.5 0,-171.5"/>
<text text-anchor="start" x="8" y="-189.5" font-family="Helvetica,sans-Serif" font-size="10.00">Physics.PhysicsWorld.Collision</text>
<text text-anchor="middle" x="77.5" y="-178.5" font-family="Helvetica,sans-Serif" font-size="10.00">Detection</text>
</a>
</g>
</g>
<!-- Node2 -->
<g id="node2" class="node">
<title>Node2</title>
<g id="a_node2"><a xlink:href="class_physics_1_1_physics_world.html#a9fb900baebfc430f003c9810c5ffb676" target="_top" xlink:title=" ">
<polygon fill="white" stroke="black" points="194,-147.5 194,-177.5 337,-177.5 337,-147.5 194,-147.5"/>
<text text-anchor="start" x="202" y="-165.5" font-family="Helvetica,sans-Serif" font-size="10.00">Physics.PhysicsWorld.Broad</text>
<text text-anchor="middle" x="265.5" y="-154.5" font-family="Helvetica,sans-Serif" font-size="10.00">Phase</text>
</a>
</g>
</g>
<!-- Node1&#45;&gt;Node2 -->
<g id="edge1" class="edge">
<title>Node1&#45;&gt;Node2</title>
<path fill="none" stroke="midnightblue" d="M155.23,-176.6C164.63,-175.39 174.27,-174.14 183.73,-172.92"/>
<polygon fill="midnightblue" stroke="midnightblue" points="184.45,-176.36 193.92,-171.61 183.55,-169.42 184.45,-176.36"/>
</g>
<!-- Node6 -->
<g id="node6" class="node">
<title>Node6</title>
<g id="a_node6"><a xlink:href="class_physics_1_1_physics_world.html#ab505479deb9b79c8d1c5edd3957c8e49" target="_top" xlink:title=" ">
<polygon fill="white" stroke="black" points="191,-196.5 191,-226.5 340,-226.5 340,-196.5 191,-196.5"/>
<text text-anchor="start" x="199" y="-214.5" font-family="Helvetica,sans-Serif" font-size="10.00">Physics.PhysicsWorld.Narrow</text>
<text text-anchor="middle" x="265.5" y="-203.5" font-family="Helvetica,sans-Serif" font-size="10.00">Phase</text>
</a>
</g>
</g>
<!-- Node1&#45;&gt;Node6 -->
<g id="edge5" class="edge">
<title>Node1&#45;&gt;Node6</title>
<path fill="none" stroke="midnightblue" d="M155.23,-196.81C163.71,-197.95 172.39,-199.12 180.95,-200.27"/>
<polygon fill="midnightblue" stroke="midnightblue" points="180.56,-203.75 190.94,-201.61 181.5,-196.81 180.56,-203.75"/>
</g>
<!-- Node3 -->
<g id="node3" class="node">
<title>Node3</title>
<g id="a_node3"><a xlink:href="class_physics_1_1_tool_1_1_physics_cache_pool.html#ad34177ed5fc07b1f58b468485b9f50f2" target="_top" xlink:title=" ">
<polygon fill="white" stroke="black" points="380,-150.5 380,-180.5 520,-180.5 520,-150.5 380,-150.5"/>
<text text-anchor="start" x="388" y="-168.5" font-family="Helvetica,sans-Serif" font-size="10.00">Physics.Tool.PhysicsCache</text>
<text text-anchor="middle" x="450" y="-157.5" font-family="Helvetica,sans-Serif" font-size="10.00">Pool.RecycleCollisionPair</text>
</a>
</g>
</g>
<!-- Node2&#45;&gt;Node3 -->
<g id="edge2" class="edge">
<title>Node2&#45;&gt;Node3</title>
<path fill="none" stroke="midnightblue" d="M337.06,-163.66C347.7,-163.83 358.74,-164.02 369.55,-164.19"/>
<polygon fill="midnightblue" stroke="midnightblue" points="369.77,-167.7 379.83,-164.36 369.89,-160.7 369.77,-167.7"/>
</g>
<!-- Node4 -->
<g id="node4" class="node">
<title>Node4</title>
<g id="a_node4"><a xlink:href="class_physics_1_1_physics_world.html#ac2f42a51005358723ff89d9021d64d59" target="_top" xlink:title=" ">
<polygon fill="white" stroke="black" points="376,-50.5 376,-80.5 524,-80.5 524,-50.5 376,-50.5"/>
<text text-anchor="start" x="384" y="-68.5" font-family="Helvetica,sans-Serif" font-size="10.00">Physics.PhysicsWorld.Sweep</text>
<text text-anchor="middle" x="450" y="-57.5" font-family="Helvetica,sans-Serif" font-size="10.00">AndPrune</text>
</a>
</g>
</g>
<!-- Node2&#45;&gt;Node4 -->
<g id="edge3" class="edge">
<title>Node2&#45;&gt;Node4</title>
<path fill="none" stroke="midnightblue" d="M295.02,-147.34C326.49,-130.62 377.26,-103.63 411.83,-85.26"/>
<polygon fill="midnightblue" stroke="midnightblue" points="413.5,-88.33 420.68,-80.55 410.21,-82.15 413.5,-88.33"/>
</g>
<!-- Node5 -->
<g id="node5" class="node">
<title>Node5</title>
<g id="a_node5"><a xlink:href="class_physics_1_1_tool_1_1_physics_cache_pool.html#a1f50c13a4660d05aa10058bb9bec5e5e" target="_top" xlink:title=" ">
<polygon fill="white" stroke="black" points="561.5,-0.5 561.5,-30.5 713.5,-30.5 713.5,-0.5 561.5,-0.5"/>
<text text-anchor="start" x="569.5" y="-18.5" font-family="Helvetica,sans-Serif" font-size="10.00">Physics.Tool.PhysicsCache</text>
<text text-anchor="middle" x="637.5" y="-7.5" font-family="Helvetica,sans-Serif" font-size="10.00">Pool.GetCollisionPairFromPool</text>
</a>
</g>
</g>
<!-- Node4&#45;&gt;Node5 -->
<g id="edge4" class="edge">
<title>Node4&#45;&gt;Node5</title>
<path fill="none" stroke="midnightblue" d="M506.66,-50.5C526.83,-45.06 549.81,-38.87 570.77,-33.22"/>
<polygon fill="midnightblue" stroke="midnightblue" points="571.82,-36.56 580.56,-30.58 570,-29.8 571.82,-36.56"/>
</g>
<!-- Node6&#45;&gt;Node3 -->
<g id="edge33" class="edge">
<title>Node6&#45;&gt;Node3</title>
<path fill="none" stroke="midnightblue" d="M326.26,-196.44C343.2,-192.17 361.8,-187.48 379.28,-183.07"/>
<polygon fill="midnightblue" stroke="midnightblue" points="380.58,-186.36 389.42,-180.52 378.87,-179.57 380.58,-186.36"/>
</g>
<!-- Node7 -->
<g id="node7" class="node">
<title>Node7</title>
<g id="a_node7"><a xlink:href="class_physics_1_1_physics_world.html#a981b90f47065fded56b0145083aac984" target="_top" xlink:title=" ">
<polygon fill="white" stroke="black" points="381.5,-202 381.5,-221 518.5,-221 518.5,-202 381.5,-202"/>
<text text-anchor="middle" x="450" y="-209" font-family="Helvetica,sans-Serif" font-size="10.00">Physics.PhysicsWorld.EPA</text>
</a>
</g>
</g>
<!-- Node6&#45;&gt;Node7 -->
<g id="edge6" class="edge">
<title>Node6&#45;&gt;Node7</title>
<path fill="none" stroke="midnightblue" d="M340.2,-211.5C350.37,-211.5 360.83,-211.5 371.07,-211.5"/>
<polygon fill="midnightblue" stroke="midnightblue" points="371.22,-215 381.21,-211.5 371.21,-208 371.22,-215"/>
</g>
<!-- Node24 -->
<g id="node24" class="node">
<title>Node24</title>
<g id="a_node24"><a xlink:href="class_physics_1_1_physics_world.html#abbda8b52c5f3c0cf86ac64fbc64fd69e" target="_top" xlink:title=" ">
<polygon fill="white" stroke="black" points="381.5,-361 381.5,-380 518.5,-380 518.5,-361 381.5,-361"/>
<text text-anchor="middle" x="450" y="-368" font-family="Helvetica,sans-Serif" font-size="10.00">Physics.PhysicsWorld.GJK</text>
</a>
</g>
</g>
<!-- Node6&#45;&gt;Node24 -->
<g id="edge27" class="edge">
<title>Node6&#45;&gt;Node24</title>
<path fill="none" stroke="midnightblue" d="M284,-226.75C318.36,-256.68 394.39,-322.92 429.95,-353.91"/>
<polygon fill="midnightblue" stroke="midnightblue" points="427.85,-356.71 437.69,-360.64 432.45,-351.44 427.85,-356.71"/>
</g>
<!-- Node8 -->
<g id="node8" class="node">
<title>Node8</title>
<g id="a_node8"><a xlink:href="class_physics_1_1_collision_1_1_model_1_1_simplex_edge.html#a816ccd6c203d0952fdcf318cbf628be2" target="_top" xlink:title=" ">
<polygon fill="white" stroke="black" points="561.5,-147.5 561.5,-177.5 713.5,-177.5 713.5,-147.5 561.5,-147.5"/>
<text text-anchor="start" x="569.5" y="-165.5" font-family="Helvetica,sans-Serif" font-size="10.00">Physics.Collision.Model.</text>
<text text-anchor="middle" x="637.5" y="-154.5" font-family="Helvetica,sans-Serif" font-size="10.00">SimplexEdge.FindClosestEdge</text>
</a>
</g>
</g>
<!-- Node7&#45;&gt;Node8 -->
<g id="edge7" class="edge">
<title>Node7&#45;&gt;Node8</title>
<path fill="none" stroke="midnightblue" d="M487.21,-201.94C510.69,-195.73 542,-187.46 569.88,-180.1"/>
<polygon fill="midnightblue" stroke="midnightblue" points="570.8,-183.47 579.57,-177.54 569.01,-176.71 570.8,-183.47"/>
</g>
<!-- Node9 -->
<g id="node9" class="node">
<title>Node9</title>
<g id="a_node9"><a xlink:href="class_physics_1_1_physics_world.html#a5ea0895316da17449ff1352e2610ba59" target="_top" xlink:title=" ">
<polygon fill="white" stroke="black" points="569,-333.5 569,-363.5 706,-363.5 706,-333.5 569,-333.5"/>
<text text-anchor="start" x="577" y="-351.5" font-family="Helvetica,sans-Serif" font-size="10.00">Physics.PhysicsWorld.Find</text>
<text text-anchor="middle" x="637.5" y="-340.5" font-family="Helvetica,sans-Serif" font-size="10.00">NextDirection</text>
</a>
</g>
</g>
<!-- Node7&#45;&gt;Node9 -->
<g id="edge8" class="edge">
<title>Node7&#45;&gt;Node9</title>
<path fill="none" stroke="midnightblue" d="M457.75,-221.11C473.32,-242.58 513.95,-294.79 560,-323.5 563.37,-325.6 566.94,-327.55 570.62,-329.34"/>
<polygon fill="midnightblue" stroke="midnightblue" points="569.37,-332.62 579.93,-333.5 572.23,-326.23 569.37,-332.62"/>
</g>
<!-- Node11 -->
<g id="node11" class="node">
<title>Node11</title>
<g id="a_node11"><a xlink:href="class_physics_1_1_tool_1_1_physics_cache_pool.html#ab67193fe66ad5ef639e0f88a9b1a79ec" target="_top" xlink:title=" ">
<polygon fill="white" stroke="black" points="560,-98.5 560,-128.5 715,-128.5 715,-98.5 560,-98.5"/>
<text text-anchor="start" x="568" y="-116.5" font-family="Helvetica,sans-Serif" font-size="10.00">Physics.Tool.PhysicsCache</text>
<text text-anchor="middle" x="637.5" y="-105.5" font-family="Helvetica,sans-Serif" font-size="10.00">Pool.GetSimplexEdgeFromPool</text>
</a>
</g>
</g>
<!-- Node7&#45;&gt;Node11 -->
<g id="edge10" class="edge">
<title>Node7&#45;&gt;Node11</title>
<path fill="none" stroke="midnightblue" d="M501.41,-201.95C509.4,-199.08 517.25,-195.35 524,-190.5 546.83,-174.11 537.46,-155.3 560,-138.5 562.5,-136.64 565.14,-134.91 567.88,-133.31"/>
<polygon fill="midnightblue" stroke="midnightblue" points="569.66,-136.33 576.93,-128.61 566.44,-130.12 569.66,-136.33"/>
</g>
<!-- Node12 -->
<g id="node12" class="node">
<title>Node12</title>
<g id="a_node12"><a xlink:href="class_physics_1_1_collision_1_1_model_1_1_simplex_edge.html#ac435eb94635850bd1dbf75897fee68b7" target="_top" xlink:title=" ">
<polygon fill="white" stroke="black" points="575,-245.5 575,-275.5 700,-275.5 700,-245.5 575,-245.5"/>
<text text-anchor="start" x="583" y="-263.5" font-family="Helvetica,sans-Serif" font-size="10.00">Physics.Collision.Model.</text>
<text text-anchor="middle" x="637.5" y="-252.5" font-family="Helvetica,sans-Serif" font-size="10.00">SimplexEdge.InitEdges</text>
</a>
</g>
</g>
<!-- Node7&#45;&gt;Node12 -->
<g id="edge11" class="edge">
<title>Node7&#45;&gt;Node12</title>
<path fill="none" stroke="midnightblue" d="M487.21,-221.06C510.69,-227.27 542,-235.54 569.88,-242.9"/>
<polygon fill="midnightblue" stroke="midnightblue" points="569.01,-246.29 579.57,-245.46 570.8,-239.53 569.01,-246.29"/>
</g>
<!-- Node17 -->
<g id="node17" class="node">
<title>Node17</title>
<g id="a_node17"><a xlink:href="class_physics_1_1_collision_1_1_model_1_1_simplex_edge.html#ae349a32da5778aa885c6f5b1e7153350" target="_top" xlink:title=" ">
<polygon fill="white" stroke="black" points="564,-196.5 564,-226.5 711,-226.5 711,-196.5 564,-196.5"/>
<text text-anchor="start" x="572" y="-214.5" font-family="Helvetica,sans-Serif" font-size="10.00">Physics.Collision.Model.</text>
<text text-anchor="middle" x="637.5" y="-203.5" font-family="Helvetica,sans-Serif" font-size="10.00">SimplexEdge.InsertEdgePoint</text>
</a>
</g>
</g>
<!-- Node7&#45;&gt;Node17 -->
<g id="edge16" class="edge">
<title>Node7&#45;&gt;Node17</title>
<path fill="none" stroke="midnightblue" d="M518.76,-211.5C530.12,-211.5 542.03,-211.5 553.73,-211.5"/>
<polygon fill="midnightblue" stroke="midnightblue" points="553.93,-215 563.93,-211.5 553.93,-208 553.93,-215"/>
</g>
<!-- Node20 -->
<g id="node20" class="node">
<title>Node20</title>
<g id="a_node20"><a xlink:href="class_physics_1_1_tool_1_1_physics_cache_pool.html#adb2db95c9b826ec9e9b3a31025adc8c6" target="_top" xlink:title=" ">
<polygon fill="white" stroke="black" points="567.5,-49.5 567.5,-79.5 707.5,-79.5 707.5,-49.5 567.5,-49.5"/>
<text text-anchor="start" x="575.5" y="-67.5" font-family="Helvetica,sans-Serif" font-size="10.00">Physics.Tool.PhysicsCache</text>
<text text-anchor="middle" x="637.5" y="-56.5" font-family="Helvetica,sans-Serif" font-size="10.00">Pool.RecycleSimplexEdge</text>
</a>
</g>
</g>
<!-- Node7&#45;&gt;Node20 -->
<g id="edge22" class="edge">
<title>Node7&#45;&gt;Node20</title>
<path fill="none" stroke="midnightblue" d="M506.3,-201.86C512.79,-198.99 518.91,-195.29 524,-190.5 558.73,-157.87 525.86,-122.75 560,-89.5 561.63,-87.92 563.36,-86.43 565.17,-85.04"/>
<polygon fill="midnightblue" stroke="midnightblue" points="567.13,-87.94 573.57,-79.53 563.29,-82.09 567.13,-87.94"/>
</g>
<!-- Node22 -->
<g id="node22" class="node">
<title>Node22</title>
<g id="a_node22"><a xlink:href="class_physics_1_1_physics_world.html#af1aadffc2ad0f1b13391fe5eb1f4e703" target="_top" xlink:title=" ">
<polygon fill="white" stroke="black" points="561.5,-295 561.5,-314 713.5,-314 713.5,-295 561.5,-295"/>
<text text-anchor="middle" x="637.5" y="-302" font-family="Helvetica,sans-Serif" font-size="10.00">Physics.PhysicsWorld.Support</text>
</a>
</g>
</g>
<!-- Node7&#45;&gt;Node22 -->
<g id="edge25" class="edge">
<title>Node7&#45;&gt;Node22</title>
<path fill="none" stroke="midnightblue" d="M462.28,-221.18C481.22,-236.95 521.15,-268.16 560,-285.5 565.44,-287.93 571.25,-290.08 577.14,-291.98"/>
<polygon fill="midnightblue" stroke="midnightblue" points="576.49,-295.44 587.07,-294.95 578.49,-288.74 576.49,-295.44"/>
</g>
<!-- Node10 -->
<g id="node10" class="node">
<title>Node10</title>
<g id="a_node10"><a xlink:href="class_physics_1_1_tool_1_1_physics_tool.html#a7b559484401a2cc211847f49cff64dbc" target="_top" xlink:title=" ">
<polygon fill="white" stroke="black" points="762.5,-360.5 762.5,-390.5 894.5,-390.5 894.5,-360.5 762.5,-360.5"/>
<text text-anchor="start" x="770.5" y="-378.5" font-family="Helvetica,sans-Serif" font-size="10.00">Physics.Tool.PhysicsTool.</text>
<text text-anchor="middle" x="828.5" y="-367.5" font-family="Helvetica,sans-Serif" font-size="10.00">GetClosestPointToOrigin</text>
</a>
</g>
</g>
<!-- Node9&#45;&gt;Node10 -->
<g id="edge9" class="edge">
<title>Node9&#45;&gt;Node10</title>
<path fill="none" stroke="midnightblue" d="M706.2,-358.17C721.23,-360.32 737.25,-362.61 752.55,-364.79"/>
<polygon fill="midnightblue" stroke="midnightblue" points="752.09,-368.26 762.49,-366.21 753.08,-361.33 752.09,-368.26"/>
</g>
<!-- Node13 -->
<g id="node13" class="node">
<title>Node13</title>
<g id="a_node13"><a xlink:href="class_physics_1_1_collision_1_1_model_1_1_simplex_edge.html#aa9b0228aaaf6885ee72668b11e1b22da" target="_top" xlink:title=" ">
<polygon fill="white" stroke="black" points="757,-245.5 757,-275.5 900,-275.5 900,-245.5 757,-245.5"/>
<text text-anchor="start" x="765" y="-263.5" font-family="Helvetica,sans-Serif" font-size="10.00">Physics.Collision.Model.</text>
<text text-anchor="middle" x="828.5" y="-252.5" font-family="Helvetica,sans-Serif" font-size="10.00">SimplexEdge.CreateInitEdge</text>
</a>
</g>
</g>
<!-- Node12&#45;&gt;Node13 -->
<g id="edge12" class="edge">
<title>Node12&#45;&gt;Node13</title>
<path fill="none" stroke="midnightblue" d="M700.12,-260.5C714.97,-260.5 731.05,-260.5 746.63,-260.5"/>
<polygon fill="midnightblue" stroke="midnightblue" points="746.77,-264 756.77,-260.5 746.77,-257 746.77,-264"/>
</g>
<!-- Node16 -->
<g id="node16" class="node">
<title>Node16</title>
<g id="a_node16"><a xlink:href="class_physics_1_1_collision_1_1_model_1_1_simplex_edge.html#a536f768434ce96fc78fe67adf4e0c9ed" target="_top" xlink:title=" ">
<polygon fill="white" stroke="black" points="751,-196.5 751,-226.5 906,-226.5 906,-196.5 751,-196.5"/>
<text text-anchor="start" x="759" y="-214.5" font-family="Helvetica,sans-Serif" font-size="10.00">Physics.Collision.Model.</text>
<text text-anchor="middle" x="828.5" y="-203.5" font-family="Helvetica,sans-Serif" font-size="10.00">SimplexEdge.UpdateEdgeIndex</text>
</a>
</g>
</g>
<!-- Node12&#45;&gt;Node16 -->
<g id="edge15" class="edge">
<title>Node12&#45;&gt;Node16</title>
<path fill="none" stroke="midnightblue" d="M696.49,-245.47C716.54,-240.27 739.17,-234.4 759.92,-229.02"/>
<polygon fill="midnightblue" stroke="midnightblue" points="760.82,-232.4 769.62,-226.51 759.06,-225.63 760.82,-232.4"/>
</g>
<!-- Node14 -->
<g id="node14" class="node">
<title>Node14</title>
<g id="a_node14"><a xlink:href="class_physics_1_1_tool_1_1_physics_cache_pool.html#a5632346a5a6c8029427ce1ec41cc1edc" target="_top" xlink:title=" ">
<polygon fill="white" stroke="black" points="942,-231.5 942,-261.5 1082,-261.5 1082,-231.5 942,-231.5"/>
<text text-anchor="start" x="950" y="-249.5" font-family="Helvetica,sans-Serif" font-size="10.00">Physics.Tool.PhysicsCache</text>
<text text-anchor="middle" x="1012" y="-238.5" font-family="Helvetica,sans-Serif" font-size="10.00">Pool.GetEdgeFromPool</text>
</a>
</g>
</g>
<!-- Node13&#45;&gt;Node14 -->
<g id="edge13" class="edge">
<title>Node13&#45;&gt;Node14</title>
<path fill="none" stroke="midnightblue" d="M900.19,-255.05C910.6,-254.24 921.38,-253.41 931.95,-252.6"/>
<polygon fill="midnightblue" stroke="midnightblue" points="932.29,-256.08 941.99,-251.82 931.75,-249.1 932.29,-256.08"/>
</g>
<!-- Node15 -->
<g id="node15" class="node">
<title>Node15</title>
<g id="a_node15"><a xlink:href="class_physics_1_1_tool_1_1_physics_tool.html#ae7347b7ed11fb2a7a4e78afe07d8a4d2" target="_top" xlink:title=" ">
<polygon fill="white" stroke="black" points="946,-158.5 946,-188.5 1078,-188.5 1078,-158.5 946,-158.5"/>
<text text-anchor="start" x="954" y="-176.5" font-family="Helvetica,sans-Serif" font-size="10.00">Physics.Tool.PhysicsTool.</text>
<text text-anchor="middle" x="1012" y="-165.5" font-family="Helvetica,sans-Serif" font-size="10.00">GetPerpendicularToOrigin</text>
</a>
</g>
</g>
<!-- Node13&#45;&gt;Node15 -->
<g id="edge14" class="edge">
<title>Node13&#45;&gt;Node15</title>
<path fill="none" stroke="midnightblue" d="M883.19,-245.43C890.96,-242.74 898.76,-239.75 906,-236.5 932.35,-224.66 960.31,-207.64 980.75,-194.27"/>
<polygon fill="midnightblue" stroke="midnightblue" points="982.9,-197.05 989.3,-188.61 979.03,-191.21 982.9,-197.05"/>
</g>
<!-- Node17&#45;&gt;Node16 -->
<g id="edge21" class="edge">
<title>Node17&#45;&gt;Node16</title>
<path fill="none" stroke="midnightblue" d="M711.03,-211.5C720.69,-211.5 730.67,-211.5 740.54,-211.5"/>
<polygon fill="midnightblue" stroke="midnightblue" points="740.77,-215 750.77,-211.5 740.77,-208 740.77,-215"/>
</g>
<!-- Node18 -->
<g id="node18" class="node">
<title>Node18</title>
<g id="a_node18"><a xlink:href="class_physics_1_1_collision_1_1_model_1_1_simplex_edge.html#a46b8494a6a6088235c2b1bb272cdb8ba" target="_top" xlink:title=" ">
<polygon fill="white" stroke="black" points="764,-147.5 764,-177.5 893,-177.5 893,-147.5 764,-147.5"/>
<text text-anchor="start" x="772" y="-165.5" font-family="Helvetica,sans-Serif" font-size="10.00">Physics.Collision.Model.</text>
<text text-anchor="middle" x="828.5" y="-154.5" font-family="Helvetica,sans-Serif" font-size="10.00">SimplexEdge.CreateEdge</text>
</a>
</g>
</g>
<!-- Node17&#45;&gt;Node18 -->
<g id="edge17" class="edge">
<title>Node17&#45;&gt;Node18</title>
<path fill="none" stroke="midnightblue" d="M696.49,-196.47C716.54,-191.27 739.17,-185.4 759.92,-180.02"/>
<polygon fill="midnightblue" stroke="midnightblue" points="760.82,-183.4 769.62,-177.51 759.06,-176.63 760.82,-183.4"/>
</g>
<!-- Node19 -->
<g id="node19" class="node">
<title>Node19</title>
<g id="a_node19"><a xlink:href="class_physics_1_1_tool_1_1_physics_cache_pool.html#a40a29873272825581e5d87a82b737e0f" target="_top" xlink:title=" ">
<polygon fill="white" stroke="black" points="942,-90.5 942,-120.5 1082,-120.5 1082,-90.5 942,-90.5"/>
<text text-anchor="start" x="950" y="-108.5" font-family="Helvetica,sans-Serif" font-size="10.00">Physics.Tool.PhysicsCache</text>
<text text-anchor="middle" x="1012" y="-97.5" font-family="Helvetica,sans-Serif" font-size="10.00">Pool.RecycleEdge</text>
</a>
</g>
</g>
<!-- Node17&#45;&gt;Node19 -->
<g id="edge20" class="edge">
<title>Node17&#45;&gt;Node19</title>
<path fill="none" stroke="midnightblue" d="M699.53,-196.35C704.99,-193.83 710.24,-190.9 715,-187.5 736.98,-171.79 727.71,-152.2 751,-138.5 805.44,-106.48 877.28,-99.48 931.65,-99.78"/>
<polygon fill="midnightblue" stroke="midnightblue" points="931.88,-103.29 941.93,-99.93 931.98,-96.29 931.88,-103.29"/>
</g>
<!-- Node18&#45;&gt;Node14 -->
<g id="edge18" class="edge">
<title>Node18&#45;&gt;Node14</title>
<path fill="none" stroke="midnightblue" d="M880.23,-177.52C888.94,-180.54 897.81,-183.9 906,-187.5 931.18,-198.56 958.21,-213.83 978.53,-226.07"/>
<polygon fill="midnightblue" stroke="midnightblue" points="976.73,-229.06 987.09,-231.27 980.37,-223.08 976.73,-229.06"/>
</g>
<!-- Node18&#45;&gt;Node15 -->
<g id="edge19" class="edge">
<title>Node18&#45;&gt;Node15</title>
<path fill="none" stroke="midnightblue" d="M893.23,-166.36C906.96,-167.19 921.59,-168.08 935.71,-168.94"/>
<polygon fill="midnightblue" stroke="midnightblue" points="935.69,-172.44 945.88,-169.55 936.11,-165.45 935.69,-172.44"/>
</g>
<!-- Node21 -->
<g id="node21" class="node">
<title>Node21</title>
<g id="a_node21"><a xlink:href="class_physics_1_1_collision_1_1_model_1_1_simplex_edge.html#a422d4d80fc2c4205af1f96abcec05a67" target="_top" xlink:title=" ">
<polygon fill="white" stroke="black" points="766,-52.5 766,-82.5 891,-82.5 891,-52.5 766,-52.5"/>
<text text-anchor="start" x="774" y="-70.5" font-family="Helvetica,sans-Serif" font-size="10.00">Physics.Collision.Model.</text>
<text text-anchor="middle" x="828.5" y="-59.5" font-family="Helvetica,sans-Serif" font-size="10.00">SimplexEdge.Clear</text>
</a>
</g>
</g>
<!-- Node20&#45;&gt;Node21 -->
<g id="edge23" class="edge">
<title>Node20&#45;&gt;Node21</title>
<path fill="none" stroke="midnightblue" d="M707.54,-65.6C723.19,-65.84 739.86,-66.11 755.63,-66.36"/>
<polygon fill="midnightblue" stroke="midnightblue" points="755.79,-69.86 765.84,-66.52 755.9,-62.86 755.79,-69.86"/>
</g>
<!-- Node21&#45;&gt;Node19 -->
<g id="edge24" class="edge">
<title>Node21&#45;&gt;Node19</title>
<path fill="none" stroke="midnightblue" d="M891.2,-80.42C904.35,-83.17 918.41,-86.11 932.1,-88.98"/>
<polygon fill="midnightblue" stroke="midnightblue" points="931.48,-92.43 941.99,-91.05 932.92,-85.58 931.48,-92.43"/>
</g>
<!-- Node23 -->
<g id="node23" class="node">
<title>Node23</title>
<g id="a_node23"><a xlink:href="class_physics_1_1_collision_1_1_collision_object.html#a28cc343d91add7b15402133b83d76b27" target="_top" xlink:title=" ">
<polygon fill="white" stroke="black" points="757,-294.5 757,-324.5 900,-324.5 900,-294.5 757,-294.5"/>
<text text-anchor="start" x="765" y="-312.5" font-family="Helvetica,sans-Serif" font-size="10.00">Physics.Collision.Collision</text>
<text text-anchor="middle" x="828.5" y="-301.5" font-family="Helvetica,sans-Serif" font-size="10.00">Object.GetFarthestPointInDir</text>
</a>
</g>
</g>
<!-- Node22&#45;&gt;Node23 -->
<g id="edge26" class="edge">
<title>Node22&#45;&gt;Node23</title>
<path fill="none" stroke="midnightblue" d="M713.74,-306.49C724.51,-306.78 735.62,-307.07 746.49,-307.36"/>
<polygon fill="midnightblue" stroke="midnightblue" points="746.73,-310.86 756.82,-307.63 746.91,-303.87 746.73,-310.86"/>
</g>
<!-- Node24&#45;&gt;Node9 -->
<g id="edge29" class="edge">
<title>Node24&#45;&gt;Node9</title>
<path fill="none" stroke="midnightblue" d="M518.76,-362.46C531.79,-360.92 545.53,-359.29 558.85,-357.71"/>
<polygon fill="midnightblue" stroke="midnightblue" points="559.41,-361.17 568.93,-356.51 558.58,-354.22 559.41,-361.17"/>
</g>
<!-- Node24&#45;&gt;Node10 -->
<g id="edge30" class="edge">
<title>Node24&#45;&gt;Node10</title>
<path fill="none" stroke="midnightblue" d="M518.73,-372.57C532.39,-372.93 546.66,-373.27 560,-373.5 624.89,-374.64 698.65,-375.13 752.25,-375.34"/>
<polygon fill="midnightblue" stroke="midnightblue" points="752.34,-378.84 762.36,-375.38 752.37,-371.84 752.34,-378.84"/>
</g>
<!-- Node24&#45;&gt;Node22 -->
<g id="edge32" class="edge">
<title>Node24&#45;&gt;Node22</title>
<path fill="none" stroke="midnightblue" d="M471.15,-360.96C492.78,-350.97 528.3,-335.27 560,-324.5 568.31,-321.68 577.24,-319.02 585.97,-316.61"/>
<polygon fill="midnightblue" stroke="midnightblue" points="586.93,-319.98 595.68,-314.01 585.12,-313.22 586.93,-319.98"/>
</g>
<!-- Node25 -->
<g id="node25" class="node">
<title>Node25</title>
<g id="a_node25"><a xlink:href="class_physics_1_1_physics_world.html#adf7766abbfb94bb041d38b3d7209dcba" target="_top" xlink:title=" ">
<polygon fill="white" stroke="black" points="569,-421.5 569,-451.5 706,-451.5 706,-421.5 569,-421.5"/>
<text text-anchor="start" x="577" y="-439.5" font-family="Helvetica,sans-Serif" font-size="10.00">Physics.PhysicsWorld.Find</text>
<text text-anchor="middle" x="637.5" y="-428.5" font-family="Helvetica,sans-Serif" font-size="10.00">FirstDirection</text>
</a>
</g>
</g>
<!-- Node24&#45;&gt;Node25 -->
<g id="edge28" class="edge">
<title>Node24&#45;&gt;Node25</title>
<path fill="none" stroke="midnightblue" d="M477.97,-380.1C505.8,-390 549.91,-405.69 584.54,-418.01"/>
<polygon fill="midnightblue" stroke="midnightblue" points="583.45,-421.34 594.04,-421.39 585.79,-414.74 583.45,-421.34"/>
</g>
<!-- Node26 -->
<g id="node26" class="node">
<title>Node26</title>
<g id="a_node26"><a xlink:href="class_physics_1_1_tool_1_1_physics_tool.html#a0945b739fb0d3bb8376e85574a4bc981" target="_top" xlink:title="检查点是否在三角形内">
<polygon fill="white" stroke="black" points="571.5,-470.5 571.5,-500.5 703.5,-500.5 703.5,-470.5 571.5,-470.5"/>
<text text-anchor="start" x="579.5" y="-488.5" font-family="Helvetica,sans-Serif" font-size="10.00">Physics.Tool.PhysicsTool.</text>
<text text-anchor="middle" x="637.5" y="-477.5" font-family="Helvetica,sans-Serif" font-size="10.00">IsPointInTriangle</text>
</a>
</g>
</g>
<!-- Node24&#45;&gt;Node26 -->
<g id="edge31" class="edge">
<title>Node24&#45;&gt;Node26</title>
<path fill="none" stroke="midnightblue" d="M459.97,-380.18C477.49,-398.55 518.24,-438.7 560,-461.5 563.25,-463.27 566.64,-464.93 570.12,-466.49"/>
<polygon fill="midnightblue" stroke="midnightblue" points="568.9,-469.78 579.48,-470.37 571.58,-463.31 568.9,-469.78"/>
</g>
</g>
</svg>
        <g id="navigator" transform="translate(0 0)" fill="#404254">
                <rect fill="#f2f5e9" fill-opacity="0.5" stroke="#606060" stroke-width=".5" x="0" y="0" width="60" height="60"/>
                <use id="zoomplus" xlink:href="#zoomPlus" x="17" y="9" onmousedown="handleZoom(evt,'in')"/>
                <use id="zoomminus" xlink:href="#zoomMin" x="42" y="9" onmousedown="handleZoom(evt,'out')"/>
                <use id="reset" xlink:href="#resetDef" x="30" y="36" onmousedown="handleReset()"/>
                <g id="arrowUp" xlink:href="#dirArrow" transform="translate(30 24)" onmousedown="handlePan(0,-1)">
                  <use xlink:href="#rim" fill="#404040">
                        <set attributeName="fill" to="#808080" begin="arrowUp.mouseover" end="arrowUp.mouseout"/>
                  </use>
                  <path fill="none" stroke="white" stroke-width="1.5" d="M0,-3.0v7 M-2.5,-0.5L0,-3.0L2.5,-0.5"/>
                </g>
                <g id="arrowRight" xlink:href="#dirArrow" transform="rotate(90) translate(36 -43)" onmousedown="handlePan(1,0)">
                  <use xlink:href="#rim" fill="#404040">
                        <set attributeName="fill" to="#808080" begin="arrowRight.mouseover" end="arrowRight.mouseout"/>
                  </use>
                  <path fill="none" stroke="white" stroke-width="1.5" d="M0,-3.0v7 M-2.5,-0.5L0,-3.0L2.5,-0.5"/>
                </g>
                <g id="arrowDown" xlink:href="#dirArrow" transform="rotate(180) translate(-30 -48)" onmousedown="handlePan(0,1)">
                  <use xlink:href="#rim" fill="#404040">
                        <set attributeName="fill" to="#808080" begin="arrowDown.mouseover" end="arrowDown.mouseout"/>
                  </use>
                  <path fill="none" stroke="white" stroke-width="1.5" d="M0,-3.0v7 M-2.5,-0.5L0,-3.0L2.5,-0.5"/>
                </g>
                <g id="arrowLeft" xlink:href="#dirArrow" transform="rotate(270) translate(-36 17)" onmousedown="handlePan(-1,0)">
                  <use xlink:href="#rim" fill="#404040">
                        <set attributeName="fill" to="#808080" begin="arrowLeft.mouseover" end="arrowLeft.mouseout"/>
                  </use>
                  <path fill="none" stroke="white" stroke-width="1.5" d="M0,-3.0v7 M-2.5,-0.5L0,-3.0L2.5,-0.5"/>
                </g>
        </g>
        <svg viewBox="0 0 15 15" width="100%" height="30px" preserveAspectRatio="xMaxYMin meet">
         <g id="arrow_out" transform="scale(0.3 0.3)">
          <a xlink:href="class_physics_1_1_physics_world_a516968c71000684ea688d080074d0ec8_cgraph_org.svg" target="_base">
           <rect id="button" ry="5" rx="5" y="6" x="6" height="38" width="38"
                fill="#f2f5e9" fill-opacity="0.5" stroke="#606060" stroke-width="1.0"/>
           <path id="arrow"
             d="M 11.500037,31.436501 C 11.940474,20.09759 22.043105,11.32322 32.158766,21.979434 L 37.068811,17.246167 C 37.068811,17.246167 37.088388,32 37.088388,32 L 22.160133,31.978069 C 22.160133,31.978069 26.997745,27.140456 26.997745,27.140456 C 18.528582,18.264221 13.291696,25.230495 11.500037,31.436501 z"
             style="fill:#404040;"/>
          </a>
         </g>
        </svg>
</svg>
