<?xml version="1.0" encoding="UTF-8" standalone="no"?>
<!DOCTYPE svg PUBLIC "-//W3C//DTD SVG 1.1//EN"
 "http://www.w3.org/Graphics/SVG/1.1/DTD/svg11.dtd">
<!-- Generated by graphviz version 2.50.0 (20211204.2007)
 -->
<!-- Title: Physics.Collision.Model.SimplexEdge.InitEdges Pages: 1 -->
<svg width="546pt" height="112pt"
 viewBox="0.00 0.00 546.00 112.00" xmlns="http://www.w3.org/2000/svg" xmlns:xlink="http://www.w3.org/1999/xlink">
<g id="graph0" class="graph" transform="scale(1 1) rotate(0) translate(4 108)">
<title>Physics.Collision.Model.SimplexEdge.InitEdges</title>
<polygon fill="white" stroke="transparent" points="-4,4 -4,-108 542,-108 542,4 -4,4"/>
<!-- Node1 -->
<g id="node1" class="node">
<title>Node1</title>
<g id="a_node1"><a xlink:title=" ">
<polygon fill="#bfbfbf" stroke="black" points="0,-24.5 0,-54.5 125,-54.5 125,-24.5 0,-24.5"/>
<text text-anchor="start" x="8" y="-42.5" font-family="Helvetica,sans-Serif" font-size="10.00">Physics.Collision.Model.</text>
<text text-anchor="middle" x="62.5" y="-31.5" font-family="Helvetica,sans-Serif" font-size="10.00">SimplexEdge.InitEdges</text>
</a>
</g>
</g>
<!-- Node2 -->
<g id="node2" class="node">
<title>Node2</title>
<g id="a_node2"><a xlink:href="class_physics_1_1_collision_1_1_model_1_1_simplex_edge.html#aa9b0228aaaf6885ee72668b11e1b22da" target="_top" xlink:title=" ">
<polygon fill="white" stroke="black" points="167,-49.5 167,-79.5 310,-79.5 310,-49.5 167,-49.5"/>
<text text-anchor="start" x="175" y="-67.5" font-family="Helvetica,sans-Serif" font-size="10.00">Physics.Collision.Model.</text>
<text text-anchor="middle" x="238.5" y="-56.5" font-family="Helvetica,sans-Serif" font-size="10.00">SimplexEdge.CreateInitEdge</text>
</a>
</g>
</g>
<!-- Node1&#45;&gt;Node2 -->
<g id="edge1" class="edge">
<title>Node1&#45;&gt;Node2</title>
<path fill="none" stroke="midnightblue" d="M125.34,-48.38C135.55,-49.85 146.27,-51.39 156.87,-52.91"/>
<polygon fill="midnightblue" stroke="midnightblue" points="156.57,-56.41 166.97,-54.37 157.57,-49.48 156.57,-56.41"/>
</g>
<!-- Node5 -->
<g id="node5" class="node">
<title>Node5</title>
<g id="a_node5"><a xlink:href="class_physics_1_1_collision_1_1_model_1_1_simplex_edge.html#a536f768434ce96fc78fe67adf4e0c9ed" target="_top" xlink:title=" ">
<polygon fill="white" stroke="black" points="161,-0.5 161,-30.5 316,-30.5 316,-0.5 161,-0.5"/>
<text text-anchor="start" x="169" y="-18.5" font-family="Helvetica,sans-Serif" font-size="10.00">Physics.Collision.Model.</text>
<text text-anchor="middle" x="238.5" y="-7.5" font-family="Helvetica,sans-Serif" font-size="10.00">SimplexEdge.UpdateEdgeIndex</text>
</a>
</g>
</g>
<!-- Node1&#45;&gt;Node5 -->
<g id="edge4" class="edge">
<title>Node1&#45;&gt;Node5</title>
<path fill="none" stroke="midnightblue" d="M125.34,-30.97C133.62,-29.83 142.24,-28.64 150.85,-27.45"/>
<polygon fill="midnightblue" stroke="midnightblue" points="151.51,-30.89 160.94,-26.06 150.56,-23.96 151.51,-30.89"/>
</g>
<!-- Node3 -->
<g id="node3" class="node">
<title>Node3</title>
<g id="a_node3"><a xlink:href="class_physics_1_1_physics_cache_pool.html#a68b6244567d48376ad3a2e5188e73241" target="_top" xlink:title=" ">
<polygon fill="white" stroke="black" points="374.5,-73.5 374.5,-103.5 515.5,-103.5 515.5,-73.5 374.5,-73.5"/>
<text text-anchor="start" x="382.5" y="-91.5" font-family="Helvetica,sans-Serif" font-size="10.00">Physics.PhysicsCachePool.</text>
<text text-anchor="middle" x="445" y="-80.5" font-family="Helvetica,sans-Serif" font-size="10.00">GetEdgeFromPool</text>
</a>
</g>
</g>
<!-- Node2&#45;&gt;Node3 -->
<g id="edge2" class="edge">
<title>Node2&#45;&gt;Node3</title>
<path fill="none" stroke="midnightblue" d="M310.16,-72.79C327.54,-74.83 346.26,-77.03 364.03,-79.11"/>
<polygon fill="midnightblue" stroke="midnightblue" points="364.03,-82.64 374.37,-80.33 364.85,-75.69 364.03,-82.64"/>
</g>
<!-- Node4 -->
<g id="node4" class="node">
<title>Node4</title>
<g id="a_node4"><a xlink:href="class_physics_1_1_physics_tool.html#a2b923d3cf606c6980a6b26c5b7bfc80f" target="_top" xlink:title=" ">
<polygon fill="white" stroke="black" points="352,-24.5 352,-54.5 538,-54.5 538,-24.5 352,-24.5"/>
<text text-anchor="start" x="360" y="-42.5" font-family="Helvetica,sans-Serif" font-size="10.00">Physics.PhysicsTool.GetPerpendicular</text>
<text text-anchor="middle" x="445" y="-31.5" font-family="Helvetica,sans-Serif" font-size="10.00">ToOrigin</text>
</a>
</g>
</g>
<!-- Node2&#45;&gt;Node4 -->
<g id="edge3" class="edge">
<title>Node2&#45;&gt;Node4</title>
<path fill="none" stroke="midnightblue" d="M310.16,-55.86C320.31,-54.62 330.92,-53.32 341.53,-52.03"/>
<polygon fill="midnightblue" stroke="midnightblue" points="342.19,-55.47 351.69,-50.78 341.34,-48.52 342.19,-55.47"/>
</g>
</g>
</svg>
