<?xml version="1.0" encoding="UTF-8" standalone="no"?>
<!DOCTYPE svg PUBLIC "-//W3C//DTD SVG 1.1//EN"
 "http://www.w3.org/Graphics/SVG/1.1/DTD/svg11.dtd">
<!-- Generated by graphviz version 2.50.0 (20211204.2007)
 -->
<!-- Title: Physics.PhysicsWorld.NarrowPhase Pages: 1 -->
<!--zoomable 485 -->
<svg id="main" version="1.1" xmlns="http://www.w3.org/2000/svg" xmlns:xlink="http://www.w3.org/1999/xlink" xml:space="preserve" onload="init(evt)">
<style type="text/css"><![CDATA[
.edge:hover path { stroke: red; }
.edge:hover polygon { stroke: red; fill: red; }
]]></style>
<script type="text/javascript"><![CDATA[
var edges = document.getElementsByTagName('g');
if (edges && edges.length) {
  for (var i=0;i<edges.length;i++) {
    if (edges[i].id.substr(0,4)=='edge') {
      edges[i].setAttribute('class','edge');
    }
  }
}
]]></script>
        <defs>
                <circle id="rim" cx="0" cy="0" r="7"/>
                <circle id="rim2" cx="0" cy="0" r="3.5"/>
                <g id="zoomPlus">
                        <use xlink:href="#rim" fill="#404040">
                                <set attributeName="fill" to="#808080" begin="zoomplus.mouseover" end="zoomplus.mouseout"/>
                        </use>
                        <path d="M-4,0h8M0,-4v8" fill="none" stroke="white" stroke-width="1.5" pointer-events="none"/>
                </g>
                <g id="zoomMin">
                        <use xlink:href="#rim" fill="#404040">
                                <set attributeName="fill" to="#808080" begin="zoomminus.mouseover" end="zoomminus.mouseout"/>
                        </use>
                        <path d="M-4,0h8" fill="none" stroke="white" stroke-width="1.5" pointer-events="none"/>
                </g>
                <g id="dirArrow">
                        <path fill="none" stroke="white" stroke-width="1.5" d="M0,-3.0v7 M-2.5,-0.5L0,-3.0L2.5,-0.5"/>
                </g>
               <g id="resetDef">
                       <use xlink:href="#rim2" fill="#404040">
                               <set attributeName="fill" to="#808080" begin="reset.mouseover" end="reset.mouseout"/>
                       </use>
               </g>
        </defs>

<script type="text/javascript">
var viewWidth = 891;
var viewHeight = 485;
var sectionId = 'dynsection-25';
</script>
<script xlink:href="svgpan.js"/>
<svg id="graph" class="graph">
<g id="viewport">
<title>Physics.PhysicsWorld.NarrowPhase</title>
<polygon fill="white" stroke="transparent" points="-4,4 -4,-481.09 887,-481.09 887,4 -4,4"/>
<!-- Node1 -->
<g id="node1" class="node">
<title>Node1</title>
<g id="a_node1"><a xlink:title=" ">
<polygon fill="#bfbfbf" stroke="black" points="0,-210.5 0,-240.5 149,-240.5 149,-210.5 0,-210.5"/>
<text text-anchor="start" x="8" y="-228.5" font-family="Helvetica,sans-Serif" font-size="10.00">Physics.PhysicsWorld.Narrow</text>
<text text-anchor="middle" x="74.5" y="-217.5" font-family="Helvetica,sans-Serif" font-size="10.00">Phase</text>
</a>
</g>
</g>
<!-- Node2 -->
<g id="node2" class="node">
<title>Node2</title>
<g id="a_node2"><a xlink:href="class_physics_1_1_physics_world.html#a981b90f47065fded56b0145083aac984" target="_top" xlink:title=" ">
<polygon fill="white" stroke="black" points="186.5,-216 186.5,-235 323.5,-235 323.5,-216 186.5,-216"/>
<text text-anchor="middle" x="255" y="-223" font-family="Helvetica,sans-Serif" font-size="10.00">Physics.PhysicsWorld.EPA</text>
</a>
</g>
</g>
<!-- Node1&#45;&gt;Node2 -->
<g id="edge1" class="edge">
<title>Node1&#45;&gt;Node2</title>
<path fill="none" stroke="midnightblue" d="M149.13,-225.5C158.06,-225.5 167.21,-225.5 176.2,-225.5"/>
<polygon fill="midnightblue" stroke="midnightblue" points="176.26,-229 186.26,-225.5 176.26,-222 176.26,-229"/>
</g>
<!-- Node19 -->
<g id="node19" class="node">
<title>Node19</title>
<g id="a_node19"><a xlink:href="class_physics_1_1_physics_world.html#abbda8b52c5f3c0cf86ac64fbc64fd69e" target="_top" xlink:title=" ">
<polygon fill="white" stroke="black" points="186.5,-353 186.5,-372 323.5,-372 323.5,-353 186.5,-353"/>
<text text-anchor="middle" x="255" y="-360" font-family="Helvetica,sans-Serif" font-size="10.00">Physics.PhysicsWorld.GJK</text>
</a>
</g>
</g>
<!-- Node1&#45;&gt;Node19 -->
<g id="edge22" class="edge">
<title>Node1&#45;&gt;Node19</title>
<path fill="none" stroke="midnightblue" d="M95.28,-240.68C129.43,-266.89 199.06,-320.33 233.61,-346.85"/>
<polygon fill="midnightblue" stroke="midnightblue" points="231.53,-349.67 241.6,-352.98 235.8,-344.12 231.53,-349.67"/>
</g>
<!-- Node22 -->
<g id="node22" class="node">
<title>Node22</title>
<g id="a_node22"><a xlink:href="class_physics_1_1_tool_1_1_physics_cache_pool.html#ad34177ed5fc07b1f58b468485b9f50f2" target="_top" xlink:title=" ">
<polygon fill="white" stroke="black" points="185,-166.5 185,-196.5 325,-196.5 325,-166.5 185,-166.5"/>
<text text-anchor="start" x="193" y="-184.5" font-family="Helvetica,sans-Serif" font-size="10.00">Physics.Tool.PhysicsCache</text>
<text text-anchor="middle" x="255" y="-173.5" font-family="Helvetica,sans-Serif" font-size="10.00">Pool.RecycleCollisionPair</text>
</a>
</g>
</g>
<!-- Node1&#45;&gt;Node22 -->
<g id="edge28" class="edge">
<title>Node1&#45;&gt;Node22</title>
<path fill="none" stroke="midnightblue" d="M136.43,-210.48C151.43,-206.78 167.61,-202.79 183.04,-198.99"/>
<polygon fill="midnightblue" stroke="midnightblue" points="184.17,-202.32 193.04,-196.53 182.49,-195.52 184.17,-202.32"/>
</g>
<!-- Node3 -->
<g id="node3" class="node">
<title>Node3</title>
<g id="a_node3"><a xlink:href="class_physics_1_1_collision_1_1_model_1_1_simplex_edge.html#a816ccd6c203d0952fdcf318cbf628be2" target="_top" xlink:title=" ">
<polygon fill="white" stroke="black" points="362.5,-235.5 362.5,-265.5 514.5,-265.5 514.5,-235.5 362.5,-235.5"/>
<text text-anchor="start" x="370.5" y="-253.5" font-family="Helvetica,sans-Serif" font-size="10.00">Physics.Collision.Model.</text>
<text text-anchor="middle" x="438.5" y="-242.5" font-family="Helvetica,sans-Serif" font-size="10.00">SimplexEdge.FindClosestEdge</text>
</a>
</g>
</g>
<!-- Node2&#45;&gt;Node3 -->
<g id="edge2" class="edge">
<title>Node2&#45;&gt;Node3</title>
<path fill="none" stroke="midnightblue" d="M323.58,-234.81C332.93,-236.1 342.64,-237.43 352.26,-238.76"/>
<polygon fill="midnightblue" stroke="midnightblue" points="351.85,-242.24 362.23,-240.13 352.8,-235.3 351.85,-242.24"/>
</g>
<!-- Node4 -->
<g id="node4" class="node">
<title>Node4</title>
<g id="a_node4"><a xlink:href="class_physics_1_1_physics_world.html#a5ea0895316da17449ff1352e2610ba59" target="_top" xlink:title=" ">
<polygon fill="white" stroke="black" points="370,-323.5 370,-353.5 507,-353.5 507,-323.5 370,-323.5"/>
<text text-anchor="start" x="378" y="-341.5" font-family="Helvetica,sans-Serif" font-size="10.00">Physics.PhysicsWorld.Find</text>
<text text-anchor="middle" x="438.5" y="-330.5" font-family="Helvetica,sans-Serif" font-size="10.00">NextDirection</text>
</a>
</g>
</g>
<!-- Node2&#45;&gt;Node4 -->
<g id="edge3" class="edge">
<title>Node2&#45;&gt;Node4</title>
<path fill="none" stroke="midnightblue" d="M264.92,-235.09C281.97,-252.92 321.07,-291.34 361,-313.5 364.88,-315.66 368.98,-317.66 373.19,-319.52"/>
<polygon fill="midnightblue" stroke="midnightblue" points="371.92,-322.79 382.5,-323.36 374.59,-316.32 371.92,-322.79"/>
</g>
<!-- Node6 -->
<g id="node6" class="node">
<title>Node6</title>
<g id="a_node6"><a xlink:href="class_physics_1_1_tool_1_1_physics_cache_pool.html#ab67193fe66ad5ef639e0f88a9b1a79ec" target="_top" xlink:title=" ">
<polygon fill="white" stroke="black" points="361,-186.5 361,-216.5 516,-216.5 516,-186.5 361,-186.5"/>
<text text-anchor="start" x="369" y="-204.5" font-family="Helvetica,sans-Serif" font-size="10.00">Physics.Tool.PhysicsCache</text>
<text text-anchor="middle" x="438.5" y="-193.5" font-family="Helvetica,sans-Serif" font-size="10.00">Pool.GetSimplexEdgeFromPool</text>
</a>
</g>
</g>
<!-- Node2&#45;&gt;Node6 -->
<g id="edge5" class="edge">
<title>Node2&#45;&gt;Node6</title>
<path fill="none" stroke="midnightblue" d="M323.58,-216.56C332.37,-215.4 341.47,-214.2 350.52,-213"/>
<polygon fill="midnightblue" stroke="midnightblue" points="351.24,-216.44 360.69,-211.66 350.32,-209.5 351.24,-216.44"/>
</g>
<!-- Node7 -->
<g id="node7" class="node">
<title>Node7</title>
<g id="a_node7"><a xlink:href="class_physics_1_1_collision_1_1_model_1_1_simplex_edge.html#ac435eb94635850bd1dbf75897fee68b7" target="_top" xlink:title=" ">
<polygon fill="white" stroke="black" points="376,-137.5 376,-167.5 501,-167.5 501,-137.5 376,-137.5"/>
<text text-anchor="start" x="384" y="-155.5" font-family="Helvetica,sans-Serif" font-size="10.00">Physics.Collision.Model.</text>
<text text-anchor="middle" x="438.5" y="-144.5" font-family="Helvetica,sans-Serif" font-size="10.00">SimplexEdge.InitEdges</text>
</a>
</g>
</g>
<!-- Node2&#45;&gt;Node7 -->
<g id="edge6" class="edge">
<title>Node2&#45;&gt;Node7</title>
<path fill="none" stroke="midnightblue" d="M301.18,-215.93C309.33,-213.41 317.59,-210.3 325,-206.5 343.29,-197.13 342.94,-187.3 361,-177.5 364.98,-175.34 369.17,-173.33 373.46,-171.46"/>
<polygon fill="midnightblue" stroke="midnightblue" points="375.03,-174.61 382.97,-167.6 372.39,-168.12 375.03,-174.61"/>
</g>
<!-- Node12 -->
<g id="node12" class="node">
<title>Node12</title>
<g id="a_node12"><a xlink:href="class_physics_1_1_collision_1_1_model_1_1_simplex_edge.html#ae349a32da5778aa885c6f5b1e7153350" target="_top" xlink:title=" ">
<polygon fill="white" stroke="black" points="365,-88.5 365,-118.5 512,-118.5 512,-88.5 365,-88.5"/>
<text text-anchor="start" x="373" y="-106.5" font-family="Helvetica,sans-Serif" font-size="10.00">Physics.Collision.Model.</text>
<text text-anchor="middle" x="438.5" y="-95.5" font-family="Helvetica,sans-Serif" font-size="10.00">SimplexEdge.InsertEdgePoint</text>
</a>
</g>
</g>
<!-- Node2&#45;&gt;Node12 -->
<g id="edge11" class="edge">
<title>Node2&#45;&gt;Node12</title>
<path fill="none" stroke="midnightblue" d="M309.63,-215.89C315.18,-213.44 320.45,-210.36 325,-206.5 354.11,-181.8 332.48,-153.88 361,-128.5 362.92,-126.79 364.95,-125.2 367.08,-123.72"/>
<polygon fill="midnightblue" stroke="midnightblue" points="368.94,-126.69 375.69,-118.52 365.32,-120.7 368.94,-126.69"/>
</g>
<!-- Node15 -->
<g id="node15" class="node">
<title>Node15</title>
<g id="a_node15"><a xlink:href="class_physics_1_1_tool_1_1_physics_cache_pool.html#adb2db95c9b826ec9e9b3a31025adc8c6" target="_top" xlink:title=" ">
<polygon fill="white" stroke="black" points="368.5,-20.5 368.5,-50.5 508.5,-50.5 508.5,-20.5 368.5,-20.5"/>
<text text-anchor="start" x="376.5" y="-38.5" font-family="Helvetica,sans-Serif" font-size="10.00">Physics.Tool.PhysicsCache</text>
<text text-anchor="middle" x="438.5" y="-27.5" font-family="Helvetica,sans-Serif" font-size="10.00">Pool.RecycleSimplexEdge</text>
</a>
</g>
</g>
<!-- Node2&#45;&gt;Node15 -->
<g id="edge17" class="edge">
<title>Node2&#45;&gt;Node15</title>
<path fill="none" stroke="midnightblue" d="M311.6,-215.91C316.53,-213.44 321.12,-210.35 325,-206.5 366.64,-165.17 324.91,-125.76 361,-79.5 368.58,-69.78 378.96,-61.82 389.62,-55.48"/>
<polygon fill="midnightblue" stroke="midnightblue" points="391.52,-58.43 398.59,-50.53 388.14,-52.3 391.52,-58.43"/>
</g>
<!-- Node17 -->
<g id="node17" class="node">
<title>Node17</title>
<g id="a_node17"><a xlink:href="class_physics_1_1_physics_world.html#af1aadffc2ad0f1b13391fe5eb1f4e703" target="_top" xlink:title=" ">
<polygon fill="white" stroke="black" points="362.5,-285 362.5,-304 514.5,-304 514.5,-285 362.5,-285"/>
<text text-anchor="middle" x="438.5" y="-292" font-family="Helvetica,sans-Serif" font-size="10.00">Physics.PhysicsWorld.Support</text>
</a>
</g>
</g>
<!-- Node2&#45;&gt;Node17 -->
<g id="edge20" class="edge">
<title>Node2&#45;&gt;Node17</title>
<path fill="none" stroke="midnightblue" d="M273.37,-235.11C293.83,-246.1 329.07,-264.06 361,-275.5 367.99,-278 375.45,-280.3 382.87,-282.36"/>
<polygon fill="midnightblue" stroke="midnightblue" points="381.99,-285.75 392.55,-284.94 383.79,-278.98 381.99,-285.75"/>
</g>
<!-- Node5 -->
<g id="node5" class="node">
<title>Node5</title>
<g id="a_node5"><a xlink:href="class_physics_1_1_tool_1_1_physics_tool.html#a7b559484401a2cc211847f49cff64dbc" target="_top" xlink:title=" ">
<polygon fill="white" stroke="black" points="563.5,-396.5 563.5,-426.5 695.5,-426.5 695.5,-396.5 563.5,-396.5"/>
<text text-anchor="start" x="571.5" y="-414.5" font-family="Helvetica,sans-Serif" font-size="10.00">Physics.Tool.PhysicsTool.</text>
<text text-anchor="middle" x="629.5" y="-403.5" font-family="Helvetica,sans-Serif" font-size="10.00">GetClosestPointToOrigin</text>
</a>
</g>
</g>
<!-- Node4&#45;&gt;Node5 -->
<g id="edge4" class="edge">
<title>Node4&#45;&gt;Node5</title>
<path fill="none" stroke="midnightblue" d="M487.88,-353.6C497.26,-356.73 506.98,-360.11 516,-363.5 539.44,-372.31 565.16,-383.19 586.09,-392.36"/>
<polygon fill="midnightblue" stroke="midnightblue" points="584.77,-395.61 595.34,-396.45 587.6,-389.21 584.77,-395.61"/>
</g>
<!-- Node8 -->
<g id="node8" class="node">
<title>Node8</title>
<g id="a_node8"><a xlink:href="class_physics_1_1_collision_1_1_model_1_1_simplex_edge.html#aa9b0228aaaf6885ee72668b11e1b22da" target="_top" xlink:title=" ">
<polygon fill="white" stroke="black" points="558,-186.5 558,-216.5 701,-216.5 701,-186.5 558,-186.5"/>
<text text-anchor="start" x="566" y="-204.5" font-family="Helvetica,sans-Serif" font-size="10.00">Physics.Collision.Model.</text>
<text text-anchor="middle" x="629.5" y="-193.5" font-family="Helvetica,sans-Serif" font-size="10.00">SimplexEdge.CreateInitEdge</text>
</a>
</g>
</g>
<!-- Node7&#45;&gt;Node8 -->
<g id="edge7" class="edge">
<title>Node7&#45;&gt;Node8</title>
<path fill="none" stroke="midnightblue" d="M497.49,-167.53C517.54,-172.73 540.17,-178.6 560.92,-183.98"/>
<polygon fill="midnightblue" stroke="midnightblue" points="560.06,-187.37 570.62,-186.49 561.82,-180.6 560.06,-187.37"/>
</g>
<!-- Node11 -->
<g id="node11" class="node">
<title>Node11</title>
<g id="a_node11"><a xlink:href="class_physics_1_1_collision_1_1_model_1_1_simplex_edge.html#a536f768434ce96fc78fe67adf4e0c9ed" target="_top" xlink:title=" ">
<polygon fill="white" stroke="black" points="552,-137.5 552,-167.5 707,-167.5 707,-137.5 552,-137.5"/>
<text text-anchor="start" x="560" y="-155.5" font-family="Helvetica,sans-Serif" font-size="10.00">Physics.Collision.Model.</text>
<text text-anchor="middle" x="629.5" y="-144.5" font-family="Helvetica,sans-Serif" font-size="10.00">SimplexEdge.UpdateEdgeIndex</text>
</a>
</g>
</g>
<!-- Node7&#45;&gt;Node11 -->
<g id="edge10" class="edge">
<title>Node7&#45;&gt;Node11</title>
<path fill="none" stroke="midnightblue" d="M501.12,-152.5C514,-152.5 527.81,-152.5 541.41,-152.5"/>
<polygon fill="midnightblue" stroke="midnightblue" points="541.75,-156 551.75,-152.5 541.75,-149 541.75,-156"/>
</g>
<!-- Node9 -->
<g id="node9" class="node">
<title>Node9</title>
<g id="a_node9"><a xlink:href="class_physics_1_1_tool_1_1_physics_cache_pool.html#a5632346a5a6c8029427ce1ec41cc1edc" target="_top" xlink:title=" ">
<polygon fill="white" stroke="black" points="743,-100.5 743,-130.5 883,-130.5 883,-100.5 743,-100.5"/>
<text text-anchor="start" x="751" y="-118.5" font-family="Helvetica,sans-Serif" font-size="10.00">Physics.Tool.PhysicsCache</text>
<text text-anchor="middle" x="813" y="-107.5" font-family="Helvetica,sans-Serif" font-size="10.00">Pool.GetEdgeFromPool</text>
</a>
</g>
</g>
<!-- Node8&#45;&gt;Node9 -->
<g id="edge8" class="edge">
<title>Node8&#45;&gt;Node9</title>
<path fill="none" stroke="midnightblue" d="M684.17,-186.39C691.94,-183.7 699.75,-180.73 707,-177.5 733.11,-165.88 760.89,-149.27 781.31,-136.17"/>
<polygon fill="midnightblue" stroke="midnightblue" points="783.39,-138.99 789.86,-130.61 779.57,-133.12 783.39,-138.99"/>
</g>
<!-- Node10 -->
<g id="node10" class="node">
<title>Node10</title>
<g id="a_node10"><a xlink:href="class_physics_1_1_tool_1_1_physics_tool.html#ae7347b7ed11fb2a7a4e78afe07d8a4d2" target="_top" xlink:title=" ">
<polygon fill="white" stroke="black" points="747,-173.5 747,-203.5 879,-203.5 879,-173.5 747,-173.5"/>
<text text-anchor="start" x="755" y="-191.5" font-family="Helvetica,sans-Serif" font-size="10.00">Physics.Tool.PhysicsTool.</text>
<text text-anchor="middle" x="813" y="-180.5" font-family="Helvetica,sans-Serif" font-size="10.00">GetPerpendicularToOrigin</text>
</a>
</g>
</g>
<!-- Node8&#45;&gt;Node10 -->
<g id="edge9" class="edge">
<title>Node8&#45;&gt;Node10</title>
<path fill="none" stroke="midnightblue" d="M701.19,-196.44C712.82,-195.6 724.9,-194.74 736.64,-193.9"/>
<polygon fill="midnightblue" stroke="midnightblue" points="737.11,-197.37 746.84,-193.17 736.61,-190.39 737.11,-197.37"/>
</g>
<!-- Node12&#45;&gt;Node11 -->
<g id="edge16" class="edge">
<title>Node12&#45;&gt;Node11</title>
<path fill="none" stroke="midnightblue" d="M497.49,-118.53C517.54,-123.73 540.17,-129.6 560.92,-134.98"/>
<polygon fill="midnightblue" stroke="midnightblue" points="560.06,-138.37 570.62,-137.49 561.82,-131.6 560.06,-138.37"/>
</g>
<!-- Node13 -->
<g id="node13" class="node">
<title>Node13</title>
<g id="a_node13"><a xlink:href="class_physics_1_1_collision_1_1_model_1_1_simplex_edge.html#a46b8494a6a6088235c2b1bb272cdb8ba" target="_top" xlink:title=" ">
<polygon fill="white" stroke="black" points="565,-88.5 565,-118.5 694,-118.5 694,-88.5 565,-88.5"/>
<text text-anchor="start" x="573" y="-106.5" font-family="Helvetica,sans-Serif" font-size="10.00">Physics.Collision.Model.</text>
<text text-anchor="middle" x="629.5" y="-95.5" font-family="Helvetica,sans-Serif" font-size="10.00">SimplexEdge.CreateEdge</text>
</a>
</g>
</g>
<!-- Node12&#45;&gt;Node13 -->
<g id="edge12" class="edge">
<title>Node12&#45;&gt;Node13</title>
<path fill="none" stroke="midnightblue" d="M512.03,-103.5C526.02,-103.5 540.69,-103.5 554.72,-103.5"/>
<polygon fill="midnightblue" stroke="midnightblue" points="554.8,-107 564.8,-103.5 554.8,-100 554.8,-107"/>
</g>
<!-- Node14 -->
<g id="node14" class="node">
<title>Node14</title>
<g id="a_node14"><a xlink:href="class_physics_1_1_tool_1_1_physics_cache_pool.html#a40a29873272825581e5d87a82b737e0f" target="_top" xlink:title=" ">
<polygon fill="white" stroke="black" points="743,-32.5 743,-62.5 883,-62.5 883,-32.5 743,-32.5"/>
<text text-anchor="start" x="751" y="-50.5" font-family="Helvetica,sans-Serif" font-size="10.00">Physics.Tool.PhysicsCache</text>
<text text-anchor="middle" x="813" y="-39.5" font-family="Helvetica,sans-Serif" font-size="10.00">Pool.RecycleEdge</text>
</a>
</g>
</g>
<!-- Node12&#45;&gt;Node14 -->
<g id="edge15" class="edge">
<title>Node12&#45;&gt;Node14</title>
<path fill="none" stroke="midnightblue" d="M505.35,-88.44C520.61,-85.23 536.83,-82.05 552,-79.5 612.34,-69.37 681.06,-61.05 732.7,-55.43"/>
<polygon fill="midnightblue" stroke="midnightblue" points="733.22,-58.9 742.79,-54.35 732.47,-51.94 733.22,-58.9"/>
</g>
<!-- Node13&#45;&gt;Node9 -->
<g id="edge13" class="edge">
<title>Node13&#45;&gt;Node9</title>
<path fill="none" stroke="midnightblue" d="M694.23,-107.71C706.65,-108.53 719.8,-109.4 732.65,-110.25"/>
<polygon fill="midnightblue" stroke="midnightblue" points="732.65,-113.76 742.86,-110.93 733.11,-106.78 732.65,-113.76"/>
</g>
<!-- Node13&#45;&gt;Node10 -->
<g id="edge14" class="edge">
<title>Node13&#45;&gt;Node10</title>
<path fill="none" stroke="midnightblue" d="M681.66,-118.62C690.23,-121.6 698.95,-124.93 707,-128.5 732.41,-139.77 759.63,-155.43 779.98,-167.93"/>
<polygon fill="midnightblue" stroke="midnightblue" points="778.19,-170.94 788.54,-173.25 781.89,-165 778.19,-170.94"/>
</g>
<!-- Node16 -->
<g id="node16" class="node">
<title>Node16</title>
<g id="a_node16"><a xlink:href="class_physics_1_1_collision_1_1_model_1_1_simplex_edge.html#a422d4d80fc2c4205af1f96abcec05a67" target="_top" xlink:title=" ">
<polygon fill="white" stroke="black" points="567,-0.5 567,-30.5 692,-30.5 692,-0.5 567,-0.5"/>
<text text-anchor="start" x="575" y="-18.5" font-family="Helvetica,sans-Serif" font-size="10.00">Physics.Collision.Model.</text>
<text text-anchor="middle" x="629.5" y="-7.5" font-family="Helvetica,sans-Serif" font-size="10.00">SimplexEdge.Clear</text>
</a>
</g>
</g>
<!-- Node15&#45;&gt;Node16 -->
<g id="edge18" class="edge">
<title>Node15&#45;&gt;Node16</title>
<path fill="none" stroke="midnightblue" d="M508.54,-28.19C524.19,-26.54 540.86,-24.77 556.63,-23.11"/>
<polygon fill="midnightblue" stroke="midnightblue" points="557.27,-26.56 566.84,-22.02 556.53,-19.6 557.27,-26.56"/>
</g>
<!-- Node16&#45;&gt;Node14 -->
<g id="edge19" class="edge">
<title>Node16&#45;&gt;Node14</title>
<path fill="none" stroke="midnightblue" d="M692.2,-26.38C705.35,-28.7 719.41,-31.18 733.1,-33.59"/>
<polygon fill="midnightblue" stroke="midnightblue" points="732.53,-37.04 742.99,-35.33 733.75,-30.15 732.53,-37.04"/>
</g>
<!-- Node18 -->
<g id="node18" class="node">
<title>Node18</title>
<g id="a_node18"><a xlink:href="class_physics_1_1_collision_1_1_collision_object.html#a28cc343d91add7b15402133b83d76b27" target="_top" xlink:title=" ">
<polygon fill="white" stroke="black" points="558,-279.5 558,-309.5 701,-309.5 701,-279.5 558,-279.5"/>
<text text-anchor="start" x="566" y="-297.5" font-family="Helvetica,sans-Serif" font-size="10.00">Physics.Collision.Collision</text>
<text text-anchor="middle" x="629.5" y="-286.5" font-family="Helvetica,sans-Serif" font-size="10.00">Object.GetFarthestPointInDir</text>
</a>
</g>
</g>
<!-- Node17&#45;&gt;Node18 -->
<g id="edge21" class="edge">
<title>Node17&#45;&gt;Node18</title>
<path fill="none" stroke="midnightblue" d="M514.74,-294.5C525.51,-294.5 536.62,-294.5 547.49,-294.5"/>
<polygon fill="midnightblue" stroke="midnightblue" points="547.82,-298 557.82,-294.5 547.82,-291 547.82,-298"/>
</g>
<!-- Node19&#45;&gt;Node4 -->
<g id="edge24" class="edge">
<title>Node19&#45;&gt;Node4</title>
<path fill="none" stroke="midnightblue" d="M323.58,-353.56C335.39,-352 347.77,-350.37 359.82,-348.77"/>
<polygon fill="midnightblue" stroke="midnightblue" points="360.4,-352.22 369.86,-347.44 359.49,-345.29 360.4,-352.22"/>
</g>
<!-- Node19&#45;&gt;Node5 -->
<g id="edge25" class="edge">
<title>Node19&#45;&gt;Node5</title>
<path fill="none" stroke="midnightblue" d="M262.41,-372.3C276.92,-393.48 314.66,-443.1 361,-461.5 425.03,-486.92 448.61,-475.8 516,-461.5 543.32,-455.7 572.06,-442.8 593.65,-431.55"/>
<polygon fill="midnightblue" stroke="midnightblue" points="595.57,-434.49 602.74,-426.69 592.27,-428.32 595.57,-434.49"/>
</g>
<!-- Node19&#45;&gt;Node17 -->
<g id="edge27" class="edge">
<title>Node19&#45;&gt;Node17</title>
<path fill="none" stroke="midnightblue" d="M274.56,-352.82C295.23,-342.33 329.85,-325.6 361,-314.5 368.99,-311.65 377.59,-309.01 386.02,-306.65"/>
<polygon fill="midnightblue" stroke="midnightblue" points="387.07,-309.99 395.81,-304 385.25,-303.23 387.07,-309.99"/>
</g>
<!-- Node20 -->
<g id="node20" class="node">
<title>Node20</title>
<g id="a_node20"><a xlink:href="class_physics_1_1_physics_world.html#adf7766abbfb94bb041d38b3d7209dcba" target="_top" xlink:title=" ">
<polygon fill="white" stroke="black" points="370,-421.5 370,-451.5 507,-451.5 507,-421.5 370,-421.5"/>
<text text-anchor="start" x="378" y="-439.5" font-family="Helvetica,sans-Serif" font-size="10.00">Physics.PhysicsWorld.Find</text>
<text text-anchor="middle" x="438.5" y="-428.5" font-family="Helvetica,sans-Serif" font-size="10.00">FirstDirection</text>
</a>
</g>
</g>
<!-- Node19&#45;&gt;Node20 -->
<g id="edge23" class="edge">
<title>Node19&#45;&gt;Node20</title>
<path fill="none" stroke="midnightblue" d="M274.24,-372.15C294.92,-382.86 329.8,-400.25 361,-412.5 366.02,-414.47 371.27,-416.4 376.57,-418.24"/>
<polygon fill="midnightblue" stroke="midnightblue" points="375.53,-421.59 386.13,-421.48 377.78,-414.95 375.53,-421.59"/>
</g>
<!-- Node21 -->
<g id="node21" class="node">
<title>Node21</title>
<g id="a_node21"><a xlink:href="class_physics_1_1_tool_1_1_physics_tool.html#a0945b739fb0d3bb8376e85574a4bc981" target="_top" xlink:title="检查点是否在三角形内">
<polygon fill="white" stroke="black" points="372.5,-372.5 372.5,-402.5 504.5,-402.5 504.5,-372.5 372.5,-372.5"/>
<text text-anchor="start" x="380.5" y="-390.5" font-family="Helvetica,sans-Serif" font-size="10.00">Physics.Tool.PhysicsTool.</text>
<text text-anchor="middle" x="438.5" y="-379.5" font-family="Helvetica,sans-Serif" font-size="10.00">IsPointInTriangle</text>
</a>
</g>
</g>
<!-- Node19&#45;&gt;Node21 -->
<g id="edge26" class="edge">
<title>Node19&#45;&gt;Node21</title>
<path fill="none" stroke="midnightblue" d="M323.58,-371.81C336.15,-373.54 349.35,-375.36 362.13,-377.12"/>
<polygon fill="midnightblue" stroke="midnightblue" points="361.89,-380.62 372.27,-378.52 362.84,-373.68 361.89,-380.62"/>
</g>
</g>
</svg>
        <g id="navigator" transform="translate(0 0)" fill="#404254">
                <rect fill="#f2f5e9" fill-opacity="0.5" stroke="#606060" stroke-width=".5" x="0" y="0" width="60" height="60"/>
                <use id="zoomplus" xlink:href="#zoomPlus" x="17" y="9" onmousedown="handleZoom(evt,'in')"/>
                <use id="zoomminus" xlink:href="#zoomMin" x="42" y="9" onmousedown="handleZoom(evt,'out')"/>
                <use id="reset" xlink:href="#resetDef" x="30" y="36" onmousedown="handleReset()"/>
                <g id="arrowUp" xlink:href="#dirArrow" transform="translate(30 24)" onmousedown="handlePan(0,-1)">
                  <use xlink:href="#rim" fill="#404040">
                        <set attributeName="fill" to="#808080" begin="arrowUp.mouseover" end="arrowUp.mouseout"/>
                  </use>
                  <path fill="none" stroke="white" stroke-width="1.5" d="M0,-3.0v7 M-2.5,-0.5L0,-3.0L2.5,-0.5"/>
                </g>
                <g id="arrowRight" xlink:href="#dirArrow" transform="rotate(90) translate(36 -43)" onmousedown="handlePan(1,0)">
                  <use xlink:href="#rim" fill="#404040">
                        <set attributeName="fill" to="#808080" begin="arrowRight.mouseover" end="arrowRight.mouseout"/>
                  </use>
                  <path fill="none" stroke="white" stroke-width="1.5" d="M0,-3.0v7 M-2.5,-0.5L0,-3.0L2.5,-0.5"/>
                </g>
                <g id="arrowDown" xlink:href="#dirArrow" transform="rotate(180) translate(-30 -48)" onmousedown="handlePan(0,1)">
                  <use xlink:href="#rim" fill="#404040">
                        <set attributeName="fill" to="#808080" begin="arrowDown.mouseover" end="arrowDown.mouseout"/>
                  </use>
                  <path fill="none" stroke="white" stroke-width="1.5" d="M0,-3.0v7 M-2.5,-0.5L0,-3.0L2.5,-0.5"/>
                </g>
                <g id="arrowLeft" xlink:href="#dirArrow" transform="rotate(270) translate(-36 17)" onmousedown="handlePan(-1,0)">
                  <use xlink:href="#rim" fill="#404040">
                        <set attributeName="fill" to="#808080" begin="arrowLeft.mouseover" end="arrowLeft.mouseout"/>
                  </use>
                  <path fill="none" stroke="white" stroke-width="1.5" d="M0,-3.0v7 M-2.5,-0.5L0,-3.0L2.5,-0.5"/>
                </g>
        </g>
        <svg viewBox="0 0 15 15" width="100%" height="30px" preserveAspectRatio="xMaxYMin meet">
         <g id="arrow_out" transform="scale(0.3 0.3)">
          <a xlink:href="class_physics_1_1_physics_world_ab505479deb9b79c8d1c5edd3957c8e49_cgraph_org.svg" target="_base">
           <rect id="button" ry="5" rx="5" y="6" x="6" height="38" width="38"
                fill="#f2f5e9" fill-opacity="0.5" stroke="#606060" stroke-width="1.0"/>
           <path id="arrow"
             d="M 11.500037,31.436501 C 11.940474,20.09759 22.043105,11.32322 32.158766,21.979434 L 37.068811,17.246167 C 37.068811,17.246167 37.088388,32 37.088388,32 L 22.160133,31.978069 C 22.160133,31.978069 26.997745,27.140456 26.997745,27.140456 C 18.528582,18.264221 13.291696,25.230495 11.500037,31.436501 z"
             style="fill:#404040;"/>
          </a>
         </g>
        </svg>
</svg>
