<?xml version="1.0" encoding="UTF-8" standalone="no"?>
<!DOCTYPE svg PUBLIC "-//W3C//DTD SVG 1.1//EN"
 "http://www.w3.org/Graphics/SVG/1.1/DTD/svg11.dtd">
<!-- Generated by graphviz version 2.50.0 (20211204.2007)
 -->
<!-- Title: Physics.Collision.Shape.CollisionShape Pages: 1 -->
<svg width="457pt" height="402pt"
 viewBox="0.00 0.00 457.00 402.00" xmlns="http://www.w3.org/2000/svg" xmlns:xlink="http://www.w3.org/1999/xlink">
<g id="graph0" class="graph" transform="scale(1 1) rotate(0) translate(4 398)">
<title>Physics.Collision.Shape.CollisionShape</title>
<polygon fill="white" stroke="transparent" points="-4,4 -4,-398 453,-398 453,4 -4,4"/>
<!-- Node1 -->
<g id="node1" class="node">
<title>Node1</title>
<g id="a_node1"><a xlink:title=" ">
<polygon fill="#bfbfbf" stroke="black" points="132,-171.5 132,-393.5 307,-393.5 307,-171.5 132,-171.5"/>
<text text-anchor="start" x="140" y="-381.5" font-family="Helvetica,sans-Serif" font-size="10.00">Physics.Collision.Shape.</text>
<text text-anchor="middle" x="219.5" y="-370.5" font-family="Helvetica,sans-Serif" font-size="10.00">CollisionShape</text>
<polyline fill="none" stroke="black" points="132,-363.5 307,-363.5 "/>
<text text-anchor="start" x="140" y="-351.5" font-family="Helvetica,sans-Serif" font-size="10.00">+ readonly ShapeType</text>
<text text-anchor="start" x="140" y="-340.5" font-family="Helvetica,sans-Serif" font-size="10.00"> shapeType</text>
<text text-anchor="start" x="140" y="-329.5" font-family="Helvetica,sans-Serif" font-size="10.00">+ List&lt; Vector3 &gt; localVertices</text>
<text text-anchor="start" x="140" y="-318.5" font-family="Helvetica,sans-Serif" font-size="10.00">+ List&lt; Vector3 &gt; vertices</text>
<text text-anchor="start" x="140" y="-307.5" font-family="Helvetica,sans-Serif" font-size="10.00">+ AABB aabb</text>
<polyline fill="none" stroke="black" points="132,-300.5 307,-300.5 "/>
<text text-anchor="start" x="140" y="-288.5" font-family="Helvetica,sans-Serif" font-size="10.00">+ CollisionShape(ShapeType</text>
<text text-anchor="start" x="140" y="-277.5" font-family="Helvetica,sans-Serif" font-size="10.00"> shapeType)</text>
<text text-anchor="start" x="140" y="-266.5" font-family="Helvetica,sans-Serif" font-size="10.00">+ CollisionShape(ShapeType</text>
<text text-anchor="start" x="140" y="-255.5" font-family="Helvetica,sans-Serif" font-size="10.00"> shapeType, Vector3[] localVertices)</text>
<text text-anchor="start" x="140" y="-244.5" font-family="Helvetica,sans-Serif" font-size="10.00">+ virtual void UpdateShape()</text>
<text text-anchor="start" x="140" y="-233.5" font-family="Helvetica,sans-Serif" font-size="10.00">+ void ApplyWorldVertices</text>
<text text-anchor="start" x="140" y="-222.5" font-family="Helvetica,sans-Serif" font-size="10.00">(Vector3 origin, Vector3</text>
<text text-anchor="start" x="140" y="-211.5" font-family="Helvetica,sans-Serif" font-size="10.00"> rotate, float scale)</text>
<text text-anchor="start" x="140" y="-200.5" font-family="Helvetica,sans-Serif" font-size="10.00"># abstract void GetBound</text>
<text text-anchor="start" x="140" y="-189.5" font-family="Helvetica,sans-Serif" font-size="10.00">(out Vector3 lowerBound,</text>
<text text-anchor="start" x="140" y="-178.5" font-family="Helvetica,sans-Serif" font-size="10.00"> out Vector3 upperBound)</text>
</a>
</g>
</g>
<!-- Node2 -->
<g id="node2" class="node">
<title>Node2</title>
<g id="a_node2"><a xlink:href="class_physics_1_1_collision_1_1_shape_1_1_circle.html" target="_top" xlink:title=" ">
<polygon fill="white" stroke="black" points="0,-0.5 0,-134.5 137,-134.5 137,-0.5 0,-0.5"/>
<text text-anchor="start" x="8" y="-122.5" font-family="Helvetica,sans-Serif" font-size="10.00">Physics.Collision.Shape.</text>
<text text-anchor="middle" x="68.5" y="-111.5" font-family="Helvetica,sans-Serif" font-size="10.00">Circle</text>
<polyline fill="none" stroke="black" points="0,-104.5 137,-104.5 "/>
<text text-anchor="start" x="8" y="-92.5" font-family="Helvetica,sans-Serif" font-size="10.00">+ readonly float radius</text>
<text text-anchor="start" x="8" y="-81.5" font-family="Helvetica,sans-Serif" font-size="10.00">&#45; int resolution</text>
<polyline fill="none" stroke="black" points="0,-74.5 137,-74.5 "/>
<text text-anchor="start" x="8" y="-62.5" font-family="Helvetica,sans-Serif" font-size="10.00">+ Circle(float radius)</text>
<text text-anchor="start" x="8" y="-51.5" font-family="Helvetica,sans-Serif" font-size="10.00"># override void GetBound</text>
<text text-anchor="start" x="8" y="-40.5" font-family="Helvetica,sans-Serif" font-size="10.00">(out Vector3 lowerBound,</text>
<text text-anchor="start" x="8" y="-29.5" font-family="Helvetica,sans-Serif" font-size="10.00"> out Vector3 upperBound)</text>
<text text-anchor="start" x="8" y="-18.5" font-family="Helvetica,sans-Serif" font-size="10.00">&#45; Vector3 CreateCirclePoint</text>
<text text-anchor="start" x="8" y="-7.5" font-family="Helvetica,sans-Serif" font-size="10.00">(int i, int j)</text>
</a>
</g>
</g>
<!-- Node1&#45;&gt;Node2 -->
<g id="edge1" class="edge">
<title>Node1&#45;&gt;Node2</title>
<path fill="none" stroke="midnightblue" d="M135.55,-163.08C128.67,-153.37 121.88,-143.8 115.43,-134.69"/>
<polygon fill="none" stroke="midnightblue" points="132.71,-165.12 141.35,-171.26 138.42,-161.07 132.71,-165.12"/>
</g>
<!-- Node3 -->
<g id="node3" class="node">
<title>Node3</title>
<g id="a_node3"><a xlink:href="class_physics_1_1_collision_1_1_shape_1_1_custom_shape.html" target="_top" xlink:title=" ">
<polygon fill="white" stroke="black" points="155.5,-11.5 155.5,-123.5 283.5,-123.5 283.5,-11.5 155.5,-11.5"/>
<text text-anchor="start" x="163.5" y="-111.5" font-family="Helvetica,sans-Serif" font-size="10.00">Physics.Collision.Shape.</text>
<text text-anchor="middle" x="219.5" y="-100.5" font-family="Helvetica,sans-Serif" font-size="10.00">CustomShape</text>
<polyline fill="none" stroke="black" points="155.5,-93.5 283.5,-93.5 "/>
<text text-anchor="middle" x="219.5" y="-81.5" font-family="Helvetica,sans-Serif" font-size="10.00"> </text>
<polyline fill="none" stroke="black" points="155.5,-74.5 283.5,-74.5 "/>
<text text-anchor="start" x="163.5" y="-62.5" font-family="Helvetica,sans-Serif" font-size="10.00">+ CustomShape(Vector3</text>
<text text-anchor="start" x="163.5" y="-51.5" font-family="Helvetica,sans-Serif" font-size="10.00">[] localVertices)</text>
<text text-anchor="start" x="163.5" y="-40.5" font-family="Helvetica,sans-Serif" font-size="10.00"># override void GetBound</text>
<text text-anchor="start" x="163.5" y="-29.5" font-family="Helvetica,sans-Serif" font-size="10.00">(out Vector3 lowerBound,</text>
<text text-anchor="start" x="163.5" y="-18.5" font-family="Helvetica,sans-Serif" font-size="10.00"> out Vector3 upperBound)</text>
</a>
</g>
</g>
<!-- Node1&#45;&gt;Node3 -->
<g id="edge2" class="edge">
<title>Node1&#45;&gt;Node3</title>
<path fill="none" stroke="midnightblue" d="M219.5,-161.2C219.5,-148.11 219.5,-135.3 219.5,-123.58"/>
<polygon fill="none" stroke="midnightblue" points="216,-161.26 219.5,-171.26 223,-161.26 216,-161.26"/>
</g>
<!-- Node4 -->
<g id="node4" class="node">
<title>Node4</title>
<g id="a_node4"><a xlink:href="class_physics_1_1_collision_1_1_shape_1_1_rect.html" target="_top" xlink:title=" ">
<polygon fill="white" stroke="black" points="302,-11.5 302,-123.5 449,-123.5 449,-11.5 302,-11.5"/>
<text text-anchor="middle" x="375.5" y="-111.5" font-family="Helvetica,sans-Serif" font-size="10.00">Physics.Collision.Shape.Rect</text>
<polyline fill="none" stroke="black" points="302,-104.5 449,-104.5 "/>
<text text-anchor="start" x="310" y="-92.5" font-family="Helvetica,sans-Serif" font-size="10.00">&#45; float horizontalWidth</text>
<text text-anchor="start" x="310" y="-81.5" font-family="Helvetica,sans-Serif" font-size="10.00">&#45; float verticalWidth</text>
<polyline fill="none" stroke="black" points="302,-74.5 449,-74.5 "/>
<text text-anchor="start" x="310" y="-62.5" font-family="Helvetica,sans-Serif" font-size="10.00">+ Rect(float horizontalWidth,</text>
<text text-anchor="start" x="310" y="-51.5" font-family="Helvetica,sans-Serif" font-size="10.00"> float verticalWidth)</text>
<text text-anchor="start" x="310" y="-40.5" font-family="Helvetica,sans-Serif" font-size="10.00"># override void GetBound</text>
<text text-anchor="start" x="310" y="-29.5" font-family="Helvetica,sans-Serif" font-size="10.00">(out Vector3 lowerBound,</text>
<text text-anchor="start" x="310" y="-18.5" font-family="Helvetica,sans-Serif" font-size="10.00"> out Vector3 upperBound)</text>
</a>
</g>
</g>
<!-- Node1&#45;&gt;Node4 -->
<g id="edge3" class="edge">
<title>Node1&#45;&gt;Node4</title>
<path fill="none" stroke="midnightblue" d="M306.19,-163.13C316.27,-149.37 326.16,-135.87 335.16,-123.58"/>
<polygon fill="none" stroke="midnightblue" points="303.33,-161.12 300.24,-171.26 308.97,-165.26 303.33,-161.12"/>
</g>
</g>
</svg>
