<?xml version="1.0" encoding="UTF-8" standalone="no"?>
<!DOCTYPE svg PUBLIC "-//W3C//DTD SVG 1.1//EN"
 "http://www.w3.org/Graphics/SVG/1.1/DTD/svg11.dtd">
<!-- Generated by graphviz version 2.50.0 (20211204.2007)
 -->
<!-- Title: Physics.Collision.CollisionObject.ApplyScale Pages: 1 -->
<svg width="489pt" height="88pt"
 viewBox="0.00 0.00 489.00 88.00" xmlns="http://www.w3.org/2000/svg" xmlns:xlink="http://www.w3.org/1999/xlink">
<g id="graph0" class="graph" transform="scale(1 1) rotate(0) translate(4 84)">
<title>Physics.Collision.CollisionObject.ApplyScale</title>
<polygon fill="white" stroke="transparent" points="-4,4 -4,-84 485,-84 485,4 -4,4"/>
<!-- Node1 -->
<g id="node1" class="node">
<title>Node1</title>
<g id="a_node1"><a xlink:title=" ">
<polygon fill="#bfbfbf" stroke="black" points="348,-24.5 348,-54.5 481,-54.5 481,-24.5 348,-24.5"/>
<text text-anchor="start" x="356" y="-42.5" font-family="Helvetica,sans-Serif" font-size="10.00">Physics.Collision.Collision</text>
<text text-anchor="middle" x="414.5" y="-31.5" font-family="Helvetica,sans-Serif" font-size="10.00">Object.ApplyScale</text>
</a>
</g>
</g>
<!-- Node2 -->
<g id="node2" class="node">
<title>Node2</title>
<g id="a_node2"><a xlink:href="class_physics_1_1_collision_1_1_collision_object.html#a8318e2845f2f71cb8b5396a5e4f58c7f" target="_top" xlink:title=" ">
<polygon fill="white" stroke="black" points="179,-49.5 179,-79.5 312,-79.5 312,-49.5 179,-49.5"/>
<text text-anchor="start" x="187" y="-67.5" font-family="Helvetica,sans-Serif" font-size="10.00">Physics.Collision.Collision</text>
<text text-anchor="middle" x="245.5" y="-56.5" font-family="Helvetica,sans-Serif" font-size="10.00">Object.Scale</text>
</a>
</g>
</g>
<!-- Node1&#45;&gt;Node2 -->
<g id="edge1" class="edge">
<title>Node1&#45;&gt;Node2</title>
<path fill="none" stroke="midnightblue" d="M337.93,-50.81C329.32,-52.1 320.58,-53.41 312.11,-54.68"/>
<polygon fill="midnightblue" stroke="midnightblue" points="338.6,-54.25 347.98,-49.31 337.57,-47.33 338.6,-54.25"/>
</g>
<!-- Node4 -->
<g id="node4" class="node">
<title>Node4</title>
<g id="a_node4"><a xlink:href="class_physics_1_1_collision_1_1_collision_object.html#a14aad5d8c4b1ac3883a2c44f1c05d5cb" target="_top" xlink:title=" ">
<polygon fill="white" stroke="black" points="179,-0.5 179,-30.5 312,-30.5 312,-0.5 179,-0.5"/>
<text text-anchor="start" x="187" y="-18.5" font-family="Helvetica,sans-Serif" font-size="10.00">Physics.Collision.Collision</text>
<text text-anchor="middle" x="245.5" y="-7.5" font-family="Helvetica,sans-Serif" font-size="10.00">Object.ScaleTo</text>
</a>
</g>
</g>
<!-- Node1&#45;&gt;Node4 -->
<g id="edge3" class="edge">
<title>Node1&#45;&gt;Node4</title>
<path fill="none" stroke="midnightblue" d="M337.93,-28.64C329.32,-27.4 320.58,-26.15 312.11,-24.93"/>
<polygon fill="midnightblue" stroke="midnightblue" points="337.58,-32.13 347.98,-30.08 338.58,-25.2 337.58,-32.13"/>
</g>
<!-- Node3 -->
<g id="node3" class="node">
<title>Node3</title>
<g id="a_node3"><a xlink:href="class_physics_1_1_test_1_1_collision_object_proxy.html#a709916799de5f459f7278cbfb24daf34" target="_top" xlink:title=" ">
<polygon fill="white" stroke="black" points="0,-49.5 0,-79.5 143,-79.5 143,-49.5 0,-49.5"/>
<text text-anchor="start" x="8" y="-67.5" font-family="Helvetica,sans-Serif" font-size="10.00">Physics.Test.CollisionObject</text>
<text text-anchor="middle" x="71.5" y="-56.5" font-family="Helvetica,sans-Serif" font-size="10.00">Proxy.Update</text>
</a>
</g>
</g>
<!-- Node2&#45;&gt;Node3 -->
<g id="edge2" class="edge">
<title>Node2&#45;&gt;Node3</title>
<path fill="none" stroke="midnightblue" d="M168.75,-64.5C160.28,-64.5 151.68,-64.5 143.28,-64.5"/>
<polygon fill="midnightblue" stroke="midnightblue" points="168.98,-68 178.98,-64.5 168.98,-61 168.98,-68"/>
</g>
</g>
</svg>
