<?xml version="1.0" encoding="UTF-8" standalone="no"?>
<!DOCTYPE svg PUBLIC "-//W3C//DTD SVG 1.1//EN"
 "http://www.w3.org/Graphics/SVG/1.1/DTD/svg11.dtd">
<!-- Generated by graphviz version 2.50.0 (20211204.2007)
 -->
<!-- Title: Physics.Tool.PhysicsCachePool.RecycleCollisionPair Pages: 1 -->
<svg width="882pt" height="88pt"
 viewBox="0.00 0.00 882.00 88.00" xmlns="http://www.w3.org/2000/svg" xmlns:xlink="http://www.w3.org/1999/xlink">
<g id="graph0" class="graph" transform="scale(1 1) rotate(0) translate(4 84)">
<title>Physics.Tool.PhysicsCachePool.RecycleCollisionPair</title>
<polygon fill="white" stroke="transparent" points="-4,4 -4,-84 878,-84 878,4 -4,4"/>
<!-- Node1 -->
<g id="node1" class="node">
<title>Node1</title>
<g id="a_node1"><a xlink:title=" ">
<polygon fill="#bfbfbf" stroke="black" points="734,-24.5 734,-54.5 874,-54.5 874,-24.5 734,-24.5"/>
<text text-anchor="start" x="742" y="-42.5" font-family="Helvetica,sans-Serif" font-size="10.00">Physics.Tool.PhysicsCache</text>
<text text-anchor="middle" x="804" y="-31.5" font-family="Helvetica,sans-Serif" font-size="10.00">Pool.RecycleCollisionPair</text>
</a>
</g>
</g>
<!-- Node2 -->
<g id="node2" class="node">
<title>Node2</title>
<g id="a_node2"><a xlink:href="class_physics_1_1_physics_world.html#a9fb900baebfc430f003c9810c5ffb676" target="_top" xlink:title=" ">
<polygon fill="white" stroke="black" points="552,-49.5 552,-79.5 695,-79.5 695,-49.5 552,-49.5"/>
<text text-anchor="start" x="560" y="-67.5" font-family="Helvetica,sans-Serif" font-size="10.00">Physics.PhysicsWorld.Broad</text>
<text text-anchor="middle" x="623.5" y="-56.5" font-family="Helvetica,sans-Serif" font-size="10.00">Phase</text>
</a>
</g>
</g>
<!-- Node1&#45;&gt;Node2 -->
<g id="edge1" class="edge">
<title>Node1&#45;&gt;Node2</title>
<path fill="none" stroke="midnightblue" d="M724.03,-50.56C714.39,-51.91 704.6,-53.28 695.1,-54.61"/>
<polygon fill="midnightblue" stroke="midnightblue" points="724.57,-54.02 733.99,-49.17 723.6,-47.09 724.57,-54.02"/>
</g>
<!-- Node6 -->
<g id="node6" class="node">
<title>Node6</title>
<g id="a_node6"><a xlink:href="class_physics_1_1_physics_world.html#ab505479deb9b79c8d1c5edd3957c8e49" target="_top" xlink:title=" ">
<polygon fill="white" stroke="black" points="549,-0.5 549,-30.5 698,-30.5 698,-0.5 549,-0.5"/>
<text text-anchor="start" x="557" y="-18.5" font-family="Helvetica,sans-Serif" font-size="10.00">Physics.PhysicsWorld.Narrow</text>
<text text-anchor="middle" x="623.5" y="-7.5" font-family="Helvetica,sans-Serif" font-size="10.00">Phase</text>
</a>
</g>
</g>
<!-- Node1&#45;&gt;Node6 -->
<g id="edge5" class="edge">
<title>Node1&#45;&gt;Node6</title>
<path fill="none" stroke="midnightblue" d="M723.96,-28.87C715.34,-27.71 706.6,-26.54 698.06,-25.39"/>
<polygon fill="midnightblue" stroke="midnightblue" points="723.61,-32.36 733.99,-30.22 724.54,-25.42 723.61,-32.36"/>
</g>
<!-- Node3 -->
<g id="node3" class="node">
<title>Node3</title>
<g id="a_node3"><a xlink:href="class_physics_1_1_physics_world.html#a516968c71000684ea688d080074d0ec8" target="_top" xlink:title=" ">
<polygon fill="white" stroke="black" points="358,-24.5 358,-54.5 513,-54.5 513,-24.5 358,-24.5"/>
<text text-anchor="start" x="366" y="-42.5" font-family="Helvetica,sans-Serif" font-size="10.00">Physics.PhysicsWorld.Collision</text>
<text text-anchor="middle" x="435.5" y="-31.5" font-family="Helvetica,sans-Serif" font-size="10.00">Detection</text>
</a>
</g>
</g>
<!-- Node2&#45;&gt;Node3 -->
<g id="edge2" class="edge">
<title>Node2&#45;&gt;Node3</title>
<path fill="none" stroke="midnightblue" d="M541.74,-53.64C532.28,-52.37 522.65,-51.08 513.24,-49.81"/>
<polygon fill="midnightblue" stroke="midnightblue" points="541.54,-57.15 551.92,-55.01 542.47,-50.21 541.54,-57.15"/>
</g>
<!-- Node4 -->
<g id="node4" class="node">
<title>Node4</title>
<g id="a_node4"><a xlink:href="class_physics_1_1_physics_world.html#adc2e766cfd2414718237d76064130c7f" target="_top" xlink:title=" ">
<polygon fill="white" stroke="black" points="185,-30 185,-49 322,-49 322,-30 185,-30"/>
<text text-anchor="middle" x="253.5" y="-37" font-family="Helvetica,sans-Serif" font-size="10.00">Physics.PhysicsWorld.Tick</text>
</a>
</g>
</g>
<!-- Node3&#45;&gt;Node4 -->
<g id="edge3" class="edge">
<title>Node3&#45;&gt;Node4</title>
<path fill="none" stroke="midnightblue" d="M347.84,-39.5C339.23,-39.5 330.58,-39.5 322.2,-39.5"/>
<polygon fill="midnightblue" stroke="midnightblue" points="347.9,-43 357.9,-39.5 347.9,-36 347.9,-43"/>
</g>
<!-- Node5 -->
<g id="node5" class="node">
<title>Node5</title>
<g id="a_node5"><a xlink:href="class_physics_1_1_physics_world.html#a21bcd3d27cec2fa8cf00d28be40ae413" target="_top" xlink:title=" ">
<polygon fill="white" stroke="black" points="0,-30 0,-49 149,-49 149,-30 0,-30"/>
<text text-anchor="middle" x="74.5" y="-37" font-family="Helvetica,sans-Serif" font-size="10.00">Physics.PhysicsWorld.Update</text>
</a>
</g>
</g>
<!-- Node4&#45;&gt;Node5 -->
<g id="edge4" class="edge">
<title>Node4&#45;&gt;Node5</title>
<path fill="none" stroke="midnightblue" d="M174.56,-39.5C166.08,-39.5 157.46,-39.5 149.03,-39.5"/>
<polygon fill="midnightblue" stroke="midnightblue" points="174.83,-43 184.83,-39.5 174.83,-36 174.83,-43"/>
</g>
<!-- Node6&#45;&gt;Node3 -->
<g id="edge6" class="edge">
<title>Node6&#45;&gt;Node3</title>
<path fill="none" stroke="midnightblue" d="M538.96,-26.28C530.37,-27.39 521.66,-28.51 513.14,-29.61"/>
<polygon fill="midnightblue" stroke="midnightblue" points="539.52,-29.74 548.99,-24.99 538.62,-22.79 539.52,-29.74"/>
</g>
</g>
</svg>
