<?xml version="1.0" encoding="UTF-8" standalone="no"?>
<!DOCTYPE svg PUBLIC "-//W3C//DTD SVG 1.1//EN"
 "http://www.w3.org/Graphics/SVG/1.1/DTD/svg11.dtd">
<!-- Generated by graphviz version 2.50.0 (20211204.2007)
 -->
<!-- Title: Physics.PhysicsWorld.Tick Pages: 1 -->
<svg width="1334pt" height="559pt"
 viewBox="0.00 0.00 1334.00 559.00" xmlns="http://www.w3.org/2000/svg" xmlns:xlink="http://www.w3.org/1999/xlink">
<g id="graph0" class="graph" transform="scale(1 1) rotate(0) translate(4 555)">
<title>Physics.PhysicsWorld.Tick</title>
<polygon fill="white" stroke="transparent" points="-4,4 -4,-555 1330,-555 1330,4 -4,4"/>
<!-- Node1 -->
<g id="node1" class="node">
<title>Node1</title>
<g id="a_node1"><a xlink:title=" ">
<polygon fill="#bfbfbf" stroke="black" points="0,-382 0,-401 137,-401 137,-382 0,-382"/>
<text text-anchor="middle" x="68.5" y="-389" font-family="Helvetica,sans-Serif" font-size="10.00">Physics.PhysicsWorld.Tick</text>
</a>
</g>
</g>
<!-- Node2 -->
<g id="node2" class="node">
<title>Node2</title>
<g id="a_node2"><a xlink:href="class_physics_1_1_physics_world.html#a9e0230662c23f57f5f94d9ee9e672487" target="_top" xlink:title=" ">
<polygon fill="white" stroke="black" points="179,-450.5 179,-480.5 322,-480.5 322,-450.5 179,-450.5"/>
<text text-anchor="start" x="187" y="-468.5" font-family="Helvetica,sans-Serif" font-size="10.00">Physics.PhysicsWorld.Apply</text>
<text text-anchor="middle" x="250.5" y="-457.5" font-family="Helvetica,sans-Serif" font-size="10.00">Acceleration</text>
</a>
</g>
</g>
<!-- Node1&#45;&gt;Node2 -->
<g id="edge1" class="edge">
<title>Node1&#45;&gt;Node2</title>
<path fill="none" stroke="midnightblue" d="M87.46,-401.17C107.83,-411.9 142.2,-429.3 173,-441.5 177.81,-443.4 182.84,-445.26 187.92,-447.05"/>
<polygon fill="midnightblue" stroke="midnightblue" points="187.11,-450.47 197.7,-450.38 189.36,-443.84 187.11,-450.47"/>
</g>
<!-- Node3 -->
<g id="node3" class="node">
<title>Node3</title>
<g id="a_node3"><a xlink:href="class_physics_1_1_physics_world.html#ab2cb96f774604513627f530a712e9003" target="_top" xlink:title=" ">
<polygon fill="white" stroke="black" points="179,-401.5 179,-431.5 322,-431.5 322,-401.5 179,-401.5"/>
<text text-anchor="start" x="187" y="-419.5" font-family="Helvetica,sans-Serif" font-size="10.00">Physics.PhysicsWorld.Apply</text>
<text text-anchor="middle" x="250.5" y="-408.5" font-family="Helvetica,sans-Serif" font-size="10.00">Velocity</text>
</a>
</g>
</g>
<!-- Node1&#45;&gt;Node3 -->
<g id="edge2" class="edge">
<title>Node1&#45;&gt;Node3</title>
<path fill="none" stroke="midnightblue" d="M137.04,-400.88C147.39,-402.32 158.18,-403.82 168.78,-405.29"/>
<polygon fill="midnightblue" stroke="midnightblue" points="168.49,-408.78 178.88,-406.69 169.46,-401.85 168.49,-408.78"/>
</g>
<!-- Node11 -->
<g id="node11" class="node">
<title>Node11</title>
<g id="a_node11"><a xlink:href="class_physics_1_1_physics_world.html#a516968c71000684ea688d080074d0ec8" target="_top" xlink:title=" ">
<polygon fill="white" stroke="black" points="173,-352.5 173,-382.5 328,-382.5 328,-352.5 173,-352.5"/>
<text text-anchor="start" x="181" y="-370.5" font-family="Helvetica,sans-Serif" font-size="10.00">Physics.PhysicsWorld.Collision</text>
<text text-anchor="middle" x="250.5" y="-359.5" font-family="Helvetica,sans-Serif" font-size="10.00">Detection</text>
</a>
</g>
</g>
<!-- Node1&#45;&gt;Node11 -->
<g id="edge10" class="edge">
<title>Node1&#45;&gt;Node11</title>
<path fill="none" stroke="midnightblue" d="M137.04,-382.5C145.43,-381.38 154.09,-380.22 162.72,-379.07"/>
<polygon fill="midnightblue" stroke="midnightblue" points="163.36,-382.52 172.81,-377.73 162.44,-375.58 163.36,-382.52"/>
</g>
<!-- Node37 -->
<g id="node37" class="node">
<title>Node37</title>
<g id="a_node37"><a xlink:href="class_physics_1_1_physics_world.html#a9cb8b9d6d48d80e26976deb605e14295" target="_top" xlink:title=" ">
<polygon fill="white" stroke="black" points="173.5,-287 173.5,-306 327.5,-306 327.5,-287 173.5,-287"/>
<text text-anchor="middle" x="250.5" y="-294" font-family="Helvetica,sans-Serif" font-size="10.00">Physics.PhysicsWorld.Resolve</text>
</a>
</g>
</g>
<!-- Node1&#45;&gt;Node37 -->
<g id="edge43" class="edge">
<title>Node1&#45;&gt;Node37</title>
<path fill="none" stroke="midnightblue" d="M87.75,-381.87C119.5,-365.11 185.06,-330.51 222.23,-310.89"/>
<polygon fill="midnightblue" stroke="midnightblue" points="224.26,-313.78 231.47,-306.02 220.99,-307.59 224.26,-313.78"/>
</g>
<!-- Node4 -->
<g id="node4" class="node">
<title>Node4</title>
<g id="a_node4"><a xlink:href="class_physics_1_1_collision_1_1_collision_object.html#a08bb2ab0fee9cf7f7b6af438d3b2d1db" target="_top" xlink:title=" ">
<polygon fill="white" stroke="black" points="372,-511.5 372,-541.5 505,-541.5 505,-511.5 372,-511.5"/>
<text text-anchor="start" x="380" y="-529.5" font-family="Helvetica,sans-Serif" font-size="10.00">Physics.Collision.Collision</text>
<text text-anchor="middle" x="438.5" y="-518.5" font-family="Helvetica,sans-Serif" font-size="10.00">Object.ApplyPosition</text>
</a>
</g>
</g>
<!-- Node3&#45;&gt;Node4 -->
<g id="edge3" class="edge">
<title>Node3&#45;&gt;Node4</title>
<path fill="none" stroke="midnightblue" d="M310.57,-431.58C316.74,-434.37 322.68,-437.65 328,-441.5 349.89,-457.34 343.27,-473.17 364,-490.5 371.44,-496.72 380.15,-502.19 388.9,-506.85"/>
<polygon fill="midnightblue" stroke="midnightblue" points="387.5,-510.06 398,-511.43 390.64,-503.81 387.5,-510.06"/>
</g>
<!-- Node9 -->
<g id="node9" class="node">
<title>Node9</title>
<g id="a_node9"><a xlink:href="class_physics_1_1_collision_1_1_collision_object.html#a7a805a42fc5c86aff1715e9ce7f77d48" target="_top" xlink:title=" ">
<polygon fill="white" stroke="black" points="366,-450.5 366,-480.5 511,-480.5 511,-450.5 366,-450.5"/>
<text text-anchor="start" x="374" y="-468.5" font-family="Helvetica,sans-Serif" font-size="10.00">Physics.Collision.Collision</text>
<text text-anchor="middle" x="438.5" y="-457.5" font-family="Helvetica,sans-Serif" font-size="10.00">Object.CleanResolveVelocity</text>
</a>
</g>
</g>
<!-- Node3&#45;&gt;Node9 -->
<g id="edge8" class="edge">
<title>Node3&#45;&gt;Node9</title>
<path fill="none" stroke="midnightblue" d="M308.57,-431.53C328.21,-436.71 350.37,-442.55 370.72,-447.91"/>
<polygon fill="midnightblue" stroke="midnightblue" points="369.98,-451.33 380.54,-450.49 371.76,-444.56 369.98,-451.33"/>
</g>
<!-- Node10 -->
<g id="node10" class="node">
<title>Node10</title>
<g id="a_node10"><a xlink:href="class_physics_1_1_collision_1_1_collision_object.html#a1d619f33e85ae72c0cfa06fddbad7655" target="_top" xlink:title=" ">
<polygon fill="white" stroke="black" points="372,-401.5 372,-431.5 505,-431.5 505,-401.5 372,-401.5"/>
<text text-anchor="start" x="380" y="-419.5" font-family="Helvetica,sans-Serif" font-size="10.00">Physics.Collision.Collision</text>
<text text-anchor="middle" x="438.5" y="-408.5" font-family="Helvetica,sans-Serif" font-size="10.00">Object.Translate</text>
</a>
</g>
</g>
<!-- Node3&#45;&gt;Node10 -->
<g id="edge9" class="edge">
<title>Node3&#45;&gt;Node10</title>
<path fill="none" stroke="midnightblue" d="M322.08,-416.5C334.98,-416.5 348.48,-416.5 361.52,-416.5"/>
<polygon fill="midnightblue" stroke="midnightblue" points="361.86,-420 371.86,-416.5 361.86,-413 361.86,-420"/>
</g>
<!-- Node5 -->
<g id="node5" class="node">
<title>Node5</title>
<g id="a_node5"><a xlink:href="class_physics_1_1_collision_1_1_shape_1_1_collision_shape.html#aa2888c2955c43fcd2adb654e88db7183" target="_top" xlink:title=" ">
<polygon fill="white" stroke="black" points="549,-517.5 549,-547.5 719,-547.5 719,-517.5 549,-517.5"/>
<text text-anchor="start" x="557" y="-535.5" font-family="Helvetica,sans-Serif" font-size="10.00">Physics.Collision.Shape.</text>
<text text-anchor="middle" x="634" y="-524.5" font-family="Helvetica,sans-Serif" font-size="10.00">CollisionShape.ApplyWorldVertices</text>
</a>
</g>
</g>
<!-- Node4&#45;&gt;Node5 -->
<g id="edge4" class="edge">
<title>Node4&#45;&gt;Node5</title>
<path fill="none" stroke="midnightblue" d="M505.01,-528.53C515.76,-528.86 527.08,-529.22 538.36,-529.57"/>
<polygon fill="midnightblue" stroke="midnightblue" points="538.59,-533.07 548.69,-529.89 538.8,-526.08 538.59,-533.07"/>
</g>
<!-- Node6 -->
<g id="node6" class="node">
<title>Node6</title>
<g id="a_node6"><a xlink:href="class_physics_1_1_collision_1_1_shape_1_1_collision_shape.html#ab236eb056356a1dd7e657c4154a58441" target="_top" xlink:title=" ">
<polygon fill="white" stroke="black" points="759,-519.5 759,-549.5 903,-549.5 903,-519.5 759,-519.5"/>
<text text-anchor="start" x="767" y="-537.5" font-family="Helvetica,sans-Serif" font-size="10.00">Physics.Collision.Shape.</text>
<text text-anchor="middle" x="831" y="-526.5" font-family="Helvetica,sans-Serif" font-size="10.00">CollisionShape.UpdateShape</text>
</a>
</g>
</g>
<!-- Node5&#45;&gt;Node6 -->
<g id="edge5" class="edge">
<title>Node5&#45;&gt;Node6</title>
<path fill="none" stroke="midnightblue" d="M719.11,-533.36C728.9,-533.46 738.88,-533.57 748.64,-533.67"/>
<polygon fill="midnightblue" stroke="midnightblue" points="748.67,-537.17 758.7,-533.77 748.74,-530.17 748.67,-537.17"/>
</g>
<!-- Node7 -->
<g id="node7" class="node">
<title>Node7</title>
<g id="a_node7"><a xlink:href="class_physics_1_1_collision_1_1_model_1_1_a_a_b_b.html#aab605aa58d0da2a571db877bb277f9dc" target="_top" xlink:title=" ">
<polygon fill="white" stroke="black" points="961,-471.5 961,-501.5 1086,-501.5 1086,-471.5 961,-471.5"/>
<text text-anchor="start" x="969" y="-489.5" font-family="Helvetica,sans-Serif" font-size="10.00">Physics.Collision.Model.</text>
<text text-anchor="middle" x="1023.5" y="-478.5" font-family="Helvetica,sans-Serif" font-size="10.00">AABB.Apply</text>
</a>
</g>
</g>
<!-- Node6&#45;&gt;Node7 -->
<g id="edge6" class="edge">
<title>Node6&#45;&gt;Node7</title>
<path fill="none" stroke="midnightblue" d="M891.75,-519.44C911.26,-514.53 933.08,-509.03 953.22,-503.96"/>
<polygon fill="midnightblue" stroke="midnightblue" points="954.12,-507.34 962.96,-501.5 952.41,-500.55 954.12,-507.34"/>
</g>
<!-- Node8 -->
<g id="node8" class="node">
<title>Node8</title>
<g id="a_node8"><a xlink:href="class_physics_1_1_collision_1_1_shape_1_1_collision_shape.html#af5247f1c8125a229c2be17f898608269" target="_top" xlink:title=" ">
<polygon fill="white" stroke="black" points="959.5,-520.5 959.5,-550.5 1087.5,-550.5 1087.5,-520.5 959.5,-520.5"/>
<text text-anchor="start" x="967.5" y="-538.5" font-family="Helvetica,sans-Serif" font-size="10.00">Physics.Collision.Shape.</text>
<text text-anchor="middle" x="1023.5" y="-527.5" font-family="Helvetica,sans-Serif" font-size="10.00">CollisionShape.GetBound</text>
</a>
</g>
</g>
<!-- Node6&#45;&gt;Node8 -->
<g id="edge7" class="edge">
<title>Node6&#45;&gt;Node8</title>
<path fill="none" stroke="midnightblue" d="M903.21,-534.87C918.15,-534.95 933.93,-535.04 948.96,-535.11"/>
<polygon fill="midnightblue" stroke="midnightblue" points="949.2,-538.62 959.22,-535.17 949.23,-531.62 949.2,-538.62"/>
</g>
<!-- Node12 -->
<g id="node12" class="node">
<title>Node12</title>
<g id="a_node12"><a xlink:href="class_physics_1_1_physics_world.html#a9fb900baebfc430f003c9810c5ffb676" target="_top" xlink:title=" ">
<polygon fill="white" stroke="black" points="367,-352.5 367,-382.5 510,-382.5 510,-352.5 367,-352.5"/>
<text text-anchor="start" x="375" y="-370.5" font-family="Helvetica,sans-Serif" font-size="10.00">Physics.PhysicsWorld.Broad</text>
<text text-anchor="middle" x="438.5" y="-359.5" font-family="Helvetica,sans-Serif" font-size="10.00">Phase</text>
</a>
</g>
</g>
<!-- Node11&#45;&gt;Node12 -->
<g id="edge11" class="edge">
<title>Node11&#45;&gt;Node12</title>
<path fill="none" stroke="midnightblue" d="M328.23,-367.5C337.63,-367.5 347.27,-367.5 356.73,-367.5"/>
<polygon fill="midnightblue" stroke="midnightblue" points="356.92,-371 366.92,-367.5 356.92,-364 356.92,-371"/>
</g>
<!-- Node16 -->
<g id="node16" class="node">
<title>Node16</title>
<g id="a_node16"><a xlink:href="class_physics_1_1_physics_world.html#ab505479deb9b79c8d1c5edd3957c8e49" target="_top" xlink:title=" ">
<polygon fill="white" stroke="black" points="364,-279.5 364,-309.5 513,-309.5 513,-279.5 364,-279.5"/>
<text text-anchor="start" x="372" y="-297.5" font-family="Helvetica,sans-Serif" font-size="10.00">Physics.PhysicsWorld.Narrow</text>
<text text-anchor="middle" x="438.5" y="-286.5" font-family="Helvetica,sans-Serif" font-size="10.00">Phase</text>
</a>
</g>
</g>
<!-- Node11&#45;&gt;Node16 -->
<g id="edge15" class="edge">
<title>Node11&#45;&gt;Node16</title>
<path fill="none" stroke="midnightblue" d="M290.04,-352.37C318.84,-341.07 358.41,-325.54 389.31,-313.41"/>
<polygon fill="midnightblue" stroke="midnightblue" points="390.98,-316.52 399.01,-309.61 388.42,-310 390.98,-316.52"/>
</g>
<!-- Node13 -->
<g id="node13" class="node">
<title>Node13</title>
<g id="a_node13"><a xlink:href="class_physics_1_1_physics_cache_pool.html#ac27eaf9b9f722b0953bfd38621cab2fc" target="_top" xlink:title=" ">
<polygon fill="white" stroke="black" points="563.5,-352.5 563.5,-382.5 704.5,-382.5 704.5,-352.5 563.5,-352.5"/>
<text text-anchor="start" x="571.5" y="-370.5" font-family="Helvetica,sans-Serif" font-size="10.00">Physics.PhysicsCachePool.</text>
<text text-anchor="middle" x="634" y="-359.5" font-family="Helvetica,sans-Serif" font-size="10.00">RecycleCollisionPair</text>
</a>
</g>
</g>
<!-- Node12&#45;&gt;Node13 -->
<g id="edge12" class="edge">
<title>Node12&#45;&gt;Node13</title>
<path fill="none" stroke="midnightblue" d="M510.18,-367.5C524.17,-367.5 538.94,-367.5 553.2,-367.5"/>
<polygon fill="midnightblue" stroke="midnightblue" points="553.48,-371 563.48,-367.5 553.48,-364 553.48,-371"/>
</g>
<!-- Node14 -->
<g id="node14" class="node">
<title>Node14</title>
<g id="a_node14"><a xlink:href="class_physics_1_1_physics_world.html#ac2f42a51005358723ff89d9021d64d59" target="_top" xlink:title=" ">
<polygon fill="white" stroke="black" points="560,-438.5 560,-468.5 708,-468.5 708,-438.5 560,-438.5"/>
<text text-anchor="start" x="568" y="-456.5" font-family="Helvetica,sans-Serif" font-size="10.00">Physics.PhysicsWorld.Sweep</text>
<text text-anchor="middle" x="634" y="-445.5" font-family="Helvetica,sans-Serif" font-size="10.00">AndPrune</text>
</a>
</g>
</g>
<!-- Node12&#45;&gt;Node14 -->
<g id="edge13" class="edge">
<title>Node12&#45;&gt;Node14</title>
<path fill="none" stroke="midnightblue" d="M489.32,-382.56C497.32,-385.32 505.45,-388.34 513,-391.5 542.41,-403.8 574.43,-420.53 597.99,-433.5"/>
<polygon fill="midnightblue" stroke="midnightblue" points="596.45,-436.66 606.9,-438.45 599.85,-430.54 596.45,-436.66"/>
</g>
<!-- Node15 -->
<g id="node15" class="node">
<title>Node15</title>
<g id="a_node15"><a xlink:href="class_physics_1_1_physics_cache_pool.html#ae7c2a83abab9d077936c94c800197f4a" target="_top" xlink:title=" ">
<polygon fill="white" stroke="black" points="760.5,-470.5 760.5,-500.5 901.5,-500.5 901.5,-470.5 760.5,-470.5"/>
<text text-anchor="start" x="768.5" y="-488.5" font-family="Helvetica,sans-Serif" font-size="10.00">Physics.PhysicsCachePool.</text>
<text text-anchor="middle" x="831" y="-477.5" font-family="Helvetica,sans-Serif" font-size="10.00">GetCollisionPairFromPool</text>
</a>
</g>
</g>
<!-- Node14&#45;&gt;Node15 -->
<g id="edge14" class="edge">
<title>Node14&#45;&gt;Node15</title>
<path fill="none" stroke="midnightblue" d="M708.17,-465.51C721.91,-467.76 736.33,-470.13 750.26,-472.41"/>
<polygon fill="midnightblue" stroke="midnightblue" points="749.86,-475.9 760.3,-474.06 751,-468.99 749.86,-475.9"/>
</g>
<!-- Node17 -->
<g id="node17" class="node">
<title>Node17</title>
<g id="a_node17"><a xlink:href="class_physics_1_1_physics_world.html#a981b90f47065fded56b0145083aac984" target="_top" xlink:title=" ">
<polygon fill="white" stroke="black" points="565.5,-282 565.5,-301 702.5,-301 702.5,-282 565.5,-282"/>
<text text-anchor="middle" x="634" y="-289" font-family="Helvetica,sans-Serif" font-size="10.00">Physics.PhysicsWorld.EPA</text>
</a>
</g>
</g>
<!-- Node16&#45;&gt;Node17 -->
<g id="edge16" class="edge">
<title>Node16&#45;&gt;Node17</title>
<path fill="none" stroke="midnightblue" d="M513.21,-293.36C526.82,-293.15 541.09,-292.93 554.83,-292.71"/>
<polygon fill="midnightblue" stroke="midnightblue" points="555.28,-296.21 565.22,-292.55 555.17,-289.21 555.28,-296.21"/>
</g>
<!-- Node34 -->
<g id="node34" class="node">
<title>Node34</title>
<g id="a_node34"><a xlink:href="class_physics_1_1_physics_world.html#abbda8b52c5f3c0cf86ac64fbc64fd69e" target="_top" xlink:title=" ">
<polygon fill="white" stroke="black" points="565.5,-119 565.5,-138 702.5,-138 702.5,-119 565.5,-119"/>
<text text-anchor="middle" x="634" y="-126" font-family="Helvetica,sans-Serif" font-size="10.00">Physics.PhysicsWorld.GJK</text>
</a>
</g>
</g>
<!-- Node16&#45;&gt;Node34 -->
<g id="edge37" class="edge">
<title>Node16&#45;&gt;Node34</title>
<path fill="none" stroke="midnightblue" d="M494.86,-279.35C501.22,-276.55 507.43,-273.29 513,-269.5 562.42,-235.92 603.34,-176.77 622.05,-146.88"/>
<polygon fill="midnightblue" stroke="midnightblue" points="625.08,-148.63 627.32,-138.28 619.11,-144.97 625.08,-148.63"/>
</g>
<!-- Node18 -->
<g id="node18" class="node">
<title>Node18</title>
<g id="a_node18"><a xlink:href="class_physics_1_1_collision_1_1_model_1_1_simplex_edge.html#a816ccd6c203d0952fdcf318cbf628be2" target="_top" xlink:title=" ">
<polygon fill="white" stroke="black" points="755,-372.5 755,-402.5 907,-402.5 907,-372.5 755,-372.5"/>
<text text-anchor="start" x="763" y="-390.5" font-family="Helvetica,sans-Serif" font-size="10.00">Physics.Collision.Model.</text>
<text text-anchor="middle" x="831" y="-379.5" font-family="Helvetica,sans-Serif" font-size="10.00">SimplexEdge.FindClosestEdge</text>
</a>
</g>
</g>
<!-- Node17&#45;&gt;Node18 -->
<g id="edge17" class="edge">
<title>Node17&#45;&gt;Node18</title>
<path fill="none" stroke="midnightblue" d="M650.83,-301.12C680.91,-319.37 744.32,-357.63 755,-362.5 759.92,-364.74 765.1,-366.89 770.34,-368.91"/>
<polygon fill="midnightblue" stroke="midnightblue" points="769.21,-372.23 779.8,-372.42 771.64,-365.66 769.21,-372.23"/>
</g>
<!-- Node19 -->
<g id="node19" class="node">
<title>Node19</title>
<g id="a_node19"><a xlink:href="class_physics_1_1_physics_world.html#a5ea0895316da17449ff1352e2610ba59" target="_top" xlink:title=" ">
<polygon fill="white" stroke="black" points="762.5,-137.5 762.5,-167.5 899.5,-167.5 899.5,-137.5 762.5,-137.5"/>
<text text-anchor="start" x="770.5" y="-155.5" font-family="Helvetica,sans-Serif" font-size="10.00">Physics.PhysicsWorld.Find</text>
<text text-anchor="middle" x="831" y="-144.5" font-family="Helvetica,sans-Serif" font-size="10.00">NextDirection</text>
</a>
</g>
</g>
<!-- Node17&#45;&gt;Node19 -->
<g id="edge18" class="edge">
<title>Node17&#45;&gt;Node19</title>
<path fill="none" stroke="midnightblue" d="M642.64,-281.77C660.2,-260.02 705.73,-207.09 755,-177.5 758.57,-175.35 762.36,-173.37 766.25,-171.53"/>
<polygon fill="midnightblue" stroke="midnightblue" points="767.7,-174.71 775.47,-167.51 764.91,-168.29 767.7,-174.71"/>
</g>
<!-- Node21 -->
<g id="node21" class="node">
<title>Node21</title>
<g id="a_node21"><a xlink:href="class_physics_1_1_physics_cache_pool.html#a9f45043e890ef8e5d8c382ccaa4cc710" target="_top" xlink:title=" ">
<polygon fill="white" stroke="black" points="760.5,-323.5 760.5,-353.5 901.5,-353.5 901.5,-323.5 760.5,-323.5"/>
<text text-anchor="start" x="768.5" y="-341.5" font-family="Helvetica,sans-Serif" font-size="10.00">Physics.PhysicsCachePool.</text>
<text text-anchor="middle" x="831" y="-330.5" font-family="Helvetica,sans-Serif" font-size="10.00">GetSimplexEdgeFromPool</text>
</a>
</g>
</g>
<!-- Node17&#45;&gt;Node21 -->
<g id="edge20" class="edge">
<title>Node17&#45;&gt;Node21</title>
<path fill="none" stroke="midnightblue" d="M674.46,-301.01C698.35,-306.77 729.56,-314.29 757.74,-321.08"/>
<polygon fill="midnightblue" stroke="midnightblue" points="757.02,-324.51 767.56,-323.45 758.66,-317.71 757.02,-324.51"/>
</g>
<!-- Node22 -->
<g id="node22" class="node">
<title>Node22</title>
<g id="a_node22"><a xlink:href="class_physics_1_1_collision_1_1_model_1_1_simplex_edge.html#ac435eb94635850bd1dbf75897fee68b7" target="_top" xlink:title=" ">
<polygon fill="white" stroke="black" points="768.5,-421.5 768.5,-451.5 893.5,-451.5 893.5,-421.5 768.5,-421.5"/>
<text text-anchor="start" x="776.5" y="-439.5" font-family="Helvetica,sans-Serif" font-size="10.00">Physics.Collision.Model.</text>
<text text-anchor="middle" x="831" y="-428.5" font-family="Helvetica,sans-Serif" font-size="10.00">SimplexEdge.InitEdges</text>
</a>
</g>
</g>
<!-- Node17&#45;&gt;Node22 -->
<g id="edge21" class="edge">
<title>Node17&#45;&gt;Node22</title>
<path fill="none" stroke="midnightblue" d="M657.65,-301.06C676.01,-309.72 701.62,-323.95 719,-342.5 742.65,-367.74 728.67,-389.06 755,-411.5 756.97,-413.17 759.05,-414.74 761.22,-416.2"/>
<polygon fill="midnightblue" stroke="midnightblue" points="759.57,-419.29 769.97,-421.33 763.11,-413.25 759.57,-419.29"/>
</g>
<!-- Node27 -->
<g id="node27" class="node">
<title>Node27</title>
<g id="a_node27"><a xlink:href="class_physics_1_1_collision_1_1_model_1_1_simplex_edge.html#ae349a32da5778aa885c6f5b1e7153350" target="_top" xlink:title=" ">
<polygon fill="white" stroke="black" points="757.5,-274.5 757.5,-304.5 904.5,-304.5 904.5,-274.5 757.5,-274.5"/>
<text text-anchor="start" x="765.5" y="-292.5" font-family="Helvetica,sans-Serif" font-size="10.00">Physics.Collision.Model.</text>
<text text-anchor="middle" x="831" y="-281.5" font-family="Helvetica,sans-Serif" font-size="10.00">SimplexEdge.InsertEdgePoint</text>
</a>
</g>
</g>
<!-- Node17&#45;&gt;Node27 -->
<g id="edge26" class="edge">
<title>Node17&#45;&gt;Node27</title>
<path fill="none" stroke="midnightblue" d="M702.65,-290.81C717.04,-290.66 732.39,-290.5 747.27,-290.35"/>
<polygon fill="midnightblue" stroke="midnightblue" points="747.52,-293.85 757.48,-290.24 747.45,-286.85 747.52,-293.85"/>
</g>
<!-- Node30 -->
<g id="node30" class="node">
<title>Node30</title>
<g id="a_node30"><a xlink:href="class_physics_1_1_physics_cache_pool.html#ad31fe94e7d5fc45379a922481b6f6739" target="_top" xlink:title=" ">
<polygon fill="white" stroke="black" points="760.5,-225.5 760.5,-255.5 901.5,-255.5 901.5,-225.5 760.5,-225.5"/>
<text text-anchor="start" x="768.5" y="-243.5" font-family="Helvetica,sans-Serif" font-size="10.00">Physics.PhysicsCachePool.</text>
<text text-anchor="middle" x="831" y="-232.5" font-family="Helvetica,sans-Serif" font-size="10.00">RecycleSimplexEdge</text>
</a>
</g>
</g>
<!-- Node17&#45;&gt;Node30 -->
<g id="edge32" class="edge">
<title>Node17&#45;&gt;Node30</title>
<path fill="none" stroke="midnightblue" d="M671.68,-281.91C697.26,-275.22 732.15,-266.09 762.67,-258.11"/>
<polygon fill="midnightblue" stroke="midnightblue" points="763.61,-261.48 772.4,-255.56 761.84,-254.71 763.61,-261.48"/>
</g>
<!-- Node32 -->
<g id="node32" class="node">
<title>Node32</title>
<g id="a_node32"><a xlink:href="class_physics_1_1_physics_world.html#af1aadffc2ad0f1b13391fe5eb1f4e703" target="_top" xlink:title=" ">
<polygon fill="white" stroke="black" points="755,-187 755,-206 907,-206 907,-187 755,-187"/>
<text text-anchor="middle" x="831" y="-194" font-family="Helvetica,sans-Serif" font-size="10.00">Physics.PhysicsWorld.Support</text>
</a>
</g>
</g>
<!-- Node17&#45;&gt;Node32 -->
<g id="edge35" class="edge">
<title>Node17&#45;&gt;Node32</title>
<path fill="none" stroke="midnightblue" d="M647.22,-281.89C668.14,-265.88 712.64,-233.73 755,-215.5 760.75,-213.03 766.89,-210.82 773.09,-208.88"/>
<polygon fill="midnightblue" stroke="midnightblue" points="774.22,-212.19 782.83,-206.02 772.25,-205.47 774.22,-212.19"/>
</g>
<!-- Node20 -->
<g id="node20" class="node">
<title>Node20</title>
<g id="a_node20"><a xlink:href="class_physics_1_1_physics_tool.html#a76623f29e2f14991ed006a429914f55a" target="_top" xlink:title=" ">
<polygon fill="white" stroke="black" points="943,-88.5 943,-118.5 1104,-118.5 1104,-88.5 943,-88.5"/>
<text text-anchor="start" x="951" y="-106.5" font-family="Helvetica,sans-Serif" font-size="10.00">Physics.PhysicsTool.GetClosest</text>
<text text-anchor="middle" x="1023.5" y="-95.5" font-family="Helvetica,sans-Serif" font-size="10.00">PointToOrigin</text>
</a>
</g>
</g>
<!-- Node19&#45;&gt;Node20 -->
<g id="edge19" class="edge">
<title>Node19&#45;&gt;Node20</title>
<path fill="none" stroke="midnightblue" d="M890.45,-137.47C910.66,-132.27 933.47,-126.4 954.39,-121.02"/>
<polygon fill="midnightblue" stroke="midnightblue" points="955.35,-124.39 964.16,-118.51 953.6,-117.61 955.35,-124.39"/>
</g>
<!-- Node23 -->
<g id="node23" class="node">
<title>Node23</title>
<g id="a_node23"><a xlink:href="class_physics_1_1_collision_1_1_model_1_1_simplex_edge.html#aa9b0228aaaf6885ee72668b11e1b22da" target="_top" xlink:title=" ">
<polygon fill="white" stroke="black" points="952,-420.5 952,-450.5 1095,-450.5 1095,-420.5 952,-420.5"/>
<text text-anchor="start" x="960" y="-438.5" font-family="Helvetica,sans-Serif" font-size="10.00">Physics.Collision.Model.</text>
<text text-anchor="middle" x="1023.5" y="-427.5" font-family="Helvetica,sans-Serif" font-size="10.00">SimplexEdge.CreateInitEdge</text>
</a>
</g>
</g>
<!-- Node22&#45;&gt;Node23 -->
<g id="edge22" class="edge">
<title>Node22&#45;&gt;Node23</title>
<path fill="none" stroke="midnightblue" d="M893.59,-436.18C908.84,-436.1 925.4,-436.01 941.43,-435.93"/>
<polygon fill="midnightblue" stroke="midnightblue" points="941.88,-439.42 951.86,-435.87 941.84,-432.42 941.88,-439.42"/>
</g>
<!-- Node26 -->
<g id="node26" class="node">
<title>Node26</title>
<g id="a_node26"><a xlink:href="class_physics_1_1_collision_1_1_model_1_1_simplex_edge.html#a536f768434ce96fc78fe67adf4e0c9ed" target="_top" xlink:title=" ">
<polygon fill="white" stroke="black" points="946,-371.5 946,-401.5 1101,-401.5 1101,-371.5 946,-371.5"/>
<text text-anchor="start" x="954" y="-389.5" font-family="Helvetica,sans-Serif" font-size="10.00">Physics.Collision.Model.</text>
<text text-anchor="middle" x="1023.5" y="-378.5" font-family="Helvetica,sans-Serif" font-size="10.00">SimplexEdge.UpdateEdgeIndex</text>
</a>
</g>
</g>
<!-- Node22&#45;&gt;Node26 -->
<g id="edge25" class="edge">
<title>Node22&#45;&gt;Node26</title>
<path fill="none" stroke="midnightblue" d="M889.16,-421.5C909.97,-416.04 933.69,-409.81 955.29,-404.14"/>
<polygon fill="midnightblue" stroke="midnightblue" points="956.27,-407.5 965.06,-401.58 954.49,-400.73 956.27,-407.5"/>
</g>
<!-- Node24 -->
<g id="node24" class="node">
<title>Node24</title>
<g id="a_node24"><a xlink:href="class_physics_1_1_physics_cache_pool.html#a68b6244567d48376ad3a2e5188e73241" target="_top" xlink:title=" ">
<polygon fill="white" stroke="black" points="1162.5,-406.5 1162.5,-436.5 1303.5,-436.5 1303.5,-406.5 1162.5,-406.5"/>
<text text-anchor="start" x="1170.5" y="-424.5" font-family="Helvetica,sans-Serif" font-size="10.00">Physics.PhysicsCachePool.</text>
<text text-anchor="middle" x="1233" y="-413.5" font-family="Helvetica,sans-Serif" font-size="10.00">GetEdgeFromPool</text>
</a>
</g>
</g>
<!-- Node23&#45;&gt;Node24 -->
<g id="edge23" class="edge">
<title>Node23&#45;&gt;Node24</title>
<path fill="none" stroke="midnightblue" d="M1095.04,-430.74C1113.46,-429.5 1133.45,-428.15 1152.31,-426.88"/>
<polygon fill="midnightblue" stroke="midnightblue" points="1152.62,-430.36 1162.36,-426.2 1152.15,-423.38 1152.62,-430.36"/>
</g>
<!-- Node25 -->
<g id="node25" class="node">
<title>Node25</title>
<g id="a_node25"><a xlink:href="class_physics_1_1_physics_tool.html#a2b923d3cf606c6980a6b26c5b7bfc80f" target="_top" xlink:title=" ">
<polygon fill="white" stroke="black" points="1140,-333.5 1140,-363.5 1326,-363.5 1326,-333.5 1140,-333.5"/>
<text text-anchor="start" x="1148" y="-351.5" font-family="Helvetica,sans-Serif" font-size="10.00">Physics.PhysicsTool.GetPerpendicular</text>
<text text-anchor="middle" x="1233" y="-340.5" font-family="Helvetica,sans-Serif" font-size="10.00">ToOrigin</text>
</a>
</g>
</g>
<!-- Node23&#45;&gt;Node25 -->
<g id="edge24" class="edge">
<title>Node23&#45;&gt;Node25</title>
<path fill="none" stroke="midnightblue" d="M1076.21,-420.45C1085.54,-417.39 1095.12,-414.02 1104,-410.5 1135.34,-398.06 1169.66,-381.25 1194.87,-368.27"/>
<polygon fill="midnightblue" stroke="midnightblue" points="1196.8,-371.22 1204.06,-363.5 1193.58,-365 1196.8,-371.22"/>
</g>
<!-- Node27&#45;&gt;Node26 -->
<g id="edge31" class="edge">
<title>Node27&#45;&gt;Node26</title>
<path fill="none" stroke="midnightblue" d="M891.42,-304.62C896.91,-307.15 902.21,-310.09 907,-313.5 928.73,-328.96 921.23,-346.09 943,-361.5 945.72,-363.42 948.59,-365.2 951.56,-366.85"/>
<polygon fill="midnightblue" stroke="midnightblue" points="950.23,-370.09 960.74,-371.39 953.34,-363.82 950.23,-370.09"/>
</g>
<!-- Node28 -->
<g id="node28" class="node">
<title>Node28</title>
<g id="a_node28"><a xlink:href="class_physics_1_1_collision_1_1_model_1_1_simplex_edge.html#a46b8494a6a6088235c2b1bb272cdb8ba" target="_top" xlink:title=" ">
<polygon fill="white" stroke="black" points="959,-322.5 959,-352.5 1088,-352.5 1088,-322.5 959,-322.5"/>
<text text-anchor="start" x="967" y="-340.5" font-family="Helvetica,sans-Serif" font-size="10.00">Physics.Collision.Model.</text>
<text text-anchor="middle" x="1023.5" y="-329.5" font-family="Helvetica,sans-Serif" font-size="10.00">SimplexEdge.CreateEdge</text>
</a>
</g>
</g>
<!-- Node27&#45;&gt;Node28 -->
<g id="edge27" class="edge">
<title>Node27&#45;&gt;Node28</title>
<path fill="none" stroke="midnightblue" d="M891.75,-304.56C911.26,-309.47 933.08,-314.97 953.22,-320.04"/>
<polygon fill="midnightblue" stroke="midnightblue" points="952.41,-323.45 962.96,-322.5 954.12,-316.66 952.41,-323.45"/>
</g>
<!-- Node29 -->
<g id="node29" class="node">
<title>Node29</title>
<g id="a_node29"><a xlink:href="class_physics_1_1_physics_cache_pool.html#a912bb4bf46c20c664294e5387a7b7d6f" target="_top" xlink:title=" ">
<polygon fill="white" stroke="black" points="1162.5,-262.5 1162.5,-292.5 1303.5,-292.5 1303.5,-262.5 1162.5,-262.5"/>
<text text-anchor="start" x="1170.5" y="-280.5" font-family="Helvetica,sans-Serif" font-size="10.00">Physics.PhysicsCachePool.</text>
<text text-anchor="middle" x="1233" y="-269.5" font-family="Helvetica,sans-Serif" font-size="10.00">RecycleEdge</text>
</a>
</g>
</g>
<!-- Node27&#45;&gt;Node29 -->
<g id="edge30" class="edge">
<title>Node27&#45;&gt;Node29</title>
<path fill="none" stroke="midnightblue" d="M904.9,-287.31C974.7,-285.22 1079.77,-282.07 1151.89,-279.9"/>
<polygon fill="midnightblue" stroke="midnightblue" points="1152.39,-283.39 1162.28,-279.59 1152.18,-276.39 1152.39,-283.39"/>
</g>
<!-- Node28&#45;&gt;Node24 -->
<g id="edge28" class="edge">
<title>Node28&#45;&gt;Node24</title>
<path fill="none" stroke="midnightblue" d="M1078.31,-352.59C1086.97,-355.35 1095.79,-358.35 1104,-361.5 1134.89,-373.33 1168.73,-389.34 1193.86,-401.84"/>
<polygon fill="midnightblue" stroke="midnightblue" points="1192.53,-405.09 1203.04,-406.44 1195.67,-398.83 1192.53,-405.09"/>
</g>
<!-- Node28&#45;&gt;Node25 -->
<g id="edge29" class="edge">
<title>Node28&#45;&gt;Node25</title>
<path fill="none" stroke="midnightblue" d="M1088.17,-340.88C1101.3,-341.57 1115.45,-342.32 1129.56,-343.07"/>
<polygon fill="midnightblue" stroke="midnightblue" points="1129.64,-346.58 1139.82,-343.61 1130.02,-339.59 1129.64,-346.58"/>
</g>
<!-- Node31 -->
<g id="node31" class="node">
<title>Node31</title>
<g id="a_node31"><a xlink:href="class_physics_1_1_collision_1_1_model_1_1_simplex_edge.html#a422d4d80fc2c4205af1f96abcec05a67" target="_top" xlink:title=" ">
<polygon fill="white" stroke="black" points="961,-230.5 961,-260.5 1086,-260.5 1086,-230.5 961,-230.5"/>
<text text-anchor="start" x="969" y="-248.5" font-family="Helvetica,sans-Serif" font-size="10.00">Physics.Collision.Model.</text>
<text text-anchor="middle" x="1023.5" y="-237.5" font-family="Helvetica,sans-Serif" font-size="10.00">SimplexEdge.Clear</text>
</a>
</g>
</g>
<!-- Node30&#45;&gt;Node31 -->
<g id="edge33" class="edge">
<title>Node30&#45;&gt;Node31</title>
<path fill="none" stroke="midnightblue" d="M901.58,-242.33C917.54,-242.75 934.53,-243.19 950.58,-243.61"/>
<polygon fill="midnightblue" stroke="midnightblue" points="950.89,-247.12 960.98,-243.89 951.07,-240.12 950.89,-247.12"/>
</g>
<!-- Node31&#45;&gt;Node29 -->
<g id="edge34" class="edge">
<title>Node31&#45;&gt;Node29</title>
<path fill="none" stroke="midnightblue" d="M1086.2,-255.01C1106.91,-258.21 1130.33,-261.82 1152.23,-265.2"/>
<polygon fill="midnightblue" stroke="midnightblue" points="1151.76,-268.67 1162.17,-266.73 1152.83,-261.75 1151.76,-268.67"/>
</g>
<!-- Node33 -->
<g id="node33" class="node">
<title>Node33</title>
<g id="a_node33"><a xlink:href="class_physics_1_1_collision_1_1_collision_object.html#a28cc343d91add7b15402133b83d76b27" target="_top" xlink:title=" ">
<polygon fill="white" stroke="black" points="952,-181.5 952,-211.5 1095,-211.5 1095,-181.5 952,-181.5"/>
<text text-anchor="start" x="960" y="-199.5" font-family="Helvetica,sans-Serif" font-size="10.00">Physics.Collision.Collision</text>
<text text-anchor="middle" x="1023.5" y="-188.5" font-family="Helvetica,sans-Serif" font-size="10.00">Object.GetFarthestPointInDir</text>
</a>
</g>
</g>
<!-- Node32&#45;&gt;Node33 -->
<g id="edge36" class="edge">
<title>Node32&#45;&gt;Node33</title>
<path fill="none" stroke="midnightblue" d="M907.02,-196.5C918.45,-196.5 930.3,-196.5 941.85,-196.5"/>
<polygon fill="midnightblue" stroke="midnightblue" points="941.9,-200 951.9,-196.5 941.9,-193 941.9,-200"/>
</g>
<!-- Node34&#45;&gt;Node19 -->
<g id="edge39" class="edge">
<title>Node34&#45;&gt;Node19</title>
<path fill="none" stroke="midnightblue" d="M702.65,-136.83C718.69,-138.8 735.91,-140.92 752.35,-142.94"/>
<polygon fill="midnightblue" stroke="midnightblue" points="752.11,-146.44 762.47,-144.19 752.97,-139.49 752.11,-146.44"/>
</g>
<!-- Node34&#45;&gt;Node20 -->
<g id="edge40" class="edge">
<title>Node34&#45;&gt;Node20</title>
<path fill="none" stroke="midnightblue" d="M651.81,-118.98C674.42,-106.77 716.27,-86.25 755,-78.5 822.06,-65.09 900.06,-75.24 954.46,-86.36"/>
<polygon fill="midnightblue" stroke="midnightblue" points="953.83,-89.81 964.34,-88.45 955.27,-82.96 953.83,-89.81"/>
</g>
<!-- Node34&#45;&gt;Node32 -->
<g id="edge42" class="edge">
<title>Node34&#45;&gt;Node32</title>
<path fill="none" stroke="midnightblue" d="M656.82,-138.15C680.65,-148.47 720.08,-164.91 755,-176.5 763.36,-179.28 772.35,-181.94 781.09,-184.37"/>
<polygon fill="midnightblue" stroke="midnightblue" points="780.24,-187.76 790.81,-187 782.07,-181.01 780.24,-187.76"/>
</g>
<!-- Node35 -->
<g id="node35" class="node">
<title>Node35</title>
<g id="a_node35"><a xlink:href="class_physics_1_1_physics_world.html#adf7766abbfb94bb041d38b3d7209dcba" target="_top" xlink:title=" ">
<polygon fill="white" stroke="black" points="762.5,-0.5 762.5,-30.5 899.5,-30.5 899.5,-0.5 762.5,-0.5"/>
<text text-anchor="start" x="770.5" y="-18.5" font-family="Helvetica,sans-Serif" font-size="10.00">Physics.PhysicsWorld.Find</text>
<text text-anchor="middle" x="831" y="-7.5" font-family="Helvetica,sans-Serif" font-size="10.00">FirstDirection</text>
</a>
</g>
</g>
<!-- Node34&#45;&gt;Node35 -->
<g id="edge38" class="edge">
<title>Node34&#45;&gt;Node35</title>
<path fill="none" stroke="midnightblue" d="M647.02,-118.81C667.99,-102.23 713.04,-68.03 755,-45.5 762.37,-41.54 770.38,-37.8 778.33,-34.39"/>
<polygon fill="midnightblue" stroke="midnightblue" points="779.7,-37.61 787.59,-30.54 777.01,-31.14 779.7,-37.61"/>
</g>
<!-- Node36 -->
<g id="node36" class="node">
<title>Node36</title>
<g id="a_node36"><a xlink:href="class_physics_1_1_physics_tool.html#a87ade42d134664139753a2fe7da7e7a9" target="_top" xlink:title="检查点是否在三角形内">
<polygon fill="white" stroke="black" points="760,-88.5 760,-118.5 902,-118.5 902,-88.5 760,-88.5"/>
<text text-anchor="start" x="768" y="-106.5" font-family="Helvetica,sans-Serif" font-size="10.00">Physics.PhysicsTool.IsPoint</text>
<text text-anchor="middle" x="831" y="-95.5" font-family="Helvetica,sans-Serif" font-size="10.00">InTriangle</text>
</a>
</g>
</g>
<!-- Node34&#45;&gt;Node36 -->
<g id="edge41" class="edge">
<title>Node34&#45;&gt;Node36</title>
<path fill="none" stroke="midnightblue" d="M702.65,-119.83C717.81,-117.88 734.04,-115.8 749.66,-113.8"/>
<polygon fill="midnightblue" stroke="midnightblue" points="750.34,-117.24 759.82,-112.5 749.45,-110.3 750.34,-117.24"/>
</g>
<!-- Node38 -->
<g id="node38" class="node">
<title>Node38</title>
<g id="a_node38"><a xlink:href="class_physics_1_1_collision_1_1_collision_object.html#a59b7fc26e50ecaed3ae0e73260c17056" target="_top" xlink:title=" ">
<polygon fill="white" stroke="black" points="370,-230.5 370,-260.5 507,-260.5 507,-230.5 370,-230.5"/>
<text text-anchor="start" x="378" y="-248.5" font-family="Helvetica,sans-Serif" font-size="10.00">Physics.Collision.Collision</text>
<text text-anchor="middle" x="438.5" y="-237.5" font-family="Helvetica,sans-Serif" font-size="10.00">Object.AddResolveVelocity</text>
</a>
</g>
</g>
<!-- Node37&#45;&gt;Node38 -->
<g id="edge44" class="edge">
<title>Node37&#45;&gt;Node38</title>
<path fill="none" stroke="midnightblue" d="M286.49,-286.91C310.78,-280.24 343.88,-271.17 372.9,-263.21"/>
<polygon fill="midnightblue" stroke="midnightblue" points="373.84,-266.58 382.56,-260.56 371.99,-259.83 373.84,-266.58"/>
</g>
</g>
</svg>
