<?xml version="1.0" encoding="UTF-8" standalone="no"?>
<!DOCTYPE svg PUBLIC "-//W3C//DTD SVG 1.1//EN"
 "http://www.w3.org/Graphics/SVG/1.1/DTD/svg11.dtd">
<!-- Generated by graphviz version 2.50.0 (20211204.2007)
 -->
<!-- Title: Physics.CollisionObjectProxy Pages: 1 -->
<svg width="501pt" height="1024pt"
 viewBox="0.00 0.00 501.00 1024.00" xmlns="http://www.w3.org/2000/svg" xmlns:xlink="http://www.w3.org/1999/xlink">
<g id="graph0" class="graph" transform="scale(1 1) rotate(0) translate(4 1020)">
<title>Physics.CollisionObjectProxy</title>
<polygon fill="white" stroke="transparent" points="-4,4 -4,-1020 497,-1020 497,4 -4,4"/>
<!-- Node1 -->
<g id="node1" class="node">
<title>Node1</title>
<g id="a_node1"><a xlink:title=" ">
<polygon fill="#bfbfbf" stroke="black" points="120,-0.5 120,-90.5 266,-90.5 266,-0.5 120,-0.5"/>
<text text-anchor="middle" x="193" y="-78.5" font-family="Helvetica,sans-Serif" font-size="10.00">Physics.CollisionObjectProxy</text>
<polyline fill="none" stroke="black" points="120,-71.5 266,-71.5 "/>
<text text-anchor="start" x="128" y="-59.5" font-family="Helvetica,sans-Serif" font-size="10.00">+ ShapeType shape</text>
<text text-anchor="start" x="128" y="-48.5" font-family="Helvetica,sans-Serif" font-size="10.00">+ bool isInControl</text>
<text text-anchor="start" x="128" y="-37.5" font-family="Helvetica,sans-Serif" font-size="10.00">+ int nP</text>
<text text-anchor="start" x="128" y="-26.5" font-family="Helvetica,sans-Serif" font-size="10.00">+ float velocity</text>
<polyline fill="none" stroke="black" points="120,-19.5 266,-19.5 "/>
<text text-anchor="start" x="128" y="-7.5" font-family="Helvetica,sans-Serif" font-size="10.00">&#45; void Update()</text>
</a>
</g>
</g>
<!-- Node2 -->
<g id="node2" class="node">
<title>Node2</title>
<g id="a_node2"><a xlink:title=" ">
<polygon fill="white" stroke="black" points="135,-397 135,-454 219,-454 219,-397 135,-397"/>
<text text-anchor="middle" x="177" y="-442" font-family="Helvetica,sans-Serif" font-size="10.00">MonoBehaviour</text>
<polyline fill="none" stroke="black" points="135,-435 219,-435 "/>
<text text-anchor="middle" x="177" y="-423" font-family="Helvetica,sans-Serif" font-size="10.00"> </text>
<polyline fill="none" stroke="black" points="135,-416 219,-416 "/>
<text text-anchor="middle" x="177" y="-404" font-family="Helvetica,sans-Serif" font-size="10.00"> </text>
</a>
</g>
</g>
<!-- Node2&#45;&gt;Node1 -->
<g id="edge1" class="edge">
<title>Node2&#45;&gt;Node1</title>
<path fill="none" stroke="midnightblue" d="M178.61,-386.51C181.59,-316.1 187.95,-165.69 191.13,-90.79"/>
<polygon fill="none" stroke="midnightblue" points="175.1,-386.57 178.18,-396.7 182.1,-386.86 175.1,-386.57"/>
</g>
<!-- Node3 -->
<g id="node3" class="node">
<title>Node3</title>
<g id="a_node3"><a xlink:href="class_physics_1_1_collision_1_1_collision_object.html" target="_top" xlink:title=" ">
<polygon fill="white" stroke="black" points="237.5,-138.5 237.5,-712.5 414.5,-712.5 414.5,-138.5 237.5,-138.5"/>
<text text-anchor="start" x="245.5" y="-700.5" font-family="Helvetica,sans-Serif" font-size="10.00">Physics.Collision.Collision</text>
<text text-anchor="middle" x="326" y="-689.5" font-family="Helvetica,sans-Serif" font-size="10.00">Object</text>
<polyline fill="none" stroke="black" points="237.5,-682.5 414.5,-682.5 "/>
<text text-anchor="start" x="245.5" y="-670.5" font-family="Helvetica,sans-Serif" font-size="10.00">+ int id</text>
<text text-anchor="start" x="245.5" y="-659.5" font-family="Helvetica,sans-Serif" font-size="10.00">+ Vector3 position</text>
<text text-anchor="start" x="245.5" y="-648.5" font-family="Helvetica,sans-Serif" font-size="10.00">+ Vector3 nextPosition</text>
<text text-anchor="start" x="245.5" y="-637.5" font-family="Helvetica,sans-Serif" font-size="10.00">+ Vector3 rotation</text>
<text text-anchor="start" x="245.5" y="-626.5" font-family="Helvetica,sans-Serif" font-size="10.00">+ float scale</text>
<text text-anchor="start" x="245.5" y="-615.5" font-family="Helvetica,sans-Serif" font-size="10.00">+ int level</text>
<text text-anchor="start" x="245.5" y="-604.5" font-family="Helvetica,sans-Serif" font-size="10.00">+ Vector3 acceleration</text>
<text text-anchor="start" x="245.5" y="-593.5" font-family="Helvetica,sans-Serif" font-size="10.00">+ Vector3 velocity</text>
<text text-anchor="start" x="245.5" y="-582.5" font-family="Helvetica,sans-Serif" font-size="10.00">+ Vector3 resolveVelocity</text>
<text text-anchor="start" x="245.5" y="-571.5" font-family="Helvetica,sans-Serif" font-size="10.00">&#45; static int publicId</text>
<polyline fill="none" stroke="black" points="237.5,-564.5 414.5,-564.5 "/>
<text text-anchor="start" x="245.5" y="-552.5" font-family="Helvetica,sans-Serif" font-size="10.00">+ CollisionObject(Collision</text>
<text text-anchor="start" x="245.5" y="-541.5" font-family="Helvetica,sans-Serif" font-size="10.00">Shape shape, Object contextObject,</text>
<text text-anchor="start" x="245.5" y="-530.5" font-family="Helvetica,sans-Serif" font-size="10.00"> Vector3 startPos, float startRotation</text>
<text text-anchor="start" x="245.5" y="-519.5" font-family="Helvetica,sans-Serif" font-size="10.00">=0, int level=0)</text>
<text text-anchor="start" x="245.5" y="-508.5" font-family="Helvetica,sans-Serif" font-size="10.00">+ void ApplyPosition()</text>
<text text-anchor="start" x="245.5" y="-497.5" font-family="Helvetica,sans-Serif" font-size="10.00">+ void ApplyRotation</text>
<text text-anchor="start" x="245.5" y="-486.5" font-family="Helvetica,sans-Serif" font-size="10.00">(Vector3 newRotation)</text>
<text text-anchor="start" x="245.5" y="-475.5" font-family="Helvetica,sans-Serif" font-size="10.00">+ void ApplyScale(float</text>
<text text-anchor="start" x="245.5" y="-464.5" font-family="Helvetica,sans-Serif" font-size="10.00"> newScale)</text>
<text text-anchor="start" x="245.5" y="-453.5" font-family="Helvetica,sans-Serif" font-size="10.00">+ void InitCollisionObject()</text>
<text text-anchor="start" x="245.5" y="-442.5" font-family="Helvetica,sans-Serif" font-size="10.00">+ ProjectionPoint GetProjection</text>
<text text-anchor="start" x="245.5" y="-431.5" font-family="Helvetica,sans-Serif" font-size="10.00">Point(AABBProjectionType</text>
<text text-anchor="start" x="245.5" y="-420.5" font-family="Helvetica,sans-Serif" font-size="10.00"> projectionType)</text>
<text text-anchor="start" x="245.5" y="-409.5" font-family="Helvetica,sans-Serif" font-size="10.00">+ void Translate(Vector3</text>
<text text-anchor="start" x="245.5" y="-398.5" font-family="Helvetica,sans-Serif" font-size="10.00"> diff)</text>
<text text-anchor="start" x="245.5" y="-387.5" font-family="Helvetica,sans-Serif" font-size="10.00">+ void TranslateTo(Vector3</text>
<text text-anchor="start" x="245.5" y="-376.5" font-family="Helvetica,sans-Serif" font-size="10.00"> value)</text>
<text text-anchor="start" x="245.5" y="-365.5" font-family="Helvetica,sans-Serif" font-size="10.00">+ void Rotate(Vector3</text>
<text text-anchor="start" x="245.5" y="-354.5" font-family="Helvetica,sans-Serif" font-size="10.00"> diff)</text>
<text text-anchor="start" x="245.5" y="-343.5" font-family="Helvetica,sans-Serif" font-size="10.00">+ void RotateTo(Vector3</text>
<text text-anchor="start" x="245.5" y="-332.5" font-family="Helvetica,sans-Serif" font-size="10.00"> value)</text>
<text text-anchor="start" x="245.5" y="-321.5" font-family="Helvetica,sans-Serif" font-size="10.00">+ void Scale(float diff)</text>
<text text-anchor="start" x="245.5" y="-310.5" font-family="Helvetica,sans-Serif" font-size="10.00">+ void ScaleTo(float</text>
<text text-anchor="start" x="245.5" y="-299.5" font-family="Helvetica,sans-Serif" font-size="10.00"> value)</text>
<text text-anchor="start" x="245.5" y="-288.5" font-family="Helvetica,sans-Serif" font-size="10.00">+ void AddVelocity(Vector3</text>
<text text-anchor="start" x="245.5" y="-277.5" font-family="Helvetica,sans-Serif" font-size="10.00"> diff)</text>
<text text-anchor="start" x="245.5" y="-266.5" font-family="Helvetica,sans-Serif" font-size="10.00">+ void AddAcceleration</text>
<text text-anchor="start" x="245.5" y="-255.5" font-family="Helvetica,sans-Serif" font-size="10.00">(Vector3 diff)</text>
<text text-anchor="start" x="245.5" y="-244.5" font-family="Helvetica,sans-Serif" font-size="10.00">+ void SetVelocity(Vector3</text>
<text text-anchor="start" x="245.5" y="-233.5" font-family="Helvetica,sans-Serif" font-size="10.00"> finalVelocity)</text>
<text text-anchor="start" x="245.5" y="-222.5" font-family="Helvetica,sans-Serif" font-size="10.00">+ void AddResolveVelocity</text>
<text text-anchor="start" x="245.5" y="-211.5" font-family="Helvetica,sans-Serif" font-size="10.00">(Vector3 diff)</text>
<text text-anchor="start" x="245.5" y="-200.5" font-family="Helvetica,sans-Serif" font-size="10.00">+ void CleanResolveVelocity()</text>
<text text-anchor="start" x="245.5" y="-189.5" font-family="Helvetica,sans-Serif" font-size="10.00">+ Vector3 GetFarthestPoint</text>
<text text-anchor="start" x="245.5" y="-178.5" font-family="Helvetica,sans-Serif" font-size="10.00">InDir(Vector3 dir)</text>
<text text-anchor="start" x="245.5" y="-167.5" font-family="Helvetica,sans-Serif" font-size="10.00">+ static bool IsSameCollision</text>
<text text-anchor="start" x="245.5" y="-156.5" font-family="Helvetica,sans-Serif" font-size="10.00">Object(CollisionObject obj1,</text>
<text text-anchor="start" x="245.5" y="-145.5" font-family="Helvetica,sans-Serif" font-size="10.00"> CollisionObject obj2)</text>
</a>
</g>
</g>
<!-- Node3&#45;&gt;Node1 -->
<g id="edge2" class="edge">
<title>Node3&#45;&gt;Node1</title>
<path fill="none" stroke="#404040" d="M237.47,-164.36C234.29,-155.46 231.13,-146.65 228,-138 223.79,-126.37 219.14,-113.96 214.65,-102.15"/>
<polygon fill="none" stroke="#404040" points="214.52,-101.8 208.64,-97.63 210.23,-90.59 216.11,-94.77 214.52,-101.8"/>
<text text-anchor="middle" x="238" y="-112" font-family="Helvetica,sans-Serif" font-size="10.00"> +target</text>
</g>
<!-- Node4 -->
<g id="node4" class="node">
<title>Node4</title>
<g id="a_node4"><a xlink:href="interface_physics_1_1_collision_1_1_i_collision_object.html" target="_top" xlink:title=" ">
<polygon fill="white" stroke="black" points="0,-760.5 0,-1015.5 154,-1015.5 154,-760.5 0,-760.5"/>
<text text-anchor="middle" x="77" y="-1003.5" font-family="Helvetica,sans-Serif" font-size="10.00">ICollisionObject</text>
<polyline fill="none" stroke="black" points="0,-996.5 154,-996.5 "/>
<text text-anchor="middle" x="77" y="-984.5" font-family="Helvetica,sans-Serif" font-size="10.00"> </text>
<polyline fill="none" stroke="black" points="0,-977.5 154,-977.5 "/>
<text text-anchor="start" x="8" y="-965.5" font-family="Helvetica,sans-Serif" font-size="10.00">+ void InitCollisionObject()</text>
<text text-anchor="start" x="8" y="-954.5" font-family="Helvetica,sans-Serif" font-size="10.00">+ ProjectionPoint GetProjection</text>
<text text-anchor="start" x="8" y="-943.5" font-family="Helvetica,sans-Serif" font-size="10.00">Point(AABBProjectionType</text>
<text text-anchor="start" x="8" y="-932.5" font-family="Helvetica,sans-Serif" font-size="10.00"> projectionType)</text>
<text text-anchor="start" x="8" y="-921.5" font-family="Helvetica,sans-Serif" font-size="10.00">+ void Translate(Vector3</text>
<text text-anchor="start" x="8" y="-910.5" font-family="Helvetica,sans-Serif" font-size="10.00"> diff)</text>
<text text-anchor="start" x="8" y="-899.5" font-family="Helvetica,sans-Serif" font-size="10.00">+ void TranslateTo(Vector3</text>
<text text-anchor="start" x="8" y="-888.5" font-family="Helvetica,sans-Serif" font-size="10.00"> value)</text>
<text text-anchor="start" x="8" y="-877.5" font-family="Helvetica,sans-Serif" font-size="10.00">+ void Rotate(Vector3</text>
<text text-anchor="start" x="8" y="-866.5" font-family="Helvetica,sans-Serif" font-size="10.00"> diff)</text>
<text text-anchor="start" x="8" y="-855.5" font-family="Helvetica,sans-Serif" font-size="10.00">+ void RotateTo(Vector3</text>
<text text-anchor="start" x="8" y="-844.5" font-family="Helvetica,sans-Serif" font-size="10.00"> value)</text>
<text text-anchor="start" x="8" y="-833.5" font-family="Helvetica,sans-Serif" font-size="10.00">+ void Scale(float diff)</text>
<text text-anchor="start" x="8" y="-822.5" font-family="Helvetica,sans-Serif" font-size="10.00">+ void ScaleTo(float</text>
<text text-anchor="start" x="8" y="-811.5" font-family="Helvetica,sans-Serif" font-size="10.00"> value)</text>
<text text-anchor="start" x="8" y="-800.5" font-family="Helvetica,sans-Serif" font-size="10.00">+ void AddVelocity(Vector3</text>
<text text-anchor="start" x="8" y="-789.5" font-family="Helvetica,sans-Serif" font-size="10.00"> diff)</text>
<text text-anchor="start" x="8" y="-778.5" font-family="Helvetica,sans-Serif" font-size="10.00">+ void AddAcceleration</text>
<text text-anchor="start" x="8" y="-767.5" font-family="Helvetica,sans-Serif" font-size="10.00">(Vector3 diff)</text>
</a>
</g>
</g>
<!-- Node4&#45;&gt;Node3 -->
<g id="edge3" class="edge">
<title>Node4&#45;&gt;Node3</title>
<path fill="none" stroke="midnightblue" d="M161.06,-762.02C161.7,-761.34 162.35,-760.67 163,-760 187.82,-734.41 206.79,-741.65 228,-713 231.21,-708.67 234.31,-704.23 237.32,-699.69"/>
<polygon fill="none" stroke="midnightblue" points="158.39,-759.75 154.21,-769.49 163.55,-764.48 158.39,-759.75"/>
</g>
<!-- Node5 -->
<g id="node5" class="node">
<title>Node5</title>
<g id="a_node5"><a xlink:href="class_physics_1_1_collision_1_1_shape_1_1_collision_shape.html" target="_top" xlink:title=" ">
<polygon fill="white" stroke="black" points="172.5,-777 172.5,-999 347.5,-999 347.5,-777 172.5,-777"/>
<text text-anchor="start" x="180.5" y="-987" font-family="Helvetica,sans-Serif" font-size="10.00">Physics.Collision.Shape.</text>
<text text-anchor="middle" x="260" y="-976" font-family="Helvetica,sans-Serif" font-size="10.00">CollisionShape</text>
<polyline fill="none" stroke="black" points="172.5,-969 347.5,-969 "/>
<text text-anchor="start" x="180.5" y="-957" font-family="Helvetica,sans-Serif" font-size="10.00">+ readonly ShapeType</text>
<text text-anchor="start" x="180.5" y="-946" font-family="Helvetica,sans-Serif" font-size="10.00"> shapeType</text>
<text text-anchor="start" x="180.5" y="-935" font-family="Helvetica,sans-Serif" font-size="10.00">+ List&lt; Vector3 &gt; localVertices</text>
<text text-anchor="start" x="180.5" y="-924" font-family="Helvetica,sans-Serif" font-size="10.00">+ List&lt; Vector3 &gt; vertices</text>
<text text-anchor="start" x="180.5" y="-913" font-family="Helvetica,sans-Serif" font-size="10.00">+ AABB aabb</text>
<polyline fill="none" stroke="black" points="172.5,-906 347.5,-906 "/>
<text text-anchor="start" x="180.5" y="-894" font-family="Helvetica,sans-Serif" font-size="10.00">+ CollisionShape(ShapeType</text>
<text text-anchor="start" x="180.5" y="-883" font-family="Helvetica,sans-Serif" font-size="10.00"> shapeType)</text>
<text text-anchor="start" x="180.5" y="-872" font-family="Helvetica,sans-Serif" font-size="10.00">+ CollisionShape(ShapeType</text>
<text text-anchor="start" x="180.5" y="-861" font-family="Helvetica,sans-Serif" font-size="10.00"> shapeType, Vector3[] localVertices)</text>
<text text-anchor="start" x="180.5" y="-850" font-family="Helvetica,sans-Serif" font-size="10.00">+ virtual void UpdateShape()</text>
<text text-anchor="start" x="180.5" y="-839" font-family="Helvetica,sans-Serif" font-size="10.00">+ void ApplyWorldVertices</text>
<text text-anchor="start" x="180.5" y="-828" font-family="Helvetica,sans-Serif" font-size="10.00">(Vector3 origin, Vector3</text>
<text text-anchor="start" x="180.5" y="-817" font-family="Helvetica,sans-Serif" font-size="10.00"> rotate, float scale)</text>
<text text-anchor="start" x="180.5" y="-806" font-family="Helvetica,sans-Serif" font-size="10.00"># abstract void GetBound</text>
<text text-anchor="start" x="180.5" y="-795" font-family="Helvetica,sans-Serif" font-size="10.00">(out Vector3 lowerBound,</text>
<text text-anchor="start" x="180.5" y="-784" font-family="Helvetica,sans-Serif" font-size="10.00"> out Vector3 upperBound)</text>
</a>
</g>
</g>
<!-- Node5&#45;&gt;Node3 -->
<g id="edge4" class="edge">
<title>Node5&#45;&gt;Node3</title>
<path fill="none" stroke="#404040" d="M275.77,-776.99C278.13,-760.51 280.65,-742.89 283.27,-724.65"/>
<polygon fill="none" stroke="#404040" points="283.3,-724.45 280.19,-717.95 285,-712.58 288.11,-719.08 283.3,-724.45"/>
<text text-anchor="middle" x="300" y="-734" font-family="Helvetica,sans-Serif" font-size="10.00"> +shape</text>
</g>
<!-- Node6 -->
<g id="node6" class="node">
<title>Node6</title>
<g id="a_node6"><a xlink:title=" ">
<polygon fill="white" stroke="black" points="366,-859.5 366,-916.5 420,-916.5 420,-859.5 366,-859.5"/>
<text text-anchor="middle" x="393" y="-904.5" font-family="Helvetica,sans-Serif" font-size="10.00">Collision</text>
<polyline fill="none" stroke="black" points="366,-897.5 420,-897.5 "/>
<text text-anchor="middle" x="393" y="-885.5" font-family="Helvetica,sans-Serif" font-size="10.00"> </text>
<polyline fill="none" stroke="black" points="366,-878.5 420,-878.5 "/>
<text text-anchor="middle" x="393" y="-866.5" font-family="Helvetica,sans-Serif" font-size="10.00"> </text>
</a>
</g>
</g>
<!-- Node6&#45;&gt;Node3 -->
<g id="edge5" class="edge">
<title>Node6&#45;&gt;Node3</title>
<path fill="none" stroke="#404040" d="M388.96,-859.23C384.68,-829.82 377.44,-780.03 369.35,-724.46"/>
<polygon fill="none" stroke="#404040" points="369.34,-724.39 364.52,-719.03 367.61,-712.52 372.44,-717.88 369.34,-724.39"/>
<text text-anchor="middle" x="386.5" y="-734" font-family="Helvetica,sans-Serif" font-size="10.00"> +flags</text>
</g>
<!-- Node7 -->
<g id="node7" class="node">
<title>Node7</title>
<g id="a_node7"><a xlink:title=" ">
<polygon fill="white" stroke="black" points="438,-859.5 438,-916.5 488,-916.5 488,-859.5 438,-859.5"/>
<text text-anchor="middle" x="463" y="-904.5" font-family="Helvetica,sans-Serif" font-size="10.00">System</text>
<polyline fill="none" stroke="black" points="438,-897.5 488,-897.5 "/>
<text text-anchor="middle" x="463" y="-885.5" font-family="Helvetica,sans-Serif" font-size="10.00"> </text>
<polyline fill="none" stroke="black" points="438,-878.5 488,-878.5 "/>
<text text-anchor="middle" x="463" y="-866.5" font-family="Helvetica,sans-Serif" font-size="10.00"> </text>
</a>
</g>
</g>
<!-- Node7&#45;&gt;Node3 -->
<g id="edge6" class="edge">
<title>Node7&#45;&gt;Node3</title>
<path fill="none" stroke="#404040" d="M455.94,-859.42C449.26,-833.64 438.83,-794.11 429,-760 425.43,-747.63 421.75,-735.01 418,-722.28"/>
<polygon fill="none" stroke="#404040" points="417.93,-722.06 412.39,-717.45 414.53,-710.56 420.07,-715.18 417.93,-722.06"/>
<text text-anchor="middle" x="458" y="-734" font-family="Helvetica,sans-Serif" font-size="10.00"> +contextObject</text>
</g>
</g>
</svg>
