<?xml version="1.0" encoding="UTF-8" standalone="no"?>
<!DOCTYPE svg PUBLIC "-//W3C//DTD SVG 1.1//EN"
 "http://www.w3.org/Graphics/SVG/1.1/DTD/svg11.dtd">
<!-- Generated by graphviz version 2.50.0 (20211204.2007)
 -->
<!-- Title: Physics.PhysicsWorld.EPA Pages: 1 -->
<!--zoomable 372 -->
<svg id="main" version="1.1" xmlns="http://www.w3.org/2000/svg" xmlns:xlink="http://www.w3.org/1999/xlink" xml:space="preserve" onload="init(evt)">
<style type="text/css"><![CDATA[
.edge:hover path { stroke: red; }
.edge:hover polygon { stroke: red; fill: red; }
]]></style>
<script type="text/javascript"><![CDATA[
var edges = document.getElementsByTagName('g');
if (edges && edges.length) {
  for (var i=0;i<edges.length;i++) {
    if (edges[i].id.substr(0,4)=='edge') {
      edges[i].setAttribute('class','edge');
    }
  }
}
]]></script>
        <defs>
                <circle id="rim" cx="0" cy="0" r="7"/>
                <circle id="rim2" cx="0" cy="0" r="3.5"/>
                <g id="zoomPlus">
                        <use xlink:href="#rim" fill="#404040">
                                <set attributeName="fill" to="#808080" begin="zoomplus.mouseover" end="zoomplus.mouseout"/>
                        </use>
                        <path d="M-4,0h8M0,-4v8" fill="none" stroke="white" stroke-width="1.5" pointer-events="none"/>
                </g>
                <g id="zoomMin">
                        <use xlink:href="#rim" fill="#404040">
                                <set attributeName="fill" to="#808080" begin="zoomminus.mouseover" end="zoomminus.mouseout"/>
                        </use>
                        <path d="M-4,0h8" fill="none" stroke="white" stroke-width="1.5" pointer-events="none"/>
                </g>
                <g id="dirArrow">
                        <path fill="none" stroke="white" stroke-width="1.5" d="M0,-3.0v7 M-2.5,-0.5L0,-3.0L2.5,-0.5"/>
                </g>
               <g id="resetDef">
                       <use xlink:href="#rim2" fill="#404040">
                               <set attributeName="fill" to="#808080" begin="reset.mouseover" end="reset.mouseout"/>
                       </use>
               </g>
        </defs>

<script type="text/javascript">
var viewWidth = 752;
var viewHeight = 372;
var sectionId = 'dynsection-18';
</script>
<script xlink:href="svgpan.js"/>
<svg id="graph" class="graph">
<g id="viewport">
<title>Physics.PhysicsWorld.EPA</title>
<polygon fill="white" stroke="transparent" points="-4,4 -4,-368 748,-368 748,4 -4,4"/>
<!-- Node1 -->
<g id="node1" class="node">
<title>Node1</title>
<g id="a_node1"><a xlink:title=" ">
<polygon fill="#bfbfbf" stroke="black" points="0,-192 0,-211 137,-211 137,-192 0,-192"/>
<text text-anchor="middle" x="68.5" y="-199" font-family="Helvetica,sans-Serif" font-size="10.00">Physics.PhysicsWorld.EPA</text>
</a>
</g>
</g>
<!-- Node2 -->
<g id="node2" class="node">
<title>Node2</title>
<g id="a_node2"><a xlink:href="class_physics_1_1_collision_1_1_model_1_1_simplex_edge.html#a816ccd6c203d0952fdcf318cbf628be2" target="_top" xlink:title=" ">
<polygon fill="white" stroke="black" points="173,-333.5 173,-363.5 325,-363.5 325,-333.5 173,-333.5"/>
<text text-anchor="start" x="181" y="-351.5" font-family="Helvetica,sans-Serif" font-size="10.00">Physics.Collision.Model.</text>
<text text-anchor="middle" x="249" y="-340.5" font-family="Helvetica,sans-Serif" font-size="10.00">SimplexEdge.FindClosestEdge</text>
</a>
</g>
</g>
<!-- Node1&#45;&gt;Node2 -->
<g id="edge1" class="edge">
<title>Node1&#45;&gt;Node2</title>
<path fill="none" stroke="midnightblue" d="M74.92,-211.08C88.43,-234.1 125.94,-292.96 173,-324.5 175.4,-326.11 177.91,-327.61 180.49,-329.02"/>
<polygon fill="midnightblue" stroke="midnightblue" points="179.03,-332.2 189.55,-333.44 182.11,-325.91 179.03,-332.2"/>
</g>
<!-- Node3 -->
<g id="node3" class="node">
<title>Node3</title>
<g id="a_node3"><a xlink:href="class_physics_1_1_physics_world.html#a5ea0895316da17449ff1352e2610ba59" target="_top" xlink:title=" ">
<polygon fill="white" stroke="black" points="180.5,-284.5 180.5,-314.5 317.5,-314.5 317.5,-284.5 180.5,-284.5"/>
<text text-anchor="start" x="188.5" y="-302.5" font-family="Helvetica,sans-Serif" font-size="10.00">Physics.PhysicsWorld.Find</text>
<text text-anchor="middle" x="249" y="-291.5" font-family="Helvetica,sans-Serif" font-size="10.00">NextDirection</text>
</a>
</g>
</g>
<!-- Node1&#45;&gt;Node3 -->
<g id="edge2" class="edge">
<title>Node1&#45;&gt;Node3</title>
<path fill="none" stroke="midnightblue" d="M80.54,-211.19C98.69,-226.69 136.48,-257.17 173,-275.5 176.71,-277.36 180.6,-279.12 184.57,-280.77"/>
<polygon fill="midnightblue" stroke="midnightblue" points="183.34,-284.05 193.93,-284.44 185.89,-277.53 183.34,-284.05"/>
</g>
<!-- Node5 -->
<g id="node5" class="node">
<title>Node5</title>
<g id="a_node5"><a xlink:href="class_physics_1_1_physics_cache_pool.html#a9f45043e890ef8e5d8c382ccaa4cc710" target="_top" xlink:title=" ">
<polygon fill="white" stroke="black" points="178.5,-235.5 178.5,-265.5 319.5,-265.5 319.5,-235.5 178.5,-235.5"/>
<text text-anchor="start" x="186.5" y="-253.5" font-family="Helvetica,sans-Serif" font-size="10.00">Physics.PhysicsCachePool.</text>
<text text-anchor="middle" x="249" y="-242.5" font-family="Helvetica,sans-Serif" font-size="10.00">GetSimplexEdgeFromPool</text>
</a>
</g>
</g>
<!-- Node1&#45;&gt;Node5 -->
<g id="edge4" class="edge">
<title>Node1&#45;&gt;Node5</title>
<path fill="none" stroke="midnightblue" d="M104.34,-211.06C126.84,-217.24 156.8,-225.46 183.54,-232.8"/>
<polygon fill="midnightblue" stroke="midnightblue" points="182.65,-236.19 193.22,-235.46 184.51,-229.44 182.65,-236.19"/>
</g>
<!-- Node6 -->
<g id="node6" class="node">
<title>Node6</title>
<g id="a_node6"><a xlink:href="class_physics_1_1_collision_1_1_model_1_1_simplex_edge.html#ac435eb94635850bd1dbf75897fee68b7" target="_top" xlink:title=" ">
<polygon fill="white" stroke="black" points="186.5,-186.5 186.5,-216.5 311.5,-216.5 311.5,-186.5 186.5,-186.5"/>
<text text-anchor="start" x="194.5" y="-204.5" font-family="Helvetica,sans-Serif" font-size="10.00">Physics.Collision.Model.</text>
<text text-anchor="middle" x="249" y="-193.5" font-family="Helvetica,sans-Serif" font-size="10.00">SimplexEdge.InitEdges</text>
</a>
</g>
</g>
<!-- Node1&#45;&gt;Node6 -->
<g id="edge5" class="edge">
<title>Node1&#45;&gt;Node6</title>
<path fill="none" stroke="midnightblue" d="M137.24,-201.5C150,-201.5 163.39,-201.5 176.27,-201.5"/>
<polygon fill="midnightblue" stroke="midnightblue" points="176.47,-205 186.47,-201.5 176.47,-198 176.47,-205"/>
</g>
<!-- Node11 -->
<g id="node11" class="node">
<title>Node11</title>
<g id="a_node11"><a xlink:href="class_physics_1_1_collision_1_1_model_1_1_simplex_edge.html#ae349a32da5778aa885c6f5b1e7153350" target="_top" xlink:title=" ">
<polygon fill="white" stroke="black" points="175.5,-137.5 175.5,-167.5 322.5,-167.5 322.5,-137.5 175.5,-137.5"/>
<text text-anchor="start" x="183.5" y="-155.5" font-family="Helvetica,sans-Serif" font-size="10.00">Physics.Collision.Model.</text>
<text text-anchor="middle" x="249" y="-144.5" font-family="Helvetica,sans-Serif" font-size="10.00">SimplexEdge.InsertEdgePoint</text>
</a>
</g>
</g>
<!-- Node1&#45;&gt;Node11 -->
<g id="edge10" class="edge">
<title>Node1&#45;&gt;Node11</title>
<path fill="none" stroke="midnightblue" d="M104.34,-191.94C126.84,-185.76 156.8,-177.54 183.54,-170.2"/>
<polygon fill="midnightblue" stroke="midnightblue" points="184.51,-173.56 193.22,-167.54 182.65,-166.81 184.51,-173.56"/>
</g>
<!-- Node14 -->
<g id="node14" class="node">
<title>Node14</title>
<g id="a_node14"><a xlink:href="class_physics_1_1_physics_cache_pool.html#ad31fe94e7d5fc45379a922481b6f6739" target="_top" xlink:title=" ">
<polygon fill="white" stroke="black" points="178.5,-68.5 178.5,-98.5 319.5,-98.5 319.5,-68.5 178.5,-68.5"/>
<text text-anchor="start" x="186.5" y="-86.5" font-family="Helvetica,sans-Serif" font-size="10.00">Physics.PhysicsCachePool.</text>
<text text-anchor="middle" x="249" y="-75.5" font-family="Helvetica,sans-Serif" font-size="10.00">RecycleSimplexEdge</text>
</a>
</g>
</g>
<!-- Node1&#45;&gt;Node14 -->
<g id="edge16" class="edge">
<title>Node1&#45;&gt;Node14</title>
<path fill="none" stroke="midnightblue" d="M82.36,-191.97C101.72,-177.72 139.65,-150.22 173,-128.5 185.8,-120.16 200.12,-111.43 212.79,-103.9"/>
<polygon fill="midnightblue" stroke="midnightblue" points="214.84,-106.75 221.68,-98.65 211.29,-100.72 214.84,-106.75"/>
</g>
<!-- Node16 -->
<g id="node16" class="node">
<title>Node16</title>
<g id="a_node16"><a xlink:href="class_physics_1_1_physics_world.html#af1aadffc2ad0f1b13391fe5eb1f4e703" target="_top" xlink:title=" ">
<polygon fill="white" stroke="black" points="173,-28 173,-47 325,-47 325,-28 173,-28"/>
<text text-anchor="middle" x="249" y="-35" font-family="Helvetica,sans-Serif" font-size="10.00">Physics.PhysicsWorld.Support</text>
</a>
</g>
</g>
<!-- Node1&#45;&gt;Node16 -->
<g id="edge19" class="edge">
<title>Node1&#45;&gt;Node16</title>
<path fill="none" stroke="midnightblue" d="M73.75,-191.88C85.56,-166.25 121.35,-95.84 173,-59.5 177.83,-56.1 183.2,-53.22 188.76,-50.78"/>
<polygon fill="midnightblue" stroke="midnightblue" points="190.22,-53.97 198.27,-47.08 187.68,-47.44 190.22,-53.97"/>
</g>
<!-- Node4 -->
<g id="node4" class="node">
<title>Node4</title>
<g id="a_node4"><a xlink:href="class_physics_1_1_physics_tool.html#a76623f29e2f14991ed006a429914f55a" target="_top" xlink:title=" ">
<polygon fill="white" stroke="black" points="361,-284.5 361,-314.5 522,-314.5 522,-284.5 361,-284.5"/>
<text text-anchor="start" x="369" y="-302.5" font-family="Helvetica,sans-Serif" font-size="10.00">Physics.PhysicsTool.GetClosest</text>
<text text-anchor="middle" x="441.5" y="-291.5" font-family="Helvetica,sans-Serif" font-size="10.00">PointToOrigin</text>
</a>
</g>
</g>
<!-- Node3&#45;&gt;Node4 -->
<g id="edge3" class="edge">
<title>Node3&#45;&gt;Node4</title>
<path fill="none" stroke="midnightblue" d="M317.7,-299.5C328.43,-299.5 339.66,-299.5 350.8,-299.5"/>
<polygon fill="midnightblue" stroke="midnightblue" points="350.98,-303 360.98,-299.5 350.98,-296 350.98,-303"/>
</g>
<!-- Node7 -->
<g id="node7" class="node">
<title>Node7</title>
<g id="a_node7"><a xlink:href="class_physics_1_1_collision_1_1_model_1_1_simplex_edge.html#aa9b0228aaaf6885ee72668b11e1b22da" target="_top" xlink:title=" ">
<polygon fill="white" stroke="black" points="370,-235.5 370,-265.5 513,-265.5 513,-235.5 370,-235.5"/>
<text text-anchor="start" x="378" y="-253.5" font-family="Helvetica,sans-Serif" font-size="10.00">Physics.Collision.Model.</text>
<text text-anchor="middle" x="441.5" y="-242.5" font-family="Helvetica,sans-Serif" font-size="10.00">SimplexEdge.CreateInitEdge</text>
</a>
</g>
</g>
<!-- Node6&#45;&gt;Node7 -->
<g id="edge6" class="edge">
<title>Node6&#45;&gt;Node7</title>
<path fill="none" stroke="midnightblue" d="M308.45,-216.53C328.66,-221.73 351.47,-227.6 372.39,-232.98"/>
<polygon fill="midnightblue" stroke="midnightblue" points="371.6,-236.39 382.16,-235.49 373.35,-229.61 371.6,-236.39"/>
</g>
<!-- Node10 -->
<g id="node10" class="node">
<title>Node10</title>
<g id="a_node10"><a xlink:href="class_physics_1_1_collision_1_1_model_1_1_simplex_edge.html#a536f768434ce96fc78fe67adf4e0c9ed" target="_top" xlink:title=" ">
<polygon fill="white" stroke="black" points="364,-186.5 364,-216.5 519,-216.5 519,-186.5 364,-186.5"/>
<text text-anchor="start" x="372" y="-204.5" font-family="Helvetica,sans-Serif" font-size="10.00">Physics.Collision.Model.</text>
<text text-anchor="middle" x="441.5" y="-193.5" font-family="Helvetica,sans-Serif" font-size="10.00">SimplexEdge.UpdateEdgeIndex</text>
</a>
</g>
</g>
<!-- Node6&#45;&gt;Node10 -->
<g id="edge9" class="edge">
<title>Node6&#45;&gt;Node10</title>
<path fill="none" stroke="midnightblue" d="M311.59,-201.5C324.97,-201.5 339.37,-201.5 353.53,-201.5"/>
<polygon fill="midnightblue" stroke="midnightblue" points="353.77,-205 363.77,-201.5 353.77,-198 353.77,-205"/>
</g>
<!-- Node8 -->
<g id="node8" class="node">
<title>Node8</title>
<g id="a_node8"><a xlink:href="class_physics_1_1_physics_cache_pool.html#a68b6244567d48376ad3a2e5188e73241" target="_top" xlink:title=" ">
<polygon fill="white" stroke="black" points="580.5,-149.5 580.5,-179.5 721.5,-179.5 721.5,-149.5 580.5,-149.5"/>
<text text-anchor="start" x="588.5" y="-167.5" font-family="Helvetica,sans-Serif" font-size="10.00">Physics.PhysicsCachePool.</text>
<text text-anchor="middle" x="651" y="-156.5" font-family="Helvetica,sans-Serif" font-size="10.00">GetEdgeFromPool</text>
</a>
</g>
</g>
<!-- Node7&#45;&gt;Node8 -->
<g id="edge7" class="edge">
<title>Node7&#45;&gt;Node8</title>
<path fill="none" stroke="midnightblue" d="M496.77,-235.37C505.29,-232.63 513.94,-229.65 522,-226.5 553.41,-214.24 587.73,-197.42 612.92,-184.39"/>
<polygon fill="midnightblue" stroke="midnightblue" points="614.86,-187.33 622.1,-179.6 611.62,-181.12 614.86,-187.33"/>
</g>
<!-- Node9 -->
<g id="node9" class="node">
<title>Node9</title>
<g id="a_node9"><a xlink:href="class_physics_1_1_physics_tool.html#a2b923d3cf606c6980a6b26c5b7bfc80f" target="_top" xlink:title=" ">
<polygon fill="white" stroke="black" points="558,-222.5 558,-252.5 744,-252.5 744,-222.5 558,-222.5"/>
<text text-anchor="start" x="566" y="-240.5" font-family="Helvetica,sans-Serif" font-size="10.00">Physics.PhysicsTool.GetPerpendicular</text>
<text text-anchor="middle" x="651" y="-229.5" font-family="Helvetica,sans-Serif" font-size="10.00">ToOrigin</text>
</a>
</g>
</g>
<!-- Node7&#45;&gt;Node9 -->
<g id="edge8" class="edge">
<title>Node7&#45;&gt;Node9</title>
<path fill="none" stroke="midnightblue" d="M513.04,-246.08C524.22,-245.38 535.97,-244.64 547.7,-243.91"/>
<polygon fill="midnightblue" stroke="midnightblue" points="548.22,-247.38 557.98,-243.27 547.78,-240.4 548.22,-247.38"/>
</g>
<!-- Node11&#45;&gt;Node10 -->
<g id="edge15" class="edge">
<title>Node11&#45;&gt;Node10</title>
<path fill="none" stroke="midnightblue" d="M308.45,-167.53C328.66,-172.73 351.47,-178.6 372.39,-183.98"/>
<polygon fill="midnightblue" stroke="midnightblue" points="371.6,-187.39 382.16,-186.49 373.35,-180.61 371.6,-187.39"/>
</g>
<!-- Node12 -->
<g id="node12" class="node">
<title>Node12</title>
<g id="a_node12"><a xlink:href="class_physics_1_1_collision_1_1_model_1_1_simplex_edge.html#a46b8494a6a6088235c2b1bb272cdb8ba" target="_top" xlink:title=" ">
<polygon fill="white" stroke="black" points="377,-137.5 377,-167.5 506,-167.5 506,-137.5 377,-137.5"/>
<text text-anchor="start" x="385" y="-155.5" font-family="Helvetica,sans-Serif" font-size="10.00">Physics.Collision.Model.</text>
<text text-anchor="middle" x="441.5" y="-144.5" font-family="Helvetica,sans-Serif" font-size="10.00">SimplexEdge.CreateEdge</text>
</a>
</g>
</g>
<!-- Node11&#45;&gt;Node12 -->
<g id="edge11" class="edge">
<title>Node11&#45;&gt;Node12</title>
<path fill="none" stroke="midnightblue" d="M322.56,-152.5C336.95,-152.5 352.06,-152.5 366.49,-152.5"/>
<polygon fill="midnightblue" stroke="midnightblue" points="366.86,-156 376.86,-152.5 366.86,-149 366.86,-156"/>
</g>
<!-- Node13 -->
<g id="node13" class="node">
<title>Node13</title>
<g id="a_node13"><a xlink:href="class_physics_1_1_physics_cache_pool.html#a912bb4bf46c20c664294e5387a7b7d6f" target="_top" xlink:title=" ">
<polygon fill="white" stroke="black" points="580.5,-81.5 580.5,-111.5 721.5,-111.5 721.5,-81.5 580.5,-81.5"/>
<text text-anchor="start" x="588.5" y="-99.5" font-family="Helvetica,sans-Serif" font-size="10.00">Physics.PhysicsCachePool.</text>
<text text-anchor="middle" x="651" y="-88.5" font-family="Helvetica,sans-Serif" font-size="10.00">RecycleEdge</text>
</a>
</g>
</g>
<!-- Node11&#45;&gt;Node13 -->
<g id="edge14" class="edge">
<title>Node11&#45;&gt;Node13</title>
<path fill="none" stroke="midnightblue" d="M314.06,-137.48C329.38,-134.21 345.72,-130.99 361,-128.5 431.27,-117.04 511.82,-108.5 570.01,-103.13"/>
<polygon fill="midnightblue" stroke="midnightblue" points="570.6,-106.59 580.24,-102.2 569.96,-99.62 570.6,-106.59"/>
</g>
<!-- Node12&#45;&gt;Node8 -->
<g id="edge12" class="edge">
<title>Node12&#45;&gt;Node8</title>
<path fill="none" stroke="midnightblue" d="M506.17,-156.18C526.34,-157.35 548.89,-158.65 570.05,-159.88"/>
<polygon fill="midnightblue" stroke="midnightblue" points="570.13,-163.39 580.31,-160.47 570.53,-156.4 570.13,-163.39"/>
</g>
<!-- Node12&#45;&gt;Node9 -->
<g id="edge13" class="edge">
<title>Node12&#45;&gt;Node9</title>
<path fill="none" stroke="midnightblue" d="M493.74,-167.5C503.22,-170.59 512.97,-173.98 522,-177.5 552.72,-189.47 586.45,-205.4 611.56,-217.84"/>
<polygon fill="midnightblue" stroke="midnightblue" points="610.24,-221.08 620.75,-222.42 613.36,-214.82 610.24,-221.08"/>
</g>
<!-- Node15 -->
<g id="node15" class="node">
<title>Node15</title>
<g id="a_node15"><a xlink:href="class_physics_1_1_collision_1_1_model_1_1_simplex_edge.html#a422d4d80fc2c4205af1f96abcec05a67" target="_top" xlink:title=" ">
<polygon fill="white" stroke="black" points="379,-49.5 379,-79.5 504,-79.5 504,-49.5 379,-49.5"/>
<text text-anchor="start" x="387" y="-67.5" font-family="Helvetica,sans-Serif" font-size="10.00">Physics.Collision.Model.</text>
<text text-anchor="middle" x="441.5" y="-56.5" font-family="Helvetica,sans-Serif" font-size="10.00">SimplexEdge.Clear</text>
</a>
</g>
</g>
<!-- Node14&#45;&gt;Node15 -->
<g id="edge17" class="edge">
<title>Node14&#45;&gt;Node15</title>
<path fill="none" stroke="midnightblue" d="M319.58,-76.56C335.54,-74.97 352.53,-73.27 368.58,-71.67"/>
<polygon fill="midnightblue" stroke="midnightblue" points="369.37,-75.11 378.98,-70.64 368.68,-68.15 369.37,-75.11"/>
</g>
<!-- Node15&#45;&gt;Node13 -->
<g id="edge18" class="edge">
<title>Node15&#45;&gt;Node13</title>
<path fill="none" stroke="midnightblue" d="M504.2,-74.01C524.91,-77.21 548.33,-80.82 570.23,-84.2"/>
<polygon fill="midnightblue" stroke="midnightblue" points="569.76,-87.67 580.17,-85.73 570.83,-80.75 569.76,-87.67"/>
</g>
<!-- Node17 -->
<g id="node17" class="node">
<title>Node17</title>
<g id="a_node17"><a xlink:href="class_physics_1_1_collision_1_1_collision_object.html#a28cc343d91add7b15402133b83d76b27" target="_top" xlink:title=" ">
<polygon fill="white" stroke="black" points="370,-0.5 370,-30.5 513,-30.5 513,-0.5 370,-0.5"/>
<text text-anchor="start" x="378" y="-18.5" font-family="Helvetica,sans-Serif" font-size="10.00">Physics.Collision.Collision</text>
<text text-anchor="middle" x="441.5" y="-7.5" font-family="Helvetica,sans-Serif" font-size="10.00">Object.GetFarthestPointInDir</text>
</a>
</g>
</g>
<!-- Node16&#45;&gt;Node17 -->
<g id="edge20" class="edge">
<title>Node16&#45;&gt;Node17</title>
<path fill="none" stroke="midnightblue" d="M325.02,-28.84C336.45,-27.52 348.3,-26.15 359.85,-24.81"/>
<polygon fill="midnightblue" stroke="midnightblue" points="360.37,-28.28 369.9,-23.65 359.57,-21.32 360.37,-28.28"/>
</g>
</g>
</svg>
        <g id="navigator" transform="translate(0 0)" fill="#404254">
                <rect fill="#f2f5e9" fill-opacity="0.5" stroke="#606060" stroke-width=".5" x="0" y="0" width="60" height="60"/>
                <use id="zoomplus" xlink:href="#zoomPlus" x="17" y="9" onmousedown="handleZoom(evt,'in')"/>
                <use id="zoomminus" xlink:href="#zoomMin" x="42" y="9" onmousedown="handleZoom(evt,'out')"/>
                <use id="reset" xlink:href="#resetDef" x="30" y="36" onmousedown="handleReset()"/>
                <g id="arrowUp" xlink:href="#dirArrow" transform="translate(30 24)" onmousedown="handlePan(0,-1)">
                  <use xlink:href="#rim" fill="#404040">
                        <set attributeName="fill" to="#808080" begin="arrowUp.mouseover" end="arrowUp.mouseout"/>
                  </use>
                  <path fill="none" stroke="white" stroke-width="1.5" d="M0,-3.0v7 M-2.5,-0.5L0,-3.0L2.5,-0.5"/>
                </g>
                <g id="arrowRight" xlink:href="#dirArrow" transform="rotate(90) translate(36 -43)" onmousedown="handlePan(1,0)">
                  <use xlink:href="#rim" fill="#404040">
                        <set attributeName="fill" to="#808080" begin="arrowRight.mouseover" end="arrowRight.mouseout"/>
                  </use>
                  <path fill="none" stroke="white" stroke-width="1.5" d="M0,-3.0v7 M-2.5,-0.5L0,-3.0L2.5,-0.5"/>
                </g>
                <g id="arrowDown" xlink:href="#dirArrow" transform="rotate(180) translate(-30 -48)" onmousedown="handlePan(0,1)">
                  <use xlink:href="#rim" fill="#404040">
                        <set attributeName="fill" to="#808080" begin="arrowDown.mouseover" end="arrowDown.mouseout"/>
                  </use>
                  <path fill="none" stroke="white" stroke-width="1.5" d="M0,-3.0v7 M-2.5,-0.5L0,-3.0L2.5,-0.5"/>
                </g>
                <g id="arrowLeft" xlink:href="#dirArrow" transform="rotate(270) translate(-36 17)" onmousedown="handlePan(-1,0)">
                  <use xlink:href="#rim" fill="#404040">
                        <set attributeName="fill" to="#808080" begin="arrowLeft.mouseover" end="arrowLeft.mouseout"/>
                  </use>
                  <path fill="none" stroke="white" stroke-width="1.5" d="M0,-3.0v7 M-2.5,-0.5L0,-3.0L2.5,-0.5"/>
                </g>
        </g>
        <svg viewBox="0 0 15 15" width="100%" height="30px" preserveAspectRatio="xMaxYMin meet">
         <g id="arrow_out" transform="scale(0.3 0.3)">
          <a xlink:href="class_physics_1_1_physics_world_a981b90f47065fded56b0145083aac984_cgraph_org.svg" target="_base">
           <rect id="button" ry="5" rx="5" y="6" x="6" height="38" width="38"
                fill="#f2f5e9" fill-opacity="0.5" stroke="#606060" stroke-width="1.0"/>
           <path id="arrow"
             d="M 11.500037,31.436501 C 11.940474,20.09759 22.043105,11.32322 32.158766,21.979434 L 37.068811,17.246167 C 37.068811,17.246167 37.088388,32 37.088388,32 L 22.160133,31.978069 C 22.160133,31.978069 26.997745,27.140456 26.997745,27.140456 C 18.528582,18.264221 13.291696,25.230495 11.500037,31.436501 z"
             style="fill:#404040;"/>
          </a>
         </g>
        </svg>
</svg>
