<?xml version="1.0" encoding="UTF-8" standalone="no"?>
<!DOCTYPE svg PUBLIC "-//W3C//DTD SVG 1.1//EN"
 "http://www.w3.org/Graphics/SVG/1.1/DTD/svg11.dtd">
<!-- Generated by graphviz version 2.50.0 (20211204.2007)
 -->
<!-- Title: Physics.Collision.CollisionObject.InitCollisionObject Pages: 1 -->
<svg width="848pt" height="180pt"
 viewBox="0.00 0.00 848.00 180.00" xmlns="http://www.w3.org/2000/svg" xmlns:xlink="http://www.w3.org/1999/xlink">
<g id="graph0" class="graph" transform="scale(1 1) rotate(0) translate(4 176)">
<title>Physics.Collision.CollisionObject.InitCollisionObject</title>
<polygon fill="white" stroke="transparent" points="-4,4 -4,-176 844,-176 844,4 -4,4"/>
<!-- Node1 -->
<g id="node1" class="node">
<title>Node1</title>
<g id="a_node1"><a xlink:title=" ">
<polygon fill="#bfbfbf" stroke="black" points="707,-60 707,-90 840,-90 840,-60 707,-60"/>
<text text-anchor="start" x="715" y="-78" font-family="Helvetica,sans-Serif" font-size="10.00">Physics.Collision.Collision</text>
<text text-anchor="middle" x="773.5" y="-67" font-family="Helvetica,sans-Serif" font-size="10.00">Object.InitCollisionObject</text>
</a>
</g>
</g>
<!-- Node2 -->
<g id="node2" class="node">
<title>Node2</title>
<g id="a_node2"><a xlink:href="class_physics_1_1_physics_world.html#aaea6390b0eebeeffb2136b97d9e9e9a9" target="_top" xlink:title=" ">
<polygon fill="white" stroke="black" points="536,-60 536,-90 671,-90 671,-60 536,-60"/>
<text text-anchor="start" x="544" y="-78" font-family="Helvetica,sans-Serif" font-size="10.00">Physics.PhysicsWorld.Add</text>
<text text-anchor="middle" x="603.5" y="-67" font-family="Helvetica,sans-Serif" font-size="10.00">CollisionObject</text>
</a>
</g>
</g>
<!-- Node1&#45;&gt;Node2 -->
<g id="edge1" class="edge">
<title>Node1&#45;&gt;Node2</title>
<path fill="none" stroke="midnightblue" d="M696.36,-75C687.92,-75 679.37,-75 671.05,-75"/>
<polygon fill="midnightblue" stroke="midnightblue" points="696.58,-78.5 706.58,-75 696.58,-71.5 696.58,-78.5"/>
</g>
<!-- Node3 -->
<g id="node3" class="node">
<title>Node3</title>
<g id="a_node3"><a xlink:href="class_physics_1_1_physics_world.html#ab363dd228dcc50002de2762e22918637" target="_top" xlink:title=" ">
<polygon fill="white" stroke="black" points="353,-60 353,-90 500,-90 500,-60 353,-60"/>
<text text-anchor="start" x="361" y="-78" font-family="Helvetica,sans-Serif" font-size="10.00">Physics.PhysicsWorld.Create</text>
<text text-anchor="middle" x="426.5" y="-67" font-family="Helvetica,sans-Serif" font-size="10.00">ACustomShape</text>
</a>
</g>
</g>
<!-- Node2&#45;&gt;Node3 -->
<g id="edge2" class="edge">
<title>Node2&#45;&gt;Node3</title>
<path fill="none" stroke="midnightblue" d="M525.6,-75C517.12,-75 508.52,-75 500.1,-75"/>
<polygon fill="midnightblue" stroke="midnightblue" points="525.84,-78.5 535.84,-75 525.84,-71.5 525.84,-78.5"/>
</g>
<!-- Node7 -->
<g id="node7" class="node">
<title>Node7</title>
<g id="a_node7"><a xlink:href="class_physics_1_1_physics_world.html#af93edd393b2391e14a2cfc4331ebf791" target="_top" xlink:title=" ">
<polygon fill="white" stroke="black" points="353,-3 353,-33 500,-33 500,-3 353,-3"/>
<text text-anchor="start" x="361" y="-21" font-family="Helvetica,sans-Serif" font-size="10.00">Physics.PhysicsWorld.Create</text>
<text text-anchor="middle" x="426.5" y="-10" font-family="Helvetica,sans-Serif" font-size="10.00">ATestCircle</text>
</a>
</g>
</g>
<!-- Node2&#45;&gt;Node7 -->
<g id="edge6" class="edge">
<title>Node2&#45;&gt;Node7</title>
<path fill="none" stroke="midnightblue" d="M546.27,-56.69C522.89,-49.07 496.08,-40.34 473.85,-33.1"/>
<polygon fill="midnightblue" stroke="midnightblue" points="545.47,-60.11 556.06,-59.87 547.64,-53.45 545.47,-60.11"/>
</g>
<!-- Node10 -->
<g id="node10" class="node">
<title>Node10</title>
<g id="a_node10"><a xlink:href="class_physics_1_1_physics_world.html#a54d320d6dc2c69449f0d83f746382a21" target="_top" xlink:title=" ">
<polygon fill="white" stroke="black" points="353,-109 353,-139 500,-139 500,-109 353,-109"/>
<text text-anchor="start" x="361" y="-127" font-family="Helvetica,sans-Serif" font-size="10.00">Physics.PhysicsWorld.Create</text>
<text text-anchor="middle" x="426.5" y="-116" font-family="Helvetica,sans-Serif" font-size="10.00">ATestRect</text>
</a>
</g>
</g>
<!-- Node2&#45;&gt;Node10 -->
<g id="edge9" class="edge">
<title>Node2&#45;&gt;Node10</title>
<path fill="none" stroke="midnightblue" d="M538.85,-92.82C519.96,-98.11 499.46,-103.85 481.26,-108.95"/>
<polygon fill="midnightblue" stroke="midnightblue" points="539.88,-96.17 548.57,-90.1 537.99,-89.43 539.88,-96.17"/>
</g>
<!-- Node4 -->
<g id="node4" class="node">
<title>Node4</title>
<g id="a_node4"><a xlink:href="class_physics_1_1_physics_world.html#a00da1d0a80a537bf0f30ec9a1f00cbd6" target="_top" xlink:title=" ">
<polygon fill="white" stroke="black" points="175,-76.5 175,-95.5 317,-95.5 317,-76.5 175,-76.5"/>
<text text-anchor="middle" x="246" y="-83.5" font-family="Helvetica,sans-Serif" font-size="10.00">Physics.PhysicsWorld.Test1</text>
</a>
</g>
</g>
<!-- Node3&#45;&gt;Node4 -->
<g id="edge3" class="edge">
<title>Node3&#45;&gt;Node4</title>
<path fill="none" stroke="midnightblue" d="M342.89,-80.09C334.31,-80.62 325.65,-81.15 317.23,-81.67"/>
<polygon fill="midnightblue" stroke="midnightblue" points="343.13,-83.58 352.9,-79.47 342.7,-76.6 343.13,-83.58"/>
</g>
<!-- Node5 -->
<g id="node5" class="node">
<title>Node5</title>
<g id="a_node5"><a xlink:href="class_physics_1_1_physics_world.html#a23a499269c2dba922ca4a81579b244ae" target="_top" xlink:title=" ">
<polygon fill="white" stroke="black" points="175,-114.5 175,-133.5 317,-133.5 317,-114.5 175,-114.5"/>
<text text-anchor="middle" x="246" y="-121.5" font-family="Helvetica,sans-Serif" font-size="10.00">Physics.PhysicsWorld.Test3</text>
</a>
</g>
</g>
<!-- Node3&#45;&gt;Node5 -->
<g id="edge4" class="edge">
<title>Node3&#45;&gt;Node5</title>
<path fill="none" stroke="midnightblue" d="M361.47,-92.76C346.86,-96.8 331.4,-101.06 317,-105 305.71,-108.09 293.38,-111.45 282.26,-114.46"/>
<polygon fill="midnightblue" stroke="midnightblue" points="362.72,-96.04 371.43,-90 360.86,-89.3 362.72,-96.04"/>
</g>
<!-- Node6 -->
<g id="node6" class="node">
<title>Node6</title>
<g id="a_node6"><a xlink:href="class_physics_1_1_physics_world.html#a93898e81cc80ba83e62de6af1cb9f2ab" target="_top" xlink:title=" ">
<polygon fill="white" stroke="black" points="175,-38.5 175,-57.5 317,-57.5 317,-38.5 175,-38.5"/>
<text text-anchor="middle" x="246" y="-45.5" font-family="Helvetica,sans-Serif" font-size="10.00">Physics.PhysicsWorld.Test4</text>
</a>
</g>
</g>
<!-- Node3&#45;&gt;Node6 -->
<g id="edge5" class="edge">
<title>Node3&#45;&gt;Node6</title>
<path fill="none" stroke="midnightblue" d="M342.78,-62.49C331.69,-60.81 320.47,-59.11 309.81,-57.5"/>
<polygon fill="midnightblue" stroke="midnightblue" points="342.49,-65.98 352.9,-64.02 343.53,-59.06 342.49,-65.98"/>
</g>
<!-- Node8 -->
<g id="node8" class="node">
<title>Node8</title>
<g id="a_node8"><a xlink:href="class_physics_1_1_physics_world.html#a3e682ad39d73a462476dcc8cf707b4b7" target="_top" xlink:title=" ">
<polygon fill="white" stroke="black" points="175,-0.5 175,-19.5 317,-19.5 317,-0.5 175,-0.5"/>
<text text-anchor="middle" x="246" y="-7.5" font-family="Helvetica,sans-Serif" font-size="10.00">Physics.PhysicsWorld.Test2</text>
</a>
</g>
</g>
<!-- Node7&#45;&gt;Node8 -->
<g id="edge7" class="edge">
<title>Node7&#45;&gt;Node8</title>
<path fill="none" stroke="midnightblue" d="M342.89,-14.3C334.31,-13.91 325.65,-13.52 317.23,-13.15"/>
<polygon fill="midnightblue" stroke="midnightblue" points="342.75,-17.79 352.9,-14.75 343.06,-10.8 342.75,-17.79"/>
</g>
<!-- Node9 -->
<g id="node9" class="node">
<title>Node9</title>
<g id="a_node9"><a xlink:href="class_physics_1_1_physics_world.html#a8604509cc962bc5d9c3f4089b06f94b2" target="_top" xlink:title=" ">
<polygon fill="white" stroke="black" points="0,-0.5 0,-19.5 139,-19.5 139,-0.5 0,-0.5"/>
<text text-anchor="middle" x="69.5" y="-7.5" font-family="Helvetica,sans-Serif" font-size="10.00">Physics.PhysicsWorld.Start</text>
</a>
</g>
</g>
<!-- Node8&#45;&gt;Node9 -->
<g id="edge8" class="edge">
<title>Node8&#45;&gt;Node9</title>
<path fill="none" stroke="midnightblue" d="M164.51,-10C156.04,-10 147.48,-10 139.16,-10"/>
<polygon fill="midnightblue" stroke="midnightblue" points="164.78,-13.5 174.78,-10 164.78,-6.5 164.78,-13.5"/>
</g>
<!-- Node10&#45;&gt;Node4 -->
<g id="edge11" class="edge">
<title>Node10&#45;&gt;Node4</title>
<path fill="none" stroke="midnightblue" d="M345.11,-106.89C326.74,-102.98 307.86,-98.96 291.63,-95.5"/>
<polygon fill="midnightblue" stroke="midnightblue" points="344.44,-110.32 354.95,-108.98 345.9,-103.48 344.44,-110.32"/>
</g>
<!-- Node10&#45;&gt;Node5 -->
<g id="edge12" class="edge">
<title>Node10&#45;&gt;Node5</title>
<path fill="none" stroke="midnightblue" d="M342.89,-124C334.31,-124 325.65,-124 317.23,-124"/>
<polygon fill="midnightblue" stroke="midnightblue" points="342.9,-127.5 352.9,-124 342.9,-120.5 342.9,-127.5"/>
</g>
<!-- Node11 -->
<g id="node11" class="node">
<title>Node11</title>
<g id="a_node11"><a xlink:href="class_physics_1_1_physics_world.html#adf5c68828b28299a9d85e6dd326a1653" target="_top" xlink:title=" ">
<polygon fill="white" stroke="black" points="175,-152.5 175,-171.5 317,-171.5 317,-152.5 175,-152.5"/>
<text text-anchor="middle" x="246" y="-159.5" font-family="Helvetica,sans-Serif" font-size="10.00">Physics.PhysicsWorld.Test0</text>
</a>
</g>
</g>
<!-- Node10&#45;&gt;Node11 -->
<g id="edge10" class="edge">
<title>Node10&#45;&gt;Node11</title>
<path fill="none" stroke="midnightblue" d="M345.11,-141.11C326.74,-145.02 307.86,-149.04 291.63,-152.5"/>
<polygon fill="midnightblue" stroke="midnightblue" points="345.9,-144.52 354.95,-139.02 344.44,-137.68 345.9,-144.52"/>
</g>
</g>
</svg>
