<?xml version="1.0" encoding="UTF-8" standalone="no"?>
<!DOCTYPE svg PUBLIC "-//W3C//DTD SVG 1.1//EN"
 "http://www.w3.org/Graphics/SVG/1.1/DTD/svg11.dtd">
<!-- Generated by graphviz version 2.50.0 (20211204.2007)
 -->
<!-- Title: Physics.Collision.Model.SimplexEdge.CreateInitEdge Pages: 1 -->
<svg width="373pt" height="88pt"
 viewBox="0.00 0.00 373.00 88.00" xmlns="http://www.w3.org/2000/svg" xmlns:xlink="http://www.w3.org/1999/xlink">
<g id="graph0" class="graph" transform="scale(1 1) rotate(0) translate(4 84)">
<title>Physics.Collision.Model.SimplexEdge.CreateInitEdge</title>
<polygon fill="white" stroke="transparent" points="-4,4 -4,-84 369,-84 369,4 -4,4"/>
<!-- Node1 -->
<g id="node1" class="node">
<title>Node1</title>
<g id="a_node1"><a xlink:title=" ">
<polygon fill="#bfbfbf" stroke="black" points="0,-24.5 0,-54.5 143,-54.5 143,-24.5 0,-24.5"/>
<text text-anchor="start" x="8" y="-42.5" font-family="Helvetica,sans-Serif" font-size="10.00">Physics.Collision.Model.</text>
<text text-anchor="middle" x="71.5" y="-31.5" font-family="Helvetica,sans-Serif" font-size="10.00">SimplexEdge.CreateInitEdge</text>
</a>
</g>
</g>
<!-- Node2 -->
<g id="node2" class="node">
<title>Node2</title>
<g id="a_node2"><a xlink:href="class_physics_1_1_physics_cache_pool.html#a68b6244567d48376ad3a2e5188e73241" target="_top" xlink:title=" ">
<polygon fill="white" stroke="black" points="201.5,-49.5 201.5,-79.5 342.5,-79.5 342.5,-49.5 201.5,-49.5"/>
<text text-anchor="start" x="209.5" y="-67.5" font-family="Helvetica,sans-Serif" font-size="10.00">Physics.PhysicsCachePool.</text>
<text text-anchor="middle" x="272" y="-56.5" font-family="Helvetica,sans-Serif" font-size="10.00">GetEdgeFromPool</text>
</a>
</g>
</g>
<!-- Node1&#45;&gt;Node2 -->
<g id="edge1" class="edge">
<title>Node1&#45;&gt;Node2</title>
<path fill="none" stroke="midnightblue" d="M143.04,-48.38C158.58,-50.34 175.15,-52.43 191.03,-54.43"/>
<polygon fill="midnightblue" stroke="midnightblue" points="190.99,-57.95 201.35,-55.73 191.87,-51.01 190.99,-57.95"/>
</g>
<!-- Node3 -->
<g id="node3" class="node">
<title>Node3</title>
<g id="a_node3"><a xlink:href="class_physics_1_1_physics_tool.html#a2b923d3cf606c6980a6b26c5b7bfc80f" target="_top" xlink:title=" ">
<polygon fill="white" stroke="black" points="179,-0.5 179,-30.5 365,-30.5 365,-0.5 179,-0.5"/>
<text text-anchor="start" x="187" y="-18.5" font-family="Helvetica,sans-Serif" font-size="10.00">Physics.PhysicsTool.GetPerpendicular</text>
<text text-anchor="middle" x="272" y="-7.5" font-family="Helvetica,sans-Serif" font-size="10.00">ToOrigin</text>
</a>
</g>
</g>
<!-- Node1&#45;&gt;Node3 -->
<g id="edge2" class="edge">
<title>Node1&#45;&gt;Node3</title>
<path fill="none" stroke="midnightblue" d="M143.04,-30.97C151.37,-29.96 160,-28.92 168.65,-27.87"/>
<polygon fill="midnightblue" stroke="midnightblue" points="169.31,-31.32 178.81,-26.65 168.47,-24.37 169.31,-31.32"/>
</g>
</g>
</svg>
