<?xml version="1.0" encoding="UTF-8" standalone="no"?>
<!DOCTYPE svg PUBLIC "-//W3C//DTD SVG 1.1//EN"
 "http://www.w3.org/Graphics/SVG/1.1/DTD/svg11.dtd">
<!-- Generated by graphviz version 2.50.0 (20211204.2007)
 -->
<!-- Title: Physics.PhysicsWorld.Start Pages: 1 -->
<!--zoomable 112 -->
<svg id="main" version="1.1" xmlns="http://www.w3.org/2000/svg" xmlns:xlink="http://www.w3.org/1999/xlink" xml:space="preserve" onload="init(evt)">
<style type="text/css"><![CDATA[
.edge:hover path { stroke: red; }
.edge:hover polygon { stroke: red; fill: red; }
]]></style>
<script type="text/javascript"><![CDATA[
var edges = document.getElementsByTagName('g');
if (edges && edges.length) {
  for (var i=0;i<edges.length;i++) {
    if (edges[i].id.substr(0,4)=='edge') {
      edges[i].setAttribute('class','edge');
    }
  }
}
]]></script>
        <defs>
                <circle id="rim" cx="0" cy="0" r="7"/>
                <circle id="rim2" cx="0" cy="0" r="3.5"/>
                <g id="zoomPlus">
                        <use xlink:href="#rim" fill="#404040">
                                <set attributeName="fill" to="#808080" begin="zoomplus.mouseover" end="zoomplus.mouseout"/>
                        </use>
                        <path d="M-4,0h8M0,-4v8" fill="none" stroke="white" stroke-width="1.5" pointer-events="none"/>
                </g>
                <g id="zoomMin">
                        <use xlink:href="#rim" fill="#404040">
                                <set attributeName="fill" to="#808080" begin="zoomminus.mouseover" end="zoomminus.mouseout"/>
                        </use>
                        <path d="M-4,0h8" fill="none" stroke="white" stroke-width="1.5" pointer-events="none"/>
                </g>
                <g id="dirArrow">
                        <path fill="none" stroke="white" stroke-width="1.5" d="M0,-3.0v7 M-2.5,-0.5L0,-3.0L2.5,-0.5"/>
                </g>
               <g id="resetDef">
                       <use xlink:href="#rim2" fill="#404040">
                               <set attributeName="fill" to="#808080" begin="reset.mouseover" end="reset.mouseout"/>
                       </use>
               </g>
        </defs>

<script type="text/javascript">
var viewWidth = 1434;
var viewHeight = 112;
var sectionId = 'dynsection-28';
</script>
<script xlink:href="svgpan.js"/>
<svg id="graph" class="graph">
<g id="viewport">
<title>Physics.PhysicsWorld.Start</title>
<polygon fill="white" stroke="transparent" points="-4,4 -4,-108 1430,-108 1430,4 -4,4"/>
<!-- Node1 -->
<g id="node1" class="node">
<title>Node1</title>
<g id="a_node1"><a xlink:title=" ">
<polygon fill="#bfbfbf" stroke="black" points="0,-32 0,-51 139,-51 139,-32 0,-32"/>
<text text-anchor="middle" x="69.5" y="-39" font-family="Helvetica,sans-Serif" font-size="10.00">Physics.PhysicsWorld.Start</text>
</a>
</g>
</g>
<!-- Node2 -->
<g id="node2" class="node">
<title>Node2</title>
<g id="a_node2"><a xlink:href="class_physics_1_1_physics_world.html#adf5c68828b28299a9d85e6dd326a1653" target="_top" xlink:title=" ">
<polygon fill="white" stroke="black" points="175,-32 175,-51 317,-51 317,-32 175,-32"/>
<text text-anchor="middle" x="246" y="-39" font-family="Helvetica,sans-Serif" font-size="10.00">Physics.PhysicsWorld.Test0</text>
</a>
</g>
</g>
<!-- Node1&#45;&gt;Node2 -->
<g id="edge1" class="edge">
<title>Node1&#45;&gt;Node2</title>
<path fill="none" stroke="midnightblue" d="M139.22,-41.5C147.65,-41.5 156.32,-41.5 164.9,-41.5"/>
<polygon fill="midnightblue" stroke="midnightblue" points="164.91,-45 174.91,-41.5 164.91,-38 164.91,-45"/>
</g>
<!-- Node3 -->
<g id="node3" class="node">
<title>Node3</title>
<g id="a_node3"><a xlink:href="class_physics_1_1_physics_world.html#a54d320d6dc2c69449f0d83f746382a21" target="_top" xlink:title=" ">
<polygon fill="white" stroke="black" points="353,-26.5 353,-56.5 500,-56.5 500,-26.5 353,-26.5"/>
<text text-anchor="start" x="361" y="-44.5" font-family="Helvetica,sans-Serif" font-size="10.00">Physics.PhysicsWorld.Create</text>
<text text-anchor="middle" x="426.5" y="-33.5" font-family="Helvetica,sans-Serif" font-size="10.00">ATestRect</text>
</a>
</g>
</g>
<!-- Node2&#45;&gt;Node3 -->
<g id="edge2" class="edge">
<title>Node2&#45;&gt;Node3</title>
<path fill="none" stroke="midnightblue" d="M317.04,-41.5C325.46,-41.5 334.12,-41.5 342.71,-41.5"/>
<polygon fill="midnightblue" stroke="midnightblue" points="342.73,-45 352.73,-41.5 342.73,-38 342.73,-45"/>
</g>
<!-- Node4 -->
<g id="node4" class="node">
<title>Node4</title>
<g id="a_node4"><a xlink:href="class_physics_1_1_physics_world.html#aaea6390b0eebeeffb2136b97d9e9e9a9" target="_top" xlink:title=" ">
<polygon fill="white" stroke="black" points="554,-48.5 554,-78.5 689,-78.5 689,-48.5 554,-48.5"/>
<text text-anchor="start" x="562" y="-66.5" font-family="Helvetica,sans-Serif" font-size="10.00">Physics.PhysicsWorld.Add</text>
<text text-anchor="middle" x="621.5" y="-55.5" font-family="Helvetica,sans-Serif" font-size="10.00">CollisionObject</text>
</a>
</g>
</g>
<!-- Node3&#45;&gt;Node4 -->
<g id="edge3" class="edge">
<title>Node3&#45;&gt;Node4</title>
<path fill="none" stroke="midnightblue" d="M500.19,-49.79C514.38,-51.4 529.3,-53.1 543.62,-54.74"/>
<polygon fill="midnightblue" stroke="midnightblue" points="543.58,-58.25 553.92,-55.91 544.38,-51.3 543.58,-58.25"/>
</g>
<!-- Node11 -->
<g id="node11" class="node">
<title>Node11</title>
<g id="a_node11"><a xlink:href="class_physics_1_1_physics_world.html#a22b65d699e874d3ec8651ad3cd675814" target="_top" xlink:title=" ">
<polygon fill="white" stroke="black" points="536,-10 536,-29 707,-29 707,-10 536,-10"/>
<text text-anchor="middle" x="621.5" y="-17" font-family="Helvetica,sans-Serif" font-size="10.00">Physics.PhysicsWorld.CreateMesh</text>
</a>
</g>
</g>
<!-- Node3&#45;&gt;Node11 -->
<g id="edge11" class="edge">
<title>Node3&#45;&gt;Node11</title>
<path fill="none" stroke="midnightblue" d="M500.19,-33.21C508.89,-32.22 517.86,-31.2 526.79,-30.18"/>
<polygon fill="midnightblue" stroke="midnightblue" points="527.32,-33.64 536.86,-29.03 526.52,-26.69 527.32,-33.64"/>
</g>
<!-- Node5 -->
<g id="node5" class="node">
<title>Node5</title>
<g id="a_node5"><a xlink:href="class_physics_1_1_collision_1_1_collision_object.html#aec20035d4ece9a46c457cd71761f6c16" target="_top" xlink:title=" ">
<polygon fill="white" stroke="black" points="743,-73.5 743,-103.5 876,-103.5 876,-73.5 743,-73.5"/>
<text text-anchor="start" x="751" y="-91.5" font-family="Helvetica,sans-Serif" font-size="10.00">Physics.Collision.Collision</text>
<text text-anchor="middle" x="809.5" y="-80.5" font-family="Helvetica,sans-Serif" font-size="10.00">Object.GetProjectionPoint</text>
</a>
</g>
</g>
<!-- Node4&#45;&gt;Node5 -->
<g id="edge4" class="edge">
<title>Node4&#45;&gt;Node5</title>
<path fill="none" stroke="midnightblue" d="M689.12,-72.45C703.35,-74.37 718.48,-76.4 733.01,-78.35"/>
<polygon fill="midnightblue" stroke="midnightblue" points="732.59,-81.83 742.96,-79.69 733.52,-74.89 732.59,-81.83"/>
</g>
<!-- Node6 -->
<g id="node6" class="node">
<title>Node6</title>
<g id="a_node6"><a xlink:href="class_physics_1_1_collision_1_1_collision_object.html#a8a0748fa64dc6f65374a9d61e7065da4" target="_top" xlink:title=" ">
<polygon fill="white" stroke="black" points="743,-24.5 743,-54.5 876,-54.5 876,-24.5 743,-24.5"/>
<text text-anchor="start" x="751" y="-42.5" font-family="Helvetica,sans-Serif" font-size="10.00">Physics.Collision.Collision</text>
<text text-anchor="middle" x="809.5" y="-31.5" font-family="Helvetica,sans-Serif" font-size="10.00">Object.InitCollisionObject</text>
</a>
</g>
</g>
<!-- Node4&#45;&gt;Node6 -->
<g id="edge5" class="edge">
<title>Node4&#45;&gt;Node6</title>
<path fill="none" stroke="midnightblue" d="M689.12,-54.9C703.35,-53.07 718.48,-51.12 733.01,-49.24"/>
<polygon fill="midnightblue" stroke="midnightblue" points="733.49,-52.71 742.96,-47.96 732.6,-45.76 733.49,-52.71"/>
</g>
<!-- Node7 -->
<g id="node7" class="node">
<title>Node7</title>
<g id="a_node7"><a xlink:href="class_physics_1_1_collision_1_1_shape_1_1_collision_shape.html#aa2888c2955c43fcd2adb654e88db7183" target="_top" xlink:title=" ">
<polygon fill="white" stroke="black" points="912,-46.5 912,-76.5 1082,-76.5 1082,-46.5 912,-46.5"/>
<text text-anchor="start" x="920" y="-64.5" font-family="Helvetica,sans-Serif" font-size="10.00">Physics.Collision.Shape.</text>
<text text-anchor="middle" x="997" y="-53.5" font-family="Helvetica,sans-Serif" font-size="10.00">CollisionShape.ApplyWorldVertices</text>
</a>
</g>
</g>
<!-- Node6&#45;&gt;Node7 -->
<g id="edge6" class="edge">
<title>Node6&#45;&gt;Node7</title>
<path fill="none" stroke="midnightblue" d="M876.16,-47.29C884.48,-48.27 893.11,-49.3 901.76,-50.32"/>
<polygon fill="midnightblue" stroke="midnightblue" points="901.56,-53.82 911.91,-51.53 902.39,-46.87 901.56,-53.82"/>
</g>
<!-- Node8 -->
<g id="node8" class="node">
<title>Node8</title>
<g id="a_node8"><a xlink:href="class_physics_1_1_collision_1_1_shape_1_1_collision_shape.html#ab236eb056356a1dd7e657c4154a58441" target="_top" xlink:title=" ">
<polygon fill="white" stroke="black" points="1118,-24.5 1118,-54.5 1262,-54.5 1262,-24.5 1118,-24.5"/>
<text text-anchor="start" x="1126" y="-42.5" font-family="Helvetica,sans-Serif" font-size="10.00">Physics.Collision.Shape.</text>
<text text-anchor="middle" x="1190" y="-31.5" font-family="Helvetica,sans-Serif" font-size="10.00">CollisionShape.UpdateShape</text>
</a>
</g>
</g>
<!-- Node6&#45;&gt;Node8 -->
<g id="edge10" class="edge">
<title>Node6&#45;&gt;Node8</title>
<path fill="none" stroke="midnightblue" d="M876.02,-38.02C887.99,-37.8 900.37,-37.61 912,-37.5 987.55,-36.76 1006.45,-36.79 1082,-37.5 1090.35,-37.58 1099.06,-37.69 1107.75,-37.82"/>
<polygon fill="midnightblue" stroke="midnightblue" points="1107.87,-41.32 1117.92,-37.99 1107.98,-34.33 1107.87,-41.32"/>
</g>
<!-- Node7&#45;&gt;Node8 -->
<g id="edge7" class="edge">
<title>Node7&#45;&gt;Node8</title>
<path fill="none" stroke="midnightblue" d="M1082.05,-51.82C1090.52,-50.84 1099.11,-49.85 1107.55,-48.88"/>
<polygon fill="midnightblue" stroke="midnightblue" points="1108.22,-52.33 1117.75,-47.71 1107.42,-45.37 1108.22,-52.33"/>
</g>
<!-- Node9 -->
<g id="node9" class="node">
<title>Node9</title>
<g id="a_node9"><a xlink:href="class_physics_1_1_collision_1_1_model_1_1_a_a_b_b.html#aab605aa58d0da2a571db877bb277f9dc" target="_top" xlink:title=" ">
<polygon fill="white" stroke="black" points="1299.5,-49.5 1299.5,-79.5 1424.5,-79.5 1424.5,-49.5 1299.5,-49.5"/>
<text text-anchor="start" x="1307.5" y="-67.5" font-family="Helvetica,sans-Serif" font-size="10.00">Physics.Collision.Model.</text>
<text text-anchor="middle" x="1362" y="-56.5" font-family="Helvetica,sans-Serif" font-size="10.00">AABB.Apply</text>
</a>
</g>
</g>
<!-- Node8&#45;&gt;Node9 -->
<g id="edge8" class="edge">
<title>Node8&#45;&gt;Node9</title>
<path fill="none" stroke="midnightblue" d="M1262.11,-49.96C1271.1,-51.28 1280.3,-52.63 1289.3,-53.96"/>
<polygon fill="midnightblue" stroke="midnightblue" points="1288.95,-57.44 1299.36,-55.43 1289.97,-50.52 1288.95,-57.44"/>
</g>
<!-- Node10 -->
<g id="node10" class="node">
<title>Node10</title>
<g id="a_node10"><a xlink:href="class_physics_1_1_collision_1_1_shape_1_1_collision_shape.html#af5247f1c8125a229c2be17f898608269" target="_top" xlink:title=" ">
<polygon fill="white" stroke="black" points="1298,-0.5 1298,-30.5 1426,-30.5 1426,-0.5 1298,-0.5"/>
<text text-anchor="start" x="1306" y="-18.5" font-family="Helvetica,sans-Serif" font-size="10.00">Physics.Collision.Shape.</text>
<text text-anchor="middle" x="1362" y="-7.5" font-family="Helvetica,sans-Serif" font-size="10.00">CollisionShape.GetBound</text>
</a>
</g>
</g>
<!-- Node8&#45;&gt;Node10 -->
<g id="edge9" class="edge">
<title>Node8&#45;&gt;Node10</title>
<path fill="none" stroke="midnightblue" d="M1262.11,-29.46C1270.61,-28.26 1279.3,-27.03 1287.83,-25.83"/>
<polygon fill="midnightblue" stroke="midnightblue" points="1288.34,-29.29 1297.75,-24.43 1287.36,-22.36 1288.34,-29.29"/>
</g>
</g>
</svg>
        <g id="navigator" transform="translate(0 0)" fill="#404254">
                <rect fill="#f2f5e9" fill-opacity="0.5" stroke="#606060" stroke-width=".5" x="0" y="0" width="60" height="60"/>
                <use id="zoomplus" xlink:href="#zoomPlus" x="17" y="9" onmousedown="handleZoom(evt,'in')"/>
                <use id="zoomminus" xlink:href="#zoomMin" x="42" y="9" onmousedown="handleZoom(evt,'out')"/>
                <use id="reset" xlink:href="#resetDef" x="30" y="36" onmousedown="handleReset()"/>
                <g id="arrowUp" xlink:href="#dirArrow" transform="translate(30 24)" onmousedown="handlePan(0,-1)">
                  <use xlink:href="#rim" fill="#404040">
                        <set attributeName="fill" to="#808080" begin="arrowUp.mouseover" end="arrowUp.mouseout"/>
                  </use>
                  <path fill="none" stroke="white" stroke-width="1.5" d="M0,-3.0v7 M-2.5,-0.5L0,-3.0L2.5,-0.5"/>
                </g>
                <g id="arrowRight" xlink:href="#dirArrow" transform="rotate(90) translate(36 -43)" onmousedown="handlePan(1,0)">
                  <use xlink:href="#rim" fill="#404040">
                        <set attributeName="fill" to="#808080" begin="arrowRight.mouseover" end="arrowRight.mouseout"/>
                  </use>
                  <path fill="none" stroke="white" stroke-width="1.5" d="M0,-3.0v7 M-2.5,-0.5L0,-3.0L2.5,-0.5"/>
                </g>
                <g id="arrowDown" xlink:href="#dirArrow" transform="rotate(180) translate(-30 -48)" onmousedown="handlePan(0,1)">
                  <use xlink:href="#rim" fill="#404040">
                        <set attributeName="fill" to="#808080" begin="arrowDown.mouseover" end="arrowDown.mouseout"/>
                  </use>
                  <path fill="none" stroke="white" stroke-width="1.5" d="M0,-3.0v7 M-2.5,-0.5L0,-3.0L2.5,-0.5"/>
                </g>
                <g id="arrowLeft" xlink:href="#dirArrow" transform="rotate(270) translate(-36 17)" onmousedown="handlePan(-1,0)">
                  <use xlink:href="#rim" fill="#404040">
                        <set attributeName="fill" to="#808080" begin="arrowLeft.mouseover" end="arrowLeft.mouseout"/>
                  </use>
                  <path fill="none" stroke="white" stroke-width="1.5" d="M0,-3.0v7 M-2.5,-0.5L0,-3.0L2.5,-0.5"/>
                </g>
        </g>
        <svg viewBox="0 0 15 15" width="100%" height="30px" preserveAspectRatio="xMaxYMin meet">
         <g id="arrow_out" transform="scale(0.3 0.3)">
          <a xlink:href="class_physics_1_1_physics_world_a8604509cc962bc5d9c3f4089b06f94b2_cgraph_org.svg" target="_base">
           <rect id="button" ry="5" rx="5" y="6" x="6" height="38" width="38"
                fill="#f2f5e9" fill-opacity="0.5" stroke="#606060" stroke-width="1.0"/>
           <path id="arrow"
             d="M 11.500037,31.436501 C 11.940474,20.09759 22.043105,11.32322 32.158766,21.979434 L 37.068811,17.246167 C 37.068811,17.246167 37.088388,32 37.088388,32 L 22.160133,31.978069 C 22.160133,31.978069 26.997745,27.140456 26.997745,27.140456 C 18.528582,18.264221 13.291696,25.230495 11.500037,31.436501 z"
             style="fill:#404040;"/>
          </a>
         </g>
        </svg>
</svg>
