<?xml version="1.0" encoding="UTF-8" standalone="no"?>
<!DOCTYPE svg PUBLIC "-//W3C//DTD SVG 1.1//EN"
 "http://www.w3.org/Graphics/SVG/1.1/DTD/svg11.dtd">
<!-- Generated by graphviz version 2.50.0 (20211204.2007)
 -->
<!-- Title: Physics.Collision.CollisionObject.InitCollisionObject Pages: 1 -->
<svg width="691pt" height="88pt"
 viewBox="0.00 0.00 691.00 88.00" xmlns="http://www.w3.org/2000/svg" xmlns:xlink="http://www.w3.org/1999/xlink">
<g id="graph0" class="graph" transform="scale(1 1) rotate(0) translate(4 84)">
<title>Physics.Collision.CollisionObject.InitCollisionObject</title>
<polygon fill="white" stroke="transparent" points="-4,4 -4,-84 687,-84 687,4 -4,4"/>
<!-- Node1 -->
<g id="node1" class="node">
<title>Node1</title>
<g id="a_node1"><a xlink:title=" ">
<polygon fill="#bfbfbf" stroke="black" points="0,-24.5 0,-54.5 133,-54.5 133,-24.5 0,-24.5"/>
<text text-anchor="start" x="8" y="-42.5" font-family="Helvetica,sans-Serif" font-size="10.00">Physics.Collision.Collision</text>
<text text-anchor="middle" x="66.5" y="-31.5" font-family="Helvetica,sans-Serif" font-size="10.00">Object.InitCollisionObject</text>
</a>
</g>
</g>
<!-- Node2 -->
<g id="node2" class="node">
<title>Node2</title>
<g id="a_node2"><a xlink:href="class_physics_1_1_collision_1_1_shape_1_1_collision_shape.html#aa2888c2955c43fcd2adb654e88db7183" target="_top" xlink:title=" ">
<polygon fill="white" stroke="black" points="169,-46.5 169,-76.5 339,-76.5 339,-46.5 169,-46.5"/>
<text text-anchor="start" x="177" y="-64.5" font-family="Helvetica,sans-Serif" font-size="10.00">Physics.Collision.Shape.</text>
<text text-anchor="middle" x="254" y="-53.5" font-family="Helvetica,sans-Serif" font-size="10.00">CollisionShape.ApplyWorldVertices</text>
</a>
</g>
</g>
<!-- Node1&#45;&gt;Node2 -->
<g id="edge1" class="edge">
<title>Node1&#45;&gt;Node2</title>
<path fill="none" stroke="midnightblue" d="M133.16,-47.29C141.48,-48.27 150.11,-49.3 158.76,-50.32"/>
<polygon fill="midnightblue" stroke="midnightblue" points="158.56,-53.82 168.91,-51.53 159.39,-46.87 158.56,-53.82"/>
</g>
<!-- Node3 -->
<g id="node3" class="node">
<title>Node3</title>
<g id="a_node3"><a xlink:href="class_physics_1_1_collision_1_1_shape_1_1_collision_shape.html#ab236eb056356a1dd7e657c4154a58441" target="_top" xlink:title=" ">
<polygon fill="white" stroke="black" points="375,-24.5 375,-54.5 519,-54.5 519,-24.5 375,-24.5"/>
<text text-anchor="start" x="383" y="-42.5" font-family="Helvetica,sans-Serif" font-size="10.00">Physics.Collision.Shape.</text>
<text text-anchor="middle" x="447" y="-31.5" font-family="Helvetica,sans-Serif" font-size="10.00">CollisionShape.UpdateShape</text>
</a>
</g>
</g>
<!-- Node1&#45;&gt;Node3 -->
<g id="edge5" class="edge">
<title>Node1&#45;&gt;Node3</title>
<path fill="none" stroke="midnightblue" d="M133.02,-38.02C144.99,-37.8 157.37,-37.61 169,-37.5 244.55,-36.76 263.45,-36.79 339,-37.5 347.35,-37.58 356.06,-37.69 364.75,-37.82"/>
<polygon fill="midnightblue" stroke="midnightblue" points="364.87,-41.32 374.92,-37.99 364.98,-34.33 364.87,-41.32"/>
</g>
<!-- Node2&#45;&gt;Node3 -->
<g id="edge2" class="edge">
<title>Node2&#45;&gt;Node3</title>
<path fill="none" stroke="midnightblue" d="M339.05,-51.82C347.52,-50.84 356.11,-49.85 364.55,-48.88"/>
<polygon fill="midnightblue" stroke="midnightblue" points="365.22,-52.33 374.75,-47.71 364.42,-45.37 365.22,-52.33"/>
</g>
<!-- Node4 -->
<g id="node4" class="node">
<title>Node4</title>
<g id="a_node4"><a xlink:href="class_physics_1_1_collision_1_1_model_1_1_a_a_b_b.html#aab605aa58d0da2a571db877bb277f9dc" target="_top" xlink:title=" ">
<polygon fill="white" stroke="black" points="556.5,-49.5 556.5,-79.5 681.5,-79.5 681.5,-49.5 556.5,-49.5"/>
<text text-anchor="start" x="564.5" y="-67.5" font-family="Helvetica,sans-Serif" font-size="10.00">Physics.Collision.Model.</text>
<text text-anchor="middle" x="619" y="-56.5" font-family="Helvetica,sans-Serif" font-size="10.00">AABB.Apply</text>
</a>
</g>
</g>
<!-- Node3&#45;&gt;Node4 -->
<g id="edge3" class="edge">
<title>Node3&#45;&gt;Node4</title>
<path fill="none" stroke="midnightblue" d="M519.11,-49.96C528.1,-51.28 537.3,-52.63 546.3,-53.96"/>
<polygon fill="midnightblue" stroke="midnightblue" points="545.95,-57.44 556.36,-55.43 546.97,-50.52 545.95,-57.44"/>
</g>
<!-- Node5 -->
<g id="node5" class="node">
<title>Node5</title>
<g id="a_node5"><a xlink:href="class_physics_1_1_collision_1_1_shape_1_1_collision_shape.html#af5247f1c8125a229c2be17f898608269" target="_top" xlink:title=" ">
<polygon fill="white" stroke="black" points="555,-0.5 555,-30.5 683,-30.5 683,-0.5 555,-0.5"/>
<text text-anchor="start" x="563" y="-18.5" font-family="Helvetica,sans-Serif" font-size="10.00">Physics.Collision.Shape.</text>
<text text-anchor="middle" x="619" y="-7.5" font-family="Helvetica,sans-Serif" font-size="10.00">CollisionShape.GetBound</text>
</a>
</g>
</g>
<!-- Node3&#45;&gt;Node5 -->
<g id="edge4" class="edge">
<title>Node3&#45;&gt;Node5</title>
<path fill="none" stroke="midnightblue" d="M519.11,-29.46C527.61,-28.26 536.3,-27.03 544.83,-25.83"/>
<polygon fill="midnightblue" stroke="midnightblue" points="545.34,-29.29 554.75,-24.43 544.36,-22.36 545.34,-29.29"/>
</g>
</g>
</svg>
