<?xml version="1.0" encoding="UTF-8" standalone="no"?>
<!DOCTYPE svg PUBLIC "-//W3C//DTD SVG 1.1//EN"
 "http://www.w3.org/Graphics/SVG/1.1/DTD/svg11.dtd">
<!-- Generated by graphviz version 2.50.0 (20211204.2007)
 -->
<!-- Title: Physics.Collision.Model.SimplexEdge.InsertEdgePoint Pages: 1 -->
<svg width="522pt" height="161pt"
 viewBox="0.00 0.00 522.00 161.00" xmlns="http://www.w3.org/2000/svg" xmlns:xlink="http://www.w3.org/1999/xlink">
<g id="graph0" class="graph" transform="scale(1 1) rotate(0) translate(4 157)">
<title>Physics.Collision.Model.SimplexEdge.InsertEdgePoint</title>
<polygon fill="white" stroke="transparent" points="-4,4 -4,-157 518,-157 518,4 -4,4"/>
<!-- Node1 -->
<g id="node1" class="node">
<title>Node1</title>
<g id="a_node1"><a xlink:title=" ">
<polygon fill="#bfbfbf" stroke="black" points="0,-49.5 0,-79.5 147,-79.5 147,-49.5 0,-49.5"/>
<text text-anchor="start" x="8" y="-67.5" font-family="Helvetica,sans-Serif" font-size="10.00">Physics.Collision.Model.</text>
<text text-anchor="middle" x="73.5" y="-56.5" font-family="Helvetica,sans-Serif" font-size="10.00">SimplexEdge.InsertEdgePoint</text>
</a>
</g>
</g>
<!-- Node2 -->
<g id="node2" class="node">
<title>Node2</title>
<g id="a_node2"><a xlink:href="class_physics_1_1_collision_1_1_model_1_1_simplex_edge.html#a46b8494a6a6088235c2b1bb272cdb8ba" target="_top" xlink:title=" ">
<polygon fill="white" stroke="black" points="196,-98.5 196,-128.5 325,-128.5 325,-98.5 196,-98.5"/>
<text text-anchor="start" x="204" y="-116.5" font-family="Helvetica,sans-Serif" font-size="10.00">Physics.Collision.Model.</text>
<text text-anchor="middle" x="260.5" y="-105.5" font-family="Helvetica,sans-Serif" font-size="10.00">SimplexEdge.CreateEdge</text>
</a>
</g>
</g>
<!-- Node1&#45;&gt;Node2 -->
<g id="edge1" class="edge">
<title>Node1&#45;&gt;Node2</title>
<path fill="none" stroke="midnightblue" d="M131.26,-79.53C150.8,-84.71 172.84,-90.55 193.08,-95.91"/>
<polygon fill="midnightblue" stroke="midnightblue" points="192.28,-99.32 202.84,-98.49 194.07,-92.55 192.28,-99.32"/>
</g>
<!-- Node5 -->
<g id="node5" class="node">
<title>Node5</title>
<g id="a_node5"><a xlink:href="class_physics_1_1_tool_1_1_physics_cache_pool.html#a40a29873272825581e5d87a82b737e0f" target="_top" xlink:title=" ">
<polygon fill="white" stroke="black" points="190.5,-49.5 190.5,-79.5 330.5,-79.5 330.5,-49.5 190.5,-49.5"/>
<text text-anchor="start" x="198.5" y="-67.5" font-family="Helvetica,sans-Serif" font-size="10.00">Physics.Tool.PhysicsCache</text>
<text text-anchor="middle" x="260.5" y="-56.5" font-family="Helvetica,sans-Serif" font-size="10.00">Pool.RecycleEdge</text>
</a>
</g>
</g>
<!-- Node1&#45;&gt;Node5 -->
<g id="edge4" class="edge">
<title>Node1&#45;&gt;Node5</title>
<path fill="none" stroke="midnightblue" d="M147.09,-64.5C158.01,-64.5 169.33,-64.5 180.39,-64.5"/>
<polygon fill="midnightblue" stroke="midnightblue" points="180.45,-68 190.45,-64.5 180.45,-61 180.45,-68"/>
</g>
<!-- Node6 -->
<g id="node6" class="node">
<title>Node6</title>
<g id="a_node6"><a xlink:href="class_physics_1_1_collision_1_1_model_1_1_simplex_edge.html#a536f768434ce96fc78fe67adf4e0c9ed" target="_top" xlink:title=" ">
<polygon fill="white" stroke="black" points="183,-0.5 183,-30.5 338,-30.5 338,-0.5 183,-0.5"/>
<text text-anchor="start" x="191" y="-18.5" font-family="Helvetica,sans-Serif" font-size="10.00">Physics.Collision.Model.</text>
<text text-anchor="middle" x="260.5" y="-7.5" font-family="Helvetica,sans-Serif" font-size="10.00">SimplexEdge.UpdateEdgeIndex</text>
</a>
</g>
</g>
<!-- Node1&#45;&gt;Node6 -->
<g id="edge5" class="edge">
<title>Node1&#45;&gt;Node6</title>
<path fill="none" stroke="midnightblue" d="M131.26,-49.47C150.8,-44.29 172.84,-38.45 193.08,-33.09"/>
<polygon fill="midnightblue" stroke="midnightblue" points="194.07,-36.45 202.84,-30.51 192.28,-29.68 194.07,-36.45"/>
</g>
<!-- Node3 -->
<g id="node3" class="node">
<title>Node3</title>
<g id="a_node3"><a xlink:href="class_physics_1_1_tool_1_1_physics_cache_pool.html#a5632346a5a6c8029427ce1ec41cc1edc" target="_top" xlink:title=" ">
<polygon fill="white" stroke="black" points="374,-122.5 374,-152.5 514,-152.5 514,-122.5 374,-122.5"/>
<text text-anchor="start" x="382" y="-140.5" font-family="Helvetica,sans-Serif" font-size="10.00">Physics.Tool.PhysicsCache</text>
<text text-anchor="middle" x="444" y="-129.5" font-family="Helvetica,sans-Serif" font-size="10.00">Pool.GetEdgeFromPool</text>
</a>
</g>
</g>
<!-- Node2&#45;&gt;Node3 -->
<g id="edge2" class="edge">
<title>Node2&#45;&gt;Node3</title>
<path fill="none" stroke="midnightblue" d="M325.23,-121.93C337.65,-123.57 350.8,-125.31 363.65,-127.01"/>
<polygon fill="midnightblue" stroke="midnightblue" points="363.49,-130.52 373.86,-128.36 364.4,-123.58 363.49,-130.52"/>
</g>
<!-- Node4 -->
<g id="node4" class="node">
<title>Node4</title>
<g id="a_node4"><a xlink:href="class_physics_1_1_tool_1_1_physics_tool.html#ae7347b7ed11fb2a7a4e78afe07d8a4d2" target="_top" xlink:title=" ">
<polygon fill="white" stroke="black" points="378,-73.5 378,-103.5 510,-103.5 510,-73.5 378,-73.5"/>
<text text-anchor="start" x="386" y="-91.5" font-family="Helvetica,sans-Serif" font-size="10.00">Physics.Tool.PhysicsTool.</text>
<text text-anchor="middle" x="444" y="-80.5" font-family="Helvetica,sans-Serif" font-size="10.00">GetPerpendicularToOrigin</text>
</a>
</g>
</g>
<!-- Node2&#45;&gt;Node4 -->
<g id="edge3" class="edge">
<title>Node2&#45;&gt;Node4</title>
<path fill="none" stroke="midnightblue" d="M325.23,-104.72C338.96,-102.83 353.59,-100.81 367.71,-98.87"/>
<polygon fill="midnightblue" stroke="midnightblue" points="368.45,-102.3 377.88,-97.47 367.5,-95.37 368.45,-102.3"/>
</g>
</g>
</svg>
