<?xml version="1.0" encoding="UTF-8" standalone="no"?>
<!DOCTYPE svg PUBLIC "-//W3C//DTD SVG 1.1//EN"
 "http://www.w3.org/Graphics/SVG/1.1/DTD/svg11.dtd">
<!-- Generated by graphviz version 2.50.0 (20211204.2007)
 -->
<!-- Title: Physics.PhysicsWorld.GJK Pages: 1 -->
<svg width="530pt" height="220pt"
 viewBox="0.00 0.00 530.00 220.00" xmlns="http://www.w3.org/2000/svg" xmlns:xlink="http://www.w3.org/1999/xlink">
<g id="graph0" class="graph" transform="scale(1 1) rotate(0) translate(4 216)">
<title>Physics.PhysicsWorld.GJK</title>
<polygon fill="white" stroke="transparent" points="-4,4 -4,-216 526,-216 526,4 -4,4"/>
<!-- Node1 -->
<g id="node1" class="node">
<title>Node1</title>
<g id="a_node1"><a xlink:title=" ">
<polygon fill="#bfbfbf" stroke="black" points="0,-94 0,-113 137,-113 137,-94 0,-94"/>
<text text-anchor="middle" x="68.5" y="-101" font-family="Helvetica,sans-Serif" font-size="10.00">Physics.PhysicsWorld.GJK</text>
</a>
</g>
</g>
<!-- Node2 -->
<g id="node2" class="node">
<title>Node2</title>
<g id="a_node2"><a xlink:href="class_physics_1_1_physics_world.html#adf7766abbfb94bb041d38b3d7209dcba" target="_top" xlink:title=" ">
<polygon fill="white" stroke="black" points="180.5,-181.5 180.5,-211.5 317.5,-211.5 317.5,-181.5 180.5,-181.5"/>
<text text-anchor="start" x="188.5" y="-199.5" font-family="Helvetica,sans-Serif" font-size="10.00">Physics.PhysicsWorld.Find</text>
<text text-anchor="middle" x="249" y="-188.5" font-family="Helvetica,sans-Serif" font-size="10.00">FirstDirection</text>
</a>
</g>
</g>
<!-- Node1&#45;&gt;Node2 -->
<g id="edge1" class="edge">
<title>Node1&#45;&gt;Node2</title>
<path fill="none" stroke="midnightblue" d="M81.57,-113.19C100.22,-127.77 137.59,-155.44 173,-172.5 176.81,-174.34 180.8,-176.08 184.86,-177.72"/>
<polygon fill="midnightblue" stroke="midnightblue" points="183.84,-181.08 194.43,-181.38 186.34,-174.54 183.84,-181.08"/>
</g>
<!-- Node3 -->
<g id="node3" class="node">
<title>Node3</title>
<g id="a_node3"><a xlink:href="class_physics_1_1_physics_world.html#a5ea0895316da17449ff1352e2610ba59" target="_top" xlink:title=" ">
<polygon fill="white" stroke="black" points="180.5,-132.5 180.5,-162.5 317.5,-162.5 317.5,-132.5 180.5,-132.5"/>
<text text-anchor="start" x="188.5" y="-150.5" font-family="Helvetica,sans-Serif" font-size="10.00">Physics.PhysicsWorld.Find</text>
<text text-anchor="middle" x="249" y="-139.5" font-family="Helvetica,sans-Serif" font-size="10.00">NextDirection</text>
</a>
</g>
</g>
<!-- Node1&#45;&gt;Node3 -->
<g id="edge2" class="edge">
<title>Node1&#45;&gt;Node3</title>
<path fill="none" stroke="midnightblue" d="M108.23,-113.05C128.33,-118 153.52,-124.21 176.96,-129.99"/>
<polygon fill="midnightblue" stroke="midnightblue" points="176.34,-133.44 186.88,-132.43 178.01,-126.64 176.34,-133.44"/>
</g>
<!-- Node4 -->
<g id="node4" class="node">
<title>Node4</title>
<g id="a_node4"><a xlink:href="class_physics_1_1_physics_tool.html#a76623f29e2f14991ed006a429914f55a" target="_top" xlink:title=" ">
<polygon fill="white" stroke="black" points="361,-110.5 361,-140.5 522,-140.5 522,-110.5 361,-110.5"/>
<text text-anchor="start" x="369" y="-128.5" font-family="Helvetica,sans-Serif" font-size="10.00">Physics.PhysicsTool.GetClosest</text>
<text text-anchor="middle" x="441.5" y="-117.5" font-family="Helvetica,sans-Serif" font-size="10.00">PointToOrigin</text>
</a>
</g>
</g>
<!-- Node1&#45;&gt;Node4 -->
<g id="edge4" class="edge">
<title>Node1&#45;&gt;Node4</title>
<path fill="none" stroke="midnightblue" d="M137.12,-107.51C196.93,-111.06 284.67,-116.26 350.42,-120.16"/>
<polygon fill="midnightblue" stroke="midnightblue" points="350.59,-123.67 360.78,-120.77 351,-116.69 350.59,-123.67"/>
</g>
<!-- Node5 -->
<g id="node5" class="node">
<title>Node5</title>
<g id="a_node5"><a xlink:href="class_physics_1_1_physics_tool.html#a87ade42d134664139753a2fe7da7e7a9" target="_top" xlink:title="检查点是否在三角形内">
<polygon fill="white" stroke="black" points="178,-44.5 178,-74.5 320,-74.5 320,-44.5 178,-44.5"/>
<text text-anchor="start" x="186" y="-62.5" font-family="Helvetica,sans-Serif" font-size="10.00">Physics.PhysicsTool.IsPoint</text>
<text text-anchor="middle" x="249" y="-51.5" font-family="Helvetica,sans-Serif" font-size="10.00">InTriangle</text>
</a>
</g>
</g>
<!-- Node1&#45;&gt;Node5 -->
<g id="edge5" class="edge">
<title>Node1&#45;&gt;Node5</title>
<path fill="none" stroke="midnightblue" d="M108.23,-93.95C128.33,-89 153.52,-82.79 176.96,-77.01"/>
<polygon fill="midnightblue" stroke="midnightblue" points="178.01,-80.36 186.88,-74.57 176.34,-73.56 178.01,-80.36"/>
</g>
<!-- Node6 -->
<g id="node6" class="node">
<title>Node6</title>
<g id="a_node6"><a xlink:href="class_physics_1_1_physics_world.html#af1aadffc2ad0f1b13391fe5eb1f4e703" target="_top" xlink:title=" ">
<polygon fill="white" stroke="black" points="173,-6 173,-25 325,-25 325,-6 173,-6"/>
<text text-anchor="middle" x="249" y="-13" font-family="Helvetica,sans-Serif" font-size="10.00">Physics.PhysicsWorld.Support</text>
</a>
</g>
</g>
<!-- Node1&#45;&gt;Node6 -->
<g id="edge6" class="edge">
<title>Node1&#45;&gt;Node6</title>
<path fill="none" stroke="midnightblue" d="M81.14,-93.78C99.51,-78.91 136.88,-50.54 173,-34.5 178.43,-32.09 184.21,-29.94 190.08,-28.05"/>
<polygon fill="midnightblue" stroke="midnightblue" points="191.39,-31.31 199.97,-25.08 189.38,-24.6 191.39,-31.31"/>
</g>
<!-- Node3&#45;&gt;Node4 -->
<g id="edge3" class="edge">
<title>Node3&#45;&gt;Node4</title>
<path fill="none" stroke="midnightblue" d="M317.7,-139.68C328.43,-138.44 339.66,-137.15 350.8,-135.86"/>
<polygon fill="midnightblue" stroke="midnightblue" points="351.44,-139.31 360.98,-134.68 350.64,-132.35 351.44,-139.31"/>
</g>
<!-- Node7 -->
<g id="node7" class="node">
<title>Node7</title>
<g id="a_node7"><a xlink:href="class_physics_1_1_collision_1_1_collision_object.html#a28cc343d91add7b15402133b83d76b27" target="_top" xlink:title=" ">
<polygon fill="white" stroke="black" points="370,-0.5 370,-30.5 513,-30.5 513,-0.5 370,-0.5"/>
<text text-anchor="start" x="378" y="-18.5" font-family="Helvetica,sans-Serif" font-size="10.00">Physics.Collision.Collision</text>
<text text-anchor="middle" x="441.5" y="-7.5" font-family="Helvetica,sans-Serif" font-size="10.00">Object.GetFarthestPointInDir</text>
</a>
</g>
</g>
<!-- Node6&#45;&gt;Node7 -->
<g id="edge7" class="edge">
<title>Node6&#45;&gt;Node7</title>
<path fill="none" stroke="midnightblue" d="M325.02,-15.5C336.45,-15.5 348.3,-15.5 359.85,-15.5"/>
<polygon fill="midnightblue" stroke="midnightblue" points="359.9,-19 369.9,-15.5 359.9,-12 359.9,-19"/>
</g>
</g>
</svg>
