<?xml version="1.0" encoding="UTF-8" standalone="no"?>
<!DOCTYPE svg PUBLIC "-//W3C//DTD SVG 1.1//EN"
 "http://www.w3.org/Graphics/SVG/1.1/DTD/svg11.dtd">
<!-- Generated by graphviz version 2.50.0 (20211204.2007)
 -->
<!-- Title: Physics.Collision.Shape.CollisionShape.ApplyWorldVertices Pages: 1 -->
<!--zoomable 218 -->
<svg id="main" version="1.1" xmlns="http://www.w3.org/2000/svg" xmlns:xlink="http://www.w3.org/1999/xlink" xml:space="preserve" onload="init(evt)">
<style type="text/css"><![CDATA[
.edge:hover path { stroke: red; }
.edge:hover polygon { stroke: red; fill: red; }
]]></style>
<script type="text/javascript"><![CDATA[
var edges = document.getElementsByTagName('g');
if (edges && edges.length) {
  for (var i=0;i<edges.length;i++) {
    if (edges[i].id.substr(0,4)=='edge') {
      edges[i].setAttribute('class','edge');
    }
  }
}
]]></script>
        <defs>
                <circle id="rim" cx="0" cy="0" r="7"/>
                <circle id="rim2" cx="0" cy="0" r="3.5"/>
                <g id="zoomPlus">
                        <use xlink:href="#rim" fill="#404040">
                                <set attributeName="fill" to="#808080" begin="zoomplus.mouseover" end="zoomplus.mouseout"/>
                        </use>
                        <path d="M-4,0h8M0,-4v8" fill="none" stroke="white" stroke-width="1.5" pointer-events="none"/>
                </g>
                <g id="zoomMin">
                        <use xlink:href="#rim" fill="#404040">
                                <set attributeName="fill" to="#808080" begin="zoomminus.mouseover" end="zoomminus.mouseout"/>
                        </use>
                        <path d="M-4,0h8" fill="none" stroke="white" stroke-width="1.5" pointer-events="none"/>
                </g>
                <g id="dirArrow">
                        <path fill="none" stroke="white" stroke-width="1.5" d="M0,-3.0v7 M-2.5,-0.5L0,-3.0L2.5,-0.5"/>
                </g>
               <g id="resetDef">
                       <use xlink:href="#rim2" fill="#404040">
                               <set attributeName="fill" to="#808080" begin="reset.mouseover" end="reset.mouseout"/>
                       </use>
               </g>
        </defs>

<script type="text/javascript">
var viewWidth = 1069;
var viewHeight = 218;
var sectionId = 'dynsection-3';
</script>
<script xlink:href="svgpan.js"/>
<svg id="graph" class="graph">
<g id="viewport">
<title>Physics.Collision.Shape.CollisionShape.ApplyWorldVertices</title>
<polygon fill="white" stroke="transparent" points="-4,4 -4,-214 1065,-214 1065,4 -4,4"/>
<!-- Node1 -->
<g id="node1" class="node">
<title>Node1</title>
<g id="a_node1"><a xlink:title=" ">
<polygon fill="#bfbfbf" stroke="black" points="891,-128 891,-158 1061,-158 1061,-128 891,-128"/>
<text text-anchor="start" x="899" y="-146" font-family="Helvetica,sans-Serif" font-size="10.00">Physics.Collision.Shape.</text>
<text text-anchor="middle" x="976" y="-135" font-family="Helvetica,sans-Serif" font-size="10.00">CollisionShape.ApplyWorldVertices</text>
</a>
</g>
</g>
<!-- Node2 -->
<g id="node2" class="node">
<title>Node2</title>
<g id="a_node2"><a xlink:href="class_physics_1_1_collision_1_1_collision_object.html#a08bb2ab0fee9cf7f7b6af438d3b2d1db" target="_top" xlink:title=" ">
<polygon fill="white" stroke="black" points="722,-153 722,-183 855,-183 855,-153 722,-153"/>
<text text-anchor="start" x="730" y="-171" font-family="Helvetica,sans-Serif" font-size="10.00">Physics.Collision.Collision</text>
<text text-anchor="middle" x="788.5" y="-160" font-family="Helvetica,sans-Serif" font-size="10.00">Object.ApplyPosition</text>
</a>
</g>
</g>
<!-- Node1&#45;&gt;Node2 -->
<g id="edge1" class="edge">
<title>Node1&#45;&gt;Node2</title>
<path fill="none" stroke="midnightblue" d="M880.8,-155.7C872.15,-156.86 863.52,-158.02 855.21,-159.14"/>
<polygon fill="midnightblue" stroke="midnightblue" points="881.49,-159.13 890.93,-154.33 880.56,-152.2 881.49,-159.13"/>
</g>
<!-- Node6 -->
<g id="node6" class="node">
<title>Node6</title>
<g id="a_node6"><a xlink:href="class_physics_1_1_collision_1_1_collision_object.html#a8a0748fa64dc6f65374a9d61e7065da4" target="_top" xlink:title=" ">
<polygon fill="white" stroke="black" points="722,-104 722,-134 855,-134 855,-104 722,-104"/>
<text text-anchor="start" x="730" y="-122" font-family="Helvetica,sans-Serif" font-size="10.00">Physics.Collision.Collision</text>
<text text-anchor="middle" x="788.5" y="-111" font-family="Helvetica,sans-Serif" font-size="10.00">Object.InitCollisionObject</text>
</a>
</g>
</g>
<!-- Node1&#45;&gt;Node6 -->
<g id="edge5" class="edge">
<title>Node1&#45;&gt;Node6</title>
<path fill="none" stroke="midnightblue" d="M880.8,-130.81C872.15,-129.69 863.52,-128.58 855.21,-127.5"/>
<polygon fill="midnightblue" stroke="midnightblue" points="880.57,-134.31 890.93,-132.12 881.47,-127.37 880.57,-134.31"/>
</g>
<!-- Node3 -->
<g id="node3" class="node">
<title>Node3</title>
<g id="a_node3"><a xlink:href="class_physics_1_1_physics_world.html#ab2cb96f774604513627f530a712e9003" target="_top" xlink:title=" ">
<polygon fill="white" stroke="black" points="543,-164 543,-194 686,-194 686,-164 543,-164"/>
<text text-anchor="start" x="551" y="-182" font-family="Helvetica,sans-Serif" font-size="10.00">Physics.PhysicsWorld.Apply</text>
<text text-anchor="middle" x="614.5" y="-171" font-family="Helvetica,sans-Serif" font-size="10.00">Velocity</text>
</a>
</g>
</g>
<!-- Node2&#45;&gt;Node3 -->
<g id="edge2" class="edge">
<title>Node2&#45;&gt;Node3</title>
<path fill="none" stroke="midnightblue" d="M711.75,-172.84C703.28,-173.39 694.68,-173.94 686.28,-174.47"/>
<polygon fill="midnightblue" stroke="midnightblue" points="712.23,-176.32 721.98,-172.19 711.78,-169.34 712.23,-176.32"/>
</g>
<!-- Node4 -->
<g id="node4" class="node">
<title>Node4</title>
<g id="a_node4"><a xlink:href="class_physics_1_1_physics_world.html#adc2e766cfd2414718237d76064130c7f" target="_top" xlink:title=" ">
<polygon fill="white" stroke="black" points="365,-185.5 365,-204.5 502,-204.5 502,-185.5 365,-185.5"/>
<text text-anchor="middle" x="433.5" y="-192.5" font-family="Helvetica,sans-Serif" font-size="10.00">Physics.PhysicsWorld.Tick</text>
</a>
</g>
</g>
<!-- Node3&#45;&gt;Node4 -->
<g id="edge3" class="edge">
<title>Node3&#45;&gt;Node4</title>
<path fill="none" stroke="midnightblue" d="M532.62,-186.23C522.42,-187.14 512.07,-188.07 502.1,-188.96"/>
<polygon fill="midnightblue" stroke="midnightblue" points="533.11,-189.7 542.75,-185.32 532.48,-182.73 533.11,-189.7"/>
</g>
<!-- Node5 -->
<g id="node5" class="node">
<title>Node5</title>
<g id="a_node5"><a xlink:href="class_physics_1_1_physics_world.html#a21bcd3d27cec2fa8cf00d28be40ae413" target="_top" xlink:title=" ">
<polygon fill="white" stroke="black" points="175,-190.5 175,-209.5 324,-209.5 324,-190.5 175,-190.5"/>
<text text-anchor="middle" x="249.5" y="-197.5" font-family="Helvetica,sans-Serif" font-size="10.00">Physics.PhysicsWorld.Update</text>
</a>
</g>
</g>
<!-- Node4&#45;&gt;Node5 -->
<g id="edge4" class="edge">
<title>Node4&#45;&gt;Node5</title>
<path fill="none" stroke="midnightblue" d="M354.86,-197.13C344.63,-197.41 334.17,-197.7 324.02,-197.98"/>
<polygon fill="midnightblue" stroke="midnightblue" points="355.09,-200.63 364.99,-196.85 354.9,-193.63 355.09,-200.63"/>
</g>
<!-- Node7 -->
<g id="node7" class="node">
<title>Node7</title>
<g id="a_node7"><a xlink:href="class_physics_1_1_physics_world.html#aaea6390b0eebeeffb2136b97d9e9e9a9" target="_top" xlink:title=" ">
<polygon fill="white" stroke="black" points="547,-104 547,-134 682,-134 682,-104 547,-104"/>
<text text-anchor="start" x="555" y="-122" font-family="Helvetica,sans-Serif" font-size="10.00">Physics.PhysicsWorld.Add</text>
<text text-anchor="middle" x="614.5" y="-111" font-family="Helvetica,sans-Serif" font-size="10.00">CollisionObject</text>
</a>
</g>
</g>
<!-- Node6&#45;&gt;Node7 -->
<g id="edge6" class="edge">
<title>Node6&#45;&gt;Node7</title>
<path fill="none" stroke="midnightblue" d="M711.81,-119C701.97,-119 691.94,-119 682.26,-119"/>
<polygon fill="midnightblue" stroke="midnightblue" points="711.98,-122.5 721.98,-119 711.98,-115.5 711.98,-122.5"/>
</g>
<!-- Node8 -->
<g id="node8" class="node">
<title>Node8</title>
<g id="a_node8"><a xlink:href="class_physics_1_1_physics_world.html#ab363dd228dcc50002de2762e22918637" target="_top" xlink:title=" ">
<polygon fill="white" stroke="black" points="360,-33 360,-63 507,-63 507,-33 360,-33"/>
<text text-anchor="start" x="368" y="-51" font-family="Helvetica,sans-Serif" font-size="10.00">Physics.PhysicsWorld.Create</text>
<text text-anchor="middle" x="433.5" y="-40" font-family="Helvetica,sans-Serif" font-size="10.00">ACustomShape</text>
</a>
</g>
</g>
<!-- Node7&#45;&gt;Node8 -->
<g id="edge7" class="edge">
<title>Node7&#45;&gt;Node8</title>
<path fill="none" stroke="midnightblue" d="M572.42,-99.77C552.8,-90.87 528.88,-80.43 507,-72 499.08,-68.95 490.59,-65.93 482.31,-63.1"/>
<polygon fill="midnightblue" stroke="midnightblue" points="571.13,-103.03 581.68,-104 574.04,-96.66 571.13,-103.03"/>
</g>
<!-- Node12 -->
<g id="node12" class="node">
<title>Node12</title>
<g id="a_node12"><a xlink:href="class_physics_1_1_physics_world.html#af93edd393b2391e14a2cfc4331ebf791" target="_top" xlink:title=" ">
<polygon fill="white" stroke="black" points="360,-131 360,-161 507,-161 507,-131 360,-131"/>
<text text-anchor="start" x="368" y="-149" font-family="Helvetica,sans-Serif" font-size="10.00">Physics.PhysicsWorld.Create</text>
<text text-anchor="middle" x="433.5" y="-138" font-family="Helvetica,sans-Serif" font-size="10.00">ATestCircle</text>
</a>
</g>
</g>
<!-- Node7&#45;&gt;Node12 -->
<g id="edge11" class="edge">
<title>Node7&#45;&gt;Node12</title>
<path fill="none" stroke="midnightblue" d="M536.74,-130.58C526.94,-132.06 516.94,-133.56 507.22,-135.03"/>
<polygon fill="midnightblue" stroke="midnightblue" points="537.48,-134.01 546.85,-129.05 536.44,-127.08 537.48,-134.01"/>
</g>
<!-- Node14 -->
<g id="node14" class="node">
<title>Node14</title>
<g id="a_node14"><a xlink:href="class_physics_1_1_physics_world.html#a54d320d6dc2c69449f0d83f746382a21" target="_top" xlink:title=" ">
<polygon fill="white" stroke="black" points="360,-82 360,-112 507,-112 507,-82 360,-82"/>
<text text-anchor="start" x="368" y="-100" font-family="Helvetica,sans-Serif" font-size="10.00">Physics.PhysicsWorld.Create</text>
<text text-anchor="middle" x="433.5" y="-89" font-family="Helvetica,sans-Serif" font-size="10.00">ATestRect</text>
</a>
</g>
</g>
<!-- Node7&#45;&gt;Node14 -->
<g id="edge14" class="edge">
<title>Node7&#45;&gt;Node14</title>
<path fill="none" stroke="midnightblue" d="M536.74,-109.57C526.94,-108.36 516.94,-107.13 507.22,-105.94"/>
<polygon fill="midnightblue" stroke="midnightblue" points="536.49,-113.06 546.85,-110.81 537.35,-106.11 536.49,-113.06"/>
</g>
<!-- Node9 -->
<g id="node9" class="node">
<title>Node9</title>
<g id="a_node9"><a xlink:href="class_physics_1_1_physics_world.html#a00da1d0a80a537bf0f30ec9a1f00cbd6" target="_top" xlink:title=" ">
<polygon fill="white" stroke="black" points="178.5,-38.5 178.5,-57.5 320.5,-57.5 320.5,-38.5 178.5,-38.5"/>
<text text-anchor="middle" x="249.5" y="-45.5" font-family="Helvetica,sans-Serif" font-size="10.00">Physics.PhysicsWorld.Test1</text>
</a>
</g>
</g>
<!-- Node8&#45;&gt;Node9 -->
<g id="edge8" class="edge">
<title>Node8&#45;&gt;Node9</title>
<path fill="none" stroke="midnightblue" d="M349.75,-48C340.05,-48 330.23,-48 320.73,-48"/>
<polygon fill="midnightblue" stroke="midnightblue" points="349.78,-51.5 359.78,-48 349.78,-44.5 349.78,-51.5"/>
</g>
<!-- Node10 -->
<g id="node10" class="node">
<title>Node10</title>
<g id="a_node10"><a xlink:href="class_physics_1_1_physics_world.html#a23a499269c2dba922ca4a81579b244ae" target="_top" xlink:title=" ">
<polygon fill="white" stroke="black" points="178.5,-114.5 178.5,-133.5 320.5,-133.5 320.5,-114.5 178.5,-114.5"/>
<text text-anchor="middle" x="249.5" y="-121.5" font-family="Helvetica,sans-Serif" font-size="10.00">Physics.PhysicsWorld.Test3</text>
</a>
</g>
</g>
<!-- Node8&#45;&gt;Node10 -->
<g id="edge9" class="edge">
<title>Node8&#45;&gt;Node10</title>
<path fill="none" stroke="midnightblue" d="M368.92,-67.26C365.85,-68.74 362.86,-70.32 360,-72 341.28,-82.99 343.07,-94.64 324,-105 316.93,-108.84 309.06,-111.92 301.17,-114.4"/>
<polygon fill="midnightblue" stroke="midnightblue" points="370.6,-70.34 378.32,-63.09 367.76,-63.94 370.6,-70.34"/>
</g>
<!-- Node11 -->
<g id="node11" class="node">
<title>Node11</title>
<g id="a_node11"><a xlink:href="class_physics_1_1_physics_world.html#a93898e81cc80ba83e62de6af1cb9f2ab" target="_top" xlink:title=" ">
<polygon fill="white" stroke="black" points="178.5,-0.5 178.5,-19.5 320.5,-19.5 320.5,-0.5 178.5,-0.5"/>
<text text-anchor="middle" x="249.5" y="-7.5" font-family="Helvetica,sans-Serif" font-size="10.00">Physics.PhysicsWorld.Test4</text>
</a>
</g>
</g>
<!-- Node8&#45;&gt;Node11 -->
<g id="edge10" class="edge">
<title>Node8&#45;&gt;Node11</title>
<path fill="none" stroke="midnightblue" d="M350.54,-30.89C331.8,-26.98 312.55,-22.96 296,-19.5"/>
<polygon fill="midnightblue" stroke="midnightblue" points="350.06,-34.36 360.57,-32.98 351.5,-27.51 350.06,-34.36"/>
</g>
<!-- Node12&#45;&gt;Node10 -->
<g id="edge13" class="edge">
<title>Node12&#45;&gt;Node10</title>
<path fill="none" stroke="midnightblue" d="M349.75,-136C340.05,-134.82 330.23,-133.64 320.73,-132.49"/>
<polygon fill="midnightblue" stroke="midnightblue" points="349.44,-139.48 359.78,-137.21 350.28,-132.54 349.44,-139.48"/>
</g>
<!-- Node13 -->
<g id="node13" class="node">
<title>Node13</title>
<g id="a_node13"><a xlink:href="class_physics_1_1_physics_world.html#a3e682ad39d73a462476dcc8cf707b4b7" target="_top" xlink:title=" ">
<polygon fill="white" stroke="black" points="178.5,-152.5 178.5,-171.5 320.5,-171.5 320.5,-152.5 178.5,-152.5"/>
<text text-anchor="middle" x="249.5" y="-159.5" font-family="Helvetica,sans-Serif" font-size="10.00">Physics.PhysicsWorld.Test2</text>
</a>
</g>
</g>
<!-- Node12&#45;&gt;Node13 -->
<g id="edge12" class="edge">
<title>Node12&#45;&gt;Node13</title>
<path fill="none" stroke="midnightblue" d="M349.75,-153.28C340.05,-154.13 330.23,-154.99 320.73,-155.83"/>
<polygon fill="midnightblue" stroke="midnightblue" points="350.13,-156.75 359.78,-152.39 349.52,-149.78 350.13,-156.75"/>
</g>
<!-- Node14&#45;&gt;Node9 -->
<g id="edge17" class="edge">
<title>Node14&#45;&gt;Node9</title>
<path fill="none" stroke="midnightblue" d="M368.74,-79.18C354.06,-75.13 338.5,-70.88 324,-67 312.29,-63.87 299.5,-60.53 287.92,-57.54"/>
<polygon fill="midnightblue" stroke="midnightblue" points="368.17,-82.65 378.74,-81.94 370.04,-75.91 368.17,-82.65"/>
</g>
<!-- Node14&#45;&gt;Node10 -->
<g id="edge18" class="edge">
<title>Node14&#45;&gt;Node10</title>
<path fill="none" stroke="midnightblue" d="M349.89,-109.26C338.04,-111.01 326,-112.8 314.58,-114.49"/>
<polygon fill="midnightblue" stroke="midnightblue" points="350.41,-112.72 359.78,-107.79 349.38,-105.79 350.41,-112.72"/>
</g>
<!-- Node15 -->
<g id="node15" class="node">
<title>Node15</title>
<g id="a_node15"><a xlink:href="class_physics_1_1_physics_world.html#adf5c68828b28299a9d85e6dd326a1653" target="_top" xlink:title=" ">
<polygon fill="white" stroke="black" points="178.5,-76.5 178.5,-95.5 320.5,-95.5 320.5,-76.5 178.5,-76.5"/>
<text text-anchor="middle" x="249.5" y="-83.5" font-family="Helvetica,sans-Serif" font-size="10.00">Physics.PhysicsWorld.Test0</text>
</a>
</g>
</g>
<!-- Node14&#45;&gt;Node15 -->
<g id="edge15" class="edge">
<title>Node14&#45;&gt;Node15</title>
<path fill="none" stroke="midnightblue" d="M349.75,-92C340.05,-91.41 330.23,-90.82 320.73,-90.24"/>
<polygon fill="midnightblue" stroke="midnightblue" points="349.59,-95.5 359.78,-92.61 350.01,-88.51 349.59,-95.5"/>
</g>
<!-- Node16 -->
<g id="node16" class="node">
<title>Node16</title>
<g id="a_node16"><a xlink:href="class_physics_1_1_physics_world.html#a8604509cc962bc5d9c3f4089b06f94b2" target="_top" xlink:title=" ">
<polygon fill="white" stroke="black" points="0,-76.5 0,-95.5 139,-95.5 139,-76.5 0,-76.5"/>
<text text-anchor="middle" x="69.5" y="-83.5" font-family="Helvetica,sans-Serif" font-size="10.00">Physics.PhysicsWorld.Start</text>
</a>
</g>
</g>
<!-- Node15&#45;&gt;Node16 -->
<g id="edge16" class="edge">
<title>Node15&#45;&gt;Node16</title>
<path fill="none" stroke="midnightblue" d="M168.31,-86C158.55,-86 148.64,-86 139.07,-86"/>
<polygon fill="midnightblue" stroke="midnightblue" points="168.41,-89.5 178.41,-86 168.41,-82.5 168.41,-89.5"/>
</g>
</g>
</svg>
        <g id="navigator" transform="translate(0 0)" fill="#404254">
                <rect fill="#f2f5e9" fill-opacity="0.5" stroke="#606060" stroke-width=".5" x="0" y="0" width="60" height="60"/>
                <use id="zoomplus" xlink:href="#zoomPlus" x="17" y="9" onmousedown="handleZoom(evt,'in')"/>
                <use id="zoomminus" xlink:href="#zoomMin" x="42" y="9" onmousedown="handleZoom(evt,'out')"/>
                <use id="reset" xlink:href="#resetDef" x="30" y="36" onmousedown="handleReset()"/>
                <g id="arrowUp" xlink:href="#dirArrow" transform="translate(30 24)" onmousedown="handlePan(0,-1)">
                  <use xlink:href="#rim" fill="#404040">
                        <set attributeName="fill" to="#808080" begin="arrowUp.mouseover" end="arrowUp.mouseout"/>
                  </use>
                  <path fill="none" stroke="white" stroke-width="1.5" d="M0,-3.0v7 M-2.5,-0.5L0,-3.0L2.5,-0.5"/>
                </g>
                <g id="arrowRight" xlink:href="#dirArrow" transform="rotate(90) translate(36 -43)" onmousedown="handlePan(1,0)">
                  <use xlink:href="#rim" fill="#404040">
                        <set attributeName="fill" to="#808080" begin="arrowRight.mouseover" end="arrowRight.mouseout"/>
                  </use>
                  <path fill="none" stroke="white" stroke-width="1.5" d="M0,-3.0v7 M-2.5,-0.5L0,-3.0L2.5,-0.5"/>
                </g>
                <g id="arrowDown" xlink:href="#dirArrow" transform="rotate(180) translate(-30 -48)" onmousedown="handlePan(0,1)">
                  <use xlink:href="#rim" fill="#404040">
                        <set attributeName="fill" to="#808080" begin="arrowDown.mouseover" end="arrowDown.mouseout"/>
                  </use>
                  <path fill="none" stroke="white" stroke-width="1.5" d="M0,-3.0v7 M-2.5,-0.5L0,-3.0L2.5,-0.5"/>
                </g>
                <g id="arrowLeft" xlink:href="#dirArrow" transform="rotate(270) translate(-36 17)" onmousedown="handlePan(-1,0)">
                  <use xlink:href="#rim" fill="#404040">
                        <set attributeName="fill" to="#808080" begin="arrowLeft.mouseover" end="arrowLeft.mouseout"/>
                  </use>
                  <path fill="none" stroke="white" stroke-width="1.5" d="M0,-3.0v7 M-2.5,-0.5L0,-3.0L2.5,-0.5"/>
                </g>
        </g>
        <svg viewBox="0 0 15 15" width="100%" height="30px" preserveAspectRatio="xMaxYMin meet">
         <g id="arrow_out" transform="scale(0.3 0.3)">
          <a xlink:href="class_physics_1_1_collision_1_1_shape_1_1_collision_shape_aa2888c2955c43fcd2adb654e88db7183_icgraph_org.svg" target="_base">
           <rect id="button" ry="5" rx="5" y="6" x="6" height="38" width="38"
                fill="#f2f5e9" fill-opacity="0.5" stroke="#606060" stroke-width="1.0"/>
           <path id="arrow"
             d="M 11.500037,31.436501 C 11.940474,20.09759 22.043105,11.32322 32.158766,21.979434 L 37.068811,17.246167 C 37.068811,17.246167 37.088388,32 37.088388,32 L 22.160133,31.978069 C 22.160133,31.978069 26.997745,27.140456 26.997745,27.140456 C 18.528582,18.264221 13.291696,25.230495 11.500037,31.436501 z"
             style="fill:#404040;"/>
          </a>
         </g>
        </svg>
</svg>
