<?xml version="1.0" encoding="UTF-8" standalone="no"?>
<!DOCTYPE svg PUBLIC "-//W3C//DTD SVG 1.1//EN"
 "http://www.w3.org/Graphics/SVG/1.1/DTD/svg11.dtd">
<!-- Generated by graphviz version 2.50.0 (20211204.2007)
 -->
<!-- Title: Physics.Collision.Model.SimplexEdge.CreateInitEdge Pages: 1 -->
<svg width="327pt" height="88pt"
 viewBox="0.00 0.00 327.00 88.00" xmlns="http://www.w3.org/2000/svg" xmlns:xlink="http://www.w3.org/1999/xlink">
<g id="graph0" class="graph" transform="scale(1 1) rotate(0) translate(4 84)">
<title>Physics.Collision.Model.SimplexEdge.CreateInitEdge</title>
<polygon fill="white" stroke="transparent" points="-4,4 -4,-84 323,-84 323,4 -4,4"/>
<!-- Node1 -->
<g id="node1" class="node">
<title>Node1</title>
<g id="a_node1"><a xlink:title=" ">
<polygon fill="#bfbfbf" stroke="black" points="0,-24.5 0,-54.5 143,-54.5 143,-24.5 0,-24.5"/>
<text text-anchor="start" x="8" y="-42.5" font-family="Helvetica,sans-Serif" font-size="10.00">Physics.Collision.Model.</text>
<text text-anchor="middle" x="71.5" y="-31.5" font-family="Helvetica,sans-Serif" font-size="10.00">SimplexEdge.CreateInitEdge</text>
</a>
</g>
</g>
<!-- Node2 -->
<g id="node2" class="node">
<title>Node2</title>
<g id="a_node2"><a xlink:href="class_physics_1_1_tool_1_1_physics_cache_pool.html#a5632346a5a6c8029427ce1ec41cc1edc" target="_top" xlink:title=" ">
<polygon fill="white" stroke="black" points="179,-49.5 179,-79.5 319,-79.5 319,-49.5 179,-49.5"/>
<text text-anchor="start" x="187" y="-67.5" font-family="Helvetica,sans-Serif" font-size="10.00">Physics.Tool.PhysicsCache</text>
<text text-anchor="middle" x="249" y="-56.5" font-family="Helvetica,sans-Serif" font-size="10.00">Pool.GetEdgeFromPool</text>
</a>
</g>
</g>
<!-- Node1&#45;&gt;Node2 -->
<g id="edge1" class="edge">
<title>Node1&#45;&gt;Node2</title>
<path fill="none" stroke="midnightblue" d="M143.12,-49.56C151.61,-50.77 160.32,-52.01 168.92,-53.24"/>
<polygon fill="midnightblue" stroke="midnightblue" points="168.55,-56.72 178.95,-54.66 169.54,-49.79 168.55,-56.72"/>
</g>
<!-- Node3 -->
<g id="node3" class="node">
<title>Node3</title>
<g id="a_node3"><a xlink:href="class_physics_1_1_tool_1_1_physics_tool.html#ae7347b7ed11fb2a7a4e78afe07d8a4d2" target="_top" xlink:title=" ">
<polygon fill="white" stroke="black" points="183,-0.5 183,-30.5 315,-30.5 315,-0.5 183,-0.5"/>
<text text-anchor="start" x="191" y="-18.5" font-family="Helvetica,sans-Serif" font-size="10.00">Physics.Tool.PhysicsTool.</text>
<text text-anchor="middle" x="249" y="-7.5" font-family="Helvetica,sans-Serif" font-size="10.00">GetPerpendicularToOrigin</text>
</a>
</g>
</g>
<!-- Node1&#45;&gt;Node3 -->
<g id="edge2" class="edge">
<title>Node1&#45;&gt;Node3</title>
<path fill="none" stroke="midnightblue" d="M143.12,-29.84C152.88,-28.51 162.93,-27.13 172.76,-25.79"/>
<polygon fill="midnightblue" stroke="midnightblue" points="173.48,-29.22 182.91,-24.4 172.53,-22.29 173.48,-29.22"/>
</g>
</g>
</svg>
