<?xml version="1.0" encoding="UTF-8" standalone="no"?>
<!DOCTYPE svg PUBLIC "-//W3C//DTD SVG 1.1//EN"
 "http://www.w3.org/Graphics/SVG/1.1/DTD/svg11.dtd">
<!-- Generated by graphviz version 2.50.0 (20211204.2007)
 -->
<!-- Title: Physics.Tool.PhysicsCachePool.RecycleEdge Pages: 1 -->
<svg width="1399pt" height="88pt"
 viewBox="0.00 0.00 1399.00 88.00" xmlns="http://www.w3.org/2000/svg" xmlns:xlink="http://www.w3.org/1999/xlink">
<g id="graph0" class="graph" transform="scale(1 1) rotate(0) translate(4 84)">
<title>Physics.Tool.PhysicsCachePool.RecycleEdge</title>
<polygon fill="white" stroke="transparent" points="-4,4 -4,-84 1395,-84 1395,4 -4,4"/>
<!-- Node1 -->
<g id="node1" class="node">
<title>Node1</title>
<g id="a_node1"><a xlink:title=" ">
<polygon fill="#bfbfbf" stroke="black" points="1251,-24.5 1251,-54.5 1391,-54.5 1391,-24.5 1251,-24.5"/>
<text text-anchor="start" x="1259" y="-42.5" font-family="Helvetica,sans-Serif" font-size="10.00">Physics.Tool.PhysicsCache</text>
<text text-anchor="middle" x="1321" y="-31.5" font-family="Helvetica,sans-Serif" font-size="10.00">Pool.RecycleEdge</text>
</a>
</g>
</g>
<!-- Node2 -->
<g id="node2" class="node">
<title>Node2</title>
<g id="a_node2"><a xlink:href="class_physics_1_1_collision_1_1_model_1_1_simplex_edge.html#a422d4d80fc2c4205af1f96abcec05a67" target="_top" xlink:title=" ">
<polygon fill="white" stroke="black" points="1090,-47.5 1090,-77.5 1215,-77.5 1215,-47.5 1090,-47.5"/>
<text text-anchor="start" x="1098" y="-65.5" font-family="Helvetica,sans-Serif" font-size="10.00">Physics.Collision.Model.</text>
<text text-anchor="middle" x="1152.5" y="-54.5" font-family="Helvetica,sans-Serif" font-size="10.00">SimplexEdge.Clear</text>
</a>
</g>
</g>
<!-- Node1&#45;&gt;Node2 -->
<g id="edge1" class="edge">
<title>Node1&#45;&gt;Node2</title>
<path fill="none" stroke="midnightblue" d="M1240.74,-50.45C1232.09,-51.64 1223.39,-52.84 1215.01,-54"/>
<polygon fill="midnightblue" stroke="midnightblue" points="1241.41,-53.89 1250.84,-49.05 1240.45,-46.96 1241.41,-53.89"/>
</g>
<!-- Node9 -->
<g id="node9" class="node">
<title>Node9</title>
<g id="a_node9"><a xlink:href="class_physics_1_1_collision_1_1_model_1_1_simplex_edge.html#ae349a32da5778aa885c6f5b1e7153350" target="_top" xlink:title=" ">
<polygon fill="white" stroke="black" points="907,-0.5 907,-30.5 1054,-30.5 1054,-0.5 907,-0.5"/>
<text text-anchor="start" x="915" y="-18.5" font-family="Helvetica,sans-Serif" font-size="10.00">Physics.Collision.Model.</text>
<text text-anchor="middle" x="980.5" y="-7.5" font-family="Helvetica,sans-Serif" font-size="10.00">SimplexEdge.InsertEdgePoint</text>
</a>
</g>
</g>
<!-- Node1&#45;&gt;Node9 -->
<g id="edge8" class="edge">
<title>Node1&#45;&gt;Node9</title>
<path fill="none" stroke="midnightblue" d="M1240.38,-33.86C1184.01,-29.86 1109,-24.54 1054.23,-20.66"/>
<polygon fill="midnightblue" stroke="midnightblue" points="1240.46,-37.37 1250.68,-34.59 1240.96,-30.39 1240.46,-37.37"/>
</g>
<!-- Node3 -->
<g id="node3" class="node">
<title>Node3</title>
<g id="a_node3"><a xlink:href="class_physics_1_1_tool_1_1_physics_cache_pool.html#adb2db95c9b826ec9e9b3a31025adc8c6" target="_top" xlink:title=" ">
<polygon fill="white" stroke="black" points="910.5,-49.5 910.5,-79.5 1050.5,-79.5 1050.5,-49.5 910.5,-49.5"/>
<text text-anchor="start" x="918.5" y="-67.5" font-family="Helvetica,sans-Serif" font-size="10.00">Physics.Tool.PhysicsCache</text>
<text text-anchor="middle" x="980.5" y="-56.5" font-family="Helvetica,sans-Serif" font-size="10.00">Pool.RecycleSimplexEdge</text>
</a>
</g>
</g>
<!-- Node2&#45;&gt;Node3 -->
<g id="edge2" class="edge">
<title>Node2&#45;&gt;Node3</title>
<path fill="none" stroke="midnightblue" d="M1079.45,-63.35C1069.95,-63.46 1060.24,-63.57 1050.79,-63.68"/>
<polygon fill="midnightblue" stroke="midnightblue" points="1079.69,-66.85 1089.65,-63.23 1079.6,-59.85 1079.69,-66.85"/>
</g>
<!-- Node4 -->
<g id="node4" class="node">
<title>Node4</title>
<g id="a_node4"><a xlink:href="class_physics_1_1_physics_world.html#a981b90f47065fded56b0145083aac984" target="_top" xlink:title=" ">
<polygon fill="white" stroke="black" points="734,-30 734,-49 871,-49 871,-30 734,-30"/>
<text text-anchor="middle" x="802.5" y="-37" font-family="Helvetica,sans-Serif" font-size="10.00">Physics.PhysicsWorld.EPA</text>
</a>
</g>
</g>
<!-- Node3&#45;&gt;Node4 -->
<g id="edge3" class="edge">
<title>Node3&#45;&gt;Node4</title>
<path fill="none" stroke="midnightblue" d="M900.53,-53.28C890.55,-51.86 880.4,-50.42 870.63,-49.04"/>
<polygon fill="midnightblue" stroke="midnightblue" points="900.05,-56.75 910.45,-54.69 901.04,-49.82 900.05,-56.75"/>
</g>
<!-- Node5 -->
<g id="node5" class="node">
<title>Node5</title>
<g id="a_node5"><a xlink:href="class_physics_1_1_physics_world.html#ab505479deb9b79c8d1c5edd3957c8e49" target="_top" xlink:title=" ">
<polygon fill="white" stroke="black" points="549,-24.5 549,-54.5 698,-54.5 698,-24.5 549,-24.5"/>
<text text-anchor="start" x="557" y="-42.5" font-family="Helvetica,sans-Serif" font-size="10.00">Physics.PhysicsWorld.Narrow</text>
<text text-anchor="middle" x="623.5" y="-31.5" font-family="Helvetica,sans-Serif" font-size="10.00">Phase</text>
</a>
</g>
</g>
<!-- Node4&#45;&gt;Node5 -->
<g id="edge4" class="edge">
<title>Node4&#45;&gt;Node5</title>
<path fill="none" stroke="midnightblue" d="M723.56,-39.5C715.08,-39.5 706.46,-39.5 698.03,-39.5"/>
<polygon fill="midnightblue" stroke="midnightblue" points="723.83,-43 733.83,-39.5 723.83,-36 723.83,-43"/>
</g>
<!-- Node6 -->
<g id="node6" class="node">
<title>Node6</title>
<g id="a_node6"><a xlink:href="class_physics_1_1_physics_world.html#a516968c71000684ea688d080074d0ec8" target="_top" xlink:title=" ">
<polygon fill="white" stroke="black" points="358,-24.5 358,-54.5 513,-54.5 513,-24.5 358,-24.5"/>
<text text-anchor="start" x="366" y="-42.5" font-family="Helvetica,sans-Serif" font-size="10.00">Physics.PhysicsWorld.Collision</text>
<text text-anchor="middle" x="435.5" y="-31.5" font-family="Helvetica,sans-Serif" font-size="10.00">Detection</text>
</a>
</g>
</g>
<!-- Node5&#45;&gt;Node6 -->
<g id="edge5" class="edge">
<title>Node5&#45;&gt;Node6</title>
<path fill="none" stroke="midnightblue" d="M538.96,-39.5C530.37,-39.5 521.66,-39.5 513.14,-39.5"/>
<polygon fill="midnightblue" stroke="midnightblue" points="538.99,-43 548.99,-39.5 538.99,-36 538.99,-43"/>
</g>
<!-- Node7 -->
<g id="node7" class="node">
<title>Node7</title>
<g id="a_node7"><a xlink:href="class_physics_1_1_physics_world.html#adc2e766cfd2414718237d76064130c7f" target="_top" xlink:title=" ">
<polygon fill="white" stroke="black" points="185,-30 185,-49 322,-49 322,-30 185,-30"/>
<text text-anchor="middle" x="253.5" y="-37" font-family="Helvetica,sans-Serif" font-size="10.00">Physics.PhysicsWorld.Tick</text>
</a>
</g>
</g>
<!-- Node6&#45;&gt;Node7 -->
<g id="edge6" class="edge">
<title>Node6&#45;&gt;Node7</title>
<path fill="none" stroke="midnightblue" d="M347.84,-39.5C339.23,-39.5 330.58,-39.5 322.2,-39.5"/>
<polygon fill="midnightblue" stroke="midnightblue" points="347.9,-43 357.9,-39.5 347.9,-36 347.9,-43"/>
</g>
<!-- Node8 -->
<g id="node8" class="node">
<title>Node8</title>
<g id="a_node8"><a xlink:href="class_physics_1_1_physics_world.html#a21bcd3d27cec2fa8cf00d28be40ae413" target="_top" xlink:title=" ">
<polygon fill="white" stroke="black" points="0,-30 0,-49 149,-49 149,-30 0,-30"/>
<text text-anchor="middle" x="74.5" y="-37" font-family="Helvetica,sans-Serif" font-size="10.00">Physics.PhysicsWorld.Update</text>
</a>
</g>
</g>
<!-- Node7&#45;&gt;Node8 -->
<g id="edge7" class="edge">
<title>Node7&#45;&gt;Node8</title>
<path fill="none" stroke="midnightblue" d="M174.56,-39.5C166.08,-39.5 157.46,-39.5 149.03,-39.5"/>
<polygon fill="midnightblue" stroke="midnightblue" points="174.83,-43 184.83,-39.5 174.83,-36 174.83,-43"/>
</g>
<!-- Node9&#45;&gt;Node4 -->
<g id="edge9" class="edge">
<title>Node9&#45;&gt;Node4</title>
<path fill="none" stroke="midnightblue" d="M896.84,-26.77C888.23,-27.95 879.55,-29.13 871.13,-30.28"/>
<polygon fill="midnightblue" stroke="midnightblue" points="897.46,-30.22 906.9,-25.4 896.52,-23.28 897.46,-30.22"/>
</g>
</g>
</svg>
