<?xml version="1.0" encoding="UTF-8" standalone="no"?>
<!DOCTYPE svg PUBLIC "-//W3C//DTD SVG 1.1//EN"
 "http://www.w3.org/Graphics/SVG/1.1/DTD/svg11.dtd">
<!-- Generated by graphviz version 2.50.0 (20211204.2007)
 -->
<!-- Title: Physics.PhysicsWorld.CreateACustomShape Pages: 1 -->
<svg width="1081pt" height="112pt"
 viewBox="0.00 0.00 1081.00 112.00" xmlns="http://www.w3.org/2000/svg" xmlns:xlink="http://www.w3.org/1999/xlink">
<g id="graph0" class="graph" transform="scale(1 1) rotate(0) translate(4 108)">
<title>Physics.PhysicsWorld.CreateACustomShape</title>
<polygon fill="white" stroke="transparent" points="-4,4 -4,-108 1077,-108 1077,4 -4,4"/>
<!-- Node1 -->
<g id="node1" class="node">
<title>Node1</title>
<g id="a_node1"><a xlink:title=" ">
<polygon fill="#bfbfbf" stroke="black" points="0,-26.5 0,-56.5 147,-56.5 147,-26.5 0,-26.5"/>
<text text-anchor="start" x="8" y="-44.5" font-family="Helvetica,sans-Serif" font-size="10.00">Physics.PhysicsWorld.Create</text>
<text text-anchor="middle" x="73.5" y="-33.5" font-family="Helvetica,sans-Serif" font-size="10.00">ACustomShape</text>
</a>
</g>
</g>
<!-- Node2 -->
<g id="node2" class="node">
<title>Node2</title>
<g id="a_node2"><a xlink:href="class_physics_1_1_physics_world.html#aaea6390b0eebeeffb2136b97d9e9e9a9" target="_top" xlink:title=" ">
<polygon fill="white" stroke="black" points="201,-48.5 201,-78.5 336,-78.5 336,-48.5 201,-48.5"/>
<text text-anchor="start" x="209" y="-66.5" font-family="Helvetica,sans-Serif" font-size="10.00">Physics.PhysicsWorld.Add</text>
<text text-anchor="middle" x="268.5" y="-55.5" font-family="Helvetica,sans-Serif" font-size="10.00">CollisionObject</text>
</a>
</g>
</g>
<!-- Node1&#45;&gt;Node2 -->
<g id="edge1" class="edge">
<title>Node1&#45;&gt;Node2</title>
<path fill="none" stroke="midnightblue" d="M147.19,-49.79C161.38,-51.4 176.3,-53.1 190.62,-54.74"/>
<polygon fill="midnightblue" stroke="midnightblue" points="190.58,-58.25 200.92,-55.91 191.38,-51.3 190.58,-58.25"/>
</g>
<!-- Node9 -->
<g id="node9" class="node">
<title>Node9</title>
<g id="a_node9"><a xlink:href="class_physics_1_1_physics_world.html#a22b65d699e874d3ec8651ad3cd675814" target="_top" xlink:title=" ">
<polygon fill="white" stroke="black" points="183,-10 183,-29 354,-29 354,-10 183,-10"/>
<text text-anchor="middle" x="268.5" y="-17" font-family="Helvetica,sans-Serif" font-size="10.00">Physics.PhysicsWorld.CreateMesh</text>
</a>
</g>
</g>
<!-- Node1&#45;&gt;Node9 -->
<g id="edge9" class="edge">
<title>Node1&#45;&gt;Node9</title>
<path fill="none" stroke="midnightblue" d="M147.19,-33.21C155.89,-32.22 164.86,-31.2 173.79,-30.18"/>
<polygon fill="midnightblue" stroke="midnightblue" points="174.32,-33.64 183.86,-29.03 173.52,-26.69 174.32,-33.64"/>
</g>
<!-- Node3 -->
<g id="node3" class="node">
<title>Node3</title>
<g id="a_node3"><a xlink:href="class_physics_1_1_collision_1_1_collision_object.html#aec20035d4ece9a46c457cd71761f6c16" target="_top" xlink:title=" ">
<polygon fill="white" stroke="black" points="390,-73.5 390,-103.5 523,-103.5 523,-73.5 390,-73.5"/>
<text text-anchor="start" x="398" y="-91.5" font-family="Helvetica,sans-Serif" font-size="10.00">Physics.Collision.Collision</text>
<text text-anchor="middle" x="456.5" y="-80.5" font-family="Helvetica,sans-Serif" font-size="10.00">Object.GetProjectionPoint</text>
</a>
</g>
</g>
<!-- Node2&#45;&gt;Node3 -->
<g id="edge2" class="edge">
<title>Node2&#45;&gt;Node3</title>
<path fill="none" stroke="midnightblue" d="M336.12,-72.45C350.35,-74.37 365.48,-76.4 380.01,-78.35"/>
<polygon fill="midnightblue" stroke="midnightblue" points="379.59,-81.83 389.96,-79.69 380.52,-74.89 379.59,-81.83"/>
</g>
<!-- Node4 -->
<g id="node4" class="node">
<title>Node4</title>
<g id="a_node4"><a xlink:href="class_physics_1_1_collision_1_1_collision_object.html#a8a0748fa64dc6f65374a9d61e7065da4" target="_top" xlink:title=" ">
<polygon fill="white" stroke="black" points="390,-24.5 390,-54.5 523,-54.5 523,-24.5 390,-24.5"/>
<text text-anchor="start" x="398" y="-42.5" font-family="Helvetica,sans-Serif" font-size="10.00">Physics.Collision.Collision</text>
<text text-anchor="middle" x="456.5" y="-31.5" font-family="Helvetica,sans-Serif" font-size="10.00">Object.InitCollisionObject</text>
</a>
</g>
</g>
<!-- Node2&#45;&gt;Node4 -->
<g id="edge3" class="edge">
<title>Node2&#45;&gt;Node4</title>
<path fill="none" stroke="midnightblue" d="M336.12,-54.9C350.35,-53.07 365.48,-51.12 380.01,-49.24"/>
<polygon fill="midnightblue" stroke="midnightblue" points="380.49,-52.71 389.96,-47.96 379.6,-45.76 380.49,-52.71"/>
</g>
<!-- Node5 -->
<g id="node5" class="node">
<title>Node5</title>
<g id="a_node5"><a xlink:href="class_physics_1_1_collision_1_1_shape_1_1_collision_shape.html#aa2888c2955c43fcd2adb654e88db7183" target="_top" xlink:title=" ">
<polygon fill="white" stroke="black" points="559,-46.5 559,-76.5 729,-76.5 729,-46.5 559,-46.5"/>
<text text-anchor="start" x="567" y="-64.5" font-family="Helvetica,sans-Serif" font-size="10.00">Physics.Collision.Shape.</text>
<text text-anchor="middle" x="644" y="-53.5" font-family="Helvetica,sans-Serif" font-size="10.00">CollisionShape.ApplyWorldVertices</text>
</a>
</g>
</g>
<!-- Node4&#45;&gt;Node5 -->
<g id="edge4" class="edge">
<title>Node4&#45;&gt;Node5</title>
<path fill="none" stroke="midnightblue" d="M523.16,-47.29C531.48,-48.27 540.11,-49.3 548.76,-50.32"/>
<polygon fill="midnightblue" stroke="midnightblue" points="548.56,-53.82 558.91,-51.53 549.39,-46.87 548.56,-53.82"/>
</g>
<!-- Node6 -->
<g id="node6" class="node">
<title>Node6</title>
<g id="a_node6"><a xlink:href="class_physics_1_1_collision_1_1_shape_1_1_collision_shape.html#ab236eb056356a1dd7e657c4154a58441" target="_top" xlink:title=" ">
<polygon fill="white" stroke="black" points="765,-24.5 765,-54.5 909,-54.5 909,-24.5 765,-24.5"/>
<text text-anchor="start" x="773" y="-42.5" font-family="Helvetica,sans-Serif" font-size="10.00">Physics.Collision.Shape.</text>
<text text-anchor="middle" x="837" y="-31.5" font-family="Helvetica,sans-Serif" font-size="10.00">CollisionShape.UpdateShape</text>
</a>
</g>
</g>
<!-- Node4&#45;&gt;Node6 -->
<g id="edge8" class="edge">
<title>Node4&#45;&gt;Node6</title>
<path fill="none" stroke="midnightblue" d="M523.02,-38.02C534.99,-37.8 547.37,-37.61 559,-37.5 634.55,-36.76 653.45,-36.79 729,-37.5 737.35,-37.58 746.06,-37.69 754.75,-37.82"/>
<polygon fill="midnightblue" stroke="midnightblue" points="754.87,-41.32 764.92,-37.99 754.98,-34.33 754.87,-41.32"/>
</g>
<!-- Node5&#45;&gt;Node6 -->
<g id="edge5" class="edge">
<title>Node5&#45;&gt;Node6</title>
<path fill="none" stroke="midnightblue" d="M729.05,-51.82C737.52,-50.84 746.11,-49.85 754.55,-48.88"/>
<polygon fill="midnightblue" stroke="midnightblue" points="755.22,-52.33 764.75,-47.71 754.42,-45.37 755.22,-52.33"/>
</g>
<!-- Node7 -->
<g id="node7" class="node">
<title>Node7</title>
<g id="a_node7"><a xlink:href="class_physics_1_1_collision_1_1_model_1_1_a_a_b_b.html#aab605aa58d0da2a571db877bb277f9dc" target="_top" xlink:title=" ">
<polygon fill="white" stroke="black" points="946.5,-49.5 946.5,-79.5 1071.5,-79.5 1071.5,-49.5 946.5,-49.5"/>
<text text-anchor="start" x="954.5" y="-67.5" font-family="Helvetica,sans-Serif" font-size="10.00">Physics.Collision.Model.</text>
<text text-anchor="middle" x="1009" y="-56.5" font-family="Helvetica,sans-Serif" font-size="10.00">AABB.Apply</text>
</a>
</g>
</g>
<!-- Node6&#45;&gt;Node7 -->
<g id="edge6" class="edge">
<title>Node6&#45;&gt;Node7</title>
<path fill="none" stroke="midnightblue" d="M909.11,-49.96C918.1,-51.28 927.3,-52.63 936.3,-53.96"/>
<polygon fill="midnightblue" stroke="midnightblue" points="935.95,-57.44 946.36,-55.43 936.97,-50.52 935.95,-57.44"/>
</g>
<!-- Node8 -->
<g id="node8" class="node">
<title>Node8</title>
<g id="a_node8"><a xlink:href="class_physics_1_1_collision_1_1_shape_1_1_collision_shape.html#af5247f1c8125a229c2be17f898608269" target="_top" xlink:title=" ">
<polygon fill="white" stroke="black" points="945,-0.5 945,-30.5 1073,-30.5 1073,-0.5 945,-0.5"/>
<text text-anchor="start" x="953" y="-18.5" font-family="Helvetica,sans-Serif" font-size="10.00">Physics.Collision.Shape.</text>
<text text-anchor="middle" x="1009" y="-7.5" font-family="Helvetica,sans-Serif" font-size="10.00">CollisionShape.GetBound</text>
</a>
</g>
</g>
<!-- Node6&#45;&gt;Node8 -->
<g id="edge7" class="edge">
<title>Node6&#45;&gt;Node8</title>
<path fill="none" stroke="midnightblue" d="M909.11,-29.46C917.61,-28.26 926.3,-27.03 934.83,-25.83"/>
<polygon fill="midnightblue" stroke="midnightblue" points="935.34,-29.29 944.75,-24.43 934.36,-22.36 935.34,-29.29"/>
</g>
</g>
</svg>
