<?xml version="1.0" encoding="UTF-8" standalone="no"?>
<!DOCTYPE svg PUBLIC "-//W3C//DTD SVG 1.1//EN"
 "http://www.w3.org/Graphics/SVG/1.1/DTD/svg11.dtd">
<!-- Generated by graphviz version 2.50.0 (20211204.2007)
 -->
<!-- Title: Physics.PhysicsTool.GetClosestPointToOrigin Pages: 1 -->
<svg width="1249pt" height="72pt"
 viewBox="0.00 0.00 1249.00 71.50" xmlns="http://www.w3.org/2000/svg" xmlns:xlink="http://www.w3.org/1999/xlink">
<g id="graph0" class="graph" transform="scale(1 1) rotate(0) translate(4 67.5)">
<title>Physics.PhysicsTool.GetClosestPointToOrigin</title>
<polygon fill="white" stroke="transparent" points="-4,4 -4,-67.5 1245,-67.5 1245,4 -4,4"/>
<!-- Node1 -->
<g id="node1" class="node">
<title>Node1</title>
<g id="a_node1"><a xlink:title=" ">
<polygon fill="#bfbfbf" stroke="black" points="1080,-11 1080,-41 1241,-41 1241,-11 1080,-11"/>
<text text-anchor="start" x="1088" y="-29" font-family="Helvetica,sans-Serif" font-size="10.00">Physics.PhysicsTool.GetClosest</text>
<text text-anchor="middle" x="1160.5" y="-18" font-family="Helvetica,sans-Serif" font-size="10.00">PointToOrigin</text>
</a>
</g>
</g>
<!-- Node2 -->
<g id="node2" class="node">
<title>Node2</title>
<g id="a_node2"><a xlink:href="class_physics_1_1_physics_world.html#a5ea0895316da17449ff1352e2610ba59" target="_top" xlink:title=" ">
<polygon fill="white" stroke="black" points="907,-33 907,-63 1044,-63 1044,-33 907,-33"/>
<text text-anchor="start" x="915" y="-51" font-family="Helvetica,sans-Serif" font-size="10.00">Physics.PhysicsWorld.Find</text>
<text text-anchor="middle" x="975.5" y="-40" font-family="Helvetica,sans-Serif" font-size="10.00">NextDirection</text>
</a>
</g>
</g>
<!-- Node1&#45;&gt;Node2 -->
<g id="edge1" class="edge">
<title>Node1&#45;&gt;Node2</title>
<path fill="none" stroke="midnightblue" d="M1069.72,-36.79C1061.15,-37.82 1052.55,-38.86 1044.23,-39.86"/>
<polygon fill="midnightblue" stroke="midnightblue" points="1070.26,-40.25 1079.77,-35.59 1069.42,-33.3 1070.26,-40.25"/>
</g>
<!-- Node8 -->
<g id="node8" class="node">
<title>Node8</title>
<g id="a_node8"><a xlink:href="class_physics_1_1_physics_world.html#abbda8b52c5f3c0cf86ac64fbc64fd69e" target="_top" xlink:title=" ">
<polygon fill="white" stroke="black" points="734,-0.5 734,-19.5 871,-19.5 871,-0.5 734,-0.5"/>
<text text-anchor="middle" x="802.5" y="-7.5" font-family="Helvetica,sans-Serif" font-size="10.00">Physics.PhysicsWorld.GJK</text>
</a>
</g>
</g>
<!-- Node1&#45;&gt;Node8 -->
<g id="edge9" class="edge">
<title>Node1&#45;&gt;Node8</title>
<path fill="none" stroke="midnightblue" d="M1069.49,-21.95C1007.84,-19.18 927.38,-15.57 871.16,-13.04"/>
<polygon fill="midnightblue" stroke="midnightblue" points="1069.46,-25.46 1079.61,-22.41 1069.77,-18.46 1069.46,-25.46"/>
</g>
<!-- Node3 -->
<g id="node3" class="node">
<title>Node3</title>
<g id="a_node3"><a xlink:href="class_physics_1_1_physics_world.html#a981b90f47065fded56b0145083aac984" target="_top" xlink:title=" ">
<polygon fill="white" stroke="black" points="734,-38.5 734,-57.5 871,-57.5 871,-38.5 734,-38.5"/>
<text text-anchor="middle" x="802.5" y="-45.5" font-family="Helvetica,sans-Serif" font-size="10.00">Physics.PhysicsWorld.EPA</text>
</a>
</g>
</g>
<!-- Node2&#45;&gt;Node3 -->
<g id="edge2" class="edge">
<title>Node2&#45;&gt;Node3</title>
<path fill="none" stroke="midnightblue" d="M896.9,-48C888.31,-48 879.61,-48 871.15,-48"/>
<polygon fill="midnightblue" stroke="midnightblue" points="896.92,-51.5 906.92,-48 896.92,-44.5 896.92,-51.5"/>
</g>
<!-- Node2&#45;&gt;Node8 -->
<g id="edge7" class="edge">
<title>Node2&#45;&gt;Node8</title>
<path fill="none" stroke="midnightblue" d="M896.76,-30.72C879.39,-26.86 861.59,-22.91 846.25,-19.5"/>
<polygon fill="midnightblue" stroke="midnightblue" points="896.4,-34.23 906.92,-32.98 897.91,-27.4 896.4,-34.23"/>
</g>
<!-- Node4 -->
<g id="node4" class="node">
<title>Node4</title>
<g id="a_node4"><a xlink:href="class_physics_1_1_physics_world.html#ab505479deb9b79c8d1c5edd3957c8e49" target="_top" xlink:title=" ">
<polygon fill="white" stroke="black" points="549,-14 549,-44 698,-44 698,-14 549,-14"/>
<text text-anchor="start" x="557" y="-32" font-family="Helvetica,sans-Serif" font-size="10.00">Physics.PhysicsWorld.Narrow</text>
<text text-anchor="middle" x="623.5" y="-21" font-family="Helvetica,sans-Serif" font-size="10.00">Phase</text>
</a>
</g>
</g>
<!-- Node3&#45;&gt;Node4 -->
<g id="edge3" class="edge">
<title>Node3&#45;&gt;Node4</title>
<path fill="none" stroke="midnightblue" d="M723.84,-39.66C715.27,-38.74 706.55,-37.81 698.03,-36.89"/>
<polygon fill="midnightblue" stroke="midnightblue" points="723.51,-43.15 733.83,-40.74 724.26,-36.19 723.51,-43.15"/>
</g>
<!-- Node5 -->
<g id="node5" class="node">
<title>Node5</title>
<g id="a_node5"><a xlink:href="class_physics_1_1_physics_world.html#a516968c71000684ea688d080074d0ec8" target="_top" xlink:title=" ">
<polygon fill="white" stroke="black" points="358,-14 358,-44 513,-44 513,-14 358,-14"/>
<text text-anchor="start" x="366" y="-32" font-family="Helvetica,sans-Serif" font-size="10.00">Physics.PhysicsWorld.Collision</text>
<text text-anchor="middle" x="435.5" y="-21" font-family="Helvetica,sans-Serif" font-size="10.00">Detection</text>
</a>
</g>
</g>
<!-- Node4&#45;&gt;Node5 -->
<g id="edge4" class="edge">
<title>Node4&#45;&gt;Node5</title>
<path fill="none" stroke="midnightblue" d="M538.96,-29C530.37,-29 521.66,-29 513.14,-29"/>
<polygon fill="midnightblue" stroke="midnightblue" points="538.99,-32.5 548.99,-29 538.99,-25.5 538.99,-32.5"/>
</g>
<!-- Node6 -->
<g id="node6" class="node">
<title>Node6</title>
<g id="a_node6"><a xlink:href="class_physics_1_1_physics_world.html#adc2e766cfd2414718237d76064130c7f" target="_top" xlink:title=" ">
<polygon fill="white" stroke="black" points="185,-19.5 185,-38.5 322,-38.5 322,-19.5 185,-19.5"/>
<text text-anchor="middle" x="253.5" y="-26.5" font-family="Helvetica,sans-Serif" font-size="10.00">Physics.PhysicsWorld.Tick</text>
</a>
</g>
</g>
<!-- Node5&#45;&gt;Node6 -->
<g id="edge5" class="edge">
<title>Node5&#45;&gt;Node6</title>
<path fill="none" stroke="midnightblue" d="M347.84,-29C339.23,-29 330.58,-29 322.2,-29"/>
<polygon fill="midnightblue" stroke="midnightblue" points="347.9,-32.5 357.9,-29 347.9,-25.5 347.9,-32.5"/>
</g>
<!-- Node7 -->
<g id="node7" class="node">
<title>Node7</title>
<g id="a_node7"><a xlink:href="class_physics_1_1_physics_world.html#a21bcd3d27cec2fa8cf00d28be40ae413" target="_top" xlink:title=" ">
<polygon fill="white" stroke="black" points="0,-19.5 0,-38.5 149,-38.5 149,-19.5 0,-19.5"/>
<text text-anchor="middle" x="74.5" y="-26.5" font-family="Helvetica,sans-Serif" font-size="10.00">Physics.PhysicsWorld.Update</text>
</a>
</g>
</g>
<!-- Node6&#45;&gt;Node7 -->
<g id="edge6" class="edge">
<title>Node6&#45;&gt;Node7</title>
<path fill="none" stroke="midnightblue" d="M174.56,-29C166.08,-29 157.46,-29 149.03,-29"/>
<polygon fill="midnightblue" stroke="midnightblue" points="174.83,-32.5 184.83,-29 174.83,-25.5 174.83,-32.5"/>
</g>
<!-- Node8&#45;&gt;Node4 -->
<g id="edge8" class="edge">
<title>Node8&#45;&gt;Node4</title>
<path fill="none" stroke="midnightblue" d="M723.84,-18.34C715.27,-19.26 706.55,-20.19 698.03,-21.11"/>
<polygon fill="midnightblue" stroke="midnightblue" points="724.26,-21.81 733.83,-17.26 723.51,-14.85 724.26,-21.81"/>
</g>
</g>
</svg>
