<?xml version="1.0" encoding="UTF-8" standalone="no"?>
<!DOCTYPE svg PUBLIC "-//W3C//DTD SVG 1.1//EN"
 "http://www.w3.org/Graphics/SVG/1.1/DTD/svg11.dtd">
<!-- Generated by graphviz version 2.50.0 (20211204.2007)
 -->
<!-- Title: Physics.PhysicsWorld.EPA Pages: 1 -->
<svg width="703pt" height="372pt"
 viewBox="0.00 0.00 703.00 372.00" xmlns="http://www.w3.org/2000/svg" xmlns:xlink="http://www.w3.org/1999/xlink">
<g id="graph0" class="graph" transform="scale(1 1) rotate(0) translate(4 368)">
<title>Physics.PhysicsWorld.EPA</title>
<polygon fill="white" stroke="transparent" points="-4,4 -4,-368 699,-368 699,4 -4,4"/>
<!-- Node1 -->
<g id="node1" class="node">
<title>Node1</title>
<g id="a_node1"><a xlink:title=" ">
<polygon fill="#bfbfbf" stroke="black" points="0,-192 0,-211 137,-211 137,-192 0,-192"/>
<text text-anchor="middle" x="68.5" y="-199" font-family="Helvetica,sans-Serif" font-size="10.00">Physics.PhysicsWorld.EPA</text>
</a>
</g>
</g>
<!-- Node2 -->
<g id="node2" class="node">
<title>Node2</title>
<g id="a_node2"><a xlink:href="class_physics_1_1_collision_1_1_model_1_1_simplex_edge.html#a816ccd6c203d0952fdcf318cbf628be2" target="_top" xlink:title=" ">
<polygon fill="white" stroke="black" points="174.5,-333.5 174.5,-363.5 326.5,-363.5 326.5,-333.5 174.5,-333.5"/>
<text text-anchor="start" x="182.5" y="-351.5" font-family="Helvetica,sans-Serif" font-size="10.00">Physics.Collision.Model.</text>
<text text-anchor="middle" x="250.5" y="-340.5" font-family="Helvetica,sans-Serif" font-size="10.00">SimplexEdge.FindClosestEdge</text>
</a>
</g>
</g>
<!-- Node1&#45;&gt;Node2 -->
<g id="edge1" class="edge">
<title>Node1&#45;&gt;Node2</title>
<path fill="none" stroke="midnightblue" d="M74.91,-211.09C88.4,-234.15 125.85,-293.09 173,-324.5 175.39,-326.09 177.89,-327.58 180.47,-328.98"/>
<polygon fill="midnightblue" stroke="midnightblue" points="178.97,-332.14 189.49,-333.37 182.03,-325.85 178.97,-332.14"/>
</g>
<!-- Node3 -->
<g id="node3" class="node">
<title>Node3</title>
<g id="a_node3"><a xlink:href="class_physics_1_1_physics_world.html#a5ea0895316da17449ff1352e2610ba59" target="_top" xlink:title=" ">
<polygon fill="white" stroke="black" points="182,-284.5 182,-314.5 319,-314.5 319,-284.5 182,-284.5"/>
<text text-anchor="start" x="190" y="-302.5" font-family="Helvetica,sans-Serif" font-size="10.00">Physics.PhysicsWorld.Find</text>
<text text-anchor="middle" x="250.5" y="-291.5" font-family="Helvetica,sans-Serif" font-size="10.00">NextDirection</text>
</a>
</g>
</g>
<!-- Node1&#45;&gt;Node3 -->
<g id="edge2" class="edge">
<title>Node1&#45;&gt;Node3</title>
<path fill="none" stroke="midnightblue" d="M80.53,-211.21C98.66,-226.74 136.43,-257.27 173,-275.5 176.71,-277.35 180.6,-279.1 184.57,-280.74"/>
<polygon fill="midnightblue" stroke="midnightblue" points="183.35,-284.02 193.93,-284.37 185.88,-277.49 183.35,-284.02"/>
</g>
<!-- Node5 -->
<g id="node5" class="node">
<title>Node5</title>
<g id="a_node5"><a xlink:href="class_physics_1_1_tool_1_1_physics_cache_pool.html#ab67193fe66ad5ef639e0f88a9b1a79ec" target="_top" xlink:title=" ">
<polygon fill="white" stroke="black" points="173,-235.5 173,-265.5 328,-265.5 328,-235.5 173,-235.5"/>
<text text-anchor="start" x="181" y="-253.5" font-family="Helvetica,sans-Serif" font-size="10.00">Physics.Tool.PhysicsCache</text>
<text text-anchor="middle" x="250.5" y="-242.5" font-family="Helvetica,sans-Serif" font-size="10.00">Pool.GetSimplexEdgeFromPool</text>
</a>
</g>
</g>
<!-- Node1&#45;&gt;Node5 -->
<g id="edge4" class="edge">
<title>Node1&#45;&gt;Node5</title>
<path fill="none" stroke="midnightblue" d="M104.63,-211.06C127.32,-217.24 157.53,-225.46 184.5,-232.8"/>
<polygon fill="midnightblue" stroke="midnightblue" points="183.69,-236.21 194.26,-235.46 185.53,-229.46 183.69,-236.21"/>
</g>
<!-- Node6 -->
<g id="node6" class="node">
<title>Node6</title>
<g id="a_node6"><a xlink:href="class_physics_1_1_collision_1_1_model_1_1_simplex_edge.html#ac435eb94635850bd1dbf75897fee68b7" target="_top" xlink:title=" ">
<polygon fill="white" stroke="black" points="188,-186.5 188,-216.5 313,-216.5 313,-186.5 188,-186.5"/>
<text text-anchor="start" x="196" y="-204.5" font-family="Helvetica,sans-Serif" font-size="10.00">Physics.Collision.Model.</text>
<text text-anchor="middle" x="250.5" y="-193.5" font-family="Helvetica,sans-Serif" font-size="10.00">SimplexEdge.InitEdges</text>
</a>
</g>
</g>
<!-- Node1&#45;&gt;Node6 -->
<g id="edge5" class="edge">
<title>Node1&#45;&gt;Node6</title>
<path fill="none" stroke="midnightblue" d="M137.04,-201.5C150.31,-201.5 164.29,-201.5 177.69,-201.5"/>
<polygon fill="midnightblue" stroke="midnightblue" points="177.82,-205 187.82,-201.5 177.82,-198 177.82,-205"/>
</g>
<!-- Node11 -->
<g id="node11" class="node">
<title>Node11</title>
<g id="a_node11"><a xlink:href="class_physics_1_1_collision_1_1_model_1_1_simplex_edge.html#ae349a32da5778aa885c6f5b1e7153350" target="_top" xlink:title=" ">
<polygon fill="white" stroke="black" points="177,-137.5 177,-167.5 324,-167.5 324,-137.5 177,-137.5"/>
<text text-anchor="start" x="185" y="-155.5" font-family="Helvetica,sans-Serif" font-size="10.00">Physics.Collision.Model.</text>
<text text-anchor="middle" x="250.5" y="-144.5" font-family="Helvetica,sans-Serif" font-size="10.00">SimplexEdge.InsertEdgePoint</text>
</a>
</g>
</g>
<!-- Node1&#45;&gt;Node11 -->
<g id="edge10" class="edge">
<title>Node1&#45;&gt;Node11</title>
<path fill="none" stroke="midnightblue" d="M104.63,-191.94C127.32,-185.76 157.53,-177.54 184.5,-170.2"/>
<polygon fill="midnightblue" stroke="midnightblue" points="185.53,-173.54 194.26,-167.54 183.69,-166.79 185.53,-173.54"/>
</g>
<!-- Node14 -->
<g id="node14" class="node">
<title>Node14</title>
<g id="a_node14"><a xlink:href="class_physics_1_1_tool_1_1_physics_cache_pool.html#adb2db95c9b826ec9e9b3a31025adc8c6" target="_top" xlink:title=" ">
<polygon fill="white" stroke="black" points="180.5,-68.5 180.5,-98.5 320.5,-98.5 320.5,-68.5 180.5,-68.5"/>
<text text-anchor="start" x="188.5" y="-86.5" font-family="Helvetica,sans-Serif" font-size="10.00">Physics.Tool.PhysicsCache</text>
<text text-anchor="middle" x="250.5" y="-75.5" font-family="Helvetica,sans-Serif" font-size="10.00">Pool.RecycleSimplexEdge</text>
</a>
</g>
</g>
<!-- Node1&#45;&gt;Node14 -->
<g id="edge16" class="edge">
<title>Node1&#45;&gt;Node14</title>
<path fill="none" stroke="midnightblue" d="M82.33,-191.93C101.67,-177.64 139.56,-150.08 173,-128.5 186.15,-120.02 200.91,-111.18 213.93,-103.61"/>
<polygon fill="midnightblue" stroke="midnightblue" points="215.71,-106.62 222.62,-98.59 212.21,-100.56 215.71,-106.62"/>
</g>
<!-- Node16 -->
<g id="node16" class="node">
<title>Node16</title>
<g id="a_node16"><a xlink:href="class_physics_1_1_physics_world.html#af1aadffc2ad0f1b13391fe5eb1f4e703" target="_top" xlink:title=" ">
<polygon fill="white" stroke="black" points="174.5,-28 174.5,-47 326.5,-47 326.5,-28 174.5,-28"/>
<text text-anchor="middle" x="250.5" y="-35" font-family="Helvetica,sans-Serif" font-size="10.00">Physics.PhysicsWorld.Support</text>
</a>
</g>
</g>
<!-- Node1&#45;&gt;Node16 -->
<g id="edge19" class="edge">
<title>Node1&#45;&gt;Node16</title>
<path fill="none" stroke="midnightblue" d="M73.74,-191.86C85.52,-166.2 121.26,-95.7 173,-59.5 177.86,-56.1 183.24,-53.22 188.83,-50.78"/>
<polygon fill="midnightblue" stroke="midnightblue" points="190.32,-53.96 198.38,-47.09 187.79,-47.43 190.32,-53.96"/>
</g>
<!-- Node4 -->
<g id="node4" class="node">
<title>Node4</title>
<g id="a_node4"><a xlink:href="class_physics_1_1_tool_1_1_physics_tool.html#a7b559484401a2cc211847f49cff64dbc" target="_top" xlink:title=" ">
<polygon fill="white" stroke="black" points="375.5,-284.5 375.5,-314.5 507.5,-314.5 507.5,-284.5 375.5,-284.5"/>
<text text-anchor="start" x="383.5" y="-302.5" font-family="Helvetica,sans-Serif" font-size="10.00">Physics.Tool.PhysicsTool.</text>
<text text-anchor="middle" x="441.5" y="-291.5" font-family="Helvetica,sans-Serif" font-size="10.00">GetClosestPointToOrigin</text>
</a>
</g>
</g>
<!-- Node3&#45;&gt;Node4 -->
<g id="edge3" class="edge">
<title>Node3&#45;&gt;Node4</title>
<path fill="none" stroke="midnightblue" d="M319.2,-299.5C334.09,-299.5 349.94,-299.5 365.11,-299.5"/>
<polygon fill="midnightblue" stroke="midnightblue" points="365.49,-303 375.49,-299.5 365.49,-296 365.49,-303"/>
</g>
<!-- Node7 -->
<g id="node7" class="node">
<title>Node7</title>
<g id="a_node7"><a xlink:href="class_physics_1_1_collision_1_1_model_1_1_simplex_edge.html#aa9b0228aaaf6885ee72668b11e1b22da" target="_top" xlink:title=" ">
<polygon fill="white" stroke="black" points="370,-235.5 370,-265.5 513,-265.5 513,-235.5 370,-235.5"/>
<text text-anchor="start" x="378" y="-253.5" font-family="Helvetica,sans-Serif" font-size="10.00">Physics.Collision.Model.</text>
<text text-anchor="middle" x="441.5" y="-242.5" font-family="Helvetica,sans-Serif" font-size="10.00">SimplexEdge.CreateInitEdge</text>
</a>
</g>
</g>
<!-- Node6&#45;&gt;Node7 -->
<g id="edge6" class="edge">
<title>Node6&#45;&gt;Node7</title>
<path fill="none" stroke="midnightblue" d="M309.49,-216.53C329.54,-221.73 352.17,-227.6 372.92,-232.98"/>
<polygon fill="midnightblue" stroke="midnightblue" points="372.06,-236.37 382.62,-235.49 373.82,-229.6 372.06,-236.37"/>
</g>
<!-- Node10 -->
<g id="node10" class="node">
<title>Node10</title>
<g id="a_node10"><a xlink:href="class_physics_1_1_collision_1_1_model_1_1_simplex_edge.html#a536f768434ce96fc78fe67adf4e0c9ed" target="_top" xlink:title=" ">
<polygon fill="white" stroke="black" points="364,-186.5 364,-216.5 519,-216.5 519,-186.5 364,-186.5"/>
<text text-anchor="start" x="372" y="-204.5" font-family="Helvetica,sans-Serif" font-size="10.00">Physics.Collision.Model.</text>
<text text-anchor="middle" x="441.5" y="-193.5" font-family="Helvetica,sans-Serif" font-size="10.00">SimplexEdge.UpdateEdgeIndex</text>
</a>
</g>
</g>
<!-- Node6&#45;&gt;Node10 -->
<g id="edge9" class="edge">
<title>Node6&#45;&gt;Node10</title>
<path fill="none" stroke="midnightblue" d="M313.12,-201.5C326,-201.5 339.81,-201.5 353.41,-201.5"/>
<polygon fill="midnightblue" stroke="midnightblue" points="353.75,-205 363.75,-201.5 353.75,-198 353.75,-205"/>
</g>
<!-- Node8 -->
<g id="node8" class="node">
<title>Node8</title>
<g id="a_node8"><a xlink:href="class_physics_1_1_tool_1_1_physics_cache_pool.html#a5632346a5a6c8029427ce1ec41cc1edc" target="_top" xlink:title=" ">
<polygon fill="white" stroke="black" points="555,-149.5 555,-179.5 695,-179.5 695,-149.5 555,-149.5"/>
<text text-anchor="start" x="563" y="-167.5" font-family="Helvetica,sans-Serif" font-size="10.00">Physics.Tool.PhysicsCache</text>
<text text-anchor="middle" x="625" y="-156.5" font-family="Helvetica,sans-Serif" font-size="10.00">Pool.GetEdgeFromPool</text>
</a>
</g>
</g>
<!-- Node7&#45;&gt;Node8 -->
<g id="edge7" class="edge">
<title>Node7&#45;&gt;Node8</title>
<path fill="none" stroke="midnightblue" d="M496.17,-235.39C503.94,-232.7 511.75,-229.73 519,-226.5 545.11,-214.88 572.89,-198.27 593.31,-185.17"/>
<polygon fill="midnightblue" stroke="midnightblue" points="595.39,-187.99 601.86,-179.61 591.57,-182.12 595.39,-187.99"/>
</g>
<!-- Node9 -->
<g id="node9" class="node">
<title>Node9</title>
<g id="a_node9"><a xlink:href="class_physics_1_1_tool_1_1_physics_tool.html#ae7347b7ed11fb2a7a4e78afe07d8a4d2" target="_top" xlink:title=" ">
<polygon fill="white" stroke="black" points="559,-222.5 559,-252.5 691,-252.5 691,-222.5 559,-222.5"/>
<text text-anchor="start" x="567" y="-240.5" font-family="Helvetica,sans-Serif" font-size="10.00">Physics.Tool.PhysicsTool.</text>
<text text-anchor="middle" x="625" y="-229.5" font-family="Helvetica,sans-Serif" font-size="10.00">GetPerpendicularToOrigin</text>
</a>
</g>
</g>
<!-- Node7&#45;&gt;Node9 -->
<g id="edge8" class="edge">
<title>Node7&#45;&gt;Node9</title>
<path fill="none" stroke="midnightblue" d="M513.19,-245.44C524.82,-244.6 536.9,-243.74 548.64,-242.9"/>
<polygon fill="midnightblue" stroke="midnightblue" points="549.11,-246.37 558.84,-242.17 548.61,-239.39 549.11,-246.37"/>
</g>
<!-- Node11&#45;&gt;Node10 -->
<g id="edge15" class="edge">
<title>Node11&#45;&gt;Node10</title>
<path fill="none" stroke="midnightblue" d="M309.49,-167.53C329.54,-172.73 352.17,-178.6 372.92,-183.98"/>
<polygon fill="midnightblue" stroke="midnightblue" points="372.06,-187.37 382.62,-186.49 373.82,-180.6 372.06,-187.37"/>
</g>
<!-- Node12 -->
<g id="node12" class="node">
<title>Node12</title>
<g id="a_node12"><a xlink:href="class_physics_1_1_collision_1_1_model_1_1_simplex_edge.html#a46b8494a6a6088235c2b1bb272cdb8ba" target="_top" xlink:title=" ">
<polygon fill="white" stroke="black" points="377,-137.5 377,-167.5 506,-167.5 506,-137.5 377,-137.5"/>
<text text-anchor="start" x="385" y="-155.5" font-family="Helvetica,sans-Serif" font-size="10.00">Physics.Collision.Model.</text>
<text text-anchor="middle" x="441.5" y="-144.5" font-family="Helvetica,sans-Serif" font-size="10.00">SimplexEdge.CreateEdge</text>
</a>
</g>
</g>
<!-- Node11&#45;&gt;Node12 -->
<g id="edge11" class="edge">
<title>Node11&#45;&gt;Node12</title>
<path fill="none" stroke="midnightblue" d="M324.03,-152.5C338.02,-152.5 352.69,-152.5 366.72,-152.5"/>
<polygon fill="midnightblue" stroke="midnightblue" points="366.8,-156 376.8,-152.5 366.8,-149 366.8,-156"/>
</g>
<!-- Node13 -->
<g id="node13" class="node">
<title>Node13</title>
<g id="a_node13"><a xlink:href="class_physics_1_1_tool_1_1_physics_cache_pool.html#a40a29873272825581e5d87a82b737e0f" target="_top" xlink:title=" ">
<polygon fill="white" stroke="black" points="555,-81.5 555,-111.5 695,-111.5 695,-81.5 555,-81.5"/>
<text text-anchor="start" x="563" y="-99.5" font-family="Helvetica,sans-Serif" font-size="10.00">Physics.Tool.PhysicsCache</text>
<text text-anchor="middle" x="625" y="-88.5" font-family="Helvetica,sans-Serif" font-size="10.00">Pool.RecycleEdge</text>
</a>
</g>
</g>
<!-- Node11&#45;&gt;Node13 -->
<g id="edge14" class="edge">
<title>Node11&#45;&gt;Node13</title>
<path fill="none" stroke="midnightblue" d="M317.35,-137.44C332.61,-134.23 348.83,-131.05 364,-128.5 424.34,-118.37 493.06,-110.05 544.7,-104.43"/>
<polygon fill="midnightblue" stroke="midnightblue" points="545.22,-107.9 554.79,-103.35 544.47,-100.94 545.22,-107.9"/>
</g>
<!-- Node12&#45;&gt;Node8 -->
<g id="edge12" class="edge">
<title>Node12&#45;&gt;Node8</title>
<path fill="none" stroke="midnightblue" d="M506.23,-156.71C518.65,-157.53 531.8,-158.4 544.65,-159.25"/>
<polygon fill="midnightblue" stroke="midnightblue" points="544.65,-162.76 554.86,-159.93 545.11,-155.78 544.65,-162.76"/>
</g>
<!-- Node12&#45;&gt;Node9 -->
<g id="edge13" class="edge">
<title>Node12&#45;&gt;Node9</title>
<path fill="none" stroke="midnightblue" d="M493.66,-167.62C502.23,-170.6 510.95,-173.93 519,-177.5 544.41,-188.77 571.63,-204.43 591.98,-216.93"/>
<polygon fill="midnightblue" stroke="midnightblue" points="590.19,-219.94 600.54,-222.25 593.89,-214 590.19,-219.94"/>
</g>
<!-- Node15 -->
<g id="node15" class="node">
<title>Node15</title>
<g id="a_node15"><a xlink:href="class_physics_1_1_collision_1_1_model_1_1_simplex_edge.html#a422d4d80fc2c4205af1f96abcec05a67" target="_top" xlink:title=" ">
<polygon fill="white" stroke="black" points="379,-49.5 379,-79.5 504,-79.5 504,-49.5 379,-49.5"/>
<text text-anchor="start" x="387" y="-67.5" font-family="Helvetica,sans-Serif" font-size="10.00">Physics.Collision.Model.</text>
<text text-anchor="middle" x="441.5" y="-56.5" font-family="Helvetica,sans-Serif" font-size="10.00">SimplexEdge.Clear</text>
</a>
</g>
</g>
<!-- Node14&#45;&gt;Node15 -->
<g id="edge17" class="edge">
<title>Node14&#45;&gt;Node15</title>
<path fill="none" stroke="midnightblue" d="M320.54,-76.56C336.19,-74.99 352.86,-73.31 368.63,-71.73"/>
<polygon fill="midnightblue" stroke="midnightblue" points="369.24,-75.18 378.84,-70.7 368.54,-68.22 369.24,-75.18"/>
</g>
<!-- Node15&#45;&gt;Node13 -->
<g id="edge18" class="edge">
<title>Node15&#45;&gt;Node13</title>
<path fill="none" stroke="midnightblue" d="M504.2,-75.38C517.35,-77.7 531.41,-80.18 545.1,-82.59"/>
<polygon fill="midnightblue" stroke="midnightblue" points="544.53,-86.04 554.99,-84.33 545.75,-79.15 544.53,-86.04"/>
</g>
<!-- Node17 -->
<g id="node17" class="node">
<title>Node17</title>
<g id="a_node17"><a xlink:href="class_physics_1_1_collision_1_1_collision_object.html#a28cc343d91add7b15402133b83d76b27" target="_top" xlink:title=" ">
<polygon fill="white" stroke="black" points="370,-0.5 370,-30.5 513,-30.5 513,-0.5 370,-0.5"/>
<text text-anchor="start" x="378" y="-18.5" font-family="Helvetica,sans-Serif" font-size="10.00">Physics.Collision.Collision</text>
<text text-anchor="middle" x="441.5" y="-7.5" font-family="Helvetica,sans-Serif" font-size="10.00">Object.GetFarthestPointInDir</text>
</a>
</g>
</g>
<!-- Node16&#45;&gt;Node17 -->
<g id="edge20" class="edge">
<title>Node16&#45;&gt;Node17</title>
<path fill="none" stroke="midnightblue" d="M326.74,-28.74C337.62,-27.48 348.85,-26.17 359.83,-24.89"/>
<polygon fill="midnightblue" stroke="midnightblue" points="360.29,-28.36 369.82,-23.73 359.48,-21.41 360.29,-28.36"/>
</g>
</g>
</svg>
