<?xml version="1.0" encoding="UTF-8" standalone="no"?>
<!DOCTYPE svg PUBLIC "-//W3C//DTD SVG 1.1//EN"
 "http://www.w3.org/Graphics/SVG/1.1/DTD/svg11.dtd">
<!-- Generated by graphviz version 2.50.0 (20211204.2007)
 -->
<!-- Title: Physics.PhysicsWorld.CollisionDetection Pages: 1 -->
<!--zoomable 511 -->
<svg id="main" version="1.1" xmlns="http://www.w3.org/2000/svg" xmlns:xlink="http://www.w3.org/1999/xlink" xml:space="preserve" onload="init(evt)">
<style type="text/css"><![CDATA[
.edge:hover path { stroke: red; }
.edge:hover polygon { stroke: red; fill: red; }
]]></style>
<script type="text/javascript"><![CDATA[
var edges = document.getElementsByTagName('g');
if (edges && edges.length) {
  for (var i=0;i<edges.length;i++) {
    if (edges[i].id.substr(0,4)=='edge') {
      edges[i].setAttribute('class','edge');
    }
  }
}
]]></script>
        <defs>
                <circle id="rim" cx="0" cy="0" r="7"/>
                <circle id="rim2" cx="0" cy="0" r="3.5"/>
                <g id="zoomPlus">
                        <use xlink:href="#rim" fill="#404040">
                                <set attributeName="fill" to="#808080" begin="zoomplus.mouseover" end="zoomplus.mouseout"/>
                        </use>
                        <path d="M-4,0h8M0,-4v8" fill="none" stroke="white" stroke-width="1.5" pointer-events="none"/>
                </g>
                <g id="zoomMin">
                        <use xlink:href="#rim" fill="#404040">
                                <set attributeName="fill" to="#808080" begin="zoomminus.mouseover" end="zoomminus.mouseout"/>
                        </use>
                        <path d="M-4,0h8" fill="none" stroke="white" stroke-width="1.5" pointer-events="none"/>
                </g>
                <g id="dirArrow">
                        <path fill="none" stroke="white" stroke-width="1.5" d="M0,-3.0v7 M-2.5,-0.5L0,-3.0L2.5,-0.5"/>
                </g>
               <g id="resetDef">
                       <use xlink:href="#rim2" fill="#404040">
                               <set attributeName="fill" to="#808080" begin="reset.mouseover" end="reset.mouseout"/>
                       </use>
               </g>
        </defs>

<script type="text/javascript">
var viewWidth = 1139;
var viewHeight = 511;
var sectionId = 'dynsection-9';
</script>
<script xlink:href="svgpan.js"/>
<svg id="graph" class="graph">
<g id="viewport">
<title>Physics.PhysicsWorld.CollisionDetection</title>
<polygon fill="white" stroke="transparent" points="-4,4 -4,-507 1135,-507 1135,4 -4,4"/>
<!-- Node1 -->
<g id="node1" class="node">
<title>Node1</title>
<g id="a_node1"><a xlink:title=" ">
<polygon fill="#bfbfbf" stroke="black" points="0,-352.5 0,-382.5 155,-382.5 155,-352.5 0,-352.5"/>
<text text-anchor="start" x="8" y="-370.5" font-family="Helvetica,sans-Serif" font-size="10.00">Physics.PhysicsWorld.Collision</text>
<text text-anchor="middle" x="77.5" y="-359.5" font-family="Helvetica,sans-Serif" font-size="10.00">Detection</text>
</a>
</g>
</g>
<!-- Node2 -->
<g id="node2" class="node">
<title>Node2</title>
<g id="a_node2"><a xlink:href="class_physics_1_1_physics_world.html#a9fb900baebfc430f003c9810c5ffb676" target="_top" xlink:title=" ">
<polygon fill="white" stroke="black" points="194,-423.5 194,-453.5 337,-453.5 337,-423.5 194,-423.5"/>
<text text-anchor="start" x="202" y="-441.5" font-family="Helvetica,sans-Serif" font-size="10.00">Physics.PhysicsWorld.Broad</text>
<text text-anchor="middle" x="265.5" y="-430.5" font-family="Helvetica,sans-Serif" font-size="10.00">Phase</text>
</a>
</g>
</g>
<!-- Node1&#45;&gt;Node2 -->
<g id="edge1" class="edge">
<title>Node1&#45;&gt;Node2</title>
<path fill="none" stroke="midnightblue" d="M117.95,-382.56C146.43,-393.43 185.08,-408.18 215.53,-419.81"/>
<polygon fill="midnightblue" stroke="midnightblue" points="214.52,-423.17 225.11,-423.46 217.02,-416.63 214.52,-423.17"/>
</g>
<!-- Node6 -->
<g id="node6" class="node">
<title>Node6</title>
<g id="a_node6"><a xlink:href="class_physics_1_1_physics_world.html#ab505479deb9b79c8d1c5edd3957c8e49" target="_top" xlink:title=" ">
<polygon fill="white" stroke="black" points="191,-328.5 191,-358.5 340,-358.5 340,-328.5 191,-328.5"/>
<text text-anchor="start" x="199" y="-346.5" font-family="Helvetica,sans-Serif" font-size="10.00">Physics.PhysicsWorld.Narrow</text>
<text text-anchor="middle" x="265.5" y="-335.5" font-family="Helvetica,sans-Serif" font-size="10.00">Phase</text>
</a>
</g>
</g>
<!-- Node1&#45;&gt;Node6 -->
<g id="edge5" class="edge">
<title>Node1&#45;&gt;Node6</title>
<path fill="none" stroke="midnightblue" d="M155.23,-357.6C163.71,-356.5 172.39,-355.39 180.95,-354.28"/>
<polygon fill="midnightblue" stroke="midnightblue" points="181.47,-357.74 190.94,-352.99 180.58,-350.8 181.47,-357.74"/>
</g>
<!-- Node3 -->
<g id="node3" class="node">
<title>Node3</title>
<g id="a_node3"><a xlink:href="class_physics_1_1_physics_cache_pool.html#ac27eaf9b9f722b0953bfd38621cab2fc" target="_top" xlink:title=" ">
<polygon fill="white" stroke="black" points="379.5,-472.5 379.5,-502.5 520.5,-502.5 520.5,-472.5 379.5,-472.5"/>
<text text-anchor="start" x="387.5" y="-490.5" font-family="Helvetica,sans-Serif" font-size="10.00">Physics.PhysicsCachePool.</text>
<text text-anchor="middle" x="450" y="-479.5" font-family="Helvetica,sans-Serif" font-size="10.00">RecycleCollisionPair</text>
</a>
</g>
</g>
<!-- Node2&#45;&gt;Node3 -->
<g id="edge2" class="edge">
<title>Node2&#45;&gt;Node3</title>
<path fill="none" stroke="midnightblue" d="M322.75,-453.6C341.83,-458.73 363.32,-464.5 383.09,-469.8"/>
<polygon fill="midnightblue" stroke="midnightblue" points="382.38,-473.24 392.94,-472.45 384.19,-466.47 382.38,-473.24"/>
</g>
<!-- Node4 -->
<g id="node4" class="node">
<title>Node4</title>
<g id="a_node4"><a xlink:href="class_physics_1_1_physics_world.html#ac2f42a51005358723ff89d9021d64d59" target="_top" xlink:title=" ">
<polygon fill="white" stroke="black" points="376,-423.5 376,-453.5 524,-453.5 524,-423.5 376,-423.5"/>
<text text-anchor="start" x="384" y="-441.5" font-family="Helvetica,sans-Serif" font-size="10.00">Physics.PhysicsWorld.Sweep</text>
<text text-anchor="middle" x="450" y="-430.5" font-family="Helvetica,sans-Serif" font-size="10.00">AndPrune</text>
</a>
</g>
</g>
<!-- Node2&#45;&gt;Node4 -->
<g id="edge3" class="edge">
<title>Node2&#45;&gt;Node4</title>
<path fill="none" stroke="midnightblue" d="M337.06,-438.5C346.41,-438.5 356.08,-438.5 365.62,-438.5"/>
<polygon fill="midnightblue" stroke="midnightblue" points="365.91,-442 375.91,-438.5 365.91,-435 365.91,-442"/>
</g>
<!-- Node5 -->
<g id="node5" class="node">
<title>Node5</title>
<g id="a_node5"><a xlink:href="class_physics_1_1_physics_cache_pool.html#ae7c2a83abab9d077936c94c800197f4a" target="_top" xlink:title=" ">
<polygon fill="white" stroke="black" points="565.5,-470.5 565.5,-500.5 706.5,-500.5 706.5,-470.5 565.5,-470.5"/>
<text text-anchor="start" x="573.5" y="-488.5" font-family="Helvetica,sans-Serif" font-size="10.00">Physics.PhysicsCachePool.</text>
<text text-anchor="middle" x="636" y="-477.5" font-family="Helvetica,sans-Serif" font-size="10.00">GetCollisionPairFromPool</text>
</a>
</g>
</g>
<!-- Node4&#45;&gt;Node5 -->
<g id="edge4" class="edge">
<title>Node4&#45;&gt;Node5</title>
<path fill="none" stroke="midnightblue" d="M509.72,-453.5C527.73,-458.1 547.71,-463.2 566.32,-467.96"/>
<polygon fill="midnightblue" stroke="midnightblue" points="565.65,-471.4 576.2,-470.48 567.38,-464.61 565.65,-471.4"/>
</g>
<!-- Node7 -->
<g id="node7" class="node">
<title>Node7</title>
<g id="a_node7"><a xlink:href="class_physics_1_1_physics_world.html#a981b90f47065fded56b0145083aac984" target="_top" xlink:title=" ">
<polygon fill="white" stroke="black" points="381.5,-178 381.5,-197 518.5,-197 518.5,-178 381.5,-178"/>
<text text-anchor="middle" x="450" y="-185" font-family="Helvetica,sans-Serif" font-size="10.00">Physics.PhysicsWorld.EPA</text>
</a>
</g>
</g>
<!-- Node6&#45;&gt;Node7 -->
<g id="edge6" class="edge">
<title>Node6&#45;&gt;Node7</title>
<path fill="none" stroke="midnightblue" d="M284.33,-328.26C318.87,-298.73 394.62,-233.98 430.04,-203.71"/>
<polygon fill="midnightblue" stroke="midnightblue" points="432.41,-206.28 437.74,-197.13 427.86,-200.96 432.41,-206.28"/>
</g>
<!-- Node24 -->
<g id="node24" class="node">
<title>Node24</title>
<g id="a_node24"><a xlink:href="class_physics_1_1_physics_world.html#abbda8b52c5f3c0cf86ac64fbc64fd69e" target="_top" xlink:title=" ">
<polygon fill="white" stroke="black" points="381.5,-334 381.5,-353 518.5,-353 518.5,-334 381.5,-334"/>
<text text-anchor="middle" x="450" y="-341" font-family="Helvetica,sans-Serif" font-size="10.00">Physics.PhysicsWorld.GJK</text>
</a>
</g>
</g>
<!-- Node6&#45;&gt;Node24 -->
<g id="edge27" class="edge">
<title>Node6&#45;&gt;Node24</title>
<path fill="none" stroke="midnightblue" d="M340.2,-343.5C350.37,-343.5 360.83,-343.5 371.07,-343.5"/>
<polygon fill="midnightblue" stroke="midnightblue" points="371.22,-347 381.21,-343.5 371.21,-340 371.22,-347"/>
</g>
<!-- Node8 -->
<g id="node8" class="node">
<title>Node8</title>
<g id="a_node8"><a xlink:href="class_physics_1_1_collision_1_1_model_1_1_simplex_edge.html#a816ccd6c203d0952fdcf318cbf628be2" target="_top" xlink:title=" ">
<polygon fill="white" stroke="black" points="560,-98.5 560,-128.5 712,-128.5 712,-98.5 560,-98.5"/>
<text text-anchor="start" x="568" y="-116.5" font-family="Helvetica,sans-Serif" font-size="10.00">Physics.Collision.Model.</text>
<text text-anchor="middle" x="636" y="-105.5" font-family="Helvetica,sans-Serif" font-size="10.00">SimplexEdge.FindClosestEdge</text>
</a>
</g>
</g>
<!-- Node7&#45;&gt;Node8 -->
<g id="edge7" class="edge">
<title>Node7&#45;&gt;Node8</title>
<path fill="none" stroke="midnightblue" d="M470.83,-177.86C492.48,-167.5 528.3,-150.87 560,-138.5 565.79,-136.24 571.88,-134 577.98,-131.84"/>
<polygon fill="midnightblue" stroke="midnightblue" points="579.23,-135.11 587.53,-128.52 576.94,-128.49 579.23,-135.11"/>
</g>
<!-- Node9 -->
<g id="node9" class="node">
<title>Node9</title>
<g id="a_node9"><a xlink:href="class_physics_1_1_physics_world.html#a5ea0895316da17449ff1352e2610ba59" target="_top" xlink:title=" ">
<polygon fill="white" stroke="black" points="567.5,-284.5 567.5,-314.5 704.5,-314.5 704.5,-284.5 567.5,-284.5"/>
<text text-anchor="start" x="575.5" y="-302.5" font-family="Helvetica,sans-Serif" font-size="10.00">Physics.PhysicsWorld.Find</text>
<text text-anchor="middle" x="636" y="-291.5" font-family="Helvetica,sans-Serif" font-size="10.00">NextDirection</text>
</a>
</g>
</g>
<!-- Node7&#45;&gt;Node9 -->
<g id="edge8" class="edge">
<title>Node7&#45;&gt;Node9</title>
<path fill="none" stroke="midnightblue" d="M460.65,-197.21C478.69,-214.86 519.36,-252.42 560,-274.5 563.97,-276.66 568.17,-278.68 572.46,-280.55"/>
<polygon fill="midnightblue" stroke="midnightblue" points="571.38,-283.89 581.96,-284.44 574.03,-277.41 571.38,-283.89"/>
</g>
<!-- Node11 -->
<g id="node11" class="node">
<title>Node11</title>
<g id="a_node11"><a xlink:href="class_physics_1_1_physics_cache_pool.html#a9f45043e890ef8e5d8c382ccaa4cc710" target="_top" xlink:title=" ">
<polygon fill="white" stroke="black" points="565.5,-49.5 565.5,-79.5 706.5,-79.5 706.5,-49.5 565.5,-49.5"/>
<text text-anchor="start" x="573.5" y="-67.5" font-family="Helvetica,sans-Serif" font-size="10.00">Physics.PhysicsCachePool.</text>
<text text-anchor="middle" x="636" y="-56.5" font-family="Helvetica,sans-Serif" font-size="10.00">GetSimplexEdgeFromPool</text>
</a>
</g>
</g>
<!-- Node7&#45;&gt;Node11 -->
<g id="edge10" class="edge">
<title>Node7&#45;&gt;Node11</title>
<path fill="none" stroke="midnightblue" d="M459.31,-177.71C476.32,-158.26 517.11,-114.46 560,-89.5 563.67,-87.36 567.55,-85.38 571.53,-83.54"/>
<polygon fill="midnightblue" stroke="midnightblue" points="573.14,-86.66 580.96,-79.51 570.39,-80.22 573.14,-86.66"/>
</g>
<!-- Node12 -->
<g id="node12" class="node">
<title>Node12</title>
<g id="a_node12"><a xlink:href="class_physics_1_1_collision_1_1_model_1_1_simplex_edge.html#ac435eb94635850bd1dbf75897fee68b7" target="_top" xlink:title=" ">
<polygon fill="white" stroke="black" points="573.5,-196.5 573.5,-226.5 698.5,-226.5 698.5,-196.5 573.5,-196.5"/>
<text text-anchor="start" x="581.5" y="-214.5" font-family="Helvetica,sans-Serif" font-size="10.00">Physics.Collision.Model.</text>
<text text-anchor="middle" x="636" y="-203.5" font-family="Helvetica,sans-Serif" font-size="10.00">SimplexEdge.InitEdges</text>
</a>
</g>
</g>
<!-- Node7&#45;&gt;Node12 -->
<g id="edge11" class="edge">
<title>Node7&#45;&gt;Node12</title>
<path fill="none" stroke="midnightblue" d="M518.73,-196.33C533.22,-198.22 548.57,-200.23 563.2,-202.14"/>
<polygon fill="midnightblue" stroke="midnightblue" points="562.83,-205.62 573.2,-203.44 563.74,-198.68 562.83,-205.62"/>
</g>
<!-- Node17 -->
<g id="node17" class="node">
<title>Node17</title>
<g id="a_node17"><a xlink:href="class_physics_1_1_collision_1_1_model_1_1_simplex_edge.html#ae349a32da5778aa885c6f5b1e7153350" target="_top" xlink:title=" ">
<polygon fill="white" stroke="black" points="562.5,-147.5 562.5,-177.5 709.5,-177.5 709.5,-147.5 562.5,-147.5"/>
<text text-anchor="start" x="570.5" y="-165.5" font-family="Helvetica,sans-Serif" font-size="10.00">Physics.Collision.Model.</text>
<text text-anchor="middle" x="636" y="-154.5" font-family="Helvetica,sans-Serif" font-size="10.00">SimplexEdge.InsertEdgePoint</text>
</a>
</g>
</g>
<!-- Node7&#45;&gt;Node17 -->
<g id="edge16" class="edge">
<title>Node7&#45;&gt;Node17</title>
<path fill="none" stroke="midnightblue" d="M518.73,-178.3C529.64,-176.82 541.03,-175.27 552.24,-173.74"/>
<polygon fill="midnightblue" stroke="midnightblue" points="553.03,-177.17 562.46,-172.36 552.08,-170.23 553.03,-177.17"/>
</g>
<!-- Node20 -->
<g id="node20" class="node">
<title>Node20</title>
<g id="a_node20"><a xlink:href="class_physics_1_1_physics_cache_pool.html#ad31fe94e7d5fc45379a922481b6f6739" target="_top" xlink:title=" ">
<polygon fill="white" stroke="black" points="565.5,-0.5 565.5,-30.5 706.5,-30.5 706.5,-0.5 565.5,-0.5"/>
<text text-anchor="start" x="573.5" y="-18.5" font-family="Helvetica,sans-Serif" font-size="10.00">Physics.PhysicsCachePool.</text>
<text text-anchor="middle" x="636" y="-7.5" font-family="Helvetica,sans-Serif" font-size="10.00">RecycleSimplexEdge</text>
</a>
</g>
</g>
<!-- Node7&#45;&gt;Node20 -->
<g id="edge22" class="edge">
<title>Node7&#45;&gt;Node20</title>
<path fill="none" stroke="midnightblue" d="M455.37,-177.93C467.83,-151.72 506.09,-78.22 560,-39.5 562.09,-38 564.28,-36.59 566.54,-35.27"/>
<polygon fill="midnightblue" stroke="midnightblue" points="568.3,-38.29 575.55,-30.57 565.07,-32.08 568.3,-38.29"/>
</g>
<!-- Node22 -->
<g id="node22" class="node">
<title>Node22</title>
<g id="a_node22"><a xlink:href="class_physics_1_1_physics_world.html#af1aadffc2ad0f1b13391fe5eb1f4e703" target="_top" xlink:title=" ">
<polygon fill="white" stroke="black" points="560,-246 560,-265 712,-265 712,-246 560,-246"/>
<text text-anchor="middle" x="636" y="-253" font-family="Helvetica,sans-Serif" font-size="10.00">Physics.PhysicsWorld.Support</text>
</a>
</g>
</g>
<!-- Node7&#45;&gt;Node22 -->
<g id="edge25" class="edge">
<title>Node7&#45;&gt;Node22</title>
<path fill="none" stroke="midnightblue" d="M469.5,-197.02C490.86,-207.72 527.28,-225.1 560,-236.5 567.06,-238.96 574.59,-241.25 582.05,-243.32"/>
<polygon fill="midnightblue" stroke="midnightblue" points="581.22,-246.72 591.78,-245.92 583.03,-239.96 581.22,-246.72"/>
</g>
<!-- Node10 -->
<g id="node10" class="node">
<title>Node10</title>
<g id="a_node10"><a xlink:href="class_physics_1_1_physics_tool.html#a76623f29e2f14991ed006a429914f55a" target="_top" xlink:title=" ">
<polygon fill="white" stroke="black" points="748,-311.5 748,-341.5 909,-341.5 909,-311.5 748,-311.5"/>
<text text-anchor="start" x="756" y="-329.5" font-family="Helvetica,sans-Serif" font-size="10.00">Physics.PhysicsTool.GetClosest</text>
<text text-anchor="middle" x="828.5" y="-318.5" font-family="Helvetica,sans-Serif" font-size="10.00">PointToOrigin</text>
</a>
</g>
</g>
<!-- Node9&#45;&gt;Node10 -->
<g id="edge9" class="edge">
<title>Node9&#45;&gt;Node10</title>
<path fill="none" stroke="midnightblue" d="M704.7,-309.1C715.43,-310.62 726.66,-312.21 737.8,-313.79"/>
<polygon fill="midnightblue" stroke="midnightblue" points="737.58,-317.29 747.98,-315.23 738.57,-310.36 737.58,-317.29"/>
</g>
<!-- Node13 -->
<g id="node13" class="node">
<title>Node13</title>
<g id="a_node13"><a xlink:href="class_physics_1_1_collision_1_1_model_1_1_simplex_edge.html#aa9b0228aaaf6885ee72668b11e1b22da" target="_top" xlink:title=" ">
<polygon fill="white" stroke="black" points="757,-196.5 757,-226.5 900,-226.5 900,-196.5 757,-196.5"/>
<text text-anchor="start" x="765" y="-214.5" font-family="Helvetica,sans-Serif" font-size="10.00">Physics.Collision.Model.</text>
<text text-anchor="middle" x="828.5" y="-203.5" font-family="Helvetica,sans-Serif" font-size="10.00">SimplexEdge.CreateInitEdge</text>
</a>
</g>
</g>
<!-- Node12&#45;&gt;Node13 -->
<g id="edge12" class="edge">
<title>Node12&#45;&gt;Node13</title>
<path fill="none" stroke="midnightblue" d="M698.59,-211.5C713.84,-211.5 730.4,-211.5 746.43,-211.5"/>
<polygon fill="midnightblue" stroke="midnightblue" points="746.86,-215 756.86,-211.5 746.86,-208 746.86,-215"/>
</g>
<!-- Node16 -->
<g id="node16" class="node">
<title>Node16</title>
<g id="a_node16"><a xlink:href="class_physics_1_1_collision_1_1_model_1_1_simplex_edge.html#a536f768434ce96fc78fe67adf4e0c9ed" target="_top" xlink:title=" ">
<polygon fill="white" stroke="black" points="751,-147.5 751,-177.5 906,-177.5 906,-147.5 751,-147.5"/>
<text text-anchor="start" x="759" y="-165.5" font-family="Helvetica,sans-Serif" font-size="10.00">Physics.Collision.Model.</text>
<text text-anchor="middle" x="828.5" y="-154.5" font-family="Helvetica,sans-Serif" font-size="10.00">SimplexEdge.UpdateEdgeIndex</text>
</a>
</g>
</g>
<!-- Node12&#45;&gt;Node16 -->
<g id="edge15" class="edge">
<title>Node12&#45;&gt;Node16</title>
<path fill="none" stroke="midnightblue" d="M695.45,-196.47C715.66,-191.27 738.47,-185.4 759.39,-180.02"/>
<polygon fill="midnightblue" stroke="midnightblue" points="760.35,-183.39 769.16,-177.51 758.6,-176.61 760.35,-183.39"/>
</g>
<!-- Node14 -->
<g id="node14" class="node">
<title>Node14</title>
<g id="a_node14"><a xlink:href="class_physics_1_1_physics_cache_pool.html#a68b6244567d48376ad3a2e5188e73241" target="_top" xlink:title=" ">
<polygon fill="white" stroke="black" points="967.5,-182.5 967.5,-212.5 1108.5,-212.5 1108.5,-182.5 967.5,-182.5"/>
<text text-anchor="start" x="975.5" y="-200.5" font-family="Helvetica,sans-Serif" font-size="10.00">Physics.PhysicsCachePool.</text>
<text text-anchor="middle" x="1038" y="-189.5" font-family="Helvetica,sans-Serif" font-size="10.00">GetEdgeFromPool</text>
</a>
</g>
</g>
<!-- Node13&#45;&gt;Node14 -->
<g id="edge13" class="edge">
<title>Node13&#45;&gt;Node14</title>
<path fill="none" stroke="midnightblue" d="M900.04,-206.74C918.46,-205.5 938.45,-204.15 957.31,-202.88"/>
<polygon fill="midnightblue" stroke="midnightblue" points="957.62,-206.36 967.36,-202.2 957.15,-199.38 957.62,-206.36"/>
</g>
<!-- Node15 -->
<g id="node15" class="node">
<title>Node15</title>
<g id="a_node15"><a xlink:href="class_physics_1_1_physics_tool.html#a2b923d3cf606c6980a6b26c5b7bfc80f" target="_top" xlink:title=" ">
<polygon fill="white" stroke="black" points="945,-109.5 945,-139.5 1131,-139.5 1131,-109.5 945,-109.5"/>
<text text-anchor="start" x="953" y="-127.5" font-family="Helvetica,sans-Serif" font-size="10.00">Physics.PhysicsTool.GetPerpendicular</text>
<text text-anchor="middle" x="1038" y="-116.5" font-family="Helvetica,sans-Serif" font-size="10.00">ToOrigin</text>
</a>
</g>
</g>
<!-- Node13&#45;&gt;Node15 -->
<g id="edge14" class="edge">
<title>Node13&#45;&gt;Node15</title>
<path fill="none" stroke="midnightblue" d="M883.79,-196.41C892.31,-193.67 900.95,-190.67 909,-187.5 940.81,-174.97 975.54,-157.63 1000.78,-144.32"/>
<polygon fill="midnightblue" stroke="midnightblue" points="1002.44,-147.4 1009.63,-139.61 999.16,-141.22 1002.44,-147.4"/>
</g>
<!-- Node17&#45;&gt;Node16 -->
<g id="edge21" class="edge">
<title>Node17&#45;&gt;Node16</title>
<path fill="none" stroke="midnightblue" d="M709.56,-162.5C719.66,-162.5 730.11,-162.5 740.44,-162.5"/>
<polygon fill="midnightblue" stroke="midnightblue" points="740.7,-166 750.7,-162.5 740.7,-159 740.7,-166"/>
</g>
<!-- Node18 -->
<g id="node18" class="node">
<title>Node18</title>
<g id="a_node18"><a xlink:href="class_physics_1_1_collision_1_1_model_1_1_simplex_edge.html#a46b8494a6a6088235c2b1bb272cdb8ba" target="_top" xlink:title=" ">
<polygon fill="white" stroke="black" points="764,-98.5 764,-128.5 893,-128.5 893,-98.5 764,-98.5"/>
<text text-anchor="start" x="772" y="-116.5" font-family="Helvetica,sans-Serif" font-size="10.00">Physics.Collision.Model.</text>
<text text-anchor="middle" x="828.5" y="-105.5" font-family="Helvetica,sans-Serif" font-size="10.00">SimplexEdge.CreateEdge</text>
</a>
</g>
</g>
<!-- Node17&#45;&gt;Node18 -->
<g id="edge17" class="edge">
<title>Node17&#45;&gt;Node18</title>
<path fill="none" stroke="midnightblue" d="M695.45,-147.47C715.66,-142.27 738.47,-136.4 759.39,-131.02"/>
<polygon fill="midnightblue" stroke="midnightblue" points="760.35,-134.39 769.16,-128.51 758.6,-127.61 760.35,-134.39"/>
</g>
<!-- Node19 -->
<g id="node19" class="node">
<title>Node19</title>
<g id="a_node19"><a xlink:href="class_physics_1_1_physics_cache_pool.html#a912bb4bf46c20c664294e5387a7b7d6f" target="_top" xlink:title=" ">
<polygon fill="white" stroke="black" points="967.5,-41.5 967.5,-71.5 1108.5,-71.5 1108.5,-41.5 967.5,-41.5"/>
<text text-anchor="start" x="975.5" y="-59.5" font-family="Helvetica,sans-Serif" font-size="10.00">Physics.PhysicsCachePool.</text>
<text text-anchor="middle" x="1038" y="-48.5" font-family="Helvetica,sans-Serif" font-size="10.00">RecycleEdge</text>
</a>
</g>
</g>
<!-- Node17&#45;&gt;Node19 -->
<g id="edge20" class="edge">
<title>Node17&#45;&gt;Node19</title>
<path fill="none" stroke="midnightblue" d="M696.45,-147.43C701.94,-144.89 707.23,-141.93 712,-138.5 733.94,-122.72 724.62,-103.05 748,-89.5 811.52,-52.67 896.12,-47.03 957.36,-49.03"/>
<polygon fill="midnightblue" stroke="midnightblue" points="957.23,-52.53 967.36,-49.44 957.51,-45.54 957.23,-52.53"/>
</g>
<!-- Node18&#45;&gt;Node14 -->
<g id="edge18" class="edge">
<title>Node18&#45;&gt;Node14</title>
<path fill="none" stroke="midnightblue" d="M880.73,-128.55C890.2,-131.63 899.96,-135.01 909,-138.5 939.46,-150.26 972.95,-165.79 998.03,-177.97"/>
<polygon fill="midnightblue" stroke="midnightblue" points="996.69,-181.2 1007.21,-182.45 999.76,-174.92 996.69,-181.2"/>
</g>
<!-- Node18&#45;&gt;Node15 -->
<g id="edge19" class="edge">
<title>Node18&#45;&gt;Node15</title>
<path fill="none" stroke="midnightblue" d="M893.17,-116.88C906.3,-117.57 920.45,-118.32 934.56,-119.07"/>
<polygon fill="midnightblue" stroke="midnightblue" points="934.64,-122.58 944.82,-119.61 935.02,-115.59 934.64,-122.58"/>
</g>
<!-- Node21 -->
<g id="node21" class="node">
<title>Node21</title>
<g id="a_node21"><a xlink:href="class_physics_1_1_collision_1_1_model_1_1_simplex_edge.html#a422d4d80fc2c4205af1f96abcec05a67" target="_top" xlink:title=" ">
<polygon fill="white" stroke="black" points="766,-3.5 766,-33.5 891,-33.5 891,-3.5 766,-3.5"/>
<text text-anchor="start" x="774" y="-21.5" font-family="Helvetica,sans-Serif" font-size="10.00">Physics.Collision.Model.</text>
<text text-anchor="middle" x="828.5" y="-10.5" font-family="Helvetica,sans-Serif" font-size="10.00">SimplexEdge.Clear</text>
</a>
</g>
</g>
<!-- Node20&#45;&gt;Node21 -->
<g id="edge23" class="edge">
<title>Node20&#45;&gt;Node21</title>
<path fill="none" stroke="midnightblue" d="M706.58,-16.6C722.54,-16.85 739.53,-17.11 755.58,-17.37"/>
<polygon fill="midnightblue" stroke="midnightblue" points="755.92,-20.87 765.98,-17.53 756.03,-13.87 755.92,-20.87"/>
</g>
<!-- Node21&#45;&gt;Node19 -->
<g id="edge24" class="edge">
<title>Node21&#45;&gt;Node19</title>
<path fill="none" stroke="midnightblue" d="M891.2,-29.8C911.91,-33.59 935.33,-37.88 957.23,-41.89"/>
<polygon fill="midnightblue" stroke="midnightblue" points="956.71,-45.35 967.17,-43.71 957.97,-38.47 956.71,-45.35"/>
</g>
<!-- Node23 -->
<g id="node23" class="node">
<title>Node23</title>
<g id="a_node23"><a xlink:href="class_physics_1_1_collision_1_1_collision_object.html#a28cc343d91add7b15402133b83d76b27" target="_top" xlink:title=" ">
<polygon fill="white" stroke="black" points="757,-245.5 757,-275.5 900,-275.5 900,-245.5 757,-245.5"/>
<text text-anchor="start" x="765" y="-263.5" font-family="Helvetica,sans-Serif" font-size="10.00">Physics.Collision.Collision</text>
<text text-anchor="middle" x="828.5" y="-252.5" font-family="Helvetica,sans-Serif" font-size="10.00">Object.GetFarthestPointInDir</text>
</a>
</g>
</g>
<!-- Node22&#45;&gt;Node23 -->
<g id="edge26" class="edge">
<title>Node22&#45;&gt;Node23</title>
<path fill="none" stroke="midnightblue" d="M712.02,-257.47C723.45,-257.77 735.3,-258.08 746.85,-258.38"/>
<polygon fill="midnightblue" stroke="midnightblue" points="746.81,-261.88 756.9,-258.65 747,-254.89 746.81,-261.88"/>
</g>
<!-- Node24&#45;&gt;Node9 -->
<g id="edge29" class="edge">
<title>Node24&#45;&gt;Node9</title>
<path fill="none" stroke="midnightblue" d="M490.93,-333.95C511.73,-328.98 537.84,-322.73 562.1,-316.93"/>
<polygon fill="midnightblue" stroke="midnightblue" points="563.09,-320.3 572,-314.57 561.46,-313.49 563.09,-320.3"/>
</g>
<!-- Node24&#45;&gt;Node10 -->
<g id="edge30" class="edge">
<title>Node24&#45;&gt;Node10</title>
<path fill="none" stroke="midnightblue" d="M518.75,-340.44C579.96,-337.68 670.51,-333.59 737.74,-330.55"/>
<polygon fill="midnightblue" stroke="midnightblue" points="738.07,-334.04 747.9,-330.09 737.75,-327.05 738.07,-334.04"/>
</g>
<!-- Node24&#45;&gt;Node22 -->
<g id="edge32" class="edge">
<title>Node24&#45;&gt;Node22</title>
<path fill="none" stroke="midnightblue" d="M463.72,-333.79C483.38,-319.21 522.76,-291.65 560,-275.5 566.4,-272.73 573.27,-270.26 580.17,-268.08"/>
<polygon fill="midnightblue" stroke="midnightblue" points="581.64,-271.3 590.24,-265.11 579.65,-264.58 581.64,-271.3"/>
</g>
<!-- Node25 -->
<g id="node25" class="node">
<title>Node25</title>
<g id="a_node25"><a xlink:href="class_physics_1_1_physics_world.html#adf7766abbfb94bb041d38b3d7209dcba" target="_top" xlink:title=" ">
<polygon fill="white" stroke="black" points="567.5,-372.5 567.5,-402.5 704.5,-402.5 704.5,-372.5 567.5,-372.5"/>
<text text-anchor="start" x="575.5" y="-390.5" font-family="Helvetica,sans-Serif" font-size="10.00">Physics.PhysicsWorld.Find</text>
<text text-anchor="middle" x="636" y="-379.5" font-family="Helvetica,sans-Serif" font-size="10.00">FirstDirection</text>
</a>
</g>
</g>
<!-- Node24&#45;&gt;Node25 -->
<g id="edge28" class="edge">
<title>Node24&#45;&gt;Node25</title>
<path fill="none" stroke="midnightblue" d="M490.93,-353.05C511.73,-358.02 537.84,-364.27 562.1,-370.07"/>
<polygon fill="midnightblue" stroke="midnightblue" points="561.46,-373.51 572,-372.43 563.09,-366.7 561.46,-373.51"/>
</g>
<!-- Node26 -->
<g id="node26" class="node">
<title>Node26</title>
<g id="a_node26"><a xlink:href="class_physics_1_1_physics_tool.html#a87ade42d134664139753a2fe7da7e7a9" target="_top" xlink:title="检查点是否在三角形内">
<polygon fill="white" stroke="black" points="565,-421.5 565,-451.5 707,-451.5 707,-421.5 565,-421.5"/>
<text text-anchor="start" x="573" y="-439.5" font-family="Helvetica,sans-Serif" font-size="10.00">Physics.PhysicsTool.IsPoint</text>
<text text-anchor="middle" x="636" y="-428.5" font-family="Helvetica,sans-Serif" font-size="10.00">InTriangle</text>
</a>
</g>
</g>
<!-- Node24&#45;&gt;Node26 -->
<g id="edge31" class="edge">
<title>Node24&#45;&gt;Node26</title>
<path fill="none" stroke="midnightblue" d="M463.8,-353.14C483.56,-367.65 523.07,-395.25 560,-412.5 564.01,-414.37 568.21,-416.16 572.47,-417.84"/>
<polygon fill="midnightblue" stroke="midnightblue" points="571.31,-421.14 581.9,-421.38 573.76,-414.59 571.31,-421.14"/>
</g>
</g>
</svg>
        <g id="navigator" transform="translate(0 0)" fill="#404254">
                <rect fill="#f2f5e9" fill-opacity="0.5" stroke="#606060" stroke-width=".5" x="0" y="0" width="60" height="60"/>
                <use id="zoomplus" xlink:href="#zoomPlus" x="17" y="9" onmousedown="handleZoom(evt,'in')"/>
                <use id="zoomminus" xlink:href="#zoomMin" x="42" y="9" onmousedown="handleZoom(evt,'out')"/>
                <use id="reset" xlink:href="#resetDef" x="30" y="36" onmousedown="handleReset()"/>
                <g id="arrowUp" xlink:href="#dirArrow" transform="translate(30 24)" onmousedown="handlePan(0,-1)">
                  <use xlink:href="#rim" fill="#404040">
                        <set attributeName="fill" to="#808080" begin="arrowUp.mouseover" end="arrowUp.mouseout"/>
                  </use>
                  <path fill="none" stroke="white" stroke-width="1.5" d="M0,-3.0v7 M-2.5,-0.5L0,-3.0L2.5,-0.5"/>
                </g>
                <g id="arrowRight" xlink:href="#dirArrow" transform="rotate(90) translate(36 -43)" onmousedown="handlePan(1,0)">
                  <use xlink:href="#rim" fill="#404040">
                        <set attributeName="fill" to="#808080" begin="arrowRight.mouseover" end="arrowRight.mouseout"/>
                  </use>
                  <path fill="none" stroke="white" stroke-width="1.5" d="M0,-3.0v7 M-2.5,-0.5L0,-3.0L2.5,-0.5"/>
                </g>
                <g id="arrowDown" xlink:href="#dirArrow" transform="rotate(180) translate(-30 -48)" onmousedown="handlePan(0,1)">
                  <use xlink:href="#rim" fill="#404040">
                        <set attributeName="fill" to="#808080" begin="arrowDown.mouseover" end="arrowDown.mouseout"/>
                  </use>
                  <path fill="none" stroke="white" stroke-width="1.5" d="M0,-3.0v7 M-2.5,-0.5L0,-3.0L2.5,-0.5"/>
                </g>
                <g id="arrowLeft" xlink:href="#dirArrow" transform="rotate(270) translate(-36 17)" onmousedown="handlePan(-1,0)">
                  <use xlink:href="#rim" fill="#404040">
                        <set attributeName="fill" to="#808080" begin="arrowLeft.mouseover" end="arrowLeft.mouseout"/>
                  </use>
                  <path fill="none" stroke="white" stroke-width="1.5" d="M0,-3.0v7 M-2.5,-0.5L0,-3.0L2.5,-0.5"/>
                </g>
        </g>
        <svg viewBox="0 0 15 15" width="100%" height="30px" preserveAspectRatio="xMaxYMin meet">
         <g id="arrow_out" transform="scale(0.3 0.3)">
          <a xlink:href="class_physics_1_1_physics_world_a516968c71000684ea688d080074d0ec8_cgraph_org.svg" target="_base">
           <rect id="button" ry="5" rx="5" y="6" x="6" height="38" width="38"
                fill="#f2f5e9" fill-opacity="0.5" stroke="#606060" stroke-width="1.0"/>
           <path id="arrow"
             d="M 11.500037,31.436501 C 11.940474,20.09759 22.043105,11.32322 32.158766,21.979434 L 37.068811,17.246167 C 37.068811,17.246167 37.088388,32 37.088388,32 L 22.160133,31.978069 C 22.160133,31.978069 26.997745,27.140456 26.997745,27.140456 C 18.528582,18.264221 13.291696,25.230495 11.500037,31.436501 z"
             style="fill:#404040;"/>
          </a>
         </g>
        </svg>
</svg>
