<?xml version="1.0" encoding="UTF-8" standalone="no"?>
<!DOCTYPE svg PUBLIC "-//W3C//DTD SVG 1.1//EN"
 "http://www.w3.org/Graphics/SVG/1.1/DTD/svg11.dtd">
<!-- Generated by graphviz version 2.50.0 (20211204.2007)
 -->
<!-- Title: Physics.PhysicsWorld.NarrowPhase Pages: 1 -->
<svg width="937pt" height="485pt"
 viewBox="0.00 0.00 937.00 484.79" xmlns="http://www.w3.org/2000/svg" xmlns:xlink="http://www.w3.org/1999/xlink">
<g id="graph0" class="graph" transform="scale(1 1) rotate(0) translate(4 480.79)">
<title>Physics.PhysicsWorld.NarrowPhase</title>
<polygon fill="white" stroke="transparent" points="-4,4 -4,-480.79 933,-480.79 933,4 -4,4"/>
<!-- Node1 -->
<g id="node1" class="node">
<title>Node1</title>
<g id="a_node1"><a xlink:title=" ">
<polygon fill="#bfbfbf" stroke="black" points="0,-255.5 0,-285.5 149,-285.5 149,-255.5 0,-255.5"/>
<text text-anchor="start" x="8" y="-273.5" font-family="Helvetica,sans-Serif" font-size="10.00">Physics.PhysicsWorld.Narrow</text>
<text text-anchor="middle" x="74.5" y="-262.5" font-family="Helvetica,sans-Serif" font-size="10.00">Phase</text>
</a>
</g>
</g>
<!-- Node2 -->
<g id="node2" class="node">
<title>Node2</title>
<g id="a_node2"><a xlink:href="class_physics_1_1_physics_world.html#a981b90f47065fded56b0145083aac984" target="_top" xlink:title=" ">
<polygon fill="white" stroke="black" points="185,-217 185,-236 322,-236 322,-217 185,-217"/>
<text text-anchor="middle" x="253.5" y="-224" font-family="Helvetica,sans-Serif" font-size="10.00">Physics.PhysicsWorld.EPA</text>
</a>
</g>
</g>
<!-- Node1&#45;&gt;Node2 -->
<g id="edge1" class="edge">
<title>Node1&#45;&gt;Node2</title>
<path fill="none" stroke="midnightblue" d="M135.92,-255.48C158.31,-249.91 183.38,-243.68 204.51,-238.43"/>
<polygon fill="midnightblue" stroke="midnightblue" points="205.37,-241.82 214.23,-236.01 203.69,-235.03 205.37,-241.82"/>
</g>
<!-- Node19 -->
<g id="node19" class="node">
<title>Node19</title>
<g id="a_node19"><a xlink:href="class_physics_1_1_physics_world.html#abbda8b52c5f3c0cf86ac64fbc64fd69e" target="_top" xlink:title=" ">
<polygon fill="white" stroke="black" points="185,-353 185,-372 322,-372 322,-353 185,-353"/>
<text text-anchor="middle" x="253.5" y="-360" font-family="Helvetica,sans-Serif" font-size="10.00">Physics.PhysicsWorld.GJK</text>
</a>
</g>
</g>
<!-- Node1&#45;&gt;Node19 -->
<g id="edge22" class="edge">
<title>Node1&#45;&gt;Node19</title>
<path fill="none" stroke="midnightblue" d="M104.73,-285.69C138.15,-303.06 192.45,-331.29 225.09,-348.25"/>
<polygon fill="midnightblue" stroke="midnightblue" points="223.6,-351.42 234.08,-352.93 226.83,-345.21 223.6,-351.42"/>
</g>
<!-- Node3 -->
<g id="node3" class="node">
<title>Node3</title>
<g id="a_node3"><a xlink:href="class_physics_1_1_collision_1_1_model_1_1_simplex_edge.html#a816ccd6c203d0952fdcf318cbf628be2" target="_top" xlink:title=" ">
<polygon fill="white" stroke="black" points="358,-235.5 358,-265.5 510,-265.5 510,-235.5 358,-235.5"/>
<text text-anchor="start" x="366" y="-253.5" font-family="Helvetica,sans-Serif" font-size="10.00">Physics.Collision.Model.</text>
<text text-anchor="middle" x="434" y="-242.5" font-family="Helvetica,sans-Serif" font-size="10.00">SimplexEdge.FindClosestEdge</text>
</a>
</g>
</g>
<!-- Node2&#45;&gt;Node3 -->
<g id="edge2" class="edge">
<title>Node2&#45;&gt;Node3</title>
<path fill="none" stroke="midnightblue" d="M322.24,-235.61C330.6,-236.73 339.24,-237.89 347.82,-239.05"/>
<polygon fill="midnightblue" stroke="midnightblue" points="347.47,-242.53 357.85,-240.4 348.41,-235.59 347.47,-242.53"/>
</g>
<!-- Node4 -->
<g id="node4" class="node">
<title>Node4</title>
<g id="a_node4"><a xlink:href="class_physics_1_1_physics_world.html#a5ea0895316da17449ff1352e2610ba59" target="_top" xlink:title=" ">
<polygon fill="white" stroke="black" points="365.5,-323.5 365.5,-353.5 502.5,-353.5 502.5,-323.5 365.5,-323.5"/>
<text text-anchor="start" x="373.5" y="-341.5" font-family="Helvetica,sans-Serif" font-size="10.00">Physics.PhysicsWorld.Find</text>
<text text-anchor="middle" x="434" y="-330.5" font-family="Helvetica,sans-Serif" font-size="10.00">NextDirection</text>
</a>
</g>
</g>
<!-- Node2&#45;&gt;Node4 -->
<g id="edge3" class="edge">
<title>Node2&#45;&gt;Node4</title>
<path fill="none" stroke="midnightblue" d="M263.56,-236.24C280.52,-253.95 318.88,-291.6 358,-313.5 361.88,-315.67 365.97,-317.69 370.17,-319.57"/>
<polygon fill="midnightblue" stroke="midnightblue" points="368.9,-322.83 379.48,-323.44 371.59,-316.37 368.9,-322.83"/>
</g>
<!-- Node6 -->
<g id="node6" class="node">
<title>Node6</title>
<g id="a_node6"><a xlink:href="class_physics_1_1_physics_cache_pool.html#a9f45043e890ef8e5d8c382ccaa4cc710" target="_top" xlink:title=" ">
<polygon fill="white" stroke="black" points="363.5,-186.5 363.5,-216.5 504.5,-216.5 504.5,-186.5 363.5,-186.5"/>
<text text-anchor="start" x="371.5" y="-204.5" font-family="Helvetica,sans-Serif" font-size="10.00">Physics.PhysicsCachePool.</text>
<text text-anchor="middle" x="434" y="-193.5" font-family="Helvetica,sans-Serif" font-size="10.00">GetSimplexEdgeFromPool</text>
</a>
</g>
</g>
<!-- Node2&#45;&gt;Node6 -->
<g id="edge5" class="edge">
<title>Node2&#45;&gt;Node6</title>
<path fill="none" stroke="midnightblue" d="M322.24,-217.01C332.3,-215.6 342.75,-214.14 353.03,-212.7"/>
<polygon fill="midnightblue" stroke="midnightblue" points="353.81,-216.12 363.23,-211.27 352.84,-209.19 353.81,-216.12"/>
</g>
<!-- Node7 -->
<g id="node7" class="node">
<title>Node7</title>
<g id="a_node7"><a xlink:href="class_physics_1_1_collision_1_1_model_1_1_simplex_edge.html#ac435eb94635850bd1dbf75897fee68b7" target="_top" xlink:title=" ">
<polygon fill="white" stroke="black" points="371.5,-137.5 371.5,-167.5 496.5,-167.5 496.5,-137.5 371.5,-137.5"/>
<text text-anchor="start" x="379.5" y="-155.5" font-family="Helvetica,sans-Serif" font-size="10.00">Physics.Collision.Model.</text>
<text text-anchor="middle" x="434" y="-144.5" font-family="Helvetica,sans-Serif" font-size="10.00">SimplexEdge.InitEdges</text>
</a>
</g>
</g>
<!-- Node2&#45;&gt;Node7 -->
<g id="edge6" class="edge">
<title>Node2&#45;&gt;Node7</title>
<path fill="none" stroke="midnightblue" d="M272.9,-216.96C293.36,-206.55 327.56,-189.73 358,-177.5 363.55,-175.27 369.38,-173.08 375.24,-170.97"/>
<polygon fill="midnightblue" stroke="midnightblue" points="376.8,-174.13 385.08,-167.52 374.48,-167.53 376.8,-174.13"/>
</g>
<!-- Node12 -->
<g id="node12" class="node">
<title>Node12</title>
<g id="a_node12"><a xlink:href="class_physics_1_1_collision_1_1_model_1_1_simplex_edge.html#ae349a32da5778aa885c6f5b1e7153350" target="_top" xlink:title=" ">
<polygon fill="white" stroke="black" points="360.5,-88.5 360.5,-118.5 507.5,-118.5 507.5,-88.5 360.5,-88.5"/>
<text text-anchor="start" x="368.5" y="-106.5" font-family="Helvetica,sans-Serif" font-size="10.00">Physics.Collision.Model.</text>
<text text-anchor="middle" x="434" y="-95.5" font-family="Helvetica,sans-Serif" font-size="10.00">SimplexEdge.InsertEdgePoint</text>
</a>
</g>
</g>
<!-- Node2&#45;&gt;Node12 -->
<g id="edge11" class="edge">
<title>Node2&#45;&gt;Node12</title>
<path fill="none" stroke="midnightblue" d="M262.04,-216.98C277.83,-197.63 316.4,-153.43 358,-128.5 361.58,-126.36 365.36,-124.37 369.25,-122.53"/>
<polygon fill="midnightblue" stroke="midnightblue" points="370.71,-125.72 378.48,-118.52 367.91,-119.3 370.71,-125.72"/>
</g>
<!-- Node15 -->
<g id="node15" class="node">
<title>Node15</title>
<g id="a_node15"><a xlink:href="class_physics_1_1_physics_cache_pool.html#ad31fe94e7d5fc45379a922481b6f6739" target="_top" xlink:title=" ">
<polygon fill="white" stroke="black" points="363.5,-20.5 363.5,-50.5 504.5,-50.5 504.5,-20.5 363.5,-20.5"/>
<text text-anchor="start" x="371.5" y="-38.5" font-family="Helvetica,sans-Serif" font-size="10.00">Physics.PhysicsCachePool.</text>
<text text-anchor="middle" x="434" y="-27.5" font-family="Helvetica,sans-Serif" font-size="10.00">RecycleSimplexEdge</text>
</a>
</g>
</g>
<!-- Node2&#45;&gt;Node15 -->
<g id="edge17" class="edge">
<title>Node2&#45;&gt;Node15</title>
<path fill="none" stroke="midnightblue" d="M259.39,-216.85C272.5,-191.69 310.69,-123.04 358,-79.5 368,-70.29 380.25,-62.12 391.92,-55.39"/>
<polygon fill="midnightblue" stroke="midnightblue" points="393.64,-58.44 400.69,-50.54 390.24,-52.32 393.64,-58.44"/>
</g>
<!-- Node17 -->
<g id="node17" class="node">
<title>Node17</title>
<g id="a_node17"><a xlink:href="class_physics_1_1_physics_world.html#af1aadffc2ad0f1b13391fe5eb1f4e703" target="_top" xlink:title=" ">
<polygon fill="white" stroke="black" points="358,-285 358,-304 510,-304 510,-285 358,-285"/>
<text text-anchor="middle" x="434" y="-292" font-family="Helvetica,sans-Serif" font-size="10.00">Physics.PhysicsWorld.Support</text>
</a>
</g>
</g>
<!-- Node2&#45;&gt;Node17 -->
<g id="edge20" class="edge">
<title>Node2&#45;&gt;Node17</title>
<path fill="none" stroke="midnightblue" d="M272,-236.08C292.23,-246.84 326.76,-264.27 358,-275.5 364.87,-277.97 372.19,-280.24 379.48,-282.3"/>
<polygon fill="midnightblue" stroke="midnightblue" points="378.77,-285.73 389.34,-284.96 380.6,-278.98 378.77,-285.73"/>
</g>
<!-- Node5 -->
<g id="node5" class="node">
<title>Node5</title>
<g id="a_node5"><a xlink:href="class_physics_1_1_physics_tool.html#a76623f29e2f14991ed006a429914f55a" target="_top" xlink:title=" ">
<polygon fill="white" stroke="black" points="546,-396.5 546,-426.5 707,-426.5 707,-396.5 546,-396.5"/>
<text text-anchor="start" x="554" y="-414.5" font-family="Helvetica,sans-Serif" font-size="10.00">Physics.PhysicsTool.GetClosest</text>
<text text-anchor="middle" x="626.5" y="-403.5" font-family="Helvetica,sans-Serif" font-size="10.00">PointToOrigin</text>
</a>
</g>
</g>
<!-- Node4&#45;&gt;Node5 -->
<g id="edge4" class="edge">
<title>Node4&#45;&gt;Node5</title>
<path fill="none" stroke="midnightblue" d="M481.99,-353.59C491.32,-356.74 501,-360.14 510,-363.5 534.01,-372.48 560.43,-383.38 581.94,-392.52"/>
<polygon fill="midnightblue" stroke="midnightblue" points="580.57,-395.74 591.14,-396.46 583.32,-389.31 580.57,-395.74"/>
</g>
<!-- Node8 -->
<g id="node8" class="node">
<title>Node8</title>
<g id="a_node8"><a xlink:href="class_physics_1_1_collision_1_1_model_1_1_simplex_edge.html#aa9b0228aaaf6885ee72668b11e1b22da" target="_top" xlink:title=" ">
<polygon fill="white" stroke="black" points="555,-186.5 555,-216.5 698,-216.5 698,-186.5 555,-186.5"/>
<text text-anchor="start" x="563" y="-204.5" font-family="Helvetica,sans-Serif" font-size="10.00">Physics.Collision.Model.</text>
<text text-anchor="middle" x="626.5" y="-193.5" font-family="Helvetica,sans-Serif" font-size="10.00">SimplexEdge.CreateInitEdge</text>
</a>
</g>
</g>
<!-- Node7&#45;&gt;Node8 -->
<g id="edge7" class="edge">
<title>Node7&#45;&gt;Node8</title>
<path fill="none" stroke="midnightblue" d="M493.45,-167.53C513.66,-172.73 536.47,-178.6 557.39,-183.98"/>
<polygon fill="midnightblue" stroke="midnightblue" points="556.6,-187.39 567.16,-186.49 558.35,-180.61 556.6,-187.39"/>
</g>
<!-- Node11 -->
<g id="node11" class="node">
<title>Node11</title>
<g id="a_node11"><a xlink:href="class_physics_1_1_collision_1_1_model_1_1_simplex_edge.html#a536f768434ce96fc78fe67adf4e0c9ed" target="_top" xlink:title=" ">
<polygon fill="white" stroke="black" points="549,-137.5 549,-167.5 704,-167.5 704,-137.5 549,-137.5"/>
<text text-anchor="start" x="557" y="-155.5" font-family="Helvetica,sans-Serif" font-size="10.00">Physics.Collision.Model.</text>
<text text-anchor="middle" x="626.5" y="-144.5" font-family="Helvetica,sans-Serif" font-size="10.00">SimplexEdge.UpdateEdgeIndex</text>
</a>
</g>
</g>
<!-- Node7&#45;&gt;Node11 -->
<g id="edge10" class="edge">
<title>Node7&#45;&gt;Node11</title>
<path fill="none" stroke="midnightblue" d="M496.59,-152.5C509.97,-152.5 524.37,-152.5 538.53,-152.5"/>
<polygon fill="midnightblue" stroke="midnightblue" points="538.77,-156 548.77,-152.5 538.77,-149 538.77,-156"/>
</g>
<!-- Node9 -->
<g id="node9" class="node">
<title>Node9</title>
<g id="a_node9"><a xlink:href="class_physics_1_1_physics_cache_pool.html#a68b6244567d48376ad3a2e5188e73241" target="_top" xlink:title=" ">
<polygon fill="white" stroke="black" points="765.5,-100.5 765.5,-130.5 906.5,-130.5 906.5,-100.5 765.5,-100.5"/>
<text text-anchor="start" x="773.5" y="-118.5" font-family="Helvetica,sans-Serif" font-size="10.00">Physics.PhysicsCachePool.</text>
<text text-anchor="middle" x="836" y="-107.5" font-family="Helvetica,sans-Serif" font-size="10.00">GetEdgeFromPool</text>
</a>
</g>
</g>
<!-- Node8&#45;&gt;Node9 -->
<g id="edge8" class="edge">
<title>Node8&#45;&gt;Node9</title>
<path fill="none" stroke="midnightblue" d="M681.77,-186.37C690.29,-183.63 698.94,-180.65 707,-177.5 738.41,-165.24 772.73,-148.42 797.92,-135.39"/>
<polygon fill="midnightblue" stroke="midnightblue" points="799.86,-138.33 807.1,-130.6 796.62,-132.12 799.86,-138.33"/>
</g>
<!-- Node10 -->
<g id="node10" class="node">
<title>Node10</title>
<g id="a_node10"><a xlink:href="class_physics_1_1_physics_tool.html#a2b923d3cf606c6980a6b26c5b7bfc80f" target="_top" xlink:title=" ">
<polygon fill="white" stroke="black" points="743,-173.5 743,-203.5 929,-203.5 929,-173.5 743,-173.5"/>
<text text-anchor="start" x="751" y="-191.5" font-family="Helvetica,sans-Serif" font-size="10.00">Physics.PhysicsTool.GetPerpendicular</text>
<text text-anchor="middle" x="836" y="-180.5" font-family="Helvetica,sans-Serif" font-size="10.00">ToOrigin</text>
</a>
</g>
</g>
<!-- Node8&#45;&gt;Node10 -->
<g id="edge9" class="edge">
<title>Node8&#45;&gt;Node10</title>
<path fill="none" stroke="midnightblue" d="M698.04,-197.08C709.22,-196.38 720.97,-195.64 732.7,-194.91"/>
<polygon fill="midnightblue" stroke="midnightblue" points="733.22,-198.38 742.98,-194.27 732.78,-191.4 733.22,-198.38"/>
</g>
<!-- Node12&#45;&gt;Node11 -->
<g id="edge16" class="edge">
<title>Node12&#45;&gt;Node11</title>
<path fill="none" stroke="midnightblue" d="M493.45,-118.53C513.66,-123.73 536.47,-129.6 557.39,-134.98"/>
<polygon fill="midnightblue" stroke="midnightblue" points="556.6,-138.39 567.16,-137.49 558.35,-131.61 556.6,-138.39"/>
</g>
<!-- Node13 -->
<g id="node13" class="node">
<title>Node13</title>
<g id="a_node13"><a xlink:href="class_physics_1_1_collision_1_1_model_1_1_simplex_edge.html#a46b8494a6a6088235c2b1bb272cdb8ba" target="_top" xlink:title=" ">
<polygon fill="white" stroke="black" points="562,-88.5 562,-118.5 691,-118.5 691,-88.5 562,-88.5"/>
<text text-anchor="start" x="570" y="-106.5" font-family="Helvetica,sans-Serif" font-size="10.00">Physics.Collision.Model.</text>
<text text-anchor="middle" x="626.5" y="-95.5" font-family="Helvetica,sans-Serif" font-size="10.00">SimplexEdge.CreateEdge</text>
</a>
</g>
</g>
<!-- Node12&#45;&gt;Node13 -->
<g id="edge12" class="edge">
<title>Node12&#45;&gt;Node13</title>
<path fill="none" stroke="midnightblue" d="M507.56,-103.5C521.95,-103.5 537.06,-103.5 551.49,-103.5"/>
<polygon fill="midnightblue" stroke="midnightblue" points="551.86,-107 561.86,-103.5 551.86,-100 551.86,-107"/>
</g>
<!-- Node14 -->
<g id="node14" class="node">
<title>Node14</title>
<g id="a_node14"><a xlink:href="class_physics_1_1_physics_cache_pool.html#a912bb4bf46c20c664294e5387a7b7d6f" target="_top" xlink:title=" ">
<polygon fill="white" stroke="black" points="765.5,-32.5 765.5,-62.5 906.5,-62.5 906.5,-32.5 765.5,-32.5"/>
<text text-anchor="start" x="773.5" y="-50.5" font-family="Helvetica,sans-Serif" font-size="10.00">Physics.PhysicsCachePool.</text>
<text text-anchor="middle" x="836" y="-39.5" font-family="Helvetica,sans-Serif" font-size="10.00">RecycleEdge</text>
</a>
</g>
</g>
<!-- Node12&#45;&gt;Node14 -->
<g id="edge15" class="edge">
<title>Node12&#45;&gt;Node14</title>
<path fill="none" stroke="midnightblue" d="M499.06,-88.48C514.38,-85.21 530.72,-81.99 546,-79.5 616.27,-68.04 696.82,-59.5 755.01,-54.13"/>
<polygon fill="midnightblue" stroke="midnightblue" points="755.6,-57.59 765.24,-53.2 754.96,-50.62 755.6,-57.59"/>
</g>
<!-- Node13&#45;&gt;Node9 -->
<g id="edge13" class="edge">
<title>Node13&#45;&gt;Node9</title>
<path fill="none" stroke="midnightblue" d="M691.17,-107.18C711.34,-108.35 733.89,-109.65 755.05,-110.88"/>
<polygon fill="midnightblue" stroke="midnightblue" points="755.13,-114.39 765.31,-111.47 755.53,-107.4 755.13,-114.39"/>
</g>
<!-- Node13&#45;&gt;Node10 -->
<g id="edge14" class="edge">
<title>Node13&#45;&gt;Node10</title>
<path fill="none" stroke="midnightblue" d="M678.74,-118.5C688.22,-121.59 697.97,-124.98 707,-128.5 737.72,-140.47 771.45,-156.4 796.56,-168.84"/>
<polygon fill="midnightblue" stroke="midnightblue" points="795.24,-172.08 805.75,-173.42 798.36,-165.82 795.24,-172.08"/>
</g>
<!-- Node16 -->
<g id="node16" class="node">
<title>Node16</title>
<g id="a_node16"><a xlink:href="class_physics_1_1_collision_1_1_model_1_1_simplex_edge.html#a422d4d80fc2c4205af1f96abcec05a67" target="_top" xlink:title=" ">
<polygon fill="white" stroke="black" points="564,-0.5 564,-30.5 689,-30.5 689,-0.5 564,-0.5"/>
<text text-anchor="start" x="572" y="-18.5" font-family="Helvetica,sans-Serif" font-size="10.00">Physics.Collision.Model.</text>
<text text-anchor="middle" x="626.5" y="-7.5" font-family="Helvetica,sans-Serif" font-size="10.00">SimplexEdge.Clear</text>
</a>
</g>
</g>
<!-- Node15&#45;&gt;Node16 -->
<g id="edge18" class="edge">
<title>Node15&#45;&gt;Node16</title>
<path fill="none" stroke="midnightblue" d="M504.58,-28.19C520.54,-26.52 537.53,-24.74 553.58,-23.05"/>
<polygon fill="midnightblue" stroke="midnightblue" points="554.4,-26.48 563.98,-21.96 553.67,-19.52 554.4,-26.48"/>
</g>
<!-- Node16&#45;&gt;Node14 -->
<g id="edge19" class="edge">
<title>Node16&#45;&gt;Node14</title>
<path fill="none" stroke="midnightblue" d="M689.2,-25.01C709.91,-28.21 733.33,-31.82 755.23,-35.2"/>
<polygon fill="midnightblue" stroke="midnightblue" points="754.76,-38.67 765.17,-36.73 755.83,-31.75 754.76,-38.67"/>
</g>
<!-- Node18 -->
<g id="node18" class="node">
<title>Node18</title>
<g id="a_node18"><a xlink:href="class_physics_1_1_collision_1_1_collision_object.html#a28cc343d91add7b15402133b83d76b27" target="_top" xlink:title=" ">
<polygon fill="white" stroke="black" points="555,-279.5 555,-309.5 698,-309.5 698,-279.5 555,-279.5"/>
<text text-anchor="start" x="563" y="-297.5" font-family="Helvetica,sans-Serif" font-size="10.00">Physics.Collision.Collision</text>
<text text-anchor="middle" x="626.5" y="-286.5" font-family="Helvetica,sans-Serif" font-size="10.00">Object.GetFarthestPointInDir</text>
</a>
</g>
</g>
<!-- Node17&#45;&gt;Node18 -->
<g id="edge21" class="edge">
<title>Node17&#45;&gt;Node18</title>
<path fill="none" stroke="midnightblue" d="M510.02,-294.5C521.45,-294.5 533.3,-294.5 544.85,-294.5"/>
<polygon fill="midnightblue" stroke="midnightblue" points="544.9,-298 554.9,-294.5 544.9,-291 544.9,-298"/>
</g>
<!-- Node19&#45;&gt;Node4 -->
<g id="edge24" class="edge">
<title>Node19&#45;&gt;Node4</title>
<path fill="none" stroke="midnightblue" d="M322.24,-353.39C333.04,-351.94 344.28,-350.43 355.29,-348.95"/>
<polygon fill="midnightblue" stroke="midnightblue" points="355.86,-352.4 365.31,-347.6 354.93,-345.47 355.86,-352.4"/>
</g>
<!-- Node19&#45;&gt;Node5 -->
<g id="edge25" class="edge">
<title>Node19&#45;&gt;Node5</title>
<path fill="none" stroke="midnightblue" d="M260.78,-372.3C275.01,-393.47 312.08,-443.07 358,-461.5 420.7,-486.66 443.85,-475.2 510,-461.5 538.08,-455.68 567.73,-442.69 589.95,-431.4"/>
<polygon fill="midnightblue" stroke="midnightblue" points="591.74,-434.42 599,-426.7 588.51,-428.21 591.74,-434.42"/>
</g>
<!-- Node19&#45;&gt;Node17 -->
<g id="edge27" class="edge">
<title>Node19&#45;&gt;Node17</title>
<path fill="none" stroke="midnightblue" d="M272.79,-352.83C293.16,-342.35 327.27,-325.63 358,-314.5 365.75,-311.69 374.07,-309.09 382.26,-306.75"/>
<polygon fill="midnightblue" stroke="midnightblue" points="383.41,-310.06 392.12,-304.03 381.55,-303.31 383.41,-310.06"/>
</g>
<!-- Node20 -->
<g id="node20" class="node">
<title>Node20</title>
<g id="a_node20"><a xlink:href="class_physics_1_1_physics_world.html#adf7766abbfb94bb041d38b3d7209dcba" target="_top" xlink:title=" ">
<polygon fill="white" stroke="black" points="365.5,-421.5 365.5,-451.5 502.5,-451.5 502.5,-421.5 365.5,-421.5"/>
<text text-anchor="start" x="373.5" y="-439.5" font-family="Helvetica,sans-Serif" font-size="10.00">Physics.PhysicsWorld.Find</text>
<text text-anchor="middle" x="434" y="-428.5" font-family="Helvetica,sans-Serif" font-size="10.00">FirstDirection</text>
</a>
</g>
</g>
<!-- Node19&#45;&gt;Node20 -->
<g id="edge23" class="edge">
<title>Node19&#45;&gt;Node20</title>
<path fill="none" stroke="midnightblue" d="M272.47,-372.14C292.85,-382.84 327.24,-400.22 358,-412.5 362.8,-414.42 367.81,-416.29 372.88,-418.09"/>
<polygon fill="midnightblue" stroke="midnightblue" points="372.03,-421.5 382.63,-421.46 374.32,-414.88 372.03,-421.5"/>
</g>
<!-- Node21 -->
<g id="node21" class="node">
<title>Node21</title>
<g id="a_node21"><a xlink:href="class_physics_1_1_physics_tool.html#a87ade42d134664139753a2fe7da7e7a9" target="_top" xlink:title="检查点是否在三角形内">
<polygon fill="white" stroke="black" points="363,-372.5 363,-402.5 505,-402.5 505,-372.5 363,-372.5"/>
<text text-anchor="start" x="371" y="-390.5" font-family="Helvetica,sans-Serif" font-size="10.00">Physics.PhysicsTool.IsPoint</text>
<text text-anchor="middle" x="434" y="-379.5" font-family="Helvetica,sans-Serif" font-size="10.00">InTriangle</text>
</a>
</g>
</g>
<!-- Node19&#45;&gt;Node21 -->
<g id="edge26" class="edge">
<title>Node19&#45;&gt;Node21</title>
<path fill="none" stroke="midnightblue" d="M322.24,-371.99C332.22,-373.39 342.59,-374.84 352.8,-376.27"/>
<polygon fill="midnightblue" stroke="midnightblue" points="352.55,-379.77 362.93,-377.69 353.52,-372.83 352.55,-379.77"/>
</g>
</g>
</svg>
