<?xml version="1.0" encoding="UTF-8" standalone="no"?>
<!DOCTYPE svg PUBLIC "-//W3C//DTD SVG 1.1//EN"
 "http://www.w3.org/Graphics/SVG/1.1/DTD/svg11.dtd">
<!-- Generated by graphviz version 2.50.0 (20211204.2007)
 -->
<!-- Title: Physics.Collision.Model.SimplexEdge.CreateEdge Pages: 1 -->
<svg width="313pt" height="88pt"
 viewBox="0.00 0.00 313.00 88.00" xmlns="http://www.w3.org/2000/svg" xmlns:xlink="http://www.w3.org/1999/xlink">
<g id="graph0" class="graph" transform="scale(1 1) rotate(0) translate(4 84)">
<title>Physics.Collision.Model.SimplexEdge.CreateEdge</title>
<polygon fill="white" stroke="transparent" points="-4,4 -4,-84 309,-84 309,4 -4,4"/>
<!-- Node1 -->
<g id="node1" class="node">
<title>Node1</title>
<g id="a_node1"><a xlink:title=" ">
<polygon fill="#bfbfbf" stroke="black" points="0,-24.5 0,-54.5 129,-54.5 129,-24.5 0,-24.5"/>
<text text-anchor="start" x="8" y="-42.5" font-family="Helvetica,sans-Serif" font-size="10.00">Physics.Collision.Model.</text>
<text text-anchor="middle" x="64.5" y="-31.5" font-family="Helvetica,sans-Serif" font-size="10.00">SimplexEdge.CreateEdge</text>
</a>
</g>
</g>
<!-- Node2 -->
<g id="node2" class="node">
<title>Node2</title>
<g id="a_node2"><a xlink:href="class_physics_1_1_tool_1_1_physics_cache_pool.html#a5632346a5a6c8029427ce1ec41cc1edc" target="_top" xlink:title=" ">
<polygon fill="white" stroke="black" points="165,-49.5 165,-79.5 305,-79.5 305,-49.5 165,-49.5"/>
<text text-anchor="start" x="173" y="-67.5" font-family="Helvetica,sans-Serif" font-size="10.00">Physics.Tool.PhysicsCache</text>
<text text-anchor="middle" x="235" y="-56.5" font-family="Helvetica,sans-Serif" font-size="10.00">Pool.GetEdgeFromPool</text>
</a>
</g>
</g>
<!-- Node1&#45;&gt;Node2 -->
<g id="edge1" class="edge">
<title>Node1&#45;&gt;Node2</title>
<path fill="none" stroke="midnightblue" d="M129.2,-48.95C137.58,-50.19 146.24,-51.48 154.83,-52.75"/>
<polygon fill="midnightblue" stroke="midnightblue" points="154.45,-56.24 164.86,-54.24 155.48,-49.31 154.45,-56.24"/>
</g>
<!-- Node3 -->
<g id="node3" class="node">
<title>Node3</title>
<g id="a_node3"><a xlink:href="class_physics_1_1_tool_1_1_physics_tool.html#ae7347b7ed11fb2a7a4e78afe07d8a4d2" target="_top" xlink:title=" ">
<polygon fill="white" stroke="black" points="169,-0.5 169,-30.5 301,-30.5 301,-0.5 169,-0.5"/>
<text text-anchor="start" x="177" y="-18.5" font-family="Helvetica,sans-Serif" font-size="10.00">Physics.Tool.PhysicsTool.</text>
<text text-anchor="middle" x="235" y="-7.5" font-family="Helvetica,sans-Serif" font-size="10.00">GetPerpendicularToOrigin</text>
</a>
</g>
</g>
<!-- Node1&#45;&gt;Node3 -->
<g id="edge2" class="edge">
<title>Node1&#45;&gt;Node3</title>
<path fill="none" stroke="midnightblue" d="M129.2,-30.43C138.82,-29.06 148.81,-27.63 158.64,-26.23"/>
<polygon fill="midnightblue" stroke="midnightblue" points="159.4,-29.66 168.81,-24.79 158.41,-22.73 159.4,-29.66"/>
</g>
</g>
</svg>
