<?xml version="1.0" encoding="UTF-8" standalone="no"?>
<!DOCTYPE svg PUBLIC "-//W3C//DTD SVG 1.1//EN"
 "http://www.w3.org/Graphics/SVG/1.1/DTD/svg11.dtd">
<!-- Generated by graphviz version 2.50.0 (20211204.2007)
 -->
<!-- Title: Physics.Collision.Model.AABB.Apply Pages: 1 -->
<svg width="1410pt" height="218pt"
 viewBox="0.00 0.00 1410.00 218.00" xmlns="http://www.w3.org/2000/svg" xmlns:xlink="http://www.w3.org/1999/xlink">
<g id="graph0" class="graph" transform="scale(1 1) rotate(0) translate(4 214)">
<title>Physics.Collision.Model.AABB.Apply</title>
<polygon fill="white" stroke="transparent" points="-4,4 -4,-214 1406,-214 1406,4 -4,4"/>
<!-- Node1 -->
<g id="node1" class="node">
<title>Node1</title>
<g id="a_node1"><a xlink:title=" ">
<polygon fill="#bfbfbf" stroke="black" points="1277,-152 1277,-182 1402,-182 1402,-152 1277,-152"/>
<text text-anchor="start" x="1285" y="-170" font-family="Helvetica,sans-Serif" font-size="10.00">Physics.Collision.Model.</text>
<text text-anchor="middle" x="1339.5" y="-159" font-family="Helvetica,sans-Serif" font-size="10.00">AABB.Apply</text>
</a>
</g>
</g>
<!-- Node2 -->
<g id="node2" class="node">
<title>Node2</title>
<g id="a_node2"><a xlink:href="class_physics_1_1_collision_1_1_model_1_1_a_a_b_b.html#a4ca285ee7240381f104b495d3f46e5d2" target="_top" xlink:title=" ">
<polygon fill="white" stroke="black" points="1106.5,-177 1106.5,-207 1231.5,-207 1231.5,-177 1106.5,-177"/>
<text text-anchor="start" x="1114.5" y="-195" font-family="Helvetica,sans-Serif" font-size="10.00">Physics.Collision.Model.</text>
<text text-anchor="middle" x="1169" y="-184" font-family="Helvetica,sans-Serif" font-size="10.00">AABB.AABB</text>
</a>
</g>
</g>
<!-- Node1&#45;&gt;Node2 -->
<g id="edge1" class="edge">
<title>Node1&#45;&gt;Node2</title>
<path fill="none" stroke="midnightblue" d="M1266.63,-177.66C1255.03,-179.38 1243.11,-181.15 1231.78,-182.83"/>
<polygon fill="midnightblue" stroke="midnightblue" points="1267.34,-181.1 1276.71,-176.17 1266.31,-174.17 1267.34,-181.1"/>
</g>
<!-- Node3 -->
<g id="node3" class="node">
<title>Node3</title>
<g id="a_node3"><a xlink:href="class_physics_1_1_collision_1_1_shape_1_1_collision_shape.html#ab236eb056356a1dd7e657c4154a58441" target="_top" xlink:title=" ">
<polygon fill="white" stroke="black" points="1097,-128 1097,-158 1241,-158 1241,-128 1097,-128"/>
<text text-anchor="start" x="1105" y="-146" font-family="Helvetica,sans-Serif" font-size="10.00">Physics.Collision.Shape.</text>
<text text-anchor="middle" x="1169" y="-135" font-family="Helvetica,sans-Serif" font-size="10.00">CollisionShape.UpdateShape</text>
</a>
</g>
</g>
<!-- Node1&#45;&gt;Node3 -->
<g id="edge2" class="edge">
<title>Node1&#45;&gt;Node3</title>
<path fill="none" stroke="midnightblue" d="M1266.57,-156.75C1258.16,-155.56 1249.59,-154.34 1241.19,-153.14"/>
<polygon fill="midnightblue" stroke="midnightblue" points="1266.32,-160.25 1276.71,-158.2 1267.31,-153.32 1266.32,-160.25"/>
</g>
<!-- Node4 -->
<g id="node4" class="node">
<title>Node4</title>
<g id="a_node4"><a xlink:href="class_physics_1_1_collision_1_1_shape_1_1_collision_shape.html#aa2888c2955c43fcd2adb654e88db7183" target="_top" xlink:title=" ">
<polygon fill="white" stroke="black" points="891,-150 891,-180 1061,-180 1061,-150 891,-150"/>
<text text-anchor="start" x="899" y="-168" font-family="Helvetica,sans-Serif" font-size="10.00">Physics.Collision.Shape.</text>
<text text-anchor="middle" x="976" y="-157" font-family="Helvetica,sans-Serif" font-size="10.00">CollisionShape.ApplyWorldVertices</text>
</a>
</g>
</g>
<!-- Node3&#45;&gt;Node4 -->
<g id="edge3" class="edge">
<title>Node3&#45;&gt;Node4</title>
<path fill="none" stroke="midnightblue" d="M1086.93,-152.34C1078.38,-153.32 1069.67,-154.33 1061.08,-155.32"/>
<polygon fill="midnightblue" stroke="midnightblue" points="1087.34,-155.81 1096.88,-151.19 1086.54,-148.86 1087.34,-155.81"/>
</g>
<!-- Node9 -->
<g id="node9" class="node">
<title>Node9</title>
<g id="a_node9"><a xlink:href="class_physics_1_1_collision_1_1_collision_object.html#a8a0748fa64dc6f65374a9d61e7065da4" target="_top" xlink:title=" ">
<polygon fill="white" stroke="black" points="722,-106 722,-136 855,-136 855,-106 722,-106"/>
<text text-anchor="start" x="730" y="-124" font-family="Helvetica,sans-Serif" font-size="10.00">Physics.Collision.Collision</text>
<text text-anchor="middle" x="788.5" y="-113" font-family="Helvetica,sans-Serif" font-size="10.00">Object.InitCollisionObject</text>
</a>
</g>
</g>
<!-- Node3&#45;&gt;Node9 -->
<g id="edge22" class="edge">
<title>Node3&#45;&gt;Node9</title>
<path fill="none" stroke="midnightblue" d="M1086.4,-138.26C1017.29,-134.24 919.5,-128.56 855.31,-124.83"/>
<polygon fill="midnightblue" stroke="midnightblue" points="1086.62,-141.78 1096.81,-138.86 1087.03,-134.79 1086.62,-141.78"/>
</g>
<!-- Node5 -->
<g id="node5" class="node">
<title>Node5</title>
<g id="a_node5"><a xlink:href="class_physics_1_1_collision_1_1_collision_object.html#a08bb2ab0fee9cf7f7b6af438d3b2d1db" target="_top" xlink:title=" ">
<polygon fill="white" stroke="black" points="722,-161 722,-191 855,-191 855,-161 722,-161"/>
<text text-anchor="start" x="730" y="-179" font-family="Helvetica,sans-Serif" font-size="10.00">Physics.Collision.Collision</text>
<text text-anchor="middle" x="788.5" y="-168" font-family="Helvetica,sans-Serif" font-size="10.00">Object.ApplyPosition</text>
</a>
</g>
</g>
<!-- Node4&#45;&gt;Node5 -->
<g id="edge4" class="edge">
<title>Node4&#45;&gt;Node5</title>
<path fill="none" stroke="midnightblue" d="M880.8,-170.59C872.15,-171.1 863.52,-171.61 855.21,-172.1"/>
<polygon fill="midnightblue" stroke="midnightblue" points="881.16,-174.07 890.93,-169.99 880.74,-167.08 881.16,-174.07"/>
</g>
<!-- Node4&#45;&gt;Node9 -->
<g id="edge8" class="edge">
<title>Node4&#45;&gt;Node9</title>
<path fill="none" stroke="midnightblue" d="M901.74,-147.62C885.58,-143.79 868.58,-139.76 852.85,-136.03"/>
<polygon fill="midnightblue" stroke="midnightblue" points="901.14,-151.08 911.68,-149.98 902.76,-144.27 901.14,-151.08"/>
</g>
<!-- Node6 -->
<g id="node6" class="node">
<title>Node6</title>
<g id="a_node6"><a xlink:href="class_physics_1_1_physics_world.html#ab2cb96f774604513627f530a712e9003" target="_top" xlink:title=" ">
<polygon fill="white" stroke="black" points="543,-167 543,-197 686,-197 686,-167 543,-167"/>
<text text-anchor="start" x="551" y="-185" font-family="Helvetica,sans-Serif" font-size="10.00">Physics.PhysicsWorld.Apply</text>
<text text-anchor="middle" x="614.5" y="-174" font-family="Helvetica,sans-Serif" font-size="10.00">Velocity</text>
</a>
</g>
</g>
<!-- Node5&#45;&gt;Node6 -->
<g id="edge5" class="edge">
<title>Node5&#45;&gt;Node6</title>
<path fill="none" stroke="midnightblue" d="M711.75,-178.64C703.28,-178.94 694.68,-179.24 686.28,-179.53"/>
<polygon fill="midnightblue" stroke="midnightblue" points="712.11,-182.13 721.98,-178.29 711.87,-175.14 712.11,-182.13"/>
</g>
<!-- Node7 -->
<g id="node7" class="node">
<title>Node7</title>
<g id="a_node7"><a xlink:href="class_physics_1_1_physics_world.html#adc2e766cfd2414718237d76064130c7f" target="_top" xlink:title=" ">
<polygon fill="white" stroke="black" points="365,-185.5 365,-204.5 502,-204.5 502,-185.5 365,-185.5"/>
<text text-anchor="middle" x="433.5" y="-192.5" font-family="Helvetica,sans-Serif" font-size="10.00">Physics.PhysicsWorld.Tick</text>
</a>
</g>
</g>
<!-- Node6&#45;&gt;Node7 -->
<g id="edge6" class="edge">
<title>Node6&#45;&gt;Node7</title>
<path fill="none" stroke="midnightblue" d="M532.62,-187.87C522.42,-188.61 512.07,-189.37 502.1,-190.09"/>
<polygon fill="midnightblue" stroke="midnightblue" points="533.03,-191.35 542.75,-187.14 532.53,-184.37 533.03,-191.35"/>
</g>
<!-- Node8 -->
<g id="node8" class="node">
<title>Node8</title>
<g id="a_node8"><a xlink:href="class_physics_1_1_physics_world.html#a21bcd3d27cec2fa8cf00d28be40ae413" target="_top" xlink:title=" ">
<polygon fill="white" stroke="black" points="175,-190.5 175,-209.5 324,-209.5 324,-190.5 175,-190.5"/>
<text text-anchor="middle" x="249.5" y="-197.5" font-family="Helvetica,sans-Serif" font-size="10.00">Physics.PhysicsWorld.Update</text>
</a>
</g>
</g>
<!-- Node7&#45;&gt;Node8 -->
<g id="edge7" class="edge">
<title>Node7&#45;&gt;Node8</title>
<path fill="none" stroke="midnightblue" d="M354.86,-197.13C344.63,-197.41 334.17,-197.7 324.02,-197.98"/>
<polygon fill="midnightblue" stroke="midnightblue" points="355.09,-200.63 364.99,-196.85 354.9,-193.63 355.09,-200.63"/>
</g>
<!-- Node10 -->
<g id="node10" class="node">
<title>Node10</title>
<g id="a_node10"><a xlink:href="class_physics_1_1_physics_world.html#aaea6390b0eebeeffb2136b97d9e9e9a9" target="_top" xlink:title=" ">
<polygon fill="white" stroke="black" points="547,-106 547,-136 682,-136 682,-106 547,-106"/>
<text text-anchor="start" x="555" y="-124" font-family="Helvetica,sans-Serif" font-size="10.00">Physics.PhysicsWorld.Add</text>
<text text-anchor="middle" x="614.5" y="-113" font-family="Helvetica,sans-Serif" font-size="10.00">CollisionObject</text>
</a>
</g>
</g>
<!-- Node9&#45;&gt;Node10 -->
<g id="edge9" class="edge">
<title>Node9&#45;&gt;Node10</title>
<path fill="none" stroke="midnightblue" d="M711.81,-121C701.97,-121 691.94,-121 682.26,-121"/>
<polygon fill="midnightblue" stroke="midnightblue" points="711.98,-124.5 721.98,-121 711.98,-117.5 711.98,-124.5"/>
</g>
<!-- Node11 -->
<g id="node11" class="node">
<title>Node11</title>
<g id="a_node11"><a xlink:href="class_physics_1_1_physics_world.html#ab363dd228dcc50002de2762e22918637" target="_top" xlink:title=" ">
<polygon fill="white" stroke="black" points="360,-33 360,-63 507,-63 507,-33 360,-33"/>
<text text-anchor="start" x="368" y="-51" font-family="Helvetica,sans-Serif" font-size="10.00">Physics.PhysicsWorld.Create</text>
<text text-anchor="middle" x="433.5" y="-40" font-family="Helvetica,sans-Serif" font-size="10.00">ACustomShape</text>
</a>
</g>
</g>
<!-- Node10&#45;&gt;Node11 -->
<g id="edge10" class="edge">
<title>Node10&#45;&gt;Node11</title>
<path fill="none" stroke="midnightblue" d="M574.07,-101.58C554.18,-92.12 529.56,-80.89 507,-72 499.23,-68.94 490.89,-65.93 482.74,-63.13"/>
<polygon fill="midnightblue" stroke="midnightblue" points="572.6,-104.76 583.13,-105.93 575.63,-98.45 572.6,-104.76"/>
</g>
<!-- Node15 -->
<g id="node15" class="node">
<title>Node15</title>
<g id="a_node15"><a xlink:href="class_physics_1_1_physics_world.html#af93edd393b2391e14a2cfc4331ebf791" target="_top" xlink:title=" ">
<polygon fill="white" stroke="black" points="360,-131 360,-161 507,-161 507,-131 360,-131"/>
<text text-anchor="start" x="368" y="-149" font-family="Helvetica,sans-Serif" font-size="10.00">Physics.PhysicsWorld.Create</text>
<text text-anchor="middle" x="433.5" y="-138" font-family="Helvetica,sans-Serif" font-size="10.00">ATestCircle</text>
</a>
</g>
</g>
<!-- Node10&#45;&gt;Node15 -->
<g id="edge14" class="edge">
<title>Node10&#45;&gt;Node15</title>
<path fill="none" stroke="midnightblue" d="M536.74,-131.72C526.94,-133.09 516.94,-134.49 507.22,-135.84"/>
<polygon fill="midnightblue" stroke="midnightblue" points="537.43,-135.16 546.85,-130.31 536.46,-128.23 537.43,-135.16"/>
</g>
<!-- Node17 -->
<g id="node17" class="node">
<title>Node17</title>
<g id="a_node17"><a xlink:href="class_physics_1_1_physics_world.html#a54d320d6dc2c69449f0d83f746382a21" target="_top" xlink:title=" ">
<polygon fill="white" stroke="black" points="360,-82 360,-112 507,-112 507,-82 360,-82"/>
<text text-anchor="start" x="368" y="-100" font-family="Helvetica,sans-Serif" font-size="10.00">Physics.PhysicsWorld.Create</text>
<text text-anchor="middle" x="433.5" y="-89" font-family="Helvetica,sans-Serif" font-size="10.00">ATestRect</text>
</a>
</g>
</g>
<!-- Node10&#45;&gt;Node17 -->
<g id="edge17" class="edge">
<title>Node10&#45;&gt;Node17</title>
<path fill="none" stroke="midnightblue" d="M536.74,-110.71C526.94,-109.39 516.94,-108.05 507.22,-106.75"/>
<polygon fill="midnightblue" stroke="midnightblue" points="536.47,-114.2 546.85,-112.06 537.4,-107.27 536.47,-114.2"/>
</g>
<!-- Node12 -->
<g id="node12" class="node">
<title>Node12</title>
<g id="a_node12"><a xlink:href="class_physics_1_1_physics_world.html#a00da1d0a80a537bf0f30ec9a1f00cbd6" target="_top" xlink:title=" ">
<polygon fill="white" stroke="black" points="178.5,-38.5 178.5,-57.5 320.5,-57.5 320.5,-38.5 178.5,-38.5"/>
<text text-anchor="middle" x="249.5" y="-45.5" font-family="Helvetica,sans-Serif" font-size="10.00">Physics.PhysicsWorld.Test1</text>
</a>
</g>
</g>
<!-- Node11&#45;&gt;Node12 -->
<g id="edge11" class="edge">
<title>Node11&#45;&gt;Node12</title>
<path fill="none" stroke="midnightblue" d="M349.75,-48C340.05,-48 330.23,-48 320.73,-48"/>
<polygon fill="midnightblue" stroke="midnightblue" points="349.78,-51.5 359.78,-48 349.78,-44.5 349.78,-51.5"/>
</g>
<!-- Node13 -->
<g id="node13" class="node">
<title>Node13</title>
<g id="a_node13"><a xlink:href="class_physics_1_1_physics_world.html#a23a499269c2dba922ca4a81579b244ae" target="_top" xlink:title=" ">
<polygon fill="white" stroke="black" points="178.5,-114.5 178.5,-133.5 320.5,-133.5 320.5,-114.5 178.5,-114.5"/>
<text text-anchor="middle" x="249.5" y="-121.5" font-family="Helvetica,sans-Serif" font-size="10.00">Physics.PhysicsWorld.Test3</text>
</a>
</g>
</g>
<!-- Node11&#45;&gt;Node13 -->
<g id="edge12" class="edge">
<title>Node11&#45;&gt;Node13</title>
<path fill="none" stroke="midnightblue" d="M368.92,-67.26C365.85,-68.74 362.86,-70.32 360,-72 341.28,-82.99 343.07,-94.64 324,-105 316.93,-108.84 309.06,-111.92 301.17,-114.4"/>
<polygon fill="midnightblue" stroke="midnightblue" points="370.6,-70.34 378.32,-63.09 367.76,-63.94 370.6,-70.34"/>
</g>
<!-- Node14 -->
<g id="node14" class="node">
<title>Node14</title>
<g id="a_node14"><a xlink:href="class_physics_1_1_physics_world.html#a93898e81cc80ba83e62de6af1cb9f2ab" target="_top" xlink:title=" ">
<polygon fill="white" stroke="black" points="178.5,-0.5 178.5,-19.5 320.5,-19.5 320.5,-0.5 178.5,-0.5"/>
<text text-anchor="middle" x="249.5" y="-7.5" font-family="Helvetica,sans-Serif" font-size="10.00">Physics.PhysicsWorld.Test4</text>
</a>
</g>
</g>
<!-- Node11&#45;&gt;Node14 -->
<g id="edge13" class="edge">
<title>Node11&#45;&gt;Node14</title>
<path fill="none" stroke="midnightblue" d="M350.54,-30.89C331.8,-26.98 312.55,-22.96 296,-19.5"/>
<polygon fill="midnightblue" stroke="midnightblue" points="350.06,-34.36 360.57,-32.98 351.5,-27.51 350.06,-34.36"/>
</g>
<!-- Node15&#45;&gt;Node13 -->
<g id="edge16" class="edge">
<title>Node15&#45;&gt;Node13</title>
<path fill="none" stroke="midnightblue" d="M349.75,-136C340.05,-134.82 330.23,-133.64 320.73,-132.49"/>
<polygon fill="midnightblue" stroke="midnightblue" points="349.44,-139.48 359.78,-137.21 350.28,-132.54 349.44,-139.48"/>
</g>
<!-- Node16 -->
<g id="node16" class="node">
<title>Node16</title>
<g id="a_node16"><a xlink:href="class_physics_1_1_physics_world.html#a3e682ad39d73a462476dcc8cf707b4b7" target="_top" xlink:title=" ">
<polygon fill="white" stroke="black" points="178.5,-152.5 178.5,-171.5 320.5,-171.5 320.5,-152.5 178.5,-152.5"/>
<text text-anchor="middle" x="249.5" y="-159.5" font-family="Helvetica,sans-Serif" font-size="10.00">Physics.PhysicsWorld.Test2</text>
</a>
</g>
</g>
<!-- Node15&#45;&gt;Node16 -->
<g id="edge15" class="edge">
<title>Node15&#45;&gt;Node16</title>
<path fill="none" stroke="midnightblue" d="M349.75,-153.28C340.05,-154.13 330.23,-154.99 320.73,-155.83"/>
<polygon fill="midnightblue" stroke="midnightblue" points="350.13,-156.75 359.78,-152.39 349.52,-149.78 350.13,-156.75"/>
</g>
<!-- Node17&#45;&gt;Node12 -->
<g id="edge20" class="edge">
<title>Node17&#45;&gt;Node12</title>
<path fill="none" stroke="midnightblue" d="M368.74,-79.18C354.06,-75.13 338.5,-70.88 324,-67 312.29,-63.87 299.5,-60.53 287.92,-57.54"/>
<polygon fill="midnightblue" stroke="midnightblue" points="368.17,-82.65 378.74,-81.94 370.04,-75.91 368.17,-82.65"/>
</g>
<!-- Node17&#45;&gt;Node13 -->
<g id="edge21" class="edge">
<title>Node17&#45;&gt;Node13</title>
<path fill="none" stroke="midnightblue" d="M349.89,-109.26C338.04,-111.01 326,-112.8 314.58,-114.49"/>
<polygon fill="midnightblue" stroke="midnightblue" points="350.41,-112.72 359.78,-107.79 349.38,-105.79 350.41,-112.72"/>
</g>
<!-- Node18 -->
<g id="node18" class="node">
<title>Node18</title>
<g id="a_node18"><a xlink:href="class_physics_1_1_physics_world.html#adf5c68828b28299a9d85e6dd326a1653" target="_top" xlink:title=" ">
<polygon fill="white" stroke="black" points="178.5,-76.5 178.5,-95.5 320.5,-95.5 320.5,-76.5 178.5,-76.5"/>
<text text-anchor="middle" x="249.5" y="-83.5" font-family="Helvetica,sans-Serif" font-size="10.00">Physics.PhysicsWorld.Test0</text>
</a>
</g>
</g>
<!-- Node17&#45;&gt;Node18 -->
<g id="edge18" class="edge">
<title>Node17&#45;&gt;Node18</title>
<path fill="none" stroke="midnightblue" d="M349.75,-92C340.05,-91.41 330.23,-90.82 320.73,-90.24"/>
<polygon fill="midnightblue" stroke="midnightblue" points="349.59,-95.5 359.78,-92.61 350.01,-88.51 349.59,-95.5"/>
</g>
<!-- Node19 -->
<g id="node19" class="node">
<title>Node19</title>
<g id="a_node19"><a xlink:href="class_physics_1_1_physics_world.html#a8604509cc962bc5d9c3f4089b06f94b2" target="_top" xlink:title=" ">
<polygon fill="white" stroke="black" points="0,-76.5 0,-95.5 139,-95.5 139,-76.5 0,-76.5"/>
<text text-anchor="middle" x="69.5" y="-83.5" font-family="Helvetica,sans-Serif" font-size="10.00">Physics.PhysicsWorld.Start</text>
</a>
</g>
</g>
<!-- Node18&#45;&gt;Node19 -->
<g id="edge19" class="edge">
<title>Node18&#45;&gt;Node19</title>
<path fill="none" stroke="midnightblue" d="M168.31,-86C158.55,-86 148.64,-86 139.07,-86"/>
<polygon fill="midnightblue" stroke="midnightblue" points="168.41,-89.5 178.41,-86 168.41,-82.5 168.41,-89.5"/>
</g>
</g>
</svg>
