<?xml version="1.0" encoding="UTF-8" standalone="no"?>
<!DOCTYPE svg PUBLIC "-//W3C//DTD SVG 1.1//EN"
 "http://www.w3.org/Graphics/SVG/1.1/DTD/svg11.dtd">
<!-- Generated by graphviz version 2.50.0 (20211204.2007)
 -->
<!-- Title: /Users/zhuangshaokun/Documents/git/campfire/2dcollisiondetection/Assets/Scripts Pages: 1 -->
<svg width="326pt" height="111pt"
 viewBox="0.00 0.00 326.00 111.00" xmlns="http://www.w3.org/2000/svg" xmlns:xlink="http://www.w3.org/1999/xlink">
<g id="graph0" class="graph" transform="scale(1 1) rotate(0) translate(4 107)">
<title>/Users/zhuangshaokun/Documents/git/campfire/2dcollisiondetection/Assets/Scripts</title>
<polygon fill="white" stroke="transparent" points="-4,4 -4,-107 322,-107 322,4 -4,4"/>
<g id="clust1" class="cluster">
<title>clusterdir_84bbf7b3c7f28a5a18725745e1505219</title>
<g id="a_clust1"><a xlink:href="dir_84bbf7b3c7f28a5a18725745e1505219.html" target="_top" xlink:title="Assets">
<polygon fill="#edf0f7" stroke="#404040" stroke-dasharray="5,2" points="8,-8 8,-95 310,-95 310,-8 8,-8"/>
<text text-anchor="middle" x="159" y="-83" font-family="Helvetica,sans-Serif" font-size="10.00">Assets</text>
</a>
</g>
</g>
<g id="clust2" class="cluster">
<title>clusterdir_f13b41af88cf68434578284aaf699e39</title>
<g id="a_clust2"><a xlink:href="dir_f13b41af88cf68434578284aaf699e39.html" target="_top">
<polygon fill="#edf0f7" stroke="#404040" stroke-width="2" points="16,-16 16,-68 302,-68 302,-16 16,-16"/>
</a>
</g>
</g>
<!-- dir_f13b41af88cf68434578284aaf699e39 -->
<g id="node1" class="node">
<title>dir_f13b41af88cf68434578284aaf699e39</title>
<text text-anchor="middle" x="267" y="-39.5" font-family="Helvetica,sans-Serif" font-size="10.00">Scripts</text>
</g>
<!-- dir_be7584f652b1471a47a92f7d8d812f15 -->
<g id="node2" class="node">
<title>dir_be7584f652b1471a47a92f7d8d812f15</title>
<g id="a_node2"><a xlink:href="dir_be7584f652b1471a47a92f7d8d812f15.html" target="_top" xlink:title="Collision">
<polygon fill="#a2b4d6" stroke="#404040" points="222,-60 168,-60 168,-24 222,-24 222,-60"/>
<text text-anchor="middle" x="195" y="-39.5" font-family="Helvetica,sans-Serif" font-size="10.00">Collision</text>
</a>
</g>
</g>
<!-- dir_9fd87c46a0a97f569b4a9cb29e0fb9e5 -->
<g id="node3" class="node">
<title>dir_9fd87c46a0a97f569b4a9cb29e0fb9e5</title>
<g id="a_node3"><a xlink:href="dir_9fd87c46a0a97f569b4a9cb29e0fb9e5.html" target="_top" xlink:title="Test">
<polygon fill="#a2b4d6" stroke="#404040" points="150,-60 96,-60 96,-24 150,-24 150,-60"/>
<text text-anchor="middle" x="123" y="-39.5" font-family="Helvetica,sans-Serif" font-size="10.00">Test</text>
</a>
</g>
</g>
<!-- dir_53a34ab1bb880b52ca8c024b087efb6f -->
<g id="node4" class="node">
<title>dir_53a34ab1bb880b52ca8c024b087efb6f</title>
<g id="a_node4"><a xlink:href="dir_53a34ab1bb880b52ca8c024b087efb6f.html" target="_top" xlink:title="Tool">
<polygon fill="#a2b4d6" stroke="#404040" points="78,-60 24,-60 24,-24 78,-24 78,-60"/>
<text text-anchor="middle" x="51" y="-39.5" font-family="Helvetica,sans-Serif" font-size="10.00">Tool</text>
</a>
</g>
</g>
</g>
</svg>
