<?xml version="1.0" encoding="UTF-8" standalone="no"?>
<!DOCTYPE svg PUBLIC "-//W3C//DTD SVG 1.1//EN"
 "http://www.w3.org/Graphics/SVG/1.1/DTD/svg11.dtd">
<!-- Generated by graphviz version 2.50.0 (20211204.2007)
 -->
<!-- Title: 类继承关系图 Pages: 1 -->
<svg width="305pt" height="78pt"
 viewBox="0.00 0.00 305.00 77.50" xmlns="http://www.w3.org/2000/svg" xmlns:xlink="http://www.w3.org/1999/xlink">
<g id="graph0" class="graph" transform="scale(1 1) rotate(0) translate(4 73.5)">
<title>类继承关系图</title>
<polygon fill="white" stroke="transparent" points="-4,4 -4,-73.5 301,-73.5 301,4 -4,4"/>
<!-- Node0 -->
<g id="node1" class="node">
<title>Node0</title>
<g id="a_node1"><a xlink:href="interface_physics_1_1_i_physics_world.html" target="_top" xlink:title=" ">
<polygon fill="white" stroke="black" points="0,-50 0,-69 118,-69 118,-50 0,-50"/>
<text text-anchor="middle" x="59" y="-57" font-family="Helvetica,sans-Serif" font-size="10.00">Physics.IPhysicsWorld</text>
</a>
</g>
</g>
<!-- Node1 -->
<g id="node2" class="node">
<title>Node1</title>
<g id="a_node2"><a xlink:href="class_physics_1_1_physics_world.html" target="_top" xlink:title=" ">
<polygon fill="white" stroke="black" points="168,-50 168,-69 283,-69 283,-50 168,-50"/>
<text text-anchor="middle" x="225.5" y="-57" font-family="Helvetica,sans-Serif" font-size="10.00">Physics.PhysicsWorld</text>
</a>
</g>
</g>
<!-- Node0&#45;&gt;Node1 -->
<g id="edge1" class="edge">
<title>Node0&#45;&gt;Node1</title>
<path fill="none" stroke="midnightblue" d="M128.78,-59.5C141.8,-59.5 155.29,-59.5 167.88,-59.5"/>
<polygon fill="midnightblue" stroke="midnightblue" points="128.46,-56 118.46,-59.5 128.46,-63 128.46,-56"/>
</g>
<!-- Node2 -->
<g id="node3" class="node">
<title>Node2</title>
<g id="a_node3"><a xlink:title=" ">
<polygon fill="white" stroke="#bfbfbf" points="17,-9 17,-28 101,-28 101,-9 17,-9"/>
<text text-anchor="middle" x="59" y="-16" font-family="Helvetica,sans-Serif" font-size="10.00">MonoBehaviour</text>
</a>
</g>
</g>
<!-- Node2&#45;&gt;Node1 -->
<g id="edge2" class="edge">
<title>Node2&#45;&gt;Node1</title>
<path fill="none" stroke="midnightblue" d="M108.12,-30.49C133.02,-36.7 162.98,-44.17 186.27,-49.97"/>
<polygon fill="midnightblue" stroke="midnightblue" points="108.7,-27.03 98.15,-28.01 107.01,-33.82 108.7,-27.03"/>
</g>
<!-- Node3 -->
<g id="node4" class="node">
<title>Node3</title>
<g id="a_node4"><a xlink:href="class_physics_1_1_test_1_1_collision_object_proxy.html" target="_top" xlink:title=" ">
<polygon fill="white" stroke="black" points="154,-0.5 154,-30.5 297,-30.5 297,-0.5 154,-0.5"/>
<text text-anchor="start" x="162" y="-18.5" font-family="Helvetica,sans-Serif" font-size="10.00">Physics.Test.CollisionObject</text>
<text text-anchor="middle" x="225.5" y="-7.5" font-family="Helvetica,sans-Serif" font-size="10.00">Proxy</text>
</a>
</g>
</g>
<!-- Node2&#45;&gt;Node3 -->
<g id="edge3" class="edge">
<title>Node2&#45;&gt;Node3</title>
<path fill="none" stroke="midnightblue" d="M111.14,-17.57C124.67,-17.32 139.52,-17.05 153.88,-16.79"/>
<polygon fill="midnightblue" stroke="midnightblue" points="111.02,-14.07 101.09,-17.75 111.15,-21.07 111.02,-14.07"/>
</g>
</g>
</svg>
