<?xml version="1.0" encoding="UTF-8" standalone="no"?>
<!DOCTYPE svg PUBLIC "-//W3C//DTD SVG 1.1//EN"
 "http://www.w3.org/Graphics/SVG/1.1/DTD/svg11.dtd">
<!-- Generated by graphviz version 2.50.0 (20211204.2007)
 -->
<!-- Title: 类继承关系图 Pages: 1 -->
<svg width="317pt" height="127pt"
 viewBox="0.00 0.00 317.00 126.50" xmlns="http://www.w3.org/2000/svg" xmlns:xlink="http://www.w3.org/1999/xlink">
<g id="graph0" class="graph" transform="scale(1 1) rotate(0) translate(4 122.5)">
<title>类继承关系图</title>
<polygon fill="white" stroke="transparent" points="-4,4 -4,-122.5 313,-122.5 313,4 -4,4"/>
<!-- Node0 -->
<g id="node1" class="node">
<title>Node0</title>
<g id="a_node1"><a xlink:href="class_physics_1_1_collision_1_1_shape_1_1_collision_shape.html" target="_top" xlink:title=" ">
<polygon fill="white" stroke="black" points="0,-39 0,-69 126,-69 126,-39 0,-39"/>
<text text-anchor="start" x="8" y="-57" font-family="Helvetica,sans-Serif" font-size="10.00">Physics.Collision.Shape.</text>
<text text-anchor="middle" x="63" y="-46" font-family="Helvetica,sans-Serif" font-size="10.00">CollisionShape</text>
</a>
</g>
</g>
<!-- Node1 -->
<g id="node2" class="node">
<title>Node1</title>
<g id="a_node2"><a xlink:href="class_physics_1_1_collision_1_1_shape_1_1_circle.html" target="_top" xlink:title=" ">
<polygon fill="white" stroke="black" points="172.5,-88 172.5,-118 298.5,-118 298.5,-88 172.5,-88"/>
<text text-anchor="start" x="180.5" y="-106" font-family="Helvetica,sans-Serif" font-size="10.00">Physics.Collision.Shape.</text>
<text text-anchor="middle" x="235.5" y="-95" font-family="Helvetica,sans-Serif" font-size="10.00">Circle</text>
</a>
</g>
</g>
<!-- Node0&#45;&gt;Node1 -->
<g id="edge1" class="edge">
<title>Node0&#45;&gt;Node1</title>
<path fill="none" stroke="midnightblue" d="M126.26,-71.89C144.6,-77.16 164.48,-82.88 182.13,-87.95"/>
<polygon fill="midnightblue" stroke="midnightblue" points="127.12,-68.5 116.55,-69.1 125.19,-75.23 127.12,-68.5"/>
</g>
<!-- Node2 -->
<g id="node3" class="node">
<title>Node2</title>
<g id="a_node3"><a xlink:href="class_physics_1_1_collision_1_1_shape_1_1_custom_shape.html" target="_top" xlink:title=" ">
<polygon fill="white" stroke="black" points="172.5,-39 172.5,-69 298.5,-69 298.5,-39 172.5,-39"/>
<text text-anchor="start" x="180.5" y="-57" font-family="Helvetica,sans-Serif" font-size="10.00">Physics.Collision.Shape.</text>
<text text-anchor="middle" x="235.5" y="-46" font-family="Helvetica,sans-Serif" font-size="10.00">CustomShape</text>
</a>
</g>
</g>
<!-- Node0&#45;&gt;Node2 -->
<g id="edge2" class="edge">
<title>Node0&#45;&gt;Node2</title>
<path fill="none" stroke="midnightblue" d="M136.04,-54C148.07,-54 160.46,-54 172.22,-54"/>
<polygon fill="midnightblue" stroke="midnightblue" points="136.04,-50.5 126.04,-54 136.04,-57.5 136.04,-50.5"/>
</g>
<!-- Node3 -->
<g id="node4" class="node">
<title>Node3</title>
<g id="a_node4"><a xlink:href="class_physics_1_1_collision_1_1_shape_1_1_rect.html" target="_top" xlink:title=" ">
<polygon fill="white" stroke="black" points="162,-0.5 162,-19.5 309,-19.5 309,-0.5 162,-0.5"/>
<text text-anchor="middle" x="235.5" y="-7.5" font-family="Helvetica,sans-Serif" font-size="10.00">Physics.Collision.Shape.Rect</text>
</a>
</g>
</g>
<!-- Node0&#45;&gt;Node3 -->
<g id="edge3" class="edge">
<title>Node0&#45;&gt;Node3</title>
<path fill="none" stroke="midnightblue" d="M132.01,-36.45C154.41,-30.67 178.47,-24.46 197.64,-19.51"/>
<polygon fill="midnightblue" stroke="midnightblue" points="131.01,-33.09 122.2,-38.98 132.76,-39.87 131.01,-33.09"/>
</g>
</g>
</svg>
